<?xml version="1.0" encoding="UTF-8" standalone="no"?>
<!-- Generator: Adobe Illustrator 16.0.0, SVG Export Plug-In . SVG Version: 6.00 Build 0)  -->

<svg
   xmlns:ns="&amp;ns_sfw;"
   xmlns:dc="http://purl.org/dc/elements/1.1/"
   xmlns:cc="http://creativecommons.org/ns#"
   xmlns:rdf="http://www.w3.org/1999/02/22-rdf-syntax-ns#"
   xmlns:svg="http://www.w3.org/2000/svg"
   xmlns="http://www.w3.org/2000/svg"
   xmlns:sodipodi="http://sodipodi.sourceforge.net/DTD/sodipodi-0.dtd"
   xmlns:inkscape="http://www.inkscape.org/namespaces/inkscape"
   version="1.0"
   id="Layer_1"
   x="0px"
   y="0px"
   width="355"
   height="302"
   viewBox="0 0 355 302"
   enable-background="new 0 0 1400 980"
   xml:space="preserve"
   sodipodi:docname="Armadillo7.svg"
   inkscape:version="0.92.3 (2405546, 2018-03-11)"><defs
   id="defs5309" /><sodipodi:namedview
   pagecolor="#ffffff"
   bordercolor="#666666"
   borderopacity="1"
   objecttolerance="10"
   gridtolerance="10"
   guidetolerance="10"
   inkscape:pageopacity="0"
   inkscape:pageshadow="2"
   inkscape:window-width="2560"
   inkscape:window-height="1395"
   id="namedview5307"
   showgrid="false"
   inkscape:zoom="0.68113143"
   inkscape:cx="536.34711"
   inkscape:cy="264.46002"
   inkscape:window-x="-13"
   inkscape:window-y="-13"
   inkscape:window-maximized="1"
   inkscape:current-layer="Layer_1" />
<metadata
   id="metadata5206">
	<ns:sfw>
		<ns:slices />
		<ns:sliceSourceBounds
   height="883.218"
   width="1265.103"
   y="-931.609"
   x="67.449"
   bottomLeftOrigin="true" />
	</ns:sfw>
<rdf:RDF><cc:Work
     rdf:about=""><dc:format>image/svg+xml</dc:format><dc:type
       rdf:resource="http://purl.org/dc/dcmitype/StillImage" /><dc:title></dc:title></cc:Work></rdf:RDF></metadata>
<g
   id="g5304"
   transform="translate(-430.16661,-633.95564)">
	<path
   d="m 771.203,800.044 c -0.354,0 -0.704,-0.234 -0.704,-0.704 0,-0.474 0.116,-1.06 0.116,-1.529 -0.234,-0.939 -0.469,-1.878 -0.821,-2.817 -1.643,-5.171 -3.877,-10.222 -6.928,-14.803 -1.412,-2.111 -3.055,-4.11 -4.82,-5.988 -0.703,-0.704 -1.407,-1.409 -2.111,-2.117 -1.76,-1.056 -3.525,-2.347 -5.167,-3.52 -2.469,-1.647 -5.052,-3.174 -7.755,-4.112 -3.172,-1.06 -6.223,-1.529 -9.631,-1.411 -0.116,0 -0.234,0 -0.353,0 -8.809,0.234 -17.736,3.406 -24.785,8.809 -0.587,0.47 -1.174,0.942 -1.76,1.413 -2.586,2.229 -4.82,4.933 -6.463,7.983 -0.938,1.765 -1.644,3.759 -1.995,5.759 -0.353,1.76 -0.353,3.643 -0.821,5.402 2.581,0.47 5.05,1.525 7.279,2.82 1.883,-3.173 4.347,-6.11 7.05,-8.575 2.934,-2.82 6.341,-5.171 10.218,-6.814 6.932,-2.938 14.682,-3.056 21.73,-0.704 8.927,2.938 16.329,9.162 21.73,16.681 3.057,4.346 5.637,9.161 7.05,14.329 0.234,0.704 0.47,1.525 0.587,2.233 -0.117,-4.111 -0.703,-8.224 -1.646,-12.335 z"
   id="path5208"
   inkscape:connector-curvature="0"
   style="fill:#b08530" />
	<path
   d="m 771.203,822.127 c -0.234,-2.586 -0.47,-5.168 -0.939,-7.637 -0.938,-4.463 -2.465,-8.574 -4.697,-12.568 -2.349,-4.111 -5.169,-7.988 -8.693,-11.273 -0.703,-0.826 -1.643,-1.53 -2.464,-2.234 -0.825,0.117 -1.412,0.704 -1.412,1.761 1.056,13.272 -0.822,26.55 -6.693,38.528 -2.234,4.815 -5.052,9.279 -8.341,13.39 0.47,1.413 1.057,2.82 1.525,4.347 0.821,2.352 1.526,4.698 2.234,7.167 1.056,3.759 1.878,7.636 2.347,11.512 0.353,3.521 0.47,7.046 0.235,10.454 -0.117,1.995 -0.353,3.876 -0.822,5.754 1.408,-0.938 2.703,-1.878 3.994,-2.934 2.229,-1.765 4.347,-3.643 6.225,-5.641 3.876,-3.878 7.048,-8.225 9.635,-13.04 4.934,-9.043 7.633,-19.378 8.927,-29.597 -0.117,-0.118 -0.117,-0.118 -0.234,-0.239 -0.944,-2.348 -0.592,-5.169 -0.827,-7.75 z"
   id="path5210"
   inkscape:connector-curvature="0"
   style="fill:#b08530" />
	<path
   d="m 739.958,865.118 v -0.355 0 c -0.117,-0.353 -0.117,-0.587 -0.234,-0.938 -0.118,-0.821 -0.235,-1.526 -0.353,-2.348 -0.352,-1.765 -0.703,-3.406 -1.173,-5.167 -0.587,-2.117 -1.174,-4.229 -1.882,-6.346 -0.352,-1.525 -0.939,-2.938 -1.409,-4.346 -3.289,3.759 -6.932,7.166 -10.804,10.335 -1.53,1.178 -3.173,2.469 -4.698,3.524 0.352,1.296 0.704,2.586 1.056,3.877 0.705,2.117 1.174,4.347 1.644,6.58 1.057,5.285 1.646,10.688 1.411,15.973 -0.12,2.586 -0.474,5.167 -1.06,7.636 -0.234,0.938 -0.47,1.878 -0.821,2.82 1.056,-0.234 2.115,-0.469 3.173,-0.703 2.464,-0.709 4.698,-1.648 6.928,-2.938 1.999,-1.291 3.994,-2.821 5.289,-4.815 0.704,-1.061 1.408,-2.116 1.878,-3.291 0.234,-0.469 0.352,-0.938 0.586,-1.407 0,-2.586 0.587,-5.055 0.704,-7.636 0.235,-3.174 0.235,-6.463 -0.117,-9.632 -10e-4,-0.235 -0.118,-0.587 -0.118,-0.823 z"
   id="path5212"
   inkscape:connector-curvature="0"
   style="fill:#b08530" />
	<path
   d="m 717.054,865.589 c -0.352,-1.296 -0.704,-2.586 -1.174,-3.877 -5.285,3.406 -11.043,6.224 -16.914,8.457 0.234,1.291 0.352,2.465 0.586,3.76 0.353,3.402 0.704,6.811 0.821,10.218 0.118,3.524 0,7.167 -0.234,10.687 -0.234,2.586 -0.353,5.172 -0.938,7.755 0.234,0.352 0.469,0.821 0.352,1.29 3.056,-0.117 6.107,-0.469 9.162,-1.408 1.998,-0.704 3.759,-1.525 5.402,-2.465 0.825,-0.474 1.529,-0.942 2.233,-1.529 0.118,-0.352 0.353,-0.586 0.704,-0.939 0.234,-0.117 0.587,-0.352 0.939,-0.469 0,-0.117 0,-0.117 0,-0.234 0.234,-0.704 0.351,-1.529 0.587,-2.234 0.234,-1.642 0.591,-3.168 0.825,-4.698 0.469,-3.407 0.469,-6.81 0.234,-10.101 -0.351,-4.818 -1.295,-9.633 -2.585,-14.213 z"
   id="path5214"
   inkscape:connector-curvature="0"
   style="fill:#b08530" />
	<path
   d="m 695.559,875.22 c -0.118,-1.174 -0.236,-2.468 -0.471,-3.76 -8.105,2.703 -16.445,4.464 -24.901,5.285 0.117,1.291 0.235,2.469 0.353,3.643 0.235,3.876 0.235,7.753 0,11.63 -0.353,5.167 -1.059,10.452 -2.467,15.503 -0.704,2.468 -1.527,4.814 -2.586,7.049 -0.469,0.705 -0.821,1.526 -1.173,2.229 0.821,-0.234 1.645,-0.234 2.349,-0.352 1.762,-0.234 3.407,-0.47 5.051,-0.704 3.172,-0.352 6.226,-0.939 9.28,-1.878 3.054,-1.06 5.872,-2.469 8.575,-4.346 1.292,-0.943 2.582,-2.117 3.642,-3.29 0.939,-1.057 1.761,-2.117 2.817,-3.056 -0.118,-0.704 -0.118,-1.291 0,-1.994 0,-1.296 0.117,-2.586 0.234,-3.761 0.118,-2.468 0.235,-4.933 0.235,-7.283 0,-4.933 -0.235,-9.982 -0.938,-14.798 0,-0.117 0,-0.117 0,-0.117 z"
   id="path5216"
   inkscape:connector-curvature="0"
   style="fill:#b08530" />
	<path
   d="m 666.311,880.739 c 0,-1.174 -0.118,-2.347 -0.234,-3.525 -0.59,0 -1.294,0 -1.88,0.117 -5.05,0.236 -10.103,0.236 -15.153,0 -0.117,1.179 -0.235,2.352 -0.353,3.525 -0.704,6.11 -1.997,12.101 -3.876,17.854 -2.467,7.519 -6.226,15.271 -11.98,21.025 0.587,0.118 1.057,0.235 1.643,0.235 1.293,0.235 2.703,0.47 3.994,0.587 2.82,0.353 5.522,0.47 8.34,0.235 2.818,-0.118 5.639,-0.704 8.34,-1.526 1.292,-0.469 2.466,-0.938 3.76,-1.644 0.352,-0.12 0.704,-0.355 1.056,-0.591 0.47,-1.173 1.056,-2.229 1.646,-3.402 0.704,-1.647 1.29,-3.29 1.879,-4.938 1.174,-3.521 1.995,-7.279 2.467,-11.038 0.702,-5.518 0.702,-11.277 0.351,-16.914 z"
   id="path5218"
   inkscape:connector-curvature="0"
   style="fill:#b08530" />
	<path
   d="m 644.345,880.505 c 0.117,-1.057 0.234,-2.229 0.352,-3.408 0.823,-9.514 0.235,-19.026 -1.41,-28.306 -2.112,-12.218 -5.989,-24.083 -11.862,-34.887 -1.293,-2.234 -2.584,-4.464 -3.877,-6.58 -1.645,-2.465 -3.405,-4.934 -5.285,-7.046 -3.053,-3.642 -6.696,-6.931 -10.455,-9.747 -10.218,-7.52 -23.729,-13.631 -36.53,-13.392 -0.237,0 -0.471,0.113 -0.706,0 -6.343,0.234 -12.569,2.112 -18.206,6.225 -0.352,0.586 -0.824,1.173 -1.293,1.759 7.636,0.705 15.27,2.939 22.2,5.877 8.223,3.402 15.859,8.219 22.554,14.094 15.153,13.392 24.549,32.184 26.546,52.271 0.587,5.755 0.587,11.509 0,17.268 -0.118,1.057 -0.352,2.229 -0.471,3.286 -0.587,3.876 -1.291,7.636 -2.347,11.396 -1.762,6.458 -3.994,12.803 -6.932,18.793 -2.701,5.523 -5.754,10.926 -9.044,16.093 1.763,0 3.525,-0.117 5.287,-0.234 2.818,-0.117 5.638,-0.587 8.338,-0.821 0.118,-0.234 0.353,-0.47 0.707,-0.705 3.053,-1.881 5.991,-3.993 8.455,-6.579 7.871,-8.223 11.513,-19.849 13.393,-30.893 0.234,-1.409 0.469,-2.94 0.586,-4.464 z"
   id="path5220"
   inkscape:connector-curvature="0"
   style="fill:#b08530" />
	<path
   d="m 622.849,877.331 c 0.234,-1.056 0.353,-2.229 0.47,-3.285 -8.573,-1.765 -17.148,-4.111 -25.371,-6.815 -21.378,-7.048 -41.699,-18.088 -57.087,-34.769 -3.172,-3.524 -6.108,-7.166 -8.809,-10.922 -1.411,-1.999 -2.703,-4.111 -4.112,-6.228 -1.175,-1.76 -2.349,-3.525 -3.29,-5.403 -0.117,0.118 -0.235,0.235 -0.352,0.354 -0.234,0.234 -0.353,0.469 -0.587,0.586 -5.05,6.11 -9.631,12.921 -12.804,20.323 -1.408,3.289 -2.466,6.576 -3.288,9.982 -2.232,9.632 -1.527,19.502 2.818,28.545 4.347,8.811 10.924,16.091 18.441,22.436 7.871,6.576 16.798,12.096 25.959,16.798 8.458,4.347 17.15,7.749 26.077,10.804 6.813,2.348 13.977,3.878 21.144,4.347 0.586,0 1.173,0 1.761,0.117 5.874,-9.279 11.629,-18.909 14.8,-29.484 1.881,-5.755 3.408,-11.509 4.23,-17.386 z"
   id="path5222"
   inkscape:connector-curvature="0"
   style="fill:#b08530" />
	<path
   d="m 766.388,755.053 c -0.118,-2.934 -0.235,-5.988 -0.471,-8.927 -1.056,-0.586 -2.229,-1.174 -3.407,-1.761 -1.29,-0.586 -2.698,-1.056 -4.11,-1.525 -5.872,-1.764 -12.684,-2.468 -18.794,-1.295 -0.117,1.765 -0.352,3.407 -0.586,5.051 -0.471,4.111 -1.174,8.457 -2.703,12.334 2.469,0.117 5.055,0.587 7.401,1.412 3.055,1.057 6.11,2.582 8.81,4.346 2.116,1.409 4.346,2.934 5.992,4.934 0.588,0.469 1.174,0.939 1.761,1.408 0.939,0.821 1.761,1.525 2.586,2.469 0.939,0.938 1.878,2.112 2.7,3.285 0.234,0.117 0.351,0.356 0.469,0.591 0.47,-3.524 0.47,-7.167 0.47,-10.69 -10e-4,-3.878 -10e-4,-7.755 -0.118,-11.632 z"
   id="path5224"
   inkscape:connector-curvature="0"
   style="fill:#fab732" />
	<path
   d="m 754.409,712.417 c -3.056,0 -6.11,0.352 -9.048,1.174 -1.409,0.352 -2.817,0.821 -4.109,1.407 -0.708,0.235 -1.528,0.471 -2.232,0.705 0.938,5.289 1.173,10.809 1.056,15.977 0,2.703 -0.117,5.284 -0.234,7.987 6.345,-1.878 13.507,-1.173 19.853,0.822 0.821,0.234 1.644,0.587 2.582,0.938 1.178,0.469 2.234,0.942 3.407,1.529 -0.234,-2.468 -0.587,-4.933 -0.938,-7.4 -1.291,-7.872 -3.407,-15.508 -6.345,-22.788 -1.174,-0.234 -2.349,-0.352 -3.521,-0.352 -0.119,10e-4 -0.354,10e-4 -0.471,10e-4 z"
   id="path5226"
   inkscape:connector-curvature="0"
   style="fill:#fab732" />
	<path
   d="m 738.668,713.825 c 0.586,-0.352 1.29,-0.703 1.995,-1.057 1.411,-0.586 2.938,-1.173 4.462,-1.529 2.821,-0.821 5.759,-1.291 8.693,-1.291 0.356,0 0.825,0 1.177,0 0.705,0 1.526,0 2.23,0.117 -0.704,-1.407 -1.291,-2.934 -2.113,-4.345 -4.463,-8.811 -10.456,-16.564 -17.384,-23.609 -0.821,0.469 -1.646,1.057 -2.469,1.525 -0.704,0.353 -1.291,0.821 -1.994,1.291 -0.943,0.592 -1.882,1.412 -2.821,2.116 -0.353,0.353 -0.704,0.704 -1.056,1.057 1.643,3.173 3.172,6.345 4.58,9.631 1.174,2.938 2.465,5.993 2.699,9.162 0.826,2.234 1.531,4.586 2.001,6.932 z"
   id="path5228"
   inkscape:connector-curvature="0"
   style="fill:#fab732" />
	<path
   d="m 733.382,681.76 c 0.705,-0.47 1.525,-1.061 2.464,-1.53 -6.223,-5.989 -13.155,-11.391 -20.317,-16.207 -1.412,-0.942 -2.821,-1.765 -4.229,-2.703 -0.469,0.704 -0.822,1.408 -1.296,2.117 0,0.117 -0.117,0.234 -0.117,0.234 -0.352,0.704 -0.703,1.407 -1.173,2.112 -0.117,0.234 -0.235,0.47 -0.352,0.587 3.642,2.351 7.283,4.815 10.452,7.753 3.876,3.524 6.932,7.637 9.518,12.1 1.057,-1.295 2.347,-2.351 3.521,-3.29 0.469,-0.353 0.942,-0.704 1.529,-1.173 z"
   id="path5230"
   inkscape:connector-curvature="0"
   style="fill:#fab732" />
	<path
   d="m 698.966,654.152 c -2.938,-1.643 -5.873,-3.168 -8.811,-4.698 -2.701,-1.291 -5.287,-2.698 -8.105,-3.759 0.47,0.943 1.058,1.764 1.645,2.586 v 0 c 2.467,3.29 5.757,5.988 8.93,8.223 4.581,3.173 9.279,5.871 13.978,8.691 0,-0.117 0.117,-0.352 0.234,-0.469 0.352,-0.821 0.704,-1.525 1.173,-2.234 0.118,-0.234 0.235,-0.352 0.235,-0.586 0.353,-0.587 0.704,-1.173 1.174,-1.761 -3.522,-2.116 -6.93,-4.11 -10.453,-5.993 z"
   id="path5232"
   inkscape:connector-curvature="0"
   style="fill:#fab732" />
	<path
   d="m 697.791,772.085 c -2.703,0.353 -5.523,0.117 -8.223,-0.117 0,0.705 0.117,1.53 0.117,2.234 0,0.821 0,1.525 -0.117,2.229 0,0.469 0,0.821 0,1.178 -0.234,2.112 -0.469,4.111 -0.939,5.989 v 0 c 0.471,0.234 0.471,0.704 0.471,1.173 -0.117,0.822 -0.709,1.296 -1.411,1.647 -0.354,0.704 -0.823,1.29 -1.527,1.878 -0.47,0.234 -1.056,0 -1.174,-0.471 0,-0.117 0,-0.234 0,-0.352 -0.119,-1.056 0,-2.115 0.235,-3.172 -0.589,0.352 -1.293,0.586 -1.879,0.82 -1.998,0.705 -3.995,1.413 -5.992,1.883 -4.229,1.057 -8.574,1.643 -12.804,1.995 -8.105,0.703 -16.091,0.938 -24.197,1.647 -0.117,0.586 -0.352,1.173 -0.586,1.642 -0.352,1.058 -0.823,2.112 -1.293,3.174 -0.705,1.407 -1.525,2.347 -2.466,3.521 -0.118,0.121 -0.235,0.234 -0.235,0.234 v 0 c -0.47,0.121 -1.058,-0.234 -1.058,-0.704 0,-0.352 0,-0.704 0.119,-0.939 -0.237,-0.117 -0.471,-0.117 -0.588,0 -2.349,0.588 -4.581,1.057 -6.93,0.705 -0.352,0 -0.587,0.117 -0.821,0.234 0.704,0.942 1.527,1.882 2.231,2.82 0.587,0.821 1.173,1.761 1.879,2.703 2.115,-0.591 4.933,0 6.695,0.587 0.586,0.234 1.291,0.469 1.878,0.705 1.175,-1.292 2.821,-2.234 4.346,-3.057 2.351,-1.173 4.817,-1.995 7.401,-2.464 2.583,-0.353 5.167,-0.47 7.87,0.117 0.939,0.117 2.229,0.47 3.289,0.939 0.352,-0.353 0.82,-0.588 1.293,-0.47 1.173,-0.822 2.583,-1.291 3.64,-1.765 1.763,-0.704 3.642,-1.291 5.639,-1.408 1.526,-0.118 3.405,0 5.05,0.587 0.821,-1.174 2.35,-2.112 3.408,-2.817 1.877,-1.177 3.876,-1.998 5.871,-2.585 2.117,-0.47 4.347,-0.587 6.463,-0.235 0.353,0 0.704,0.117 0.939,0.235 v 0 c -0.587,-1.996 -0.353,-4.229 0,-6.224 0.352,-2.234 1.056,-4.347 2.112,-6.463 0.825,-1.761 1.881,-3.407 3.055,-4.934 0.939,-1.29 2.112,-2.586 3.407,-3.759 -0.117,0 -0.234,0 -0.234,0.117 -1.647,0.474 -3.29,0.826 -4.934,0.943 z"
   id="path5234"
   inkscape:connector-curvature="0"
   style="fill:#fab732" />
	<path
   d="m 670.656,771.616 c 2.349,0.352 4.698,0.821 7.047,1.291 1.998,0.356 3.878,0.708 5.757,1.178 0.704,0.117 1.527,0.352 2.35,0.469 -0.118,-3.172 -0.47,-6.345 -1.176,-9.396 -0.352,-1.177 -0.587,-2.233 -0.939,-3.29 -0.234,-0.82 -0.47,-1.76 -0.823,-2.586 -0.117,0.117 -0.352,0.117 -0.469,0.117 -0.938,0.474 -1.761,1.296 -2.701,1.883 -0.939,0.469 -1.998,0.821 -3.054,1.056 -1.059,0.234 -2.114,0.352 -3.172,0.352 -0.939,0 -1.88,0.118 -2.701,0.118 0,0.47 0,0.938 0,1.412 0.116,0.117 0.116,0.234 0.116,0.352 0,1.526 0,2.934 0,4.347 0,0.936 0,1.759 -0.235,2.697 z"
   id="path5236"
   inkscape:connector-curvature="0"
   style="fill:#fab732" />
	<path
   d="m 598.534,764.923 c -2.583,1.291 -5.285,2.112 -8.105,2.817 -4.229,1.06 -8.458,1.411 -12.804,1.529 -0.117,1.055 -0.235,2.112 -0.469,3.051 0,0.473 -0.117,0.826 -0.117,1.178 7.519,0 15.153,2.112 22.083,5.051 0.118,0 0.352,0.117 0.469,0.117 0.12,-0.822 0.472,-1.647 0.589,-2 0.704,-1.995 1.292,-4.111 1.997,-6.105 0.469,-1.761 1.056,-3.525 1.525,-5.286 0.353,-1.294 0.707,-2.586 1.059,-3.993 -0.94,0.586 -1.763,1.173 -2.584,1.761 -1.176,0.702 -2.35,1.293 -3.643,1.88 z"
   id="path5238"
   inkscape:connector-curvature="0"
   style="fill:#fab732" />
	<path
   d="m 583.381,709.01 c 1.293,-11.865 2.818,-24.082 -1.292,-35.59 -1.761,-4.699 -4.228,-9.045 -7.751,-12.569 -2.466,-2.469 -5.167,-4.464 -8.106,-5.989 -1.056,-0.592 -2.114,-1.061 -3.171,-1.529 0.939,2.232 1.88,4.345 2.701,6.579 1.176,3.051 2.232,6.106 3.171,9.279 1.879,6.225 3.055,12.569 3.759,19.028 1.528,12.92 0.941,26.193 -1.173,39.114 -1.528,9.631 -3.995,19.149 -7.167,28.429 -1.643,4.697 -3.523,9.278 -5.403,13.859 -1.056,2.581 -2.114,5.05 -3.172,7.519 -0.821,1.644 -1.76,3.403 -2.584,5.168 0.589,-0.353 1.293,-0.587 1.88,-0.943 0,0 0.117,-0.117 0.234,-0.117 1.176,-1.057 2.469,-2.112 3.76,-3.051 2.818,-1.765 5.873,-3.056 9.279,-3.76 1.527,-0.352 3.173,-0.587 4.698,-0.821 0.117,-0.469 0.117,-0.942 0.235,-1.53 0.119,-0.821 0.237,-1.761 0.354,-2.698 -0.117,0 -0.235,0 -0.235,0 h -0.119 c 0.119,0 0.237,0 0.354,-0.117 0.118,-0.47 0.118,-1.061 0.235,-1.648 0.47,-3.168 0.939,-6.34 1.41,-9.513 0.939,-5.638 2.23,-11.157 3.288,-16.798 1.997,-10.689 3.642,-21.498 4.815,-32.302 z"
   id="path5240"
   inkscape:connector-curvature="0"
   style="fill:#fab732" />
	<path
   d="m 687.924,741.193 c -0.118,0 -0.118,0 -0.235,0 0.117,0.352 0.235,0.703 0.235,0.942 0.353,0.353 0.589,0.821 0.94,1.174 0.704,0.704 1.408,1.525 2.348,1.995 0.234,0.117 0.587,0.235 0.821,0.235 v 0 0 c 0.117,-0.235 0.234,-0.705 0.234,-1.058 0.117,-0.82 0,-1.643 0.356,-2.347 -1.528,-0.355 -3.172,-0.706 -4.699,-0.941 z"
   id="path5242"
   inkscape:connector-curvature="0"
   style="fill:#ffffff" />
	<path
   d="m 683.694,741.193 c -0.116,-0.117 -0.116,-0.234 -0.234,-0.352 -0.235,0 -0.472,0 -0.706,0 -0.821,-0.118 -1.761,-0.118 -2.584,0 -0.117,0 -0.234,0 -0.352,0 v 0 0 0 0.117 c -0.117,0 -0.234,0 -0.234,0 -0.353,0 -0.704,0.117 -1.06,0.234 -0.351,0 -0.586,0.117 -0.938,0.234 -0.117,0 -0.117,0 -0.117,0 v 0 c -0.117,0.117 -0.234,0.117 -0.352,0.234 -0.117,0 -0.234,0.117 -0.352,0.234 v 0 c -0.118,0.239 -0.235,0.474 -0.587,0.709 0,0 0,0 0,0.117 1.643,0.822 3.053,2.817 4.226,3.994 v 0 c 0.237,0 0.237,0.234 0.237,0.352 0.352,0.353 0.586,0.704 0.822,1.057 1.173,0.587 2.23,1.174 3.523,1.525 0.118,-1.761 0,-3.524 -0.354,-5.168 -0.115,-1.17 -0.468,-2.344 -0.938,-3.287 z"
   id="path5244"
   inkscape:connector-curvature="0"
   style="fill:#ffffff" />
	<path
   d="m 667.838,741.428 c -0.117,0 -0.353,0 -0.589,0 -1.407,0 -2.701,0 -3.874,0.352 -0.353,0.117 -0.707,0.356 -1.059,0.591 0.823,0.587 1.527,1.526 2.114,2.23 0.821,1.057 1.527,2.233 2.231,3.407 0.235,0.47 0.353,0.821 0.587,1.291 0.472,0 0.706,0 1.059,-0.234 -0.118,0 0.116,-0.235 0.116,-0.353 0.235,-0.234 0.235,-0.352 0.354,-0.587 0.117,-0.587 0.234,-1.057 0.234,-1.643 0,-1.413 -0.234,-2.703 -0.822,-3.994 -0.234,-0.235 -0.351,-0.709 -0.351,-1.06 z"
   id="path5246"
   inkscape:connector-curvature="0"
   style="fill:#ffffff" />
	<path
   d="m 621.322,745.657 c 0.117,0.703 0.471,1.528 0.94,1.881 0,-0.117 0.234,0 0.352,0.117 0,-0.117 0.352,0 0.352,0 0.117,-0.117 0.824,-0.352 1.059,-0.47 0.586,-0.352 1.173,-0.942 1.76,-1.411 -1.643,-1.292 -3.405,-2.465 -5.285,-3.521 0.117,1.175 0.469,2.348 0.822,3.404 z"
   id="path5248"
   inkscape:connector-curvature="0"
   style="fill:#ffffff" />
	<path
   d="m 609.106,739.198 c 0,0 0,0 0,0.117 0,0 0,0.117 0.117,0.117 0.821,0.821 1.056,2.347 1.292,3.524 0.353,2.583 0.47,5.286 0.353,7.872 0.117,-0.122 0.235,-0.239 0.352,-0.356 0.47,-0.471 0.939,-1.057 1.408,-1.644 1.058,-1.525 2.117,-3.172 2.938,-4.815 0.353,-0.821 0.705,-1.408 0.939,-2.234 0.117,-0.352 0.235,-0.82 0.352,-1.173 -1.292,-0.47 -2.701,-0.822 -3.993,-1.174 -1.291,-0.234 -2.465,-0.234 -3.758,-0.234 z"
   id="path5250"
   inkscape:connector-curvature="0"
   style="fill:#ffffff" />
	<path
   d="m 593.014,736.025 c -0.354,-0.234 -0.823,-0.469 -1.292,-0.705 l -0.47,-0.117 c -0.118,-0.117 -0.235,-0.117 -0.354,-0.117 0.119,0.588 0,1.174 -0.118,1.878 -0.118,1.061 -0.352,2.117 -0.587,3.173 -0.469,1.76 -0.938,3.408 -1.408,5.05 0,0.354 -0.117,0.588 -0.234,0.939 v 0 c 0.117,0 0.117,0 0.117,0.117 v 0 -0.117 c 0.117,0 0.353,0 0.47,-0.117 v 0 c 0.117,0 0.117,0 0.117,0 0,0 0,0 0,-0.117 0.352,-0.117 0.704,-0.352 1.056,-0.47 0.587,-0.47 1.293,-0.939 1.88,-1.291 1.527,-1.174 2.936,-2.469 4.229,-3.877 0.234,-0.234 0.469,-0.47 0.704,-0.704 -1.291,-1.29 -2.583,-2.469 -4.11,-3.525 z"
   id="path5252"
   inkscape:connector-curvature="0"
   style="fill:#ffffff" />
	<path
   d="m 524.181,751.298 c -0.235,-0.117 -0.47,-0.117 -0.822,-0.117 -0.117,0 -0.234,0 -0.352,0 -0.118,0 -0.352,0.117 -0.472,0.117 v 0 c -0.117,0 -0.117,0 -0.117,0 -0.234,0.117 -0.352,0.117 -0.586,0.234 -0.117,0.117 -0.235,0.235 -0.353,0.353 -0.469,0.469 -0.704,1.057 -0.704,1.643 0,0.587 0.235,1.174 0.704,1.525 0.118,0.118 0.235,0.235 0.47,0.355 0.235,0.236 0.469,0.236 0.823,0.354 0.117,0 0.117,0 0.235,0 0.47,0 1.057,-0.117 1.526,-0.354 0.234,-0.237 0.588,-0.473 0.823,-0.825 0.117,-0.352 0.234,-0.703 0.234,-1.173 0,-0.822 -0.588,-1.761 -1.409,-2.112 z"
   id="path5254"
   inkscape:connector-curvature="0"
   style="fill:#ffffff" />
	<path
   d="m 754.409,788.414 c -1.178,-0.939 -2.352,-1.761 -3.525,-2.586 -7.049,-4.581 -15.741,-6.928 -24.081,-4.933 -4.347,1.06 -8.34,3.055 -11.861,5.876 -3.407,2.815 -5.993,6.224 -8.457,9.748 3.051,1.995 5.871,4.347 8.34,6.928 6.576,6.815 11.743,14.803 16.089,23.025 2.587,5.051 4.933,10.219 7.05,15.62 3.289,-4.11 6.106,-8.574 8.341,-13.39 5.871,-11.979 7.749,-25.256 6.693,-38.528 -0.001,-1.056 0.586,-1.643 1.411,-1.76 z"
   id="path5256"
   inkscape:connector-curvature="0"
   style="fill:#d49a26" />
	<path
   d="m 713.999,807.911 c -2.817,-3.169 -5.872,-6.224 -9.515,-8.571 l -0.117,-0.121 c -0.469,-0.353 -0.938,-0.587 -1.525,-0.938 -1.178,-0.705 -2.469,-1.409 -3.759,-1.995 -0.705,-0.353 -1.409,-0.587 -2.117,-0.939 0,0 0,0 -0.117,0 -1.29,-0.234 -2.816,0 -4.225,0 -1.647,0.118 -3.29,0.587 -4.818,1.057 -1.761,0.586 -3.406,1.408 -4.817,2.347 -0.469,0.356 -0.938,0.708 -1.407,1.061 1.526,0.939 2.818,2.229 3.993,3.403 1.761,1.764 3.525,3.642 5.168,5.523 2.587,3.168 5.167,6.459 7.636,9.866 4.347,5.988 8.224,12.452 11.626,19.028 3.643,7.048 6.933,14.332 9.401,21.847 1.525,-1.056 3.168,-2.347 4.698,-3.524 3.872,-3.169 7.515,-6.576 10.804,-10.335 -1.525,-4.229 -3.172,-8.458 -5.167,-12.451 -4.112,-9.047 -9.163,-17.739 -15.742,-25.258 z"
   id="path5258"
   inkscape:connector-curvature="0"
   style="fill:#d49a26" />
	<path
   d="m 700.021,828.233 c -2.582,-3.994 -5.402,-7.987 -8.34,-11.865 -2.113,-2.698 -4.228,-5.401 -6.576,-7.866 -1.881,-1.999 -4.229,-3.877 -5.874,-5.994 -1.293,-0.469 -2.466,-1.056 -3.76,-1.173 -1.762,-0.234 -3.405,0 -5.168,0.47 -0.823,0.352 -1.645,0.703 -2.466,1.057 0.705,0.703 1.408,1.294 2.114,1.998 1.761,1.761 3.405,3.525 4.933,5.403 3.054,3.993 5.64,8.223 7.986,12.569 6.58,12.568 11.748,26.193 14.803,40.171 0.47,2.352 0.938,4.698 1.292,7.166 5.871,-2.233 11.629,-5.051 16.914,-8.457 -0.352,-1.056 -0.704,-2.117 -1.056,-3.173 -3.641,-10.687 -8.812,-20.791 -14.802,-30.306 z"
   id="path5260"
   inkscape:connector-curvature="0"
   style="fill:#d49a26" />
	<path
   d="m 674.416,816.725 c -1.763,-2.586 -3.642,-5.055 -5.757,-7.284 -1.527,-1.646 -3.407,-3.055 -5.05,-4.698 v 0 c -1.88,0.117 -3.76,-0.821 -5.64,-0.938 -2.115,-0.239 -4.229,-0.239 -6.225,0.117 -2.115,0.47 -4.229,1.056 -6.107,1.995 -0.823,0.47 -1.762,0.938 -2.586,1.643 0.235,0 0.352,0.118 0.47,0.118 2.468,1.412 4.346,3.993 5.991,6.228 1.645,2.347 3.172,4.815 4.581,7.279 2.114,3.995 3.993,8.105 5.639,12.218 3.17,8.105 5.754,16.445 7.517,24.903 1.41,6.105 2.467,12.217 2.938,18.44 8.456,-0.821 16.796,-2.582 24.901,-5.285 -1.995,-12.687 -5.988,-25.138 -11.275,-36.882 -2.702,-6.11 -5.639,-12.218 -9.397,-17.854 z"
   id="path5262"
   inkscape:connector-curvature="0"
   style="fill:#d49a26" />
	<path
   d="m 657.853,840.334 c -1.527,-4.582 -3.288,-9.045 -5.402,-13.274 -1.527,-3.173 -3.29,-6.11 -5.169,-9.044 -0.939,-1.412 -1.998,-2.938 -3.053,-4.346 -0.47,-0.587 -0.941,-1.292 -1.411,-1.883 0,0 -0.117,0 -0.234,-0.117 -1.056,-0.234 -2.232,-1.29 -3.17,-1.878 -0.117,-0.117 -0.237,-0.117 -0.354,-0.234 -0.353,-0.117 -0.705,-0.234 -0.939,-0.469 -0.586,-0.353 -1.408,-0.587 -2.114,-0.821 -0.939,-0.234 -1.997,-0.234 -2.937,-0.234 3.523,5.754 6.344,12.096 8.693,18.322 4.346,11.744 6.93,24.195 7.517,36.647 0.235,4.815 0.118,9.513 -0.234,14.328 5.05,0.236 10.103,0.236 15.153,0 0.586,-0.117 1.29,-0.117 1.88,-0.117 -0.118,-1.642 -0.354,-3.285 -0.59,-4.933 -1.293,-10.922 -3.994,-21.612 -7.636,-31.947 z"
   id="path5264"
   inkscape:connector-curvature="0"
   style="fill:#d49a26" />
	<path
   d="m 580.563,795.229 c -4.698,-2.351 -9.631,-4.229 -14.801,-5.759 -4.815,-1.29 -9.866,-2.229 -14.8,-3.051 -1.056,0.821 -2.115,1.761 -3.288,2.465 -2.701,1.999 -5.404,4.111 -7.988,6.345 -5.402,4.463 -10.572,9.396 -15.036,14.681 0.94,1.878 2.115,3.644 3.29,5.403 1.409,2.116 2.701,4.229 4.112,6.228 2.701,3.756 5.637,7.397 8.809,10.922 15.388,16.681 35.709,27.721 57.087,34.769 8.223,2.704 16.798,5.051 25.371,6.815 0.117,-1.647 0.354,-3.407 0.354,-5.172 0.822,-20.083 -5.874,-40.171 -19.264,-55.321 -6.696,-7.521 -14.802,-13.744 -23.846,-18.325 z"
   id="path5266"
   inkscape:connector-curvature="0"
   style="fill:#d49a26" />
	<path
   d="m 556.014,689.273 c 1.879,-6.341 3.054,-13.39 2.701,-20.083 -0.47,1.291 -0.939,2.464 -1.41,3.759 -0.586,1.526 -1.174,3.169 -1.88,4.698 -2.113,4.698 -4.463,9.162 -6.93,13.626 -6.226,10.804 -14.684,19.849 -23.728,28.424 -4.698,4.346 -9.514,8.692 -14.095,13.273 -4.581,4.463 -9.279,9.044 -12.804,14.333 -3.053,4.581 -5.05,9.748 -6.46,15.15 -0.587,2.82 -1.173,5.638 -1.645,8.458 -0.234,1.525 -0.586,3.173 -0.821,4.698 -0.118,0.704 -0.352,1.408 -0.47,2.116 0.118,0.234 0.352,0.587 0.47,0.822 3.173,5.284 5.991,10.687 8.692,16.323 1.528,3.173 3.055,6.229 4.464,9.519 1.058,2.581 2.349,5.872 2.467,8.81 v 0 c 0.706,0.353 0.469,1.29 -0.118,1.525 -0.234,1.878 -2.701,2.233 -3.406,0.352 0,-0.117 -0.117,-0.352 -0.117,-0.587 -0.117,0 -0.235,0 -0.354,0 -0.821,-0.469 -1.643,-1.056 -2.349,-1.643 -1.525,-0.708 -2.936,-1.412 -4.346,-2.116 1.059,2.586 2.349,4.934 3.877,7.167 1.528,2.111 3.407,4.346 5.521,6.106 1.174,1.057 2.466,2.116 3.758,2.938 0.352,0.117 0.588,0.234 0.94,0.469 1.997,-4.228 4.346,-8.34 7.047,-12.216 0.586,-0.939 1.291,-1.878 2.115,-2.817 -8.693,-8.34 -12.1,-21.144 -11.863,-32.774 0.235,-11.155 4.933,-21.143 11.159,-30.188 0.822,-1.173 1.643,-2.23 2.467,-3.407 0.353,-0.939 0.821,-1.878 1.408,-2.816 0,-0.117 0.117,-0.235 0.117,-0.353 0.589,-1.061 1.763,-1.998 3.056,-2.586 4.698,-5.871 9.748,-11.513 14.446,-17.502 7.753,-10.1 14.566,-21.143 18.091,-33.478 z"
   id="path5268"
   inkscape:connector-curvature="0"
   style="fill:#d49a26" />
	<path
   d="m 469.326,779.135 c -2.466,-3.877 -4.815,-8.105 -6.226,-12.451 -1.173,-3.29 -1.877,-6.929 -0.587,-10.218 -3.876,-2.352 -7.753,-4.581 -11.511,-7.167 -1.879,-1.409 -3.876,-2.938 -5.639,-4.698 0.352,1.76 0.586,3.524 0.941,5.167 0.822,4.112 1.879,7.988 3.757,11.748 5.521,11.514 13.627,21.849 23.023,30.423 4.112,3.877 8.575,7.519 13.156,10.687 -0.235,-0.82 -0.353,-1.524 -0.587,-2.347 -5.873,-6.697 -11.511,-13.626 -16.327,-21.144 z"
   id="path5270"
   inkscape:connector-curvature="0"
   style="fill:#d49a26" />
	<path
   d="m 471.792,749.65 c 1.527,4.111 3.173,8.224 4.346,12.452 0.587,0.704 1.293,1.291 1.879,1.999 2.349,2.464 4.464,5.05 6.344,7.632 0.234,-0.821 0.469,-1.761 0.821,-2.582 -1.995,-6.463 -3.757,-12.921 -4.933,-19.618 -0.704,-3.407 -1.174,-6.811 -1.408,-10.218 -0.117,-3.056 -0.237,-6.228 0.234,-9.279 -0.471,-0.938 -0.941,-1.764 -1.527,-2.703 -2.466,-4.464 -5.05,-8.81 -7.282,-13.508 -1.058,-1.995 -1.997,-4.229 -2.82,-6.459 -0.117,0.353 -0.117,0.704 -0.235,1.058 -0.352,3.055 -0.704,6.105 -0.938,9.16 -0.235,5.638 0.117,11.157 1.173,16.682 1.057,5.284 2.586,10.335 4.346,15.384 z"
   id="path5272"
   inkscape:connector-curvature="0"
   style="fill:#d49a26" />
	<path
   d="m 773.789,749.182 c 0.352,0.352 0.82,0.938 1.29,1.525 -0.117,-1.057 -0.117,-2.112 -0.117,-3.052 -0.353,-7.049 -0.938,-13.977 -2.348,-20.792 -0.586,-2.938 -1.294,-5.871 -2.115,-8.691 -1.291,-0.588 -2.348,-1.878 -3.525,-2.586 -1.291,-0.705 -2.581,-1.291 -3.873,-1.761 -1.529,-0.469 -3.172,-0.938 -4.701,-1.057 2.938,7.28 5.054,14.916 6.345,22.788 0.352,2.468 0.704,4.933 0.938,7.4 1.408,0.705 2.821,1.525 4.111,2.583 1.409,1.057 2.82,2.233 3.995,3.643 z"
   id="path5274"
   inkscape:connector-curvature="0"
   style="fill:#f5be4e" />
	<path
   d="m 774.845,754.231 c -1.526,-0.117 -2.23,-2.229 -3.173,-3.402 -1.173,-1.179 -2.347,-2.352 -3.639,-3.291 -0.708,-0.47 -1.411,-0.942 -2.116,-1.412 0.235,2.938 0.353,5.993 0.471,8.927 0.117,3.877 0.117,7.754 0.117,11.631 0,3.523 0,7.166 -0.47,10.69 2.469,3.287 4.346,6.812 5.993,10.571 0.704,-4.698 1.524,-9.515 1.995,-14.33 0.586,-6.463 1.056,-12.921 1.056,-19.384 -0.117,0 -0.117,0 -0.234,0 z"
   id="path5276"
   inkscape:connector-curvature="0"
   style="fill:#f5be4e" />
	<path
   d="m 768.738,713.708 c 0.234,0.117 0.353,0.234 0.587,0.353 -0.587,-1.761 -1.174,-3.524 -1.761,-5.168 -3.993,-10.926 -9.635,-21.496 -16.681,-30.774 -0.353,0 -0.704,0 -1.056,0.117 -1.178,0.117 -2.352,0.352 -3.407,0.586 -2.352,0.587 -4.698,1.408 -6.815,2.469 -0.586,0.234 -1.291,0.587 -1.877,0.821 6.928,7.045 12.921,14.799 17.384,23.609 0.822,1.411 1.409,2.938 2.113,4.345 2.468,0.117 5.05,0.705 7.401,1.53 1.409,0.587 2.821,1.173 4.112,2.112 z"
   id="path5278"
   inkscape:connector-curvature="0"
   style="fill:#f5be4e" />
	<path
   d="m 745.951,676.118 c 1.057,-0.234 1.995,-0.469 2.935,-0.586 -7.871,-9.632 -17.268,-18.09 -28.425,-23.609 -0.234,-0.117 -0.47,-0.234 -0.587,-0.352 -2.586,2.229 -4.815,4.464 -6.813,7.162 -0.588,0.943 -1.174,1.765 -1.761,2.586 1.407,0.938 2.816,1.761 4.229,2.703 7.162,4.816 14.095,10.218 20.317,16.207 0.822,-0.587 1.766,-1.056 2.703,-1.525 2.352,-1.057 4.933,-1.995 7.402,-2.586 z"
   id="path5280"
   inkscape:connector-curvature="0"
   style="fill:#f5be4e" />
	<path
   d="m 714.351,755.171 c -0.352,-1.174 -0.821,-2.112 -1.29,-3.169 -0.118,-0.353 -0.354,-0.704 -0.471,-1.061 -0.117,-0.112 -0.352,-0.352 -0.469,-0.469 -0.939,-0.822 -1.526,-1.761 -2.703,-2.465 -0.939,-0.47 -1.878,-0.939 -2.934,-1.525 -0.353,-0.239 -0.825,-0.474 -1.296,-0.591 0,0 0,0 -0.117,0 0,0 0,0 0,-0.117 v 0 0 h -0.117 v 0 0 0 0 0 0 0 0 c -0.117,0 -0.117,0 -0.117,0 0,0 0,-0.117 -0.117,-0.117 -0.235,-0.117 -0.587,-0.235 -0.821,-0.353 -1.526,-0.587 -3.057,-1.057 -4.698,-1.525 -1.057,-0.352 -2.234,-0.587 -3.291,-0.939 0.353,1.643 -0.234,3.994 -1.29,4.933 -1.29,1.174 -2.586,1.057 -3.877,0.353 -0.821,-0.47 -1.525,-1.174 -2.113,-1.882 0,2 -0.238,4.112 -1.175,5.993 -0.354,0.822 -1.293,0.939 -1.997,0.586 -0.352,-0.234 -0.706,-0.469 -1.058,-0.586 0,0.117 0,0.117 0.117,0.234 1.88,3.76 3.289,7.871 4.112,11.982 0.471,2.465 0.822,4.934 0.939,7.515 2.699,0.234 5.52,0.47 8.223,0.117 1.644,-0.117 3.287,-0.469 4.934,-0.938 0,-0.117 0.117,-0.117 0.234,-0.117 0.705,-0.705 1.525,-1.408 2.347,-2.112 3.291,-2.586 6.933,-4.698 10.809,-6.346 v 0 c -0.939,-2.347 -1.056,-4.933 -1.764,-7.401 z"
   id="path5282"
   inkscape:connector-curvature="0"
   style="fill:#f5be4e" />
	<path
   d="m 682.05,645.695 c 2.818,1.061 5.404,2.468 8.105,3.759 2.938,1.53 5.872,3.056 8.811,4.698 3.523,1.883 6.932,3.877 10.452,5.993 0.586,-1.056 1.294,-2.116 2.116,-3.172 1.761,-2.23 3.642,-4.698 5.871,-6.576 -9.043,-3.994 -18.675,-6.11 -28.306,-8.575 -2.117,-0.469 -4.231,-1.06 -6.463,-1.647 -0.704,-0.117 -0.938,-0.821 -0.821,-1.407 -0.822,0.117 -1.174,0.469 -1.291,1.056 -0.237,0.939 0,2.233 0.353,3.407 0.351,0.822 0.704,1.642 1.173,2.464 z"
   id="path5284"
   inkscape:connector-curvature="0"
   style="fill:#f5be4e" />
	<path
   d="m 677.234,776.666 c -3.524,-0.469 -7.048,-1.056 -10.572,-1.408 -7.282,-0.938 -14.8,-1.408 -22.2,-0.47 0,0 -0.117,0.118 -0.235,0.118 -0.117,1.76 -0.47,3.643 -0.824,5.402 -0.704,3.524 -1.76,6.932 -2.936,10.34 -0.117,0 -0.117,0 -0.117,0 8.106,-0.709 16.092,-0.944 24.197,-1.647 4.229,-0.353 8.574,-0.938 12.804,-1.995 1.997,-0.47 3.994,-1.178 5.992,-1.883 0.586,-0.234 1.29,-0.469 1.879,-0.82 0.117,-0.47 0.234,-1.056 0.234,-1.644 0.234,-1.646 0.353,-3.407 0.353,-5.05 -1.059,-0.118 -2.115,-0.235 -3.29,-0.356 -1.76,-0.113 -3.522,-0.353 -5.285,-0.587 z"
   id="path5286"
   inkscape:connector-curvature="0"
   style="fill:#f5be4e" />
	<path
   d="m 670.774,762.807 c 0.821,0 1.762,-0.118 2.701,-0.118 1.058,0 2.113,-0.117 3.172,-0.352 1.056,-0.234 2.114,-0.587 3.054,-1.056 0.94,-0.587 1.763,-1.409 2.701,-1.883 0.117,0 0.352,0 0.469,-0.117 -0.587,-1.643 -1.29,-3.285 -2.229,-4.933 -1.058,-1.878 -2.352,-3.52 -3.759,-5.05 -1.176,-1.174 -3.173,-2.816 -3.642,-4.581 h -0.119 c -0.469,-0.821 -0.703,-1.643 -0.586,-2.465 -0.234,-0.117 -0.47,-0.117 -0.704,-0.238 0.938,2.703 1.29,6.229 -0.589,8.575 -0.704,0.942 -1.645,1.529 -2.7,1.764 0.469,1.174 0.82,2.348 1.056,3.643 0.588,2.23 0.94,4.463 1.175,6.811 z"
   id="path5288"
   inkscape:connector-curvature="0"
   style="fill:#f5be4e" />
	<path
   d="m 640.82,770.443 c -0.353,-0.236 -0.587,-0.471 -0.705,-0.822 -1.41,-3.524 -1.879,-7.401 -3.641,-10.926 -1.998,-3.877 -4.581,-7.28 -7.635,-10.218 -0.117,-0.117 -0.117,-0.117 -0.234,-0.234 -1.059,1.173 -2.821,2.112 -3.877,2.464 -1.41,0.474 -2.936,0.591 -4.112,-0.234 -1.291,-0.822 -1.997,-2.348 -2.231,-3.756 -0.117,-0.234 -0.117,-0.474 -0.117,-0.708 -0.118,0.117 -0.235,0.234 -0.235,0.474 -1.175,1.995 -2.584,3.99 -4.229,5.637 -0.704,0.822 -1.997,1.878 -3.288,1.878 -0.588,4.815 -1.645,9.514 -3.055,14.212 -0.821,2.586 -1.763,5.172 -2.818,7.754 -0.352,1.056 -0.941,2.82 -1.88,4.228 8.106,3.995 15.74,9.396 21.731,15.978 0.704,0.82 1.408,1.524 1.997,2.347 0.234,-0.117 0.469,-0.234 0.821,-0.234 2.349,0.352 4.581,-0.117 6.93,-0.705 0.117,-0.117 0.352,-0.117 0.588,0 0,-1.173 0.117,-2.347 0.469,-3.524 0.47,-1.408 1.057,-2.934 1.528,-4.464 1.056,-3.051 2.113,-6.34 2.818,-9.514 0.704,-3.173 1.291,-6.341 1.174,-9.513 0.001,-0.12 0.001,-0.12 0.001,-0.12 z"
   id="path5290"
   inkscape:connector-curvature="0"
   style="fill:#f5be4e" />
	<path
   d="m 605.581,756.7 c 0.118,-0.47 0.235,-1.056 0.235,-1.529 -1.056,-1.526 -1.056,-3.639 -1.762,-5.403 0,-0.117 0,-0.117 0,-0.234 -1.995,0.469 -4.464,-0.587 -5.403,-2.348 -0.47,-1.06 -0.821,-2.351 -0.704,-3.523 -1.645,1.407 -3.29,2.934 -5.167,4.11 -1.41,0.822 -3.407,1.878 -5.052,1.057 -0.586,2 -1.292,3.993 -1.998,5.989 -1.407,3.29 -2.936,6.58 -5.167,9.4 -0.704,0.938 -1.527,1.995 -2.583,2.934 -0.118,0.705 -0.237,1.413 -0.354,2.117 4.346,-0.118 8.575,-0.47 12.804,-1.529 2.82,-0.705 5.522,-1.526 8.105,-2.817 1.293,-0.587 2.467,-1.178 3.642,-1.881 0.821,-0.588 1.644,-1.175 2.584,-1.761 0.351,-1.527 0.586,-3.056 0.82,-4.582 z"
   id="path5292"
   inkscape:connector-curvature="0"
   style="fill:#f5be4e" />
	<path
   d="m 568.933,669.19 c -0.939,-3.173 -1.995,-6.229 -3.171,-9.279 -0.821,-2.234 -1.762,-4.347 -2.701,-6.579 -0.234,-0.117 -0.469,-0.117 -0.586,-0.236 -0.234,0.588 -0.471,1.057 -0.471,1.647 -0.117,0.47 -0.352,0.704 -0.587,0.939 -0.117,4.58 -1.174,9.161 -2.701,13.508 0.353,6.693 -0.822,13.742 -2.701,20.083 -3.525,12.335 -10.337,23.378 -18.091,33.479 -4.698,5.989 -9.749,11.631 -14.446,17.502 1.291,-0.704 2.701,-1.173 3.759,-1.408 2.583,-0.703 5.402,-0.703 7.751,0.47 3.642,1.878 5.991,5.754 5.756,9.749 -0.352,8.104 -9.279,17.267 -17.736,12.686 -4.463,-2.469 -5.874,-7.401 -5.053,-12.1 0.118,-1.173 0.472,-2.347 0.941,-3.642 -0.824,1.177 -1.645,2.234 -2.467,3.407 -6.226,9.045 -10.924,19.032 -11.159,30.188 -0.237,11.631 3.17,24.435 11.863,32.774 2.701,-3.759 5.874,-7.167 9.044,-10.456 4.346,-4.347 8.927,-8.457 13.86,-12.1 2.349,-1.643 4.818,-3.403 7.284,-4.816 1.291,-0.82 2.701,-1.524 3.992,-1.994 0.706,-0.235 1.293,-0.47 1.879,-0.704 0.824,-1.765 1.763,-3.524 2.584,-5.168 1.059,-2.469 2.116,-4.938 3.172,-7.519 1.88,-4.581 3.76,-9.162 5.403,-13.859 3.172,-9.279 5.639,-18.798 7.167,-28.429 2.114,-12.921 2.701,-26.194 1.173,-39.114 -0.703,-6.459 -1.878,-12.804 -3.758,-19.029 z"
   id="path5294"
   inkscape:connector-curvature="0"
   style="fill:#f5be4e" />
	<path
   d="m 495.402,799.457 c -2.232,-4.585 -4.464,-9.045 -6.813,-13.512 -0.353,-0.703 -0.704,-1.291 -1.176,-1.995 -1.173,-2.112 -2.466,-4.229 -3.875,-6.341 -4.815,-7.285 -10.572,-13.981 -17.854,-19.031 -0.588,-0.353 -1.058,-0.704 -1.527,-1.057 -0.117,2.938 0.47,5.755 1.41,8.458 1.643,4.345 3.993,8.457 6.459,12.217 2.82,4.229 5.756,8.34 8.927,12.216 1.176,1.526 2.351,2.936 3.525,4.347 1.645,1.878 3.29,3.756 4.933,5.638 0.352,0.353 0.706,0.821 1.175,1.173 1.174,1.292 2.349,2.586 3.523,3.878 1.41,1.407 2.703,2.703 4.228,4.11 0.235,0.234 0.472,0.47 0.707,0.705 0.352,0.234 0.587,0.352 0.939,0.469 -0.352,-1.291 -0.704,-2.464 -1.174,-3.76 -1.058,-2.581 -2.231,-5.05 -3.407,-7.515 z"
   id="path5296"
   inkscape:connector-curvature="0"
   style="fill:#f5be4e" />
	<path
   d="m 482.599,749.768 c 0.94,5.877 2.232,11.631 3.172,17.502 0.234,-0.586 0.587,-1.173 0.822,-1.76 0.235,-1.057 0.352,-2.116 0.587,-3.173 0.471,-2.465 1.175,-4.815 1.997,-7.284 -0.235,-0.704 -0.235,-1.643 -0.47,-2.465 -0.235,-1.524 -0.704,-2.938 -1.173,-4.345 -0.823,-2.469 -1.763,-5.051 -2.821,-7.401 -1.056,-2.23 -2.114,-4.464 -3.288,-6.576 -0.117,1.76 -0.117,3.641 0,5.401 0.235,3.408 0.587,6.815 1.174,10.101 z"
   id="path5298"
   inkscape:connector-curvature="0"
   style="fill:#f5be4e" />
	<path
   d="m 779.309,755.645 c 0.117,-13.748 -1.409,-27.489 -5.285,-40.764 -4.112,-13.977 -10.688,-27.602 -19.614,-39.349 -6.463,-8.458 -14.1,-16.091 -22.791,-22.083 -7.046,-4.816 -14.916,-8.341 -23.14,-10.923 -6.458,-2.115 -13.273,-3.642 -20.202,-4.346 -1.059,-1.057 -2.585,-1.765 -3.76,-2.351 -1.763,-0.705 -4.112,-0.822 -5.755,0.352 -4.463,3.407 -1.059,9.987 1.291,13.508 5.873,8.34 15.388,13.156 23.846,18.444 6.345,3.873 12.687,8.106 17.268,14.095 2.938,3.643 5.167,7.988 7.166,12.334 1.057,2.23 2.112,4.582 2.934,7.046 0.821,2.116 1.529,4.347 2.586,6.462 1.174,7.755 2.113,15.387 1.994,23.257 0,4.698 -0.351,9.396 -0.938,14.095 -0.586,4.58 -1.291,9.279 -3.172,13.508 -0.234,0 -0.352,0 -0.587,0 -3.994,0.352 -7.987,1.06 -11.743,2.352 0,-2.352 -0.591,-4.934 -1.296,-7.167 -0.469,-1.409 -1.173,-3.285 -2.229,-4.581 0.118,-1.408 -1.178,-2.816 -2.116,-3.759 -1.525,-1.526 -3.643,-2.347 -5.52,-3.286 -1.174,-0.592 -2.469,-1.061 -3.642,-1.529 -6.459,-2.348 -13.391,-4.229 -20.32,-4.464 -0.588,0 -1.175,0 -1.763,0 -2.584,0 -5.637,0.234 -7.752,1.765 -0.117,0.117 -0.117,0.117 -0.234,0.117 -0.823,-0.234 -1.646,-0.353 -2.349,-0.471 -1.998,-0.473 -3.877,-0.59 -5.874,-0.59 -2.585,0.234 -7.282,1.412 -7.165,4.463 -0.353,0.356 -0.469,0.943 -0.353,1.413 0.353,1.408 1.644,2.465 2.467,3.642 1.763,1.995 2.937,4.464 3.758,6.928 1.997,5.402 2.114,10.926 2.468,16.563 0,0.236 0.118,0.471 0.118,0.822 -0.235,-0.117 -0.589,-0.117 -0.823,-0.117 -3.758,-0.586 -7.517,-0.939 -11.277,-0.939 -3.642,-0.117 -7.517,-0.234 -11.158,0.471 0,-0.236 0,-0.471 0,-0.705 -0.118,-1.881 -0.47,-4.581 -1.528,-6.462 -0.469,-2.229 -1.29,-4.347 -2.232,-6.342 -1.997,-4.347 -5.05,-8.223 -8.34,-11.63 -3.405,-3.286 -7.399,-6.106 -11.746,-8.105 -4.111,-1.76 -9.044,-3.051 -13.507,-2.113 -0.587,0.117 -1.293,0.705 -1.411,1.409 -0.234,1.177 -0.234,2.469 0.118,3.524 -0.118,0.47 -0.235,1.057 -0.118,1.643 0.235,0.709 0.354,1.53 0.472,2.234 -1.41,-2.117 -2.938,-4.229 -4.7,-6.225 v 0 c -1.997,-2.232 -4.463,-4.584 -7.282,-5.758 -2.349,-1.056 -5.637,-1.056 -6.813,1.647 -0.117,0.234 -0.117,0.587 -0.117,0.821 -0.118,0.469 -0.235,0.939 -0.352,1.408 -0.117,1.056 -0.354,2.116 -0.589,3.173 -0.47,1.525 -0.821,3.172 -1.291,4.698 -0.704,3.172 -1.646,6.34 -2.701,9.396 -0.824,2.469 -1.88,4.815 -3.055,7.166 0.352,-2.586 0.823,-5.054 1.292,-7.52 1.409,-7.518 3.054,-14.916 4.229,-22.316 1.291,-7.519 2.232,-14.92 3.053,-22.436 0.707,-6.579 1.646,-13.39 1.293,-20.087 -0.353,-8.341 -2.466,-16.798 -6.932,-23.843 -4.228,-6.815 -10.922,-12.452 -18.676,-14.687 -0.47,-0.117 -0.939,-0.234 -1.41,-0.352 -0.939,-0.234 -1.88,0.352 -2.232,1.295 -0.234,0.821 -0.469,1.76 -0.586,2.582 -0.939,3.524 -1.88,6.932 -2.936,10.34 -1.059,3.285 -2.114,6.575 -3.408,9.747 -2.701,6.576 -6.108,12.805 -9.866,18.91 -6.695,11.045 -16.328,20.088 -25.842,28.781 -4.464,4.11 -8.928,8.34 -13.156,12.687 -4.229,4.345 -8.34,8.809 -11.276,13.977 -0.352,0.587 -0.704,1.174 -1.058,1.878 0,-0.234 -0.118,-0.47 -0.118,-0.704 -0.821,-2.82 -1.997,-5.52 -3.053,-8.223 -1.997,-4.698 -4.581,-9.279 -7.165,-13.86 -2.583,-4.347 -5.169,-8.811 -7.636,-13.272 -1.997,-3.878 -3.523,-7.872 -5.403,-11.748 0,-0.821 0,-1.526 -0.354,-2.347 -0.235,-0.704 -1.173,-1.178 -1.76,-0.47 -0.118,0.117 -0.235,0.234 -0.235,0.352 -1.762,2.348 -1.762,5.755 -2.114,8.458 -0.472,3.286 -0.824,6.458 -1.058,9.748 -0.235,5.755 0.117,11.509 1.175,17.268 1.057,5.284 2.701,10.569 4.581,15.619 0.939,2.703 1.998,5.407 3.171,8.106 -2.584,-1.995 -5.285,-3.877 -7.986,-5.521 -3.994,-2.467 -8.106,-4.58 -11.982,-7.283 -1.88,-1.291 -3.76,-2.816 -5.285,-4.463 -1.645,-1.761 -3.056,-3.76 -4.463,-5.639 -0.707,-0.82 -1.88,0.119 -1.646,1.058 v 0.117 c -0.234,0.234 -0.469,0.586 -0.352,0.938 0.234,3.525 1.173,7.049 1.88,10.456 0.704,3.408 1.407,6.812 2.466,10.219 1.997,5.872 5.285,11.513 8.809,16.68 7.399,10.806 17.033,20.205 27.603,27.956 2.231,1.646 4.581,3.172 6.932,4.58 1.643,4.346 3.523,8.575 6.106,12.451 1.762,2.586 3.759,5.051 6.108,7.167 1.411,1.174 2.818,2.347 4.347,3.29 0.586,0.353 1.292,0.822 1.997,1.174 -0.117,0.234 -0.235,0.352 -0.235,0.586 -3.994,10.101 -5.285,21.262 -2.349,31.832 2.583,9.396 8.34,17.619 15.035,24.669 7.165,7.519 15.74,13.741 24.667,19.027 8.692,5.168 17.854,9.513 27.368,13.155 7.519,2.938 15.153,5.402 23.141,6.58 3.642,0.47 7.282,0.705 10.924,0.705 1.41,0.117 2.818,0 4.229,0 4.463,-0.235 9.161,-0.588 13.39,-1.883 0.469,0.117 1.056,0.117 1.527,-0.234 2.232,-0.939 4.346,-2.229 6.224,-3.76 1.058,0.474 2.351,0.709 3.524,0.943 1.411,0.352 2.937,0.704 4.346,0.938 3.056,0.352 6.109,0.587 9.162,0.47 3.055,-0.235 6.108,-0.704 8.926,-1.643 1.528,-0.471 2.939,-1.179 4.229,-1.765 0.824,-0.47 1.763,-0.938 2.349,-1.526 1.294,0.47 3.174,0.353 4.464,0.353 1.763,0 3.524,-0.235 5.287,-0.47 3.404,-0.352 6.813,-0.938 10.101,-1.998 3.29,-1.057 6.463,-2.583 9.279,-4.698 1.53,-1.057 2.938,-2.348 4.229,-3.639 0.704,-0.825 1.529,-1.647 2.234,-2.586 3.759,1.174 7.749,0.938 11.508,-0.234 2.234,-0.704 4.347,-1.644 6.345,-2.82 1.174,-0.704 2.7,-1.526 3.76,-2.582 0.587,0 1.173,-0.117 1.878,-0.117 1.409,-0.234 2.82,-0.591 4.229,-0.943 2.821,-0.821 5.638,-1.994 8.106,-3.521 2.468,-1.53 4.581,-3.643 6.341,-5.992 0.708,-1.175 1.295,-2.23 1.646,-3.525 0.235,0 0.353,-0.118 0.47,-0.118 3.055,-1.29 5.637,-3.285 8.224,-5.284 2.58,-1.995 4.933,-4.112 7.278,-6.459 4.229,-4.463 7.755,-9.866 10.574,-15.39 5.521,-11.391 8.106,-24.195 8.811,-36.765 0.469,-9.865 -0.235,-19.734 -3.29,-29.131 1.526,-5.051 2.469,-10.101 3.29,-15.386 1.174,-7.399 1.76,-14.918 1.879,-22.549 z m -4.347,-7.99 v 0 c 0,0.939 0,1.995 0.117,3.052 -0.47,-0.588 -0.938,-1.174 -1.29,-1.525 -1.175,-1.409 -2.586,-2.586 -3.995,-3.642 -1.29,-1.058 -2.703,-1.878 -4.111,-2.583 -1.173,-0.587 -2.229,-1.061 -3.407,-1.529 -0.938,-0.352 -1.761,-0.704 -2.582,-0.938 -6.346,-1.995 -13.508,-2.7 -19.853,-0.822 0.117,-2.703 0.234,-5.284 0.234,-7.987 0.117,-5.168 -0.117,-10.688 -1.056,-15.977 0.704,-0.234 1.524,-0.47 2.232,-0.705 1.292,-0.586 2.7,-1.056 4.109,-1.407 2.938,-0.822 5.992,-1.174 9.048,-1.174 0.117,0 0.352,0 0.469,0 1.173,0 2.348,0.117 3.521,0.352 1.529,0.118 3.172,0.588 4.701,1.057 1.292,0.47 2.582,1.056 3.873,1.761 1.178,0.708 2.234,1.998 3.525,2.586 0.821,2.82 1.529,5.754 2.115,8.691 1.411,6.814 1.997,13.741 2.35,20.79 z m -82.338,-91.151 v 0 c -3.173,-2.234 -6.463,-4.933 -8.93,-8.223 v 0 c -0.587,-0.822 -1.175,-1.643 -1.645,-2.586 -0.469,-0.822 -0.822,-1.643 -1.173,-2.465 -0.353,-1.174 -0.59,-2.468 -0.353,-3.407 0.117,-0.587 0.469,-0.938 1.291,-1.056 -0.117,0.586 0.117,1.29 0.821,1.407 2.231,0.588 4.346,1.179 6.463,1.647 9.631,2.465 19.263,4.581 28.306,8.575 -2.229,1.878 -4.11,4.346 -5.871,6.576 -0.822,1.056 -1.53,2.116 -2.116,3.172 -0.47,0.588 -0.821,1.174 -1.174,1.761 0,0.234 -0.117,0.352 -0.235,0.586 -0.469,0.709 -0.821,1.413 -1.173,2.234 -0.117,0.117 -0.234,0.352 -0.234,0.469 -4.698,-2.819 -9.396,-5.517 -13.977,-8.69 z m 26.19,17.619 v 0 c -3.169,-2.938 -6.811,-5.402 -10.452,-7.753 0.116,-0.117 0.234,-0.353 0.352,-0.587 0.47,-0.705 0.821,-1.408 1.173,-2.112 0,0 0.117,-0.117 0.117,-0.234 0.474,-0.709 0.827,-1.413 1.296,-2.117 0.587,-0.821 1.173,-1.643 1.761,-2.586 1.998,-2.698 4.228,-4.933 6.813,-7.162 0.117,0.117 0.353,0.234 0.587,0.352 11.157,5.52 20.554,13.978 28.425,23.609 -0.939,0.117 -1.878,0.352 -2.935,0.586 -2.469,0.591 -5.05,1.529 -7.402,2.586 -0.938,0.47 -1.881,0.938 -2.703,1.525 -0.938,0.47 -1.759,1.061 -2.464,1.53 -0.587,0.469 -1.06,0.82 -1.529,1.173 -1.174,0.939 -2.464,1.995 -3.521,3.29 -2.586,-4.463 -5.642,-8.576 -9.518,-12.1 z m 10.575,13.978 v 0 c 0.352,-0.353 0.703,-0.704 1.056,-1.057 0.939,-0.704 1.878,-1.524 2.821,-2.116 0.703,-0.47 1.29,-0.938 1.994,-1.291 0.822,-0.469 1.647,-1.057 2.469,-1.525 0.586,-0.234 1.291,-0.587 1.877,-0.821 2.117,-1.061 4.464,-1.882 6.815,-2.469 1.056,-0.234 2.229,-0.469 3.407,-0.586 0.352,-0.117 0.703,-0.117 1.056,-0.117 7.046,9.278 12.688,19.849 16.681,30.774 0.587,1.644 1.174,3.407 1.761,5.168 -0.234,-0.118 -0.353,-0.235 -0.587,-0.353 -1.291,-0.939 -2.703,-1.525 -4.111,-2.112 -2.352,-0.825 -4.934,-1.413 -7.401,-1.53 -0.704,-0.117 -1.525,-0.117 -2.23,-0.117 -0.352,0 -0.82,0 -1.177,0 -2.935,0 -5.872,0.47 -8.693,1.291 -1.524,0.356 -3.051,0.943 -4.462,1.529 -0.705,0.354 -1.409,0.705 -1.995,1.057 -0.47,-2.347 -1.175,-4.698 -2,-6.932 -0.234,-3.169 -1.525,-6.224 -2.699,-9.162 -1.41,-3.287 -2.94,-6.459 -4.582,-9.631 z m 3.64,74.941 v 0 c 0.118,0 0.236,0 0.353,0 3.408,-0.118 6.459,0.352 9.631,1.411 2.703,0.938 5.286,2.465 7.755,4.112 1.642,1.173 3.407,2.464 5.167,3.52 0.704,0.708 1.408,1.413 2.111,2.117 1.766,1.878 3.408,3.877 4.82,5.988 3.051,4.581 5.285,9.632 6.928,14.803 0.353,0.939 0.587,1.878 0.821,2.817 0,0.47 -0.116,1.056 -0.116,1.529 0,0.47 0.351,0.704 0.704,0.704 0.942,4.111 1.529,8.224 1.646,12.334 -0.117,-0.708 -0.353,-1.529 -0.587,-2.233 -1.413,-5.168 -3.993,-9.983 -7.05,-14.329 -5.401,-7.519 -12.804,-13.743 -21.73,-16.681 -7.049,-2.352 -14.799,-2.234 -21.73,0.704 -3.877,1.644 -7.284,3.994 -10.218,6.814 -2.703,2.465 -5.167,5.402 -7.05,8.575 -2.229,-1.295 -4.698,-2.351 -7.279,-2.82 0.469,-1.76 0.469,-3.643 0.821,-5.402 0.352,-2 1.057,-3.994 1.995,-5.759 1.643,-3.051 3.877,-5.754 6.463,-7.983 0.586,-0.471 1.173,-0.943 1.76,-1.413 7.049,-5.402 15.977,-8.574 24.785,-8.808 z m -45.105,-21.849 v 0 c 1.527,0.234 3.171,0.586 4.7,0.942 -0.356,0.704 -0.239,1.526 -0.356,2.347 0,0.353 -0.117,0.822 -0.234,1.058 v 0 0 c -0.234,0 -0.587,-0.118 -0.821,-0.235 -0.939,-0.47 -1.644,-1.291 -2.348,-1.995 -0.352,-0.353 -0.588,-0.821 -0.94,-1.174 0,-0.239 -0.118,-0.591 -0.235,-0.942 0.116,-10e-4 0.116,-10e-4 0.234,-10e-4 z m -10.455,0.235 v 0 0 c 0,0 0,0 0.117,0 0.353,-0.117 0.588,-0.234 0.938,-0.234 0.355,-0.117 0.707,-0.234 1.06,-0.234 0,0 0.117,0 0.234,0 v -0.117 0 0 0 c 0.117,0 0.234,0 0.352,0 0.823,-0.118 1.763,-0.118 2.584,0 0.234,0 0.471,0 0.706,0 0.118,0.117 0.118,0.234 0.234,0.352 0.47,0.942 0.822,2.116 0.939,3.289 0.354,1.644 0.472,3.407 0.354,5.168 -1.293,-0.352 -2.351,-0.938 -3.523,-1.525 -0.236,-0.353 -0.471,-0.704 -0.822,-1.057 0,-0.117 0,-0.352 -0.237,-0.352 v 0 c -1.173,-1.177 -2.583,-3.172 -4.226,-3.994 0,-0.117 0,-0.117 0,-0.117 0.352,-0.235 0.469,-0.47 0.587,-0.709 v 0 c 0.117,-0.117 0.234,-0.234 0.352,-0.234 0.116,-0.119 0.234,-0.119 0.351,-0.236 z m -15.153,0.942 v 0 c 0.352,-0.234 0.706,-0.474 1.059,-0.591 1.173,-0.352 2.467,-0.352 3.874,-0.352 0.236,0 0.472,0 0.589,0 0,0.352 0.117,0.825 0.352,1.061 0.588,1.291 0.822,2.581 0.822,3.994 0,0.586 -0.117,1.056 -0.234,1.643 -0.118,0.235 -0.118,0.353 -0.354,0.587 0,0.117 -0.234,0.353 -0.116,0.353 -0.353,0.234 -0.587,0.234 -1.059,0.234 -0.234,-0.47 -0.352,-0.821 -0.587,-1.291 -0.704,-1.174 -1.41,-2.351 -2.231,-3.407 -0.587,-0.705 -1.291,-1.644 -2.115,-2.231 z m 8.575,22.2 v 0 c 0,-0.117 0,-0.234 -0.116,-0.352 0,-0.474 0,-0.942 0,-1.412 -0.235,-2.348 -0.588,-4.581 -1.176,-6.811 -0.235,-1.295 -0.587,-2.469 -1.056,-3.643 1.056,-0.234 1.996,-0.821 2.7,-1.764 1.879,-2.347 1.527,-5.872 0.589,-8.575 0.234,0.121 0.47,0.121 0.704,0.238 -0.117,0.822 0.117,1.644 0.586,2.465 h 0.119 c 0.469,1.765 2.466,3.407 3.642,4.581 1.407,1.53 2.701,3.172 3.759,5.05 0.939,1.647 1.643,3.29 2.229,4.933 0.354,0.826 0.589,1.766 0.823,2.586 0.353,1.057 0.588,2.113 0.939,3.29 0.706,3.052 1.058,6.225 1.176,9.396 -0.822,-0.117 -1.646,-0.352 -2.35,-0.469 -1.879,-0.47 -3.759,-0.821 -5.757,-1.178 -2.349,-0.47 -4.698,-0.939 -7.047,-1.291 0.234,-0.938 0.234,-1.761 0.234,-2.699 0.002,-1.411 0.002,-2.818 0.002,-4.345 z m -34.416,-5.875 v 0 c 1.762,3.524 2.231,7.401 3.641,10.926 0.118,0.352 0.352,0.586 0.705,0.822 0,0 0,0 0,0.117 0.117,3.172 -0.47,6.34 -1.174,9.513 -0.706,3.174 -1.763,6.463 -2.818,9.514 -0.471,1.53 -1.058,3.056 -1.528,4.464 -0.352,1.178 -0.469,2.352 -0.469,3.524 -0.119,0.235 -0.119,0.588 -0.119,0.939 0,0.47 0.588,0.825 1.058,0.704 v 0 c 0,0 0.117,-0.113 0.235,-0.234 0.941,-1.174 1.762,-2.113 2.466,-3.521 0.47,-1.062 0.941,-2.116 1.293,-3.174 0.234,-0.469 0.469,-1.056 0.586,-1.642 0,0 0,0 0.117,0 1.176,-3.408 2.232,-6.815 2.936,-10.34 0.354,-1.76 0.707,-3.643 0.824,-5.402 0.118,0 0.235,-0.118 0.235,-0.118 7.399,-0.938 14.918,-0.469 22.2,0.47 3.524,0.353 7.048,0.939 10.572,1.408 1.763,0.234 3.524,0.474 5.285,0.587 1.175,0.121 2.231,0.238 3.29,0.356 0,1.643 -0.118,3.403 -0.353,5.05 0,0.588 -0.117,1.174 -0.234,1.644 -0.235,1.057 -0.354,2.116 -0.235,3.172 0,0.117 0,0.234 0,0.352 0.118,0.471 0.704,0.705 1.174,0.471 0.704,-0.588 1.174,-1.174 1.527,-1.878 0.702,-0.352 1.294,-0.825 1.411,-1.647 0,-0.469 0,-0.938 -0.471,-1.173 v 0 c 0.471,-1.878 0.705,-3.877 0.939,-5.989 0,-0.356 0,-0.709 0,-1.178 0.117,-0.704 0.117,-1.408 0.117,-2.229 0,-0.704 -0.117,-1.529 -0.117,-2.234 -0.117,-2.581 -0.469,-5.05 -0.939,-7.515 -0.823,-4.111 -2.232,-8.223 -4.112,-11.982 -0.117,-0.117 -0.117,-0.117 -0.117,-0.234 0.352,0.117 0.706,0.352 1.058,0.586 0.704,0.354 1.644,0.236 1.997,-0.586 0.937,-1.881 1.175,-3.993 1.175,-5.993 0.588,0.708 1.292,1.412 2.113,1.882 1.291,0.704 2.587,0.821 3.877,-0.353 1.056,-0.938 1.643,-3.29 1.29,-4.933 1.057,0.353 2.234,0.588 3.291,0.939 1.642,0.469 3.172,0.938 4.698,1.525 0.234,0.117 0.586,0.235 0.821,0.353 0.117,0 0.117,0.117 0.117,0.117 0,0 0,0 0.117,0 v 0 0 0 0 0 0 0 0 h 0.117 v 0 0 c 0,0.117 0,0.117 0,0.117 0.117,0 0.117,0 0.117,0 0.471,0.117 0.943,0.352 1.296,0.591 1.056,0.586 1.994,1.056 2.934,1.525 1.177,0.704 1.764,1.643 2.703,2.465 0.117,0.117 0.352,0.356 0.469,0.469 0.117,0.356 0.353,0.708 0.471,1.061 0.469,1.057 0.938,1.995 1.29,3.169 0.708,2.468 0.825,5.054 1.764,7.4 v 0 c -3.876,1.647 -7.518,3.76 -10.809,6.346 -0.821,0.704 -1.642,1.407 -2.347,2.112 -1.295,1.173 -2.468,2.469 -3.407,3.759 -1.174,1.526 -2.229,3.173 -3.055,4.934 -1.057,2.116 -1.761,4.229 -2.112,6.463 -0.353,1.995 -0.587,4.228 0,6.224 v 0 c -0.235,-0.118 -0.587,-0.235 -0.939,-0.235 -2.116,-0.352 -4.346,-0.234 -6.463,0.235 -1.995,0.587 -3.994,1.408 -5.871,2.585 -1.059,0.705 -2.587,1.644 -3.408,2.817 -1.645,-0.587 -3.523,-0.705 -5.05,-0.587 -1.997,0.117 -3.876,0.704 -5.639,1.408 -1.057,0.474 -2.467,0.942 -3.64,1.765 -0.473,-0.118 -0.941,0.117 -1.293,0.47 -1.06,-0.47 -2.35,-0.822 -3.289,-0.939 -2.703,-0.587 -5.287,-0.47 -7.87,-0.117 -2.584,0.469 -5.05,1.291 -7.401,2.464 -1.525,0.822 -3.171,1.765 -4.346,3.057 -0.587,-0.236 -1.292,-0.471 -1.878,-0.705 -1.762,-0.587 -4.581,-1.178 -6.695,-0.587 -0.706,-0.942 -1.292,-1.882 -1.879,-2.703 -0.705,-0.938 -1.528,-1.878 -2.231,-2.82 -0.589,-0.822 -1.293,-1.526 -1.997,-2.347 -5.991,-6.581 -13.625,-11.982 -21.731,-15.978 0.939,-1.407 1.528,-3.172 1.88,-4.228 1.056,-2.582 1.997,-5.168 2.818,-7.754 1.41,-4.698 2.466,-9.396 3.055,-14.212 1.292,0 2.584,-1.056 3.288,-1.878 1.645,-1.646 3.054,-3.642 4.229,-5.637 0,-0.239 0.117,-0.356 0.235,-0.474 0,0.234 0,0.474 0.117,0.708 0.235,1.408 0.941,2.934 2.231,3.756 1.176,0.825 2.702,0.708 4.112,0.234 1.056,-0.352 2.818,-1.291 3.877,-2.464 0.117,0.117 0.117,0.117 0.234,0.234 3.053,2.937 5.636,6.34 7.634,10.217 z m -10.69,-12.921 v 0 c -0.587,0.469 -1.173,1.06 -1.76,1.411 -0.235,0.118 -0.942,0.353 -1.059,0.47 0,0 -0.352,-0.117 -0.352,0 -0.118,-0.117 -0.352,-0.234 -0.352,-0.117 -0.469,-0.353 -0.823,-1.178 -0.94,-1.881 -0.353,-1.057 -0.705,-2.229 -0.822,-3.404 1.879,1.057 3.642,2.229 5.285,3.521 z m -12.92,-6.341 v 0 c 1.292,0.352 2.701,0.704 3.993,1.174 -0.117,0.353 -0.235,0.821 -0.352,1.173 -0.235,0.826 -0.587,1.413 -0.939,2.234 -0.821,1.644 -1.879,3.29 -2.938,4.815 -0.469,0.587 -0.938,1.173 -1.408,1.644 -0.117,0.117 -0.235,0.234 -0.352,0.356 0.117,-2.586 0,-5.289 -0.353,-7.872 -0.236,-1.178 -0.471,-2.703 -1.292,-3.524 -0.117,0 -0.117,-0.117 -0.117,-0.117 0,-0.117 0,-0.117 0,-0.117 1.292,-10e-4 2.466,-10e-4 3.758,0.234 z m -10.806,6.341 v 0 c -0.234,-0.117 -0.352,-0.234 -0.588,-0.47 -0.118,-0.235 -0.353,-0.587 -0.47,-0.939 0.352,0.47 0.706,0.94 1.058,1.409 z m -10.807,-10.571 v 0 l 0.47,0.117 c 0.469,0.236 0.938,0.471 1.292,0.705 1.526,1.056 2.819,2.234 4.11,3.524 -0.234,0.234 -0.469,0.47 -0.704,0.704 -1.293,1.408 -2.702,2.703 -4.229,3.877 -0.587,0.352 -1.293,0.821 -1.88,1.291 -0.352,0.118 -0.704,0.353 -1.056,0.47 0,0.117 0,0.117 0,0.117 0,0 0,0 -0.117,0 v 0 c -0.117,0.117 -0.353,0.117 -0.47,0.117 v 0.117 0 c 0,-0.117 0,-0.117 -0.117,-0.117 v 0 c 0.117,-0.352 0.234,-0.586 0.234,-0.939 0.47,-1.642 0.939,-3.29 1.408,-5.05 0.235,-1.056 0.469,-2.112 0.587,-3.173 0.118,-0.704 0.237,-1.29 0.118,-1.878 0.12,10e-4 0.237,10e-4 0.354,0.118 z m -2.584,11.04 v 0 h -0.117 v 0 z m 0,0 z m -8.105,17.976 v 0 c 2.232,-2.82 3.76,-6.11 5.167,-9.4 0.705,-1.996 1.411,-3.989 1.998,-5.989 1.646,0.821 3.642,-0.234 5.052,-1.057 1.878,-1.177 3.522,-2.703 5.167,-4.11 -0.117,1.173 0.234,2.464 0.704,3.523 0.939,1.761 3.408,2.816 5.403,2.348 0,0.117 0,0.117 0,0.234 0.706,1.765 0.706,3.877 1.762,5.403 0,0.474 -0.118,1.06 -0.235,1.529 -0.234,1.525 -0.469,3.055 -0.821,4.581 -0.352,1.407 -0.706,2.699 -1.059,3.993 -0.47,1.761 -1.056,3.525 -1.525,5.286 -0.706,1.994 -1.293,4.11 -1.997,6.105 -0.117,0.353 -0.469,1.178 -0.589,2 -0.117,0 -0.352,-0.117 -0.469,-0.117 -6.93,-2.938 -14.564,-5.051 -22.083,-5.051 0,-0.352 0.117,-0.705 0.117,-1.178 0.234,-0.938 0.352,-1.996 0.469,-3.051 0.117,-0.704 0.236,-1.412 0.354,-2.117 1.058,-0.937 1.881,-1.994 2.585,-2.932 z m -93.029,-15.976 v 0 c 0.469,1.407 0.938,2.82 1.173,4.345 0.235,0.822 0.235,1.761 0.47,2.465 -0.822,2.469 -1.526,4.819 -1.997,7.284 -0.235,1.057 -0.352,2.116 -0.587,3.173 -0.235,0.587 -0.587,1.174 -0.822,1.76 -0.94,-5.871 -2.232,-11.625 -3.172,-17.502 -0.586,-3.285 -0.939,-6.692 -1.174,-10.101 -0.117,-1.761 -0.117,-3.642 0,-5.401 1.174,2.112 2.232,4.346 3.288,6.576 1.058,2.35 1.997,4.932 2.821,7.401 z m -15.742,1.407 v 0 c -1.76,-5.05 -3.289,-10.101 -4.346,-15.385 -1.056,-5.524 -1.409,-11.044 -1.173,-16.682 0.234,-3.055 0.587,-6.105 0.938,-9.16 0.118,-0.354 0.118,-0.705 0.235,-1.058 0.823,2.23 1.763,4.464 2.82,6.459 2.232,4.698 4.816,9.044 7.282,13.508 0.586,0.939 1.056,1.765 1.527,2.703 -0.471,3.052 -0.352,6.224 -0.234,9.279 0.234,3.407 0.704,6.811 1.408,10.218 1.175,6.697 2.938,13.155 4.933,19.618 -0.352,0.821 -0.586,1.761 -0.821,2.582 -1.88,-2.582 -3.995,-5.168 -6.344,-7.632 -0.586,-0.708 -1.292,-1.295 -1.879,-1.999 -1.173,-4.227 -2.819,-8.339 -4.346,-12.451 z m 11.747,27.959 v 0 c 1.409,2.112 2.702,4.229 3.875,6.341 0.472,0.704 0.823,1.292 1.176,1.995 2.349,4.467 4.581,8.927 6.813,13.512 1.175,2.465 2.349,4.934 3.407,7.515 0.47,1.296 0.822,2.469 1.174,3.76 -0.352,-0.117 -0.587,-0.234 -0.939,-0.469 -0.235,-0.235 -0.472,-0.471 -0.707,-0.705 -1.525,-1.407 -2.818,-2.703 -4.228,-4.11 -1.174,-1.292 -2.349,-2.586 -3.523,-3.878 -0.469,-0.352 -0.823,-0.82 -1.175,-1.173 -1.644,-1.882 -3.288,-3.76 -4.933,-5.638 -1.174,-1.411 -2.349,-2.82 -3.525,-4.347 -3.17,-3.876 -6.106,-7.987 -8.927,-12.216 -2.466,-3.76 -4.816,-7.872 -6.459,-12.217 -0.94,-2.703 -1.527,-5.521 -1.41,-8.458 0.47,0.353 0.939,0.704 1.527,1.057 7.282,5.05 13.039,11.746 17.854,19.031 z m -10.455,14.329 v 0 c -9.396,-8.574 -17.502,-18.909 -23.023,-30.423 -1.878,-3.76 -2.936,-7.636 -3.757,-11.748 -0.354,-1.643 -0.589,-3.407 -0.941,-5.167 1.763,1.76 3.759,3.289 5.639,4.698 3.758,2.586 7.635,4.815 11.511,7.167 -1.291,3.289 -0.586,6.928 0.587,10.218 1.411,4.346 3.76,8.574 6.226,12.451 4.816,7.519 10.455,14.447 16.328,21.144 0.234,0.822 0.352,1.526 0.587,2.347 -4.581,-3.168 -9.045,-6.81 -13.157,-10.687 z m 33.947,35.004 v 0 c -1.292,-0.821 -2.584,-1.881 -3.758,-2.938 -2.114,-1.761 -3.994,-3.995 -5.521,-6.106 -1.528,-2.233 -2.818,-4.581 -3.877,-7.167 1.41,0.704 2.821,1.408 4.346,2.116 0.706,0.587 1.528,1.174 2.349,1.643 0.119,0 0.237,0 0.354,0 0,0.235 0.117,0.47 0.117,0.587 0.705,1.882 3.171,1.526 3.406,-0.352 0.586,-0.235 0.823,-1.173 0.118,-1.525 v 0 c -0.118,-2.938 -1.409,-6.229 -2.467,-8.81 -1.409,-3.29 -2.936,-6.346 -4.464,-9.519 -2.701,-5.637 -5.519,-11.039 -8.692,-16.323 -0.118,-0.235 -0.352,-0.588 -0.47,-0.822 0.118,-0.708 0.352,-1.412 0.47,-2.116 0.235,-1.525 0.587,-3.173 0.821,-4.698 0.472,-2.82 1.058,-5.638 1.645,-8.458 1.41,-5.402 3.407,-10.569 6.46,-15.15 3.525,-5.289 8.223,-9.87 12.804,-14.333 4.581,-4.581 9.396,-8.928 14.095,-13.273 9.044,-8.575 17.502,-17.62 23.728,-28.424 2.466,-4.464 4.817,-8.928 6.93,-13.626 0.706,-1.529 1.293,-3.172 1.88,-4.698 0.471,-1.295 0.94,-2.468 1.41,-3.759 1.527,-4.347 2.584,-8.928 2.701,-13.508 0.235,-0.235 0.47,-0.47 0.587,-0.939 0,-0.591 0.237,-1.06 0.471,-1.647 0.118,0.119 0.352,0.119 0.586,0.236 1.057,0.469 2.115,0.938 3.171,1.529 2.938,1.525 5.64,3.521 8.106,5.989 3.524,3.524 5.991,7.87 7.751,12.569 4.111,11.508 2.585,23.725 1.292,35.59 -1.173,10.805 -2.819,21.613 -4.815,32.301 -1.058,5.641 -2.349,11.16 -3.288,16.798 -0.471,3.173 -0.94,6.345 -1.41,9.513 -0.117,0.588 -0.117,1.179 -0.235,1.648 -0.117,0.117 -0.235,0.117 -0.354,0.117 h 0.119 c 0,0 0.118,0 0.235,0 -0.117,0.938 -0.235,1.877 -0.354,2.698 -0.118,0.588 -0.118,1.062 -0.235,1.53 -1.525,0.234 -3.17,0.47 -4.698,0.821 -3.406,0.704 -6.46,1.995 -9.279,3.76 -1.292,0.938 -2.584,1.994 -3.76,3.051 -0.117,0 -0.234,0.117 -0.234,0.117 -0.586,0.356 -1.291,0.591 -1.88,0.943 -0.586,0.234 -1.173,0.469 -1.879,0.704 -1.291,0.47 -2.701,1.174 -3.992,1.994 -2.466,1.413 -4.935,3.174 -7.284,4.816 -4.933,3.643 -9.514,7.753 -13.86,12.1 -3.17,3.289 -6.343,6.697 -9.044,10.456 -0.824,0.939 -1.528,1.878 -2.115,2.817 -2.701,3.876 -5.05,7.988 -7.047,12.216 -0.352,-0.233 -0.588,-0.35 -0.94,-0.468 z m 73.884,92.794 v 0 c -8.927,-3.055 -17.62,-6.457 -26.077,-10.804 -9.162,-4.702 -18.088,-10.222 -25.959,-16.798 -7.517,-6.345 -14.094,-13.625 -18.441,-22.436 -4.346,-9.043 -5.05,-18.913 -2.818,-28.545 0.821,-3.406 1.88,-6.693 3.288,-9.982 3.173,-7.402 7.754,-14.213 12.804,-20.323 0.234,-0.117 0.353,-0.352 0.587,-0.586 0.117,-0.118 0.235,-0.235 0.352,-0.354 4.464,-5.284 9.633,-10.218 15.036,-14.681 2.583,-2.233 5.287,-4.346 7.988,-6.345 1.173,-0.704 2.232,-1.644 3.288,-2.465 4.935,0.821 9.985,1.761 14.8,3.051 5.17,1.53 10.103,3.408 14.801,5.759 9.045,4.581 17.15,10.805 23.846,18.324 13.39,15.15 20.086,35.238 19.264,55.321 0,1.765 -0.237,3.524 -0.354,5.172 -0.117,1.056 -0.235,2.229 -0.47,3.285 -0.821,5.877 -2.349,11.631 -4.229,17.385 -3.171,10.575 -8.927,20.205 -14.8,29.484 -0.588,-0.117 -1.174,-0.117 -1.761,-0.117 -7.168,-0.467 -14.332,-1.997 -21.145,-4.345 z m 26.664,4.464 v 0 c 3.29,-5.167 6.344,-10.569 9.044,-16.093 2.938,-5.99 5.17,-12.335 6.932,-18.793 1.056,-3.76 1.76,-7.52 2.347,-11.396 0.119,-1.057 0.354,-2.229 0.471,-3.286 0.587,-5.759 0.587,-11.513 0,-17.268 -1.997,-20.088 -11.394,-38.88 -26.546,-52.271 -6.695,-5.875 -14.332,-10.691 -22.554,-14.094 -6.93,-2.938 -14.564,-5.172 -22.2,-5.877 0.469,-0.586 0.941,-1.173 1.293,-1.759 5.637,-4.112 11.863,-5.99 18.206,-6.225 0.235,0.113 0.469,0 0.706,0 12.801,-0.239 26.312,5.872 36.53,13.392 3.759,2.816 7.401,6.105 10.455,9.747 1.88,2.112 3.64,4.581 5.285,7.046 1.293,2.116 2.584,4.346 3.877,6.58 5.873,10.804 9.75,22.669 11.862,34.887 1.645,9.279 2.233,18.792 1.41,28.306 -0.117,1.179 -0.234,2.352 -0.352,3.408 -0.118,1.524 -0.352,3.055 -0.587,4.463 -1.879,11.044 -5.521,22.67 -13.393,30.893 -2.464,2.586 -5.402,4.698 -8.455,6.579 -0.354,0.235 -0.588,0.471 -0.707,0.705 -2.701,0.234 -5.52,0.704 -8.338,0.821 -1.761,0.118 -3.524,0.235 -5.286,0.235 z m 47.572,-4.932 v 0 c -2.701,0.822 -5.521,1.408 -8.34,1.526 -2.818,0.234 -5.52,0.117 -8.34,-0.235 -1.291,-0.117 -2.701,-0.352 -3.994,-0.587 -0.586,0 -1.056,-0.117 -1.643,-0.235 5.754,-5.754 9.514,-13.507 11.98,-21.025 1.88,-5.754 3.172,-11.744 3.876,-17.854 0.117,-1.174 0.235,-2.347 0.353,-3.525 0.352,-4.815 0.469,-9.513 0.234,-14.328 -0.587,-12.452 -3.17,-24.903 -7.517,-36.647 -2.349,-6.227 -5.169,-12.568 -8.693,-18.322 0.939,0 1.998,0 2.937,0.234 0.706,0.234 1.527,0.469 2.114,0.821 0.235,0.234 0.587,0.352 0.939,0.469 0.117,0.117 0.237,0.117 0.354,0.234 0.938,0.588 2.115,1.644 3.17,1.878 0.117,0.117 0.234,0.117 0.234,0.117 0.47,0.591 0.941,1.296 1.411,1.883 1.056,1.407 2.114,2.934 3.053,4.346 1.88,2.934 3.642,5.871 5.169,9.044 2.115,4.229 3.875,8.692 5.402,13.274 3.643,10.335 6.344,21.025 7.634,31.947 0.236,1.647 0.472,3.291 0.59,4.933 0.116,1.179 0.234,2.352 0.234,3.525 0.352,5.637 0.352,11.396 -0.353,16.916 -0.472,3.759 -1.293,7.518 -2.467,11.038 -0.589,1.647 -1.175,3.29 -1.879,4.938 -0.59,1.173 -1.176,2.229 -1.646,3.402 -0.352,0.235 -0.704,0.471 -1.056,0.591 -1.289,0.703 -2.464,1.173 -3.756,1.642 z m 34.417,-9.748 v 0 c -2.703,1.877 -5.521,3.286 -8.575,4.346 -3.055,0.938 -6.108,1.526 -9.28,1.878 -1.644,0.234 -3.289,0.47 -5.051,0.704 -0.704,0.117 -1.527,0.117 -2.349,0.352 0.352,-0.703 0.704,-1.524 1.173,-2.229 1.059,-2.234 1.882,-4.581 2.586,-7.049 1.408,-5.051 2.114,-10.336 2.467,-15.503 0.235,-3.877 0.235,-7.754 0,-11.63 -0.117,-1.174 -0.235,-2.352 -0.353,-3.643 -0.471,-6.224 -1.527,-12.335 -2.938,-18.44 -1.763,-8.458 -4.347,-16.798 -7.517,-24.903 -1.646,-4.112 -3.524,-8.223 -5.639,-12.218 -1.409,-2.464 -2.937,-4.933 -4.581,-7.279 -1.646,-2.234 -3.523,-4.815 -5.991,-6.228 -0.118,0 -0.235,-0.118 -0.47,-0.118 0.824,-0.704 1.763,-1.173 2.586,-1.643 1.877,-0.939 3.992,-1.525 6.107,-1.995 1.997,-0.356 4.11,-0.356 6.225,-0.117 1.88,0.117 3.76,1.056 5.64,0.938 v 0 c 1.643,1.644 3.522,3.052 5.05,4.698 2.115,2.229 3.994,4.698 5.757,7.284 3.758,5.637 6.695,11.744 9.396,17.854 5.287,11.744 9.28,24.195 11.275,36.882 0.234,1.292 0.353,2.586 0.471,3.76 0,0 0,0 0,0.118 0.703,4.815 0.938,9.865 0.938,14.798 0,2.351 -0.117,4.815 -0.235,7.283 -0.117,1.175 -0.234,2.465 -0.234,3.761 -0.118,0.703 -0.118,1.29 0,1.994 -1.057,0.938 -1.878,1.999 -2.817,3.056 -1.059,1.171 -2.349,2.345 -3.641,3.289 z m 24.548,-9.515 v 0 c -1.644,0.939 -3.404,1.761 -5.402,2.465 -3.055,0.939 -6.106,1.291 -9.162,1.408 0.117,-0.469 -0.117,-0.938 -0.352,-1.29 0.586,-2.583 0.704,-5.169 0.938,-7.755 0.234,-3.52 0.353,-7.162 0.234,-10.687 -0.117,-3.407 -0.469,-6.815 -0.821,-10.218 -0.234,-1.295 -0.352,-2.469 -0.586,-3.76 -0.354,-2.468 -0.822,-4.814 -1.292,-7.166 -3.055,-13.978 -8.223,-27.603 -14.803,-40.171 -2.347,-4.347 -4.933,-8.576 -7.986,-12.569 -1.527,-1.878 -3.172,-3.643 -4.933,-5.403 -0.706,-0.704 -1.409,-1.295 -2.114,-1.998 0.821,-0.354 1.643,-0.705 2.466,-1.057 1.763,-0.47 3.406,-0.704 5.168,-0.47 1.294,0.117 2.467,0.704 3.76,1.173 1.646,2.117 3.993,3.995 5.874,5.994 2.349,2.465 4.463,5.168 6.576,7.866 2.938,3.878 5.758,7.871 8.34,11.865 5.989,9.515 11.16,19.618 14.803,30.306 0.352,1.056 0.704,2.117 1.056,3.173 0.47,1.291 0.822,2.581 1.174,3.877 1.29,4.58 2.234,9.396 2.586,14.211 0.234,3.291 0.234,6.693 -0.234,10.101 -0.234,1.53 -0.591,3.057 -0.825,4.698 -0.236,0.705 -0.353,1.53 -0.587,2.234 0,0.117 0,0.117 0,0.234 -0.353,0.117 -0.705,0.352 -0.939,0.469 -0.352,0.354 -0.586,0.588 -0.704,0.939 -0.705,0.589 -1.41,1.057 -2.235,1.531 z m 24.786,-15.39 v 0 c -0.47,1.175 -1.174,2.23 -1.878,3.291 -1.295,1.994 -3.29,3.524 -5.289,4.815 -2.229,1.29 -4.464,2.229 -6.928,2.938 -1.058,0.234 -2.117,0.469 -3.173,0.703 0.352,-0.942 0.587,-1.882 0.821,-2.82 0.586,-2.469 0.939,-5.05 1.06,-7.636 0.234,-5.285 -0.354,-10.688 -1.411,-15.973 -0.47,-2.233 -0.938,-4.463 -1.644,-6.58 -0.352,-1.291 -0.704,-2.581 -1.056,-3.877 -2.469,-7.515 -5.759,-14.799 -9.401,-21.847 -3.402,-6.576 -7.279,-13.04 -11.626,-19.028 -2.469,-3.407 -5.049,-6.698 -7.636,-9.866 -1.643,-1.882 -3.407,-3.76 -5.168,-5.523 -1.175,-1.174 -2.467,-2.464 -3.993,-3.403 0.469,-0.353 0.938,-0.704 1.407,-1.061 1.411,-0.938 3.057,-1.761 4.817,-2.347 1.528,-0.47 3.171,-0.938 4.818,-1.057 1.408,0 2.935,-0.234 4.225,0 0.117,0 0.117,0 0.117,0 0.708,0.353 1.412,0.587 2.117,0.939 1.29,0.586 2.581,1.29 3.759,1.995 0.587,0.352 1.057,0.586 1.525,0.938 l 0.117,0.121 c 3.643,2.348 6.697,5.402 9.515,8.571 6.579,7.519 11.63,16.211 15.741,25.256 1.995,3.993 3.642,8.222 5.167,12.451 0.47,1.407 1.058,2.82 1.409,4.346 0.708,2.116 1.295,4.229 1.882,6.346 0.47,1.761 0.821,3.402 1.173,5.167 0.117,0.821 0.234,1.526 0.353,2.348 0.117,0.352 0.117,0.586 0.234,0.938 v 0 0.355 c 0,0.236 0.117,0.588 0.117,0.822 0.353,3.169 0.353,6.458 0.117,9.632 -0.117,2.581 -0.704,5.05 -0.704,7.636 -0.232,0.473 -0.349,0.941 -0.584,1.41 z m 24.434,-24.903 v 0 c -2.587,4.815 -5.759,9.162 -9.635,13.04 -1.878,1.998 -3.995,3.876 -6.225,5.641 -1.291,1.056 -2.586,1.995 -3.994,2.934 0.47,-1.878 0.705,-3.759 0.822,-5.754 0.234,-3.408 0.117,-6.933 -0.235,-10.454 -0.469,-3.876 -1.291,-7.753 -2.347,-11.512 -0.708,-2.469 -1.413,-4.815 -2.234,-7.167 -0.469,-1.526 -1.056,-2.934 -1.525,-4.347 -2.117,-5.401 -4.463,-10.569 -7.05,-15.62 -4.346,-8.223 -9.513,-16.21 -16.089,-23.025 -2.469,-2.581 -5.289,-4.933 -8.34,-6.928 2.464,-3.524 5.05,-6.933 8.457,-9.748 3.521,-2.821 7.515,-4.816 11.861,-5.876 8.34,-1.995 17.032,0.352 24.081,4.933 1.174,0.825 2.348,1.646 3.525,2.586 0.821,0.704 1.761,1.408 2.464,2.234 3.524,3.285 6.345,7.162 8.693,11.273 2.232,3.994 3.759,8.105 4.697,12.568 0.47,2.469 0.705,5.051 0.939,7.637 0.234,2.581 -0.117,5.402 0.825,7.749 0.117,0.121 0.117,0.121 0.234,0.239 -1.291,10.219 -3.99,20.554 -8.924,29.597 z m 10.687,-86.097 v 0 c -0.471,4.815 -1.291,9.632 -1.995,14.33 -1.647,-3.76 -3.524,-7.284 -5.993,-10.571 -0.118,-0.234 -0.234,-0.474 -0.469,-0.591 -0.822,-1.173 -1.761,-2.347 -2.7,-3.285 -0.825,-0.943 -1.646,-1.647 -2.586,-2.469 -0.587,-0.469 -1.173,-0.939 -1.761,-1.408 -1.646,-2 -3.876,-3.524 -5.992,-4.934 -2.699,-1.764 -5.755,-3.289 -8.81,-4.346 -2.347,-0.825 -4.933,-1.295 -7.401,-1.412 1.529,-3.877 2.232,-8.223 2.703,-12.334 0.234,-1.644 0.469,-3.286 0.586,-5.051 6.11,-1.173 12.922,-0.469 18.794,1.295 1.412,0.47 2.82,0.939 4.11,1.525 1.178,0.587 2.352,1.175 3.407,1.761 0.705,0.47 1.408,0.942 2.116,1.412 1.292,0.939 2.466,2.112 3.639,3.291 0.942,1.173 1.646,3.285 3.173,3.402 0.117,0 0.117,0 0.234,0 10e-4,6.464 -0.469,12.922 -1.055,19.385 z"
   id="path5300"
   inkscape:connector-curvature="0"
   style="fill:#351b10" />
	<path
   d="m 523.007,761.75 c 8.458,4.581 17.384,-4.581 17.736,-12.686 0.235,-3.995 -2.114,-7.871 -5.756,-9.749 -2.35,-1.173 -5.168,-1.173 -7.751,-0.47 -1.059,0.235 -2.469,0.704 -3.759,1.408 -1.293,0.588 -2.467,1.525 -3.056,2.586 0,0.117 -0.117,0.235 -0.117,0.353 -0.587,0.938 -1.056,1.877 -1.408,2.816 -0.47,1.295 -0.824,2.469 -0.941,3.642 -0.822,4.699 0.588,9.631 5.052,12.1 z m 13.273,-11.982 z m -14.801,2.117 v 0 c 0.118,-0.117 0.235,-0.235 0.353,-0.353 0.235,-0.117 0.352,-0.117 0.586,-0.234 0,0 0,0 0.117,0 v 0 c 0.12,0 0.354,-0.117 0.472,-0.117 0.117,0 0.234,0 0.352,0 0.353,0 0.587,0 0.822,0.117 0.821,0.352 1.41,1.29 1.41,2.112 0,0.47 -0.117,0.821 -0.234,1.173 -0.235,0.353 -0.589,0.588 -0.823,0.825 -0.469,0.236 -1.056,0.354 -1.526,0.354 -0.118,0 -0.118,0 -0.235,0 -0.354,-0.117 -0.588,-0.117 -0.823,-0.354 -0.234,-0.12 -0.352,-0.237 -0.47,-0.355 -0.469,-0.352 -0.704,-0.938 -0.704,-1.525 -10e-4,-0.587 0.234,-1.174 0.703,-1.643 z"
   id="path5302"
   inkscape:connector-curvature="0"
   style="fill:#351b10" />
</g>
</svg>