<?xml version="1.0" encoding="UTF-8" standalone="no"?>
<!-- Generator: Adobe Illustrator 16.0.0, SVG Export Plug-In . SVG Version: 6.00 Build 0)  -->

<svg
   xmlns:ns="&amp;ns_sfw;"
   xmlns:dc="http://purl.org/dc/elements/1.1/"
   xmlns:cc="http://creativecommons.org/ns#"
   xmlns:rdf="http://www.w3.org/1999/02/22-rdf-syntax-ns#"
   xmlns:svg="http://www.w3.org/2000/svg"
   xmlns="http://www.w3.org/2000/svg"
   xmlns:sodipodi="http://sodipodi.sourceforge.net/DTD/sodipodi-0.dtd"
   xmlns:inkscape="http://www.inkscape.org/namespaces/inkscape"
   version="1.0"
   id="Layer_1"
   x="0px"
   y="0px"
   width="270"
   height="250"
   viewBox="0 0 270 250"
   enable-background="new 0 0 1400 980"
   xml:space="preserve"
   sodipodi:docname="Armadillo4.svg"
   inkscape:version="0.92.3 (2405546, 2018-03-11)"><defs
   id="defs4627" /><sodipodi:namedview
   pagecolor="#ffffff"
   bordercolor="#666666"
   borderopacity="1"
   objecttolerance="10"
   gridtolerance="10"
   guidetolerance="10"
   inkscape:pageopacity="0"
   inkscape:pageshadow="2"
   inkscape:window-width="2560"
   inkscape:window-height="1395"
   id="namedview4625"
   showgrid="false"
   inkscape:zoom="0.96326531"
   inkscape:cx="254.65537"
   inkscape:cy="249.49146"
   inkscape:window-x="-13"
   inkscape:window-y="-13"
   inkscape:window-maximized="1"
   inkscape:current-layer="Layer_1" />
<metadata
   id="metadata4550">
	<ns:sfw>
		<ns:slices />
		<ns:sliceSourceBounds
   height="883.218"
   width="1265.103"
   y="-931.609"
   x="67.449"
   bottomLeftOrigin="true" />
	</ns:sfw>
<rdf:RDF><cc:Work
     rdf:about=""><dc:format>image/svg+xml</dc:format><dc:type
       rdf:resource="http://purl.org/dc/dcmitype/StillImage" /><dc:title></dc:title></cc:Work></rdf:RDF></metadata>
<g
   id="g4622"
   transform="translate(-1017.3729,-670.82627)">
	<path
   d="m 1167.881,784.858 c -1.764,-2.82 -3.759,-5.406 -5.992,-7.754 -0.588,-0.469 -1.057,-1.057 -1.644,-1.525 -0.47,0.704 -1.056,1.408 -1.526,1.995 -1.998,2.469 -4.345,4.581 -6.696,6.58 -2.112,1.76 -4.347,3.638 -6.928,4.697 -0.117,0.236 -0.239,0.354 -0.353,0.588 -0.473,0.703 -1.647,0.352 -1.647,-0.47 -0.586,0.235 -1.173,0.47 -1.878,0.47 -0.352,0.117 -0.942,0 -1.056,-0.352 -0.355,-0.827 -0.942,-1.531 -1.295,-2.234 -0.235,0 -0.47,-0.117 -0.704,-0.234 -1.056,-1.409 -1.995,-2.586 -2.82,-4.112 -0.821,-1.408 -1.409,-2.934 -1.995,-4.464 -1.056,-3.406 -1.878,-6.928 -2.352,-10.452 -0.234,-2.469 -0.469,-4.933 -0.469,-7.401 -1.173,-0.117 -2.348,-0.117 -3.642,-0.117 -3.639,0.117 -7.163,0.821 -10.688,1.643 -1.761,0.474 -3.524,1.061 -5.284,1.412 -0.117,1.995 -0.235,3.995 -0.47,5.873 -0.234,1.881 -0.469,3.759 -0.704,5.754 -0.121,0.825 -0.235,1.647 -0.473,2.469 -0.117,0.586 -0.353,1.055 -0.471,1.525 -0.234,1.646 -0.586,3.055 -1.29,4.58 -0.234,0.353 -0.705,0.591 -1.174,0.591 -1.295,0 -3.877,0 -4.464,-1.412 -0.704,-0.352 -1.412,-0.704 -2.116,-1.056 -1.291,-0.705 -2.464,-1.644 -3.642,-2.469 -2.229,-1.76 -4.225,-3.639 -6.106,-5.755 -1.174,0.939 -2.229,1.878 -3.29,2.82 -3.994,3.995 -7.162,8.576 -9.631,13.626 -2.112,4.347 -3.76,8.927 -4.698,13.742 -0.117,0.939 -0.353,1.995 -0.47,2.938 -0.118,0.705 -0.118,1.409 -0.234,1.995 0.938,1.409 1.995,2.586 2.934,3.643 3.29,3.642 7.167,6.693 10.691,9.983 3.759,3.524 6.342,8.105 9.631,11.982 3.524,4.11 8.457,8.457 14.213,8.105 2.703,-0.117 6.462,-1.647 7.636,-4.229 0.117,-0.234 0.117,-0.352 0.117,-0.586 2.468,-1.647 4.463,-3.761 6.696,-5.642 2.699,-2.347 5.521,-4.698 8.576,-6.576 5.402,-3.523 11.625,-5.637 17.502,-8.105 5.871,-2.468 11.509,-5.519 15.972,-10.1 2.703,-2.703 5.52,-6.229 6.814,-10.105 -0.469,-2.229 -1.057,-4.346 -1.882,-6.341 -0.703,-2 -1.642,-3.759 -2.698,-5.52 z"
   id="path4552"
   inkscape:connector-curvature="0"
   style="fill:#d49a26" />
	<path
   d="m 1215.454,740.81 c -0.47,-3.055 -0.942,-6.228 -1.647,-9.399 -0.587,-2.465 -0.938,-4.934 -1.525,-7.397 -1.291,-2.703 -2.703,-5.169 -4.346,-7.755 -6.345,-9.63 -14.564,-18.088 -24.2,-24.55 -10.687,-7.046 -22.669,-11.744 -35.238,-14.096 -7.397,-1.408 -14.916,-1.995 -22.435,-1.995 -3.759,0 -7.518,0.235 -11.273,0.587 -2,0.117 -3.877,0.234 -5.876,0.47 -1.761,0.235 -3.643,0.118 -5.403,0.235 -0.352,0 -0.586,-0.235 -0.703,-0.471 -3.056,0.822 -6.228,1.526 -9.279,2.469 -9.514,2.817 -18.206,7.28 -26.076,13.273 -5.756,7.163 -9.28,16.09 -11.514,24.782 -1.408,5.641 -2.465,11.277 -1.878,17.033 0.47,5.52 2.229,10.926 5.051,15.858 3.056,5.05 6.932,9.396 11.513,13.038 2.465,1.995 5.05,3.877 7.866,5.285 2.938,1.408 5.876,2.347 9.049,3.29 0.113,-0.118 0.353,-0.353 0.47,-0.47 -6.933,-8.105 -11.982,-17.976 -15.038,-28.076 -1.643,-5.167 -2.698,-10.452 -3.051,-15.854 -0.121,-3.408 0.113,-6.814 0.704,-10.104 0.586,-3.643 1.291,-7.632 3.168,-10.923 0.118,-0.352 0.471,-0.586 0.943,-0.586 0,-0.117 0.118,-0.356 0.118,-0.47 0.352,-0.708 1.29,-0.238 1.29,0.353 0,0.234 0.117,0.469 0.117,0.586 0.118,0.235 0.234,0.588 0.234,0.939 -0.116,0.117 -0.116,0.353 -0.116,0.587 0.116,1.056 0.234,2.233 0.587,3.289 0.469,1.761 1.173,3.408 2.232,5.051 2.23,3.643 5.052,6.814 8.103,9.983 6.345,6.814 13.746,12.921 18.796,20.909 2.348,3.524 4.112,7.52 4.581,11.747 0,0.588 0.118,1.174 0.118,1.644 h 0.117 c 1.877,-0.587 3.76,-1.056 5.754,-1.526 3.643,-0.938 7.285,-1.528 11.044,-1.528 0.938,-0.118 1.995,0 2.934,0 0.234,-7.516 1.882,-15.151 4.698,-22.084 1.999,-4.933 4.581,-9.514 8.223,-13.507 2.233,-2.466 4.698,-4.698 7.401,-6.693 2.469,-1.882 5.286,-4.229 8.458,-4.698 0.47,-0.117 1.056,0 1.291,0.352 0.234,0.352 0.352,0.938 -0.118,1.408 -0.117,0.235 -0.234,0.353 -0.352,0.47 -1.056,2.938 -2.464,5.754 -2.82,8.927 -0.353,3.407 -0.117,6.814 0.469,10.104 2,10.219 7.401,20.202 6.933,30.771 -0.234,3.876 -1.174,7.401 -2.82,10.691 0.942,0.82 1.882,1.76 2.703,2.703 2.352,2.464 4.463,5.167 6.11,8.102 0.939,1.529 1.76,3.29 2.464,4.937 1.644,4.107 2.703,8.337 3.174,12.683 0.469,4.346 0.586,8.575 0.234,12.804 1.056,1.178 2.229,2.233 3.642,3.056 0.822,0.469 1.761,0.82 2.816,1.173 1.057,-0.938 2.233,-1.877 3.289,-2.816 2.353,-2 4.698,-4.112 6.933,-6.345 4.347,-4.229 8.34,-9.045 11.627,-14.212 6.697,-10.688 10.339,-22.787 11.043,-35.239 0.467,-6.231 0.232,-12.571 -0.589,-18.795 z"
   id="path4554"
   inkscape:connector-curvature="0"
   style="fill:#d49a26" />
	<path
   d="m 1152.257,718.375 c -2.698,2.112 -5.284,4.464 -7.401,7.162 -6.459,8.105 -9.631,18.911 -10.569,29.133 0,0.938 -0.118,1.878 -0.118,2.816 -0.116,1.06 -0.116,2.116 -0.116,3.172 0,3.525 0.234,6.933 0.82,10.457 0.47,2.464 1.056,5.05 1.883,7.516 0.469,1.295 0.938,2.468 1.407,3.642 -1.525,-6.929 -2.586,-13.978 -1.995,-21.145 0,-0.234 0,-0.47 0,-0.704 0.117,-0.821 0.117,-1.643 0.234,-2.464 0.47,-3.524 1.292,-7.05 2.465,-10.457 1.408,-4.229 3.525,-7.987 5.521,-11.982 0.469,-0.704 1.646,-0.469 1.764,0.234 0.117,0.239 0.117,0.474 0.117,0.708 0.939,4.229 1.291,8.459 1.525,12.688 0.353,4.697 0.353,9.396 0.353,13.977 0,0.353 -0.117,0.705 -0.117,0.939 0.234,0.234 0.352,0.47 0.352,0.704 0.235,0.352 0.117,0.938 -0.352,1.056 -0.118,3.643 -0.235,7.401 -0.47,11.044 -0.117,2.112 -0.352,4.346 -0.703,6.458 0,0 0,0.117 -0.119,0.117 1.644,-1.29 3.408,-2.582 4.934,-3.993 2.116,-1.995 4.229,-4.108 5.872,-6.576 0.474,-0.704 0.825,-1.29 1.177,-1.995 0.117,-0.239 0.236,-0.356 0.353,-0.591 4.464,-9.396 0.587,-20.084 -2.116,-29.48 -1.408,-5.055 -2.816,-10.339 -2.816,-15.624 0,-2.938 0.353,-6.225 1.408,-9.162 -1.176,0.704 -2.237,1.525 -3.293,2.35 z"
   id="path4556"
   inkscape:connector-curvature="0"
   style="fill:#d49a26" />
	<path
   d="m 1083.305,741.396 c 0.122,-0.117 0.356,-0.235 0.591,-0.117 3.287,1.76 6.342,4.346 9.162,6.928 2.816,2.469 5.402,5.167 7.632,8.106 1.647,2.232 3.173,4.58 4.347,7.048 v 0 c 0.356,0.939 0.708,1.761 0.942,2.699 0.471,1.062 0.705,2.234 0.939,3.408 0.117,-0.352 0.117,-0.822 0.117,-1.291 0.117,-1.525 0.235,-3.056 0.353,-4.581 0,-0.704 0,-1.529 0,-2.351 -0.117,-1.057 -0.235,-2.112 -0.353,-3.169 -0.822,-4.347 -2.938,-8.105 -5.402,-11.513 -5.523,-7.636 -12.804,-13.508 -18.914,-20.558 -2.699,-3.051 -5.402,-6.458 -7.046,-10.335 -0.234,-0.587 -0.469,-1.173 -0.703,-1.881 -0.356,1.177 -0.591,2.467 -0.825,3.641 -0.47,3.056 -0.822,6.228 -0.588,9.397 0.469,10.926 4.111,21.612 9.396,31.131 2.234,3.99 4.698,7.749 7.519,11.274 0.587,0.821 1.175,1.524 1.883,2.233 0.117,0.118 0.234,0.235 0.352,0.353 1.29,1.524 2.699,2.934 4.111,4.345 -1.412,-1.646 -2.703,-3.289 -3.877,-5.05 -0.469,-0.825 -1.056,-1.646 -1.529,-2.586 -0.821,-1.173 -1.525,-2.469 -2.113,-3.759 -1.76,-3.407 -3.29,-6.928 -4.463,-10.569 -0.704,-2 -1.291,-3.995 -1.643,-6.111 -0.356,-1.878 -0.943,-4.111 -0.591,-6.106 0.117,-0.35 0.351,-0.586 0.703,-0.586 z"
   id="path4558"
   inkscape:connector-curvature="0"
   style="fill:#d49a26" />
	<path
   d="m 1159.071,850.988 c 1.995,-2.232 3.877,-4.58 5.403,-7.048 1.29,-1.995 2.468,-4.112 3.642,-6.225 0.117,-0.469 0.352,-0.938 0.469,-1.412 0.471,-1.174 0.822,-2.347 1.174,-3.638 -0.117,-0.356 0.117,-0.708 0.353,-0.826 0,-0.117 0,-0.117 0,-0.117 0.352,-0.704 0.469,-1.643 0.942,-2.347 0,0 0,-0.117 0.113,-0.234 0,0 0,-0.117 0,-0.234 0.709,-3.057 1.178,-5.994 1.647,-9.045 0.939,-6.11 1.174,-12.218 0.469,-18.206 -0.117,-1.765 -0.469,-3.408 -0.821,-4.938 -1.295,3.877 -4.111,7.402 -6.814,10.105 -4.463,4.581 -10.101,7.632 -15.972,10.1 -5.877,2.469 -12.1,4.582 -17.502,8.105 -3.056,1.878 -5.877,4.229 -8.576,6.576 -2.233,1.881 -4.229,3.994 -6.696,5.642 0,0.234 0,0.352 -0.117,0.586 -1.174,2.582 -4.933,4.112 -7.636,4.229 -5.756,0.352 -10.688,-3.995 -14.213,-8.105 -3.289,-3.877 -5.872,-8.458 -9.631,-11.982 -3.524,-3.29 -7.401,-6.342 -10.691,-9.983 -0.938,-1.057 -1.995,-2.233 -2.934,-3.643 -0.234,2.234 -0.353,4.347 -0.234,6.581 0,2.581 0.469,5.167 0.703,7.749 0.47,2.468 1.057,4.815 1.408,7.401 0.588,3.76 1.178,7.636 1.765,11.396 0.821,5.285 1.407,10.569 1.995,15.854 0.117,0.234 0.234,0.47 0.234,0.587 0,0.234 0,0.352 -0.117,0.591 0.234,1.995 0.352,4.107 0.587,6.106 0.469,6.576 1.061,13.273 1.061,19.85 1.408,2.585 2.699,5.406 4.814,7.636 2.583,2.82 5.873,3.876 9.749,3.407 8.692,-1.056 16.798,-5.755 23.844,-10.574 5.167,-3.402 9.987,-7.045 14.803,-10.804 4.464,-3.408 8.926,-6.933 13.39,-10.571 4.697,-3.875 9.278,-7.988 13.389,-12.569 z m -73.649,-9.277 v 0 c -3.524,2.229 -7.167,-0.944 -8.105,-4.347 -0.822,-3.407 -0.588,-8.457 2.234,-10.926 0.352,-0.354 0.938,-0.235 1.29,0.234 1.644,-0.705 3.643,-0.47 5.167,0.587 1.766,1.177 2.586,2.938 2.821,4.937 0.469,3.286 -0.47,7.632 -3.407,9.515 z m 68.599,-3.408 v 0 c -1.061,3.408 -3.76,6.928 -7.636,6.811 -4.582,-0.117 -7.872,-3.873 -8.575,-8.219 -0.353,-2.233 -0.117,-4.346 0.703,-6.463 0.587,-1.173 1.647,-2.82 2.939,-3.407 l 0.116,-0.117 c 1.174,-1.057 2.464,-1.644 3.994,-1.878 2.347,-0.352 5.051,0.587 6.576,2.465 2.47,2.937 2.94,7.166 1.883,10.808 z"
   id="path4560"
   inkscape:connector-curvature="0"
   style="fill:#f5be4e" />
	<path
   d="m 1268.899,772.055 c 0.469,0.352 0.938,0.938 1.29,1.524 0.587,-0.469 1.174,-0.82 1.644,-1.29 1.765,-1.408 3.055,-2.938 4.468,-4.581 -2.587,1.174 -5.056,2.816 -7.402,4.347 z"
   id="path4562"
   inkscape:connector-curvature="0"
   style="fill:#f5be4e" />
	<path
   d="m 1266.782,773.345 c -3.286,2.117 -6.693,3.878 -10.687,4.698 -0.705,0.117 -1.291,0.353 -1.999,0.47 0.352,0.704 0.591,1.413 0.825,2.233 3.639,-1.173 7.045,-2.586 10.452,-4.345 0.822,-0.471 1.761,-0.939 2.703,-1.53 -0.117,-0.234 -0.356,-0.353 -0.47,-0.587 -0.233,-0.351 -0.471,-0.586 -0.824,-0.939 z"
   id="path4564"
   inkscape:connector-curvature="0"
   style="fill:#f5be4e" />
	<path
   d="m 1240.471,779.808 c -1.29,0.118 -2.582,0.235 -3.756,0.353 0.471,1.408 0.939,2.934 1.174,4.464 0.117,0 0.234,0 0.353,0 4.111,-0.353 7.87,-1.296 11.747,-2.352 0.938,-0.353 1.878,-0.587 2.699,-0.821 -0.234,-0.939 -0.586,-1.765 -0.821,-2.586 -3.761,0.469 -7.637,0.707 -11.396,0.942 z"
   id="path4566"
   inkscape:connector-curvature="0"
   style="fill:#f5be4e" />
	<path
   d="m 1232.956,780.512 c -1.295,0.117 -2.586,0.117 -3.759,0.352 -0.47,0.117 -0.822,0.117 -1.174,0.235 0,0.47 -0.122,0.939 -0.122,1.408 0,0.47 0,0.938 0,1.412 2.234,0.939 4.938,1.057 7.519,0.939 -0.117,-1.53 -0.352,-3.056 -0.586,-4.581 -0.587,0.118 -1.291,0.235 -1.878,0.235 z"
   id="path4568"
   inkscape:connector-curvature="0"
   style="fill:#f5be4e" />
	<path
   d="m 1171.64,862.732 c -2.938,1.413 -6.228,2.586 -9.513,3.172 -1.647,0.236 -3.291,0.354 -4.937,0.354 -1.409,0 -2.816,0 -4.112,-0.471 -0.469,0.705 -1.056,1.292 -1.524,2 0.234,0.703 0.234,1.76 0.234,2.347 0,2.586 0.234,5.168 0.117,7.754 0,2.464 -0.117,4.933 -0.117,7.401 0.117,2.347 0.234,4.815 0.821,7.162 0.234,1.057 0.586,2.117 1.06,3.056 v 0 c 1.174,0.117 2.229,0.469 3.403,0.821 0.709,-2.703 3.29,-5.755 6.346,-4.933 1.408,0.47 2.464,1.173 3.169,2.469 0,0.117 0.12,0.234 0.12,0.352 0.354,-1.765 0.822,-3.524 1.526,-5.289 0.703,-1.643 1.761,-3.286 3.525,-3.994 1.759,-0.704 3.402,0.591 4.345,1.882 0.939,1.291 1.644,2.703 2.112,4.229 0.471,-1.291 1.175,-2.703 2.234,-3.876 0.117,-0.118 0.117,-0.118 0.234,-0.235 -0.117,-0.939 -0.234,-1.877 -0.234,-2.82 -0.234,-2.581 -0.234,-5.167 -0.117,-7.632 0.234,-5.172 0.938,-10.222 1.995,-15.154 0.469,-2.23 1.056,-4.464 1.765,-6.576 -1.296,0.938 -2.587,1.995 -3.877,2.933 -2.702,1.88 -5.523,3.641 -8.575,5.048 z"
   id="path4570"
   inkscape:connector-curvature="0"
   style="fill:#f5be4e" />
	<path
   d="m 1140.274,786.502 c 0.239,0.352 0.591,0.586 0.942,0.82 0.705,-0.234 1.292,-0.469 1.996,-0.82 0.117,0 0.352,0 0.47,0 0.116,-0.118 0.116,-0.118 0.116,-0.235 0.471,-1.291 0.822,-2.586 1.057,-3.877 0.356,-2.112 0.591,-4.229 0.708,-6.342 0.234,-3.524 0.353,-7.048 0.47,-10.573 0,-0.821 0.117,-1.761 0.117,-2.699 0,-0.234 0,-0.352 0,-0.587 0,-4.346 0,-8.692 -0.234,-13.038 -0.235,-3.408 -0.704,-6.814 -1.174,-10.339 -3.407,6.228 -5.758,12.687 -6.697,19.734 -0.117,0.705 -0.117,1.526 -0.234,2.348 0,0.234 0,0.47 0,0.821 -0.587,8.223 0.469,16.445 2.464,24.434 0,0.118 0,0.235 0,0.353 z"
   id="path4572"
   inkscape:connector-curvature="0"
   style="fill:#f5be4e" />
	<path
   d="m 1086.947,753.966 c 1.178,3.521 2.586,6.928 4.229,10.101 0.587,1.173 1.178,2.348 1.881,3.407 0.47,0.938 1.057,1.761 1.526,2.582 0.821,1.294 1.761,2.585 2.703,3.76 1.877,2.468 3.759,4.933 6.105,7.048 0.117,0.117 0.354,0.117 0.588,0.235 0.587,0.117 1.178,0.235 1.646,0.235 0.352,-0.588 0.704,-1.291 0.822,-1.999 v 0 c 0,-0.235 0,-0.47 -0.118,-0.822 -0.235,0 -0.353,-0.117 -0.47,-0.353 -0.591,-0.938 -0.591,-1.877 -0.591,-2.934 -0.112,-1.06 -0.234,-2.233 -0.352,-3.289 -0.352,-1.882 -0.822,-3.76 -1.526,-5.523 -0.117,-0.471 -0.352,-0.939 -0.469,-1.292 -0.234,-0.586 -0.47,-1.173 -0.821,-1.643 -1.057,-2.233 -2.352,-4.229 -3.76,-6.11 -2.352,-2.934 -4.815,-5.52 -7.519,-7.984 -1.995,-1.882 -4.111,-3.643 -5.989,-5.641 0.235,1.529 0.353,3.173 0.587,4.697 0.472,1.882 0.941,3.76 1.528,5.525 z"
   id="path4574"
   inkscape:connector-curvature="0"
   style="fill:#f5be4e" />
	<path
   d="m 1074.025,860.15 c -0.351,0 -0.586,0 -0.938,0 -1.996,0 -4.111,-0.352 -5.989,-1.056 -1.765,-0.587 -3.525,-1.295 -5.169,-2.351 0.471,1.764 0.939,3.523 1.292,5.284 0.938,4.815 1.525,9.632 1.525,14.451 0,2.348 0,4.815 -0.352,7.28 v 0.117 c 0.704,0.469 1.29,1.178 1.764,1.881 1.174,-2.352 2.934,-4.228 5.402,-4.698 1.408,-0.234 2.583,0.117 3.76,0.705 -0.117,-5.876 -0.469,-11.748 -0.942,-17.619 -0.116,-1.294 -0.233,-2.702 -0.353,-3.994 z"
   id="path4576"
   inkscape:connector-curvature="0"
   style="fill:#f5be4e" />
	<path
   d="m 1276.301,767.708 c -1.413,1.644 -2.703,3.173 -4.468,4.581 -0.47,0.47 -1.057,0.821 -1.644,1.29 0.47,0.705 0.821,1.526 1.056,2 0,0.117 0,0.352 0.118,0.469 0.117,0.354 0.117,0.588 0.235,1.057 0.355,-0.469 0.825,-0.821 1.177,-1.174 0.704,-0.825 1.408,-1.764 2.112,-2.586 0.235,-0.352 0.587,-0.704 0.821,-1.056 0.118,-0.234 0.234,-0.469 0.354,-0.586 0.707,-1.647 1.528,-3.057 1.764,-4.699 -0.47,0.235 -1.056,0.47 -1.525,0.704 z"
   id="path4578"
   inkscape:connector-curvature="0"
   style="fill:#fab732" />
	<path
   d="m 1268.665,776.636 c -0.118,-0.588 -0.354,-1.174 -0.588,-1.765 -0.942,0.591 -1.881,1.06 -2.703,1.53 -3.407,1.759 -6.813,3.172 -10.452,4.345 0.234,0.588 0.352,1.174 0.469,1.761 0.117,0.234 0.117,0.47 0.234,0.821 0.118,0.705 0.353,1.53 0.353,2.352 3.643,-1.056 7.284,-2.352 10.453,-4.464 0.942,-0.587 1.764,-1.29 2.585,-1.999 0,-0.469 0,-1.057 -0.116,-1.643 0,-0.351 -0.119,-0.587 -0.235,-0.938 z"
   id="path4580"
   inkscape:connector-curvature="0"
   style="fill:#fab732" />
	<path
   d="m 1253.393,784.033 c -0.118,-0.588 -0.235,-1.174 -0.471,-1.761 0,-0.234 -0.117,-0.587 -0.234,-0.821 -0.821,0.234 -1.761,0.469 -2.699,0.821 -3.877,1.056 -7.636,1.999 -11.747,2.352 -0.118,0 -0.235,0 -0.353,0 0,0.703 0.117,1.29 0.117,1.995 0.117,1.173 0,2.351 -0.234,3.523 5.168,-1.525 10.57,-2.468 15.737,-3.759 0,-0.47 0,-0.821 0,-1.174 0,-0.351 -0.116,-0.82 -0.116,-1.176 z"
   id="path4582"
   inkscape:connector-curvature="0"
   style="fill:#fab732" />
	<path
   d="m 1227.901,783.919 c -0.117,0.587 -0.117,1.057 -0.117,1.525 -0.352,3.29 -0.704,6.576 -1.29,9.866 2.585,-1.878 5.402,-3.172 8.34,-4.229 0.352,-1.407 0.586,-2.938 0.586,-4.345 0,-0.588 0,-1.292 0,-1.878 -2.581,0.118 -5.284,0 -7.519,-0.939 z"
   id="path4584"
   inkscape:connector-curvature="0"
   style="fill:#fab732" />
	<path
   d="m 1172.345,835.247 c -0.234,0.587 -0.469,1.292 -0.821,1.882 -0.118,0.235 -0.234,0.587 -0.356,0.821 -1.173,2.934 -2.465,5.755 -4.106,8.458 -3.408,5.52 -7.285,10.805 -11.162,15.855 -0.234,0.352 -0.469,0.703 -0.82,0.942 -0.587,0.939 -1.292,1.761 -2,2.581 1.296,0.471 2.703,0.471 4.112,0.471 1.646,0 3.289,-0.117 4.937,-0.354 3.285,-0.586 6.575,-1.759 9.513,-3.172 3.053,-1.407 5.873,-3.168 8.576,-5.051 1.29,-0.938 2.581,-1.994 3.877,-2.933 0.47,-1.413 0.938,-2.821 1.524,-4.229 0.471,-1.295 1.058,-2.586 1.644,-3.876 1.056,-2.352 2.234,-4.464 3.642,-6.463 0.705,-0.938 1.291,-1.644 2.117,-2.465 -1.999,0.47 -3.878,0.704 -5.876,0.704 -4.935,0.237 -10.573,-0.351 -14.801,-3.171 z"
   id="path4586"
   inkscape:connector-curvature="0"
   style="fill:#fab732" />
	<path
   d="m 1153.786,860.15 c 3.873,-4.815 7.515,-9.865 10.688,-15.154 1.407,-2.348 2.586,-4.815 3.642,-7.28 -1.174,2.112 -2.352,4.229 -3.642,6.225 -1.526,2.468 -3.408,4.815 -5.403,7.048 -4.111,4.581 -8.692,8.693 -13.391,12.569 -4.464,3.639 -8.926,7.163 -13.39,10.571 -4.815,3.759 -9.636,7.401 -14.803,10.804 -7.046,4.819 -15.151,9.519 -23.844,10.574 -3.876,0.469 -7.166,-0.587 -9.749,-3.407 -2.115,-2.229 -3.406,-5.051 -4.814,-7.636 0,1.177 -0.122,2.351 -0.122,3.406 0,0.235 0,0.47 0,0.705 0,0.117 0,0.234 0,0.352 0.122,0.591 0.122,1.061 0,1.529 0,0.353 0,0.705 -0.113,1.057 0,0.118 0,0.235 0,0.353 -0.238,2.469 -0.356,5.05 -0.708,7.519 -0.117,1.878 -0.353,3.759 -0.704,5.52 0,0.469 -0.117,0.938 -0.117,1.408 0.117,0.708 0.469,1.412 0.821,1.999 1.06,1.877 2.82,3.29 4.815,4.111 5.172,2.348 11.514,1.995 16.916,0.587 6.227,-1.525 11.982,-4.346 17.032,-8.223 2.703,-2.112 5.285,-4.464 7.636,-7.05 2.113,-2.229 3.994,-4.815 6.341,-6.811 0.471,-0.938 0.943,-1.881 1.53,-2.703 0.938,-1.525 1.76,-2.934 2.816,-4.346 1.882,-2.582 3.876,-5.168 5.875,-7.633 3.995,-5.171 8.224,-10.221 12.213,-15.272 0.124,-0.352 0.358,-0.586 0.475,-0.822 z"
   id="path4588"
   inkscape:connector-curvature="0"
   style="fill:#fab732" />
	<path
   d="m 1072.031,841.476 c -0.47,-3.877 -0.939,-7.636 -1.291,-11.513 0,-0.47 -0.117,-0.938 -0.117,-1.526 -2.703,2.817 -6.463,4.815 -9.987,5.989 -2.112,0.704 -4.229,1.057 -6.342,1.291 0.822,1.647 1.526,3.525 2.349,5.406 0.942,2.229 1.881,4.581 2.584,6.928 0.822,2.117 1.409,4.229 2.114,6.346 0.238,0.821 0.354,1.525 0.589,2.348 1.644,1.056 3.404,1.764 5.169,2.351 1.878,0.704 3.993,1.056 5.989,1.056 0.352,0 0.587,0 0.938,0 -0.116,-0.703 -0.116,-1.408 -0.234,-2.116 -0.587,-5.521 -1.174,-11.041 -1.761,-16.56 z"
   id="path4590"
   inkscape:connector-curvature="0"
   style="fill:#fab732" />
	<path
   d="m 1208.17,816.689 c -3.876,1.76 -7.871,3.173 -11.981,3.994 -3.643,0.704 -7.516,0.939 -11.157,0.117 -0.234,-0.117 -0.587,-0.117 -0.825,-0.234 -0.939,-0.235 -1.761,-0.587 -2.582,-0.939 -1.878,-0.825 -3.76,-2.116 -5.167,-3.643 -0.119,1.526 -0.234,2.936 -0.471,4.347 -0.474,3.051 -1.177,6.225 -1.998,9.279 -0.234,1.056 -0.471,2.112 -0.822,3.173 2.703,1.057 5.285,1.878 8.224,2.112 3.173,0.234 6.458,0.234 9.631,-0.47 5.637,-1.174 11.044,-3.994 15.389,-7.987 4.464,-4.112 7.985,-9.162 10.688,-14.682 -1.175,0.704 -2.348,1.407 -3.525,1.995 -1.761,1.061 -3.526,1.999 -5.404,2.938 z"
   id="path4592"
   inkscape:connector-curvature="0"
   style="fill:#b08530" />
	<path
   d="m 1223.791,765.475 c -0.234,-2.582 -0.588,-5.168 -0.705,-7.632 -0.117,-0.943 -0.352,-1.765 -0.587,-2.586 -1.407,-5.989 -2.933,-11.983 -4.815,-17.854 -1.524,-4.581 -3.289,-9.045 -5.402,-13.39 0.587,2.464 0.938,4.933 1.525,7.397 0.705,3.172 1.178,6.345 1.647,9.399 0.821,6.225 1.056,12.564 0.587,18.793 -0.704,12.452 -4.346,24.552 -11.043,35.239 -3.287,5.167 -7.28,9.982 -11.627,14.212 -2.234,2.232 -4.58,4.345 -6.933,6.345 -1.056,0.939 -2.232,1.878 -3.289,2.816 0.821,0.234 1.647,0.47 2.351,0.587 0.588,0.118 1.057,0.235 1.644,0.235 3.173,0.473 6.581,0 9.632,-0.705 3.993,-0.938 7.753,-2.348 11.512,-3.876 1.878,-0.704 3.76,-1.644 5.638,-2.582 1.178,-0.588 2.234,-1.174 3.29,-1.882 0.352,-0.117 0.703,-0.352 1.056,-0.587 0.939,-2.229 1.765,-4.464 2.469,-6.811 v 0 c 0,-0.821 0.234,-1.647 0.703,-2.469 0.118,-0.704 0.354,-1.408 0.471,-2.112 1.408,-6.11 2.232,-12.217 2.351,-18.44 0,-1.061 0,-2.116 0,-3.172 0,-3.641 -0.12,-7.283 -0.475,-10.925 z"
   id="path4594"
   inkscape:connector-curvature="0"
   style="fill:#b08530" />
	<path
   d="m 1070.623,762.893 c -4.581,-3.642 -8.457,-7.988 -11.513,-13.038 -2.821,-4.933 -4.581,-10.339 -5.051,-15.858 -0.587,-5.756 0.47,-11.393 1.878,-17.033 2.233,-8.692 5.758,-17.619 11.514,-24.782 -2,1.525 -3.878,3.052 -5.637,4.816 -0.588,0.469 -1.062,0.938 -1.648,1.407 -8.81,8.341 -16.324,17.973 -22.317,28.425 -6.224,11.16 -10.687,23.377 -12.334,35.946 -0.938,7.397 -0.821,14.916 -0.117,22.317 0.352,3.877 0.825,7.632 1.413,11.509 0.586,3.407 1.29,6.814 1.29,10.223 0.352,1.759 0.821,3.52 1.408,5.167 6.228,4.347 13.391,7.046 21.026,5.285 3.408,-0.821 6.58,-2.347 9.631,-4.112 1.529,-1.056 3.056,-1.995 4.581,-3.172 1.412,-0.821 2.821,-1.761 4.111,-2.699 0.118,-1.295 0.353,-2.586 0.47,-3.877 -0.235,-1.173 -0.117,-2.469 0.353,-3.642 0.117,-0.353 0.352,-0.47 0.708,-0.587 1.057,-4.346 2.816,-8.458 4.698,-12.217 2.464,-4.698 5.637,-9.279 9.514,-12.921 0.117,-0.234 0.353,-0.352 0.47,-0.471 0.82,-0.82 1.643,-1.524 2.468,-2.111 -3.173,-0.943 -6.11,-1.882 -9.049,-3.29 -2.817,-1.408 -5.402,-3.29 -7.867,-5.285 z"
   id="path4596"
   inkscape:connector-curvature="0"
   style="fill:#b08530" />
	<path
   d="m 1070.271,820.918 c -0.117,-0.234 -0.117,-0.352 -0.239,-0.587 -1.056,-3.642 -1.408,-7.401 -1.29,-11.277 -1.057,1.056 -2.113,2.115 -3.291,3.055 -1.525,1.29 -3.051,2.465 -4.698,3.524 -3.051,1.878 -6.575,3.76 -10.101,4.464 -3.994,0.821 -7.988,0.704 -11.865,-0.352 -2.464,-0.708 -5.05,-1.765 -7.397,-3.29 2.23,4.933 5.521,9.396 9.984,12.452 3.759,2.581 8.223,3.876 12.92,3.523 2.7,-0.234 5.286,-0.825 7.872,-1.765 3.051,-1.173 5.637,-3.055 8.223,-5.05 -0.117,-0.353 -0.117,-0.821 -0.117,-1.173 -10e-4,-1.177 -10e-4,-2.35 -10e-4,-3.524 z"
   id="path4598"
   inkscape:connector-curvature="0"
   style="fill:#b08530" />
	<path
   d="m 1181.39,893.625 c -0.353,-1.057 -0.353,-2.112 -0.353,-3.286 -0.821,1.174 -1.529,2.465 -2,3.877 0.118,0.235 0.118,0.47 0.236,0.704 0.234,-0.234 0.707,-0.352 0.942,-0.586 0.234,-0.118 0.586,-0.235 0.821,-0.47 -0.117,0 -0.117,0.117 -0.117,0.117 10e-4,-0.117 0.236,-0.234 0.471,-0.356 z"
   id="path4600"
   inkscape:connector-curvature="0"
   style="fill:#ffffff" />
	<path
   d="m 1085.07,828.671 c -0.47,0 -0.821,0.118 -1.175,0.354 -1.764,0.938 -1.411,4.345 1.175,4.345 0.469,0 0.938,-0.234 1.29,-0.469 1.531,-1.061 1.057,-4.23 -1.29,-4.23 z"
   id="path4602"
   inkscape:connector-curvature="0"
   style="fill:#ffffff" />
	<path
   d="m 1151.083,828.789 c -0.117,-0.353 -0.352,-0.704 -0.587,-1.061 -0.234,-0.117 -0.352,-0.234 -0.469,-0.352 -0.352,-0.117 -0.704,-0.234 -1.178,-0.234 -0.118,0 -0.587,0 -0.587,0.117 v 0 c -0.353,0 -0.821,0.234 -1.056,0.59 -0.117,0 -0.117,0.113 -0.234,0.235 0,0 -0.117,0.117 -0.117,0.234 -0.235,0.352 -0.354,0.705 -0.354,1.057 0,0.821 0.471,1.643 1.174,1.995 0.47,0.352 1.174,0.469 1.766,0.234 0.352,-0.117 0.703,-0.234 1.055,-0.587 0,0 0.118,-0.118 0.118,-0.235 0.234,-0.234 0.352,-0.469 0.469,-0.703 0,-0.234 0,-0.47 0,-0.704 0,-0.938 0,-0.351 0,-0.586 z"
   id="path4604"
   inkscape:connector-curvature="0"
   style="fill:#ffffff" />
	<path
   d="m 1172.932,887.401 c -0.353,-0.234 -0.47,-0.234 -0.821,-0.117 -1.179,0.352 -1.999,2.233 -2.586,3.289 -0.822,2.112 -1.408,4.347 -1.878,6.576 1.644,-0.117 3.173,-0.352 4.581,-0.586 1.407,-0.117 2.816,-0.47 4.11,-0.822 -0.586,-2.351 -0.938,-4.815 -2.233,-6.932 -0.351,-0.586 -0.705,-1.056 -1.173,-1.408 z"
   id="path4606"
   inkscape:connector-curvature="0"
   style="fill:#ffffff" />
	<path
   d="m 1163.183,893.508 c -1.998,0.117 -2.703,1.999 -3.289,3.524 0.234,0.117 0.469,0.117 0.586,0.117 0.117,0 0.235,0 0.235,0 0.117,0 0.117,0 0.117,0 0,0 0,0 0,0.118 0.939,0 1.882,0 2.82,0 0.705,0 1.291,0 1.995,0 -0.235,-0.704 -0.235,-1.526 -0.587,-2.23 -0.351,-0.586 -1.056,-1.529 -1.877,-1.529 z"
   id="path4608"
   inkscape:connector-curvature="0"
   style="fill:#ffffff" />
	<path
   d="m 1073.088,884.111 c -0.118,0 -0.821,-0.117 -1.057,-0.117 -3.407,0.825 -4.463,5.523 -5.402,8.574 1.408,0.235 2.816,0.353 4.229,0.353 1.174,0 2.934,-0.353 4.229,0.117 0.117,-1.877 0.234,-3.759 0.234,-5.637 -0.234,-0.704 -0.469,-1.409 -0.942,-1.995 -0.354,-0.587 -0.704,-0.942 -1.291,-1.295 z"
   id="path4610"
   inkscape:connector-curvature="0"
   style="fill:#ffffff" />
	<path
   d="m 1064.16,887.987 c -0.116,-0.352 -0.234,-0.586 -0.352,-0.703 -0.353,1.056 -0.821,1.995 -1.525,2.82 0,0.234 0.117,0.469 0.234,0.704 0.352,0.587 1.173,1.057 2.112,1.408 0,-0.586 0,-1.291 0.117,-1.878 -0.116,-0.82 -0.233,-1.646 -0.586,-2.351 z"
   id="path4612"
   inkscape:connector-curvature="0"
   style="fill:#ffffff" />
	<path
   d="m 1086.008,827.26 c -1.524,-1.057 -3.523,-1.292 -5.167,-0.587 -0.352,-0.47 -0.938,-0.588 -1.29,-0.234 -2.822,2.469 -3.057,7.519 -2.234,10.926 0.938,3.402 4.581,6.576 8.105,4.347 2.938,-1.883 3.876,-6.229 3.407,-9.515 -0.235,-2 -1.056,-3.76 -2.821,-4.937 z m 0.352,5.64 v 0 c -0.353,0.234 -0.821,0.469 -1.29,0.469 -2.586,0 -2.938,-3.406 -1.175,-4.345 0.354,-0.235 0.705,-0.354 1.175,-0.354 2.347,0.001 2.821,3.17 1.29,4.23 z"
   id="path4614"
   inkscape:connector-curvature="0"
   style="fill:#351b10" />
	<path
   d="m 1280.29,769.82 c 0.708,-1.525 1.06,-3.406 0.943,-5.05 0,-1.174 -1.061,-1.761 -2.116,-1.526 -4.347,0.588 -7.988,2.935 -11.51,5.285 -1.882,1.174 -3.641,2.469 -5.523,3.408 -2.112,1.173 -4.229,1.995 -6.576,2.464 -5.05,1.295 -10.339,1.412 -15.507,1.764 -2.581,0.236 -5.05,0.471 -7.519,0.705 -1.29,0.117 -2.582,0.234 -3.873,0.47 -0.117,0 -0.352,0 -0.474,0 0,-3.056 -0.112,-6.225 -0.469,-9.279 -0.117,-1.408 -0.234,-2.938 -0.352,-4.347 0,-0.117 0,-0.117 0,-0.234 0,-3.642 -1.056,-7.284 -1.878,-10.926 -0.821,-3.639 -1.761,-7.163 -2.703,-10.805 -1.995,-6.815 -4.346,-13.743 -7.632,-20.088 -5.524,-10.453 -13.038,-19.731 -22.083,-27.133 -9.049,-7.519 -19.619,-13.157 -30.779,-16.916 -14.212,-4.698 -29.832,-5.871 -44.752,-4.815 -2.348,0.117 -4.816,0.47 -7.163,0.704 -1.646,0.234 -3.29,0.587 -4.933,1.061 -0.122,-0.234 -0.356,-0.474 -0.708,-0.474 -6.342,0 -12.448,1.646 -18.324,3.76 -5.52,1.999 -10.805,4.698 -15.737,7.87 -0.234,0.117 -0.469,0.234 -0.704,0.353 -10.692,7.049 -19.618,16.445 -27.255,26.664 -7.636,10.339 -13.624,21.965 -17.267,34.183 -1.878,6.223 -3.169,12.568 -3.759,18.909 -0.705,7.636 -0.235,15.39 0.59,22.908 0.353,3.404 0.821,6.811 1.408,10.219 0.352,1.525 0.586,3.055 0.939,4.463 0.117,1.174 0.234,2.229 0.469,3.173 0.353,2.348 0.938,4.58 1.646,6.81 0.119,0.118 0.234,0.354 0.234,0.471 1.644,4.698 4.112,9.161 7.281,12.921 3.056,3.524 7.049,6.345 11.513,7.871 1.995,0.586 4.111,0.938 6.342,1.056 0.352,1.882 1.06,3.76 1.646,5.642 0.704,2.229 1.408,4.463 2.112,6.692 0.469,1.526 0.822,2.938 1.295,4.464 0.938,3.055 1.643,6.106 2.348,9.162 0.938,4.581 1.524,9.161 1.643,13.859 0.121,2.352 0,4.581 -0.235,6.933 -0.117,1.057 -0.234,2.229 -0.469,3.289 -0.117,0.352 -0.235,0.588 -0.235,0.939 -1.174,1.173 -1.29,3.407 -0.82,4.934 0.586,1.877 2.35,3.055 4.228,3.641 1.878,0.704 4.112,0.822 6.107,0.939 1.06,0 1.999,0 3.055,0 0.587,0 1.409,0 2.117,-0.117 -0.118,0.821 -0.239,1.643 -0.239,2.351 -0.234,1.761 -0.469,3.521 -0.704,5.169 0,0.117 0,0.234 0,0.352 -0.234,1.995 -0.704,3.993 -0.704,5.988 0,1.647 1.882,2 2.703,0.939 0.82,1.295 1.877,2.351 3.051,3.173 4.585,3.407 11.044,3.876 16.563,3.289 6.345,-0.703 12.568,-2.938 18.205,-6.228 5.877,-3.403 10.692,-8.102 14.921,-13.391 1.643,-1.995 3.173,-3.872 4.229,-6.224 0.235,-0.234 0.235,-0.47 0.117,-0.704 0.353,-0.47 0.704,-0.938 1.058,-1.291 1.056,-1.412 2.232,-2.586 3.289,-3.994 1.995,-2.586 3.994,-5.051 5.989,-7.636 1.765,-2.234 3.643,-4.581 5.52,-6.814 0,2.351 0.117,4.697 0,7.049 -0.118,4.933 -0.353,9.983 0.826,14.916 0.352,1.296 0.82,2.469 1.524,3.643 0.234,0.234 0.47,0.587 0.822,0.938 0,0.234 0.117,0.474 0.352,0.708 2.117,1.878 5.52,2.464 8.341,2.817 0.939,0.117 2.116,0.117 3.173,0.117 3.407,0 6.932,-0.354 10.335,-1.057 3.173,-0.587 6.462,-1.408 9.044,-3.524 0.939,-0.705 1.53,-2.112 1.413,-3.29 0.117,-1.291 -0.117,-2.582 -0.235,-3.873 -0.117,-1.647 -0.352,-3.289 -0.474,-5.054 -0.235,-2.465 -0.235,-4.934 -0.235,-7.397 0.118,-4.934 0.592,-9.753 1.53,-14.686 0.704,-3.639 1.644,-7.397 2.934,-10.922 0.474,-1.057 0.826,-2.117 1.296,-3.174 0.938,-2.112 2.112,-4.228 3.29,-6.34 0.939,-1.647 1.994,-3.408 3.168,-5.051 2.469,-0.708 4.698,-1.765 6.932,-3.055 9.396,-5.638 15.973,-15.272 19.85,-25.374 0.942,-2.468 1.765,-4.933 2.469,-7.4 0.586,-0.705 1.173,-1.291 1.76,-1.761 1.765,-1.408 3.759,-2.468 5.876,-3.29 4.347,-1.877 9.162,-2.934 13.86,-3.994 4.814,-1.057 9.631,-2.112 14.329,-3.76 4.934,-1.759 9.161,-4.462 13.038,-7.983 1.525,-1.295 2.821,-2.82 3.994,-4.464 1.173,-1.647 2.463,-3.876 2.229,-5.994 z m -254.775,-7.045 v 0 c 1.647,-12.569 6.11,-24.786 12.334,-35.946 5.993,-10.452 13.508,-20.084 22.317,-28.425 0.587,-0.469 1.061,-0.938 1.648,-1.407 1.759,-1.765 3.637,-3.291 5.637,-4.816 7.87,-5.993 16.563,-10.456 26.076,-13.273 3.052,-0.942 6.224,-1.646 9.279,-2.469 0.117,0.235 0.352,0.471 0.703,0.471 1.761,-0.117 3.643,0 5.403,-0.235 1.999,-0.235 3.876,-0.353 5.876,-0.47 3.756,-0.352 7.515,-0.587 11.273,-0.587 7.519,0 15.037,0.587 22.435,1.995 12.569,2.352 24.552,7.05 35.238,14.096 9.636,6.462 17.855,14.92 24.2,24.55 1.643,2.586 3.055,5.052 4.346,7.755 2.113,4.345 3.878,8.809 5.402,13.39 1.883,5.871 3.408,11.865 4.815,17.854 0.235,0.821 0.47,1.643 0.587,2.586 0.117,2.464 0.471,5.05 0.705,7.632 0.354,3.643 0.473,7.284 0.473,10.927 0,1.056 0,2.111 0,3.172 -0.118,6.224 -0.942,12.33 -2.351,18.44 -0.117,0.704 -0.353,1.408 -0.471,2.112 -0.469,0.821 -0.703,1.647 -0.703,2.469 v 0 c -0.704,2.347 -1.529,4.581 -2.469,6.811 -0.353,0.235 -0.704,0.47 -1.056,0.587 -1.056,0.708 -2.112,1.294 -3.29,1.882 -1.878,0.938 -3.76,1.878 -5.638,2.582 -3.759,1.528 -7.519,2.938 -11.512,3.876 -3.051,0.705 -6.459,1.178 -9.632,0.705 -0.587,0 -1.056,-0.117 -1.644,-0.235 -0.703,-0.117 -1.529,-0.353 -2.351,-0.587 -1.056,-0.353 -1.994,-0.704 -2.816,-1.173 -1.412,-0.822 -2.586,-1.878 -3.642,-3.056 0.352,-4.229 0.234,-8.458 -0.234,-12.804 -0.471,-4.346 -1.53,-8.575 -3.174,-12.683 -0.704,-1.646 -1.524,-3.407 -2.464,-4.937 -1.647,-2.935 -3.759,-5.638 -6.11,-8.102 -0.821,-0.943 -1.761,-1.883 -2.703,-2.703 1.646,-3.29 2.586,-6.815 2.82,-10.691 0.469,-10.569 -4.933,-20.553 -6.933,-30.771 -0.586,-3.29 -0.821,-6.697 -0.469,-10.104 0.356,-3.173 1.765,-5.989 2.82,-8.927 0.117,-0.117 0.234,-0.234 0.352,-0.47 0.47,-0.47 0.353,-1.057 0.118,-1.408 -0.235,-0.352 -0.821,-0.469 -1.291,-0.352 -3.172,0.469 -5.989,2.816 -8.458,4.698 -2.703,1.995 -5.168,4.228 -7.401,6.693 -3.642,3.993 -6.224,8.574 -8.223,13.507 -2.816,6.933 -4.464,14.568 -4.698,22.084 -0.938,0 -1.995,-0.118 -2.934,0 -3.759,0 -7.401,0.59 -11.044,1.528 -1.994,0.471 -3.877,0.939 -5.754,1.526 h -0.117 c 0,-0.47 -0.118,-1.056 -0.118,-1.644 -0.469,-4.228 -2.233,-8.223 -4.581,-11.747 -5.05,-7.988 -12.451,-14.095 -18.796,-20.909 -3.051,-3.169 -5.872,-6.341 -8.103,-9.983 -1.06,-1.643 -1.764,-3.29 -2.232,-5.051 -0.353,-1.056 -0.471,-2.233 -0.587,-3.289 0,-0.234 0,-0.47 0.116,-0.587 0,-0.352 -0.116,-0.704 -0.234,-0.939 0,-0.117 -0.117,-0.352 -0.117,-0.586 0,-0.591 -0.938,-1.061 -1.29,-0.353 0,0.113 -0.118,0.353 -0.118,0.47 -0.473,0 -0.825,0.234 -0.943,0.586 -1.877,3.291 -2.582,7.28 -3.168,10.923 -0.591,3.29 -0.825,6.696 -0.704,10.104 0.353,5.402 1.408,10.688 3.051,15.854 3.056,10.101 8.105,19.971 15.038,28.076 -0.117,0.117 -0.356,0.352 -0.47,0.47 -0.825,0.587 -1.647,1.291 -2.468,2.111 -0.117,0.119 -0.353,0.236 -0.47,0.471 -3.877,3.642 -7.05,8.223 -9.514,12.921 -1.882,3.759 -3.642,7.871 -4.698,12.217 -0.356,0.117 -0.591,0.234 -0.708,0.587 -0.47,1.173 -0.588,2.469 -0.353,3.642 -0.117,1.291 -0.352,2.582 -0.47,3.877 -1.29,0.938 -2.699,1.878 -4.111,2.699 -1.525,1.177 -3.052,2.116 -4.581,3.172 -3.051,1.766 -6.223,3.291 -9.631,4.112 -7.636,1.761 -14.799,-0.938 -21.026,-5.285 -0.587,-1.647 -1.057,-3.408 -1.408,-5.167 0,-3.408 -0.704,-6.815 -1.29,-10.223 -0.588,-3.877 -1.062,-7.632 -1.413,-11.509 -0.7,-7.401 -0.817,-14.919 0.122,-22.317 z m 133.204,8.106 v 0 c -0.352,0.705 -0.703,1.291 -1.177,1.995 -1.644,2.468 -3.756,4.581 -5.872,6.576 -1.525,1.411 -3.29,2.703 -4.934,3.993 0.119,0 0.119,-0.117 0.119,-0.117 0.352,-2.112 0.586,-4.346 0.703,-6.458 0.234,-3.643 0.352,-7.401 0.47,-11.044 0.469,-0.117 0.587,-0.704 0.352,-1.056 0,-0.234 -0.117,-0.47 -0.352,-0.704 0,-0.234 0.117,-0.587 0.117,-0.939 0,-4.581 0,-9.279 -0.353,-13.977 -0.234,-4.229 -0.586,-8.458 -1.525,-12.688 0,-0.234 0,-0.469 -0.117,-0.708 -0.117,-0.703 -1.295,-0.938 -1.764,-0.234 -1.995,3.995 -4.112,7.753 -5.521,11.982 -1.173,3.407 -1.995,6.933 -2.465,10.457 -0.117,0.821 -0.117,1.643 -0.234,2.464 0,0.234 0,0.47 0,0.704 -0.591,7.167 0.47,14.216 1.995,21.145 -0.469,-1.174 -0.938,-2.347 -1.407,-3.642 -0.827,-2.466 -1.413,-5.052 -1.883,-7.516 -0.586,-3.524 -0.82,-6.932 -0.82,-10.457 0,-1.056 0,-2.112 0.116,-3.172 0,-0.938 0.118,-1.878 0.118,-2.816 0.938,-10.222 4.11,-21.027 10.569,-29.133 2.117,-2.698 4.703,-5.05 7.401,-7.162 1.056,-0.825 2.117,-1.646 3.29,-2.352 -1.056,2.938 -1.408,6.225 -1.408,9.162 0,5.285 1.408,10.569 2.816,15.624 2.703,9.396 6.58,20.084 2.116,29.48 -0.114,0.236 -0.233,0.354 -0.35,0.593 z m -17.502,16.441 v 0 c -0.352,-0.234 -0.703,-0.469 -0.942,-0.82 0,-0.118 0,-0.235 0,-0.354 -1.995,-7.988 -3.051,-16.211 -2.464,-24.434 0,-0.352 0,-0.587 0,-0.821 0.117,-0.821 0.117,-1.643 0.234,-2.348 0.939,-7.048 3.29,-13.507 6.697,-19.734 0.47,3.524 0.938,6.931 1.174,10.339 0.234,4.346 0.234,8.692 0.234,13.038 0,0.235 0,0.353 0,0.587 0,0.938 -0.117,1.878 -0.117,2.699 -0.117,3.525 -0.235,7.049 -0.47,10.573 -0.117,2.112 -0.352,4.229 -0.708,6.342 -0.234,1.291 -0.586,2.586 -1.057,3.877 0,0.117 0,0.117 -0.116,0.235 -0.118,0 -0.353,0 -0.47,0 -0.703,0.353 -1.29,0.587 -1.995,0.821 z m -35.59,-5.988 v 0 c -0.469,0 -1.06,-0.118 -1.646,-0.235 -0.234,-0.118 -0.471,-0.118 -0.588,-0.235 -2.347,-2.115 -4.229,-4.58 -6.105,-7.048 -0.942,-1.175 -1.882,-2.466 -2.703,-3.76 -0.47,-0.821 -1.057,-1.644 -1.526,-2.582 -0.703,-1.06 -1.294,-2.234 -1.881,-3.407 -1.644,-3.173 -3.052,-6.58 -4.229,-10.101 -0.587,-1.765 -1.057,-3.643 -1.525,-5.524 -0.234,-1.524 -0.352,-3.168 -0.587,-4.697 1.878,1.998 3.994,3.759 5.989,5.641 2.703,2.465 5.167,5.051 7.519,7.984 1.408,1.882 2.703,3.877 3.76,6.11 0.352,0.47 0.587,1.057 0.821,1.643 0.117,0.353 0.352,0.821 0.469,1.292 0.704,1.764 1.175,3.642 1.526,5.523 0.117,1.056 0.239,2.229 0.352,3.289 0,1.057 0,1.996 0.591,2.934 0.117,0.235 0.234,0.353 0.47,0.353 0.118,0.353 0.118,0.587 0.118,0.822 v 0 c -0.121,0.707 -0.473,1.41 -0.825,1.998 z m -15.155,-12.1 v 0 c -2.82,-3.525 -5.284,-7.284 -7.519,-11.274 -5.285,-9.519 -8.928,-20.205 -9.396,-31.131 -0.234,-3.17 0.118,-6.342 0.588,-9.397 0.234,-1.174 0.469,-2.464 0.825,-3.641 0.234,0.708 0.469,1.294 0.703,1.881 1.644,3.877 4.347,7.284 7.046,10.335 6.11,7.05 13.391,12.922 18.914,20.558 2.464,3.407 4.58,7.166 5.402,11.513 0.117,1.057 0.235,2.112 0.353,3.169 0,0.821 0,1.646 0,2.351 -0.117,1.525 -0.235,3.056 -0.353,4.581 0,0.469 0,0.939 -0.117,1.291 -0.234,-1.174 -0.469,-2.347 -0.939,-3.408 -0.234,-0.938 -0.586,-1.76 -0.942,-2.699 v 0 c -1.174,-2.468 -2.699,-4.815 -4.347,-7.048 -2.229,-2.939 -4.815,-5.638 -7.632,-8.106 -2.82,-2.582 -5.875,-5.168 -9.162,-6.928 -0.234,-0.118 -0.469,0 -0.591,0.117 -0.352,0 -0.586,0.235 -0.703,0.587 -0.353,1.995 0.234,4.229 0.591,6.106 0.352,2.116 0.938,4.111 1.643,6.111 1.173,3.642 2.703,7.162 4.463,10.569 0.588,1.29 1.292,2.586 2.113,3.759 0.474,0.939 1.061,1.761 1.529,2.586 1.174,1.761 2.465,3.403 3.877,5.05 -1.412,-1.411 -2.821,-2.82 -4.111,-4.345 -0.117,-0.117 -0.234,-0.234 -0.352,-0.353 -0.709,-0.709 -1.296,-1.412 -1.883,-2.234 z m -49.098,59.673 v 0 c -4.464,-3.057 -7.754,-7.52 -9.984,-12.452 2.348,1.525 4.934,2.582 7.397,3.29 3.877,1.056 7.871,1.173 11.865,0.352 3.525,-0.704 7.05,-2.586 10.101,-4.464 1.647,-1.06 3.173,-2.234 4.698,-3.524 1.178,-0.939 2.234,-1.999 3.291,-3.055 -0.118,3.876 0.234,7.636 1.29,11.277 0.122,0.235 0.122,0.353 0.239,0.587 0,1.174 0,2.347 0,3.525 0,0.352 0,0.82 0.117,1.173 -2.586,1.995 -5.172,3.877 -8.223,5.05 -2.586,0.939 -5.172,1.53 -7.872,1.765 -4.696,0.352 -9.16,-0.943 -12.919,-3.524 z m 15.269,12.216 v 0 c -0.822,-1.881 -1.526,-3.759 -2.349,-5.406 2.113,-0.234 4.229,-0.587 6.342,-1.291 3.524,-1.174 7.284,-3.172 9.987,-5.989 0,0.588 0.117,1.057 0.117,1.526 0.352,3.877 0.821,7.636 1.291,11.513 0.587,5.52 1.174,11.039 1.76,16.559 0.118,0.708 0.118,1.413 0.234,2.116 0.119,1.292 0.236,2.699 0.354,3.995 0.474,5.871 0.825,11.743 0.942,17.619 -1.177,-0.588 -2.352,-0.939 -3.76,-0.705 -2.469,0.471 -4.229,2.347 -5.402,4.698 -0.474,-0.703 -1.06,-1.412 -1.764,-1.881 v -0.117 c 0.352,-2.465 0.352,-4.933 0.352,-7.28 0,-4.819 -0.587,-9.636 -1.525,-14.451 -0.353,-1.761 -0.821,-3.521 -1.292,-5.284 -0.234,-0.822 -0.351,-1.526 -0.589,-2.348 -0.705,-2.116 -1.292,-4.229 -2.114,-6.346 -0.704,-2.347 -1.642,-4.698 -2.584,-6.928 z m 5.875,49.686 v 0 c -0.117,-0.235 -0.234,-0.47 -0.234,-0.704 0.704,-0.825 1.173,-1.765 1.525,-2.82 0.117,0.117 0.235,0.352 0.352,0.703 0.353,0.705 0.47,1.53 0.587,2.352 -0.117,0.587 -0.117,1.292 -0.117,1.878 -0.941,-0.353 -1.762,-0.822 -2.113,-1.409 z m 8.339,2.112 v 0 c -1.412,0 -2.82,-0.117 -4.229,-0.353 0.939,-3.051 1.995,-7.749 5.402,-8.574 0.235,0 0.938,0.117 1.057,0.117 0.587,0.353 0.938,0.708 1.291,1.295 0.474,0.586 0.708,1.291 0.942,1.995 0,1.878 -0.117,3.76 -0.234,5.637 -1.295,-0.47 -3.055,-0.117 -4.229,-0.117 z m 70.243,-16.677 v 0 c -1.999,2.465 -3.993,5.051 -5.875,7.633 -1.057,1.412 -1.878,2.82 -2.816,4.346 -0.587,0.822 -1.06,1.765 -1.53,2.703 -2.347,1.995 -4.228,4.581 -6.341,6.811 -2.351,2.586 -4.933,4.938 -7.636,7.05 -5.05,3.877 -10.806,6.697 -17.032,8.223 -5.402,1.408 -11.744,1.761 -16.916,-0.587 -1.995,-0.821 -3.756,-2.234 -4.815,-4.111 -0.353,-0.587 -0.704,-1.291 -0.821,-1.999 0,-0.47 0.117,-0.939 0.117,-1.408 0.352,-1.761 0.587,-3.642 0.704,-5.52 0.352,-2.469 0.47,-5.05 0.708,-7.519 0,-0.117 0,-0.234 0,-0.353 0.113,-0.352 0.113,-0.704 0.113,-1.057 0.122,-0.469 0.122,-0.938 0,-1.529 0,-0.117 0,-0.234 0,-0.352 0,-0.235 0,-0.47 0,-0.705 0,-1.056 0.122,-2.229 0.122,-3.406 0,-6.576 -0.592,-13.273 -1.061,-19.85 -0.235,-1.999 -0.353,-4.111 -0.587,-6.106 0.117,-0.239 0.117,-0.356 0.117,-0.591 0,-0.117 -0.117,-0.353 -0.234,-0.587 -0.588,-5.285 -1.174,-10.569 -1.995,-15.854 -0.587,-3.76 -1.177,-7.636 -1.765,-11.396 -0.352,-2.586 -0.938,-4.934 -1.408,-7.401 -0.234,-2.582 -0.703,-5.168 -0.703,-7.749 -0.118,-2.234 0,-4.347 0.234,-6.581 0.116,-0.586 0.116,-1.29 0.234,-1.995 0.117,-0.942 0.353,-1.998 0.47,-2.938 0.938,-4.815 2.586,-9.396 4.698,-13.742 2.469,-5.05 5.637,-9.631 9.631,-13.626 1.061,-0.942 2.116,-1.881 3.29,-2.82 1.882,2.116 3.877,3.995 6.106,5.755 1.178,0.825 2.351,1.764 3.642,2.469 0.704,0.352 1.412,0.704 2.116,1.056 0.587,1.412 3.169,1.412 4.464,1.412 0.469,0 0.939,-0.238 1.174,-0.591 0.704,-1.525 1.056,-2.934 1.29,-4.58 0.118,-0.471 0.354,-0.939 0.471,-1.525 0.237,-0.821 0.352,-1.644 0.473,-2.469 0.235,-1.995 0.47,-3.873 0.704,-5.754 0.234,-1.878 0.353,-3.878 0.47,-5.873 1.76,-0.352 3.523,-0.938 5.284,-1.412 3.525,-0.821 7.05,-1.525 10.688,-1.643 1.294,0 2.469,0 3.642,0.117 0,2.469 0.234,4.933 0.469,7.401 0.474,3.524 1.296,7.046 2.352,10.452 0.586,1.53 1.174,3.056 1.995,4.464 0.825,1.526 1.765,2.703 2.82,4.112 0.234,0.117 0.469,0.234 0.704,0.234 0.353,0.703 0.939,1.407 1.295,2.234 0.113,0.352 0.704,0.469 1.056,0.352 0.705,0 1.292,-0.234 1.878,-0.47 0,0.821 1.175,1.173 1.647,0.47 0.113,-0.234 0.235,-0.352 0.353,-0.588 2.581,-1.06 4.815,-2.938 6.928,-4.697 2.352,-1.999 4.698,-4.111 6.696,-6.58 0.471,-0.587 1.057,-1.291 1.526,-1.995 0.587,0.469 1.056,1.057 1.644,1.525 2.233,2.348 4.229,4.934 5.992,7.754 1.056,1.761 1.995,3.52 2.699,5.52 0.825,1.995 1.413,4.111 1.882,6.341 0.353,1.529 0.704,3.173 0.821,4.938 0.705,5.988 0.471,12.096 -0.469,18.206 -0.47,3.051 -0.938,5.988 -1.647,9.045 0,0.117 0,0.234 0,0.234 -0.113,0.117 -0.113,0.234 -0.113,0.234 -0.474,0.704 -0.591,1.643 -0.942,2.347 0,0 0,0 0,0.117 -0.235,0.118 -0.47,0.47 -0.353,0.826 -0.352,1.291 -0.703,2.464 -1.174,3.638 -0.117,0.474 -0.352,0.943 -0.469,1.412 -1.056,2.465 -2.234,4.933 -3.642,7.28 -3.174,5.289 -6.815,10.339 -10.688,15.154 -0.117,0.235 -0.352,0.47 -0.474,0.821 -3.99,5.052 -8.218,10.102 -12.213,15.273 z m 22.552,21.024 v 0 c -0.938,0 -1.881,0 -2.82,0 0,-0.118 0,-0.118 0,-0.118 0,0 0,0 -0.117,0 0,0 -0.118,0 -0.235,0 -0.117,0 -0.352,0 -0.586,-0.117 0.586,-1.525 1.291,-3.407 3.289,-3.524 0.821,0 1.526,0.943 1.878,1.529 0.352,0.704 0.352,1.526 0.587,2.23 -0.705,0 -1.291,0 -1.996,0 z m 8.576,-0.705 v 0 c -1.408,0.234 -2.938,0.469 -4.581,0.586 0.47,-2.229 1.056,-4.464 1.878,-6.576 0.587,-1.056 1.407,-2.938 2.586,-3.289 0.352,-0.117 0.469,-0.117 0.821,0.117 0.469,0.352 0.822,0.821 1.173,1.408 1.296,2.116 1.647,4.581 2.233,6.932 -1.294,0.353 -2.703,0.705 -4.11,0.822 z m 8.692,-2.582 v 0 c 0,0 0,-0.117 0.117,-0.117 -0.235,0.234 -0.587,0.352 -0.821,0.47 -0.235,0.234 -0.708,0.352 -0.942,0.586 -0.118,-0.234 -0.118,-0.469 -0.236,-0.704 0.471,-1.412 1.179,-2.703 2,-3.877 0,1.174 0,2.229 0.353,3.286 -0.236,0.122 -0.471,0.239 -0.471,0.356 z m 9.982,-53.8 v 0 c -1.407,1.999 -2.586,4.111 -3.642,6.463 -0.586,1.29 -1.173,2.581 -1.644,3.876 -0.586,1.408 -1.055,2.816 -1.524,4.229 -0.709,2.112 -1.296,4.346 -1.765,6.576 -1.057,4.933 -1.761,9.982 -1.995,15.154 -0.117,2.465 -0.117,5.051 0.117,7.632 0,0.943 0.117,1.881 0.234,2.82 -0.117,0.117 -0.117,0.117 -0.234,0.235 -1.06,1.173 -1.764,2.585 -2.234,3.876 -0.469,-1.525 -1.173,-2.938 -2.112,-4.229 -0.942,-1.291 -2.586,-2.586 -4.345,-1.882 -1.765,0.708 -2.822,2.352 -3.525,3.994 -0.704,1.765 -1.173,3.524 -1.526,5.289 0,-0.117 -0.12,-0.234 -0.12,-0.352 -0.705,-1.296 -1.761,-1.999 -3.169,-2.469 -3.056,-0.822 -5.637,2.229 -6.346,4.933 -1.174,-0.353 -2.229,-0.704 -3.403,-0.821 v 0 c -0.474,-0.938 -0.825,-1.999 -1.06,-3.056 -0.587,-2.347 -0.704,-4.815 -0.821,-7.162 0,-2.469 0.117,-4.938 0.117,-7.401 0.117,-2.586 -0.117,-5.168 -0.117,-7.754 0,-0.587 0,-1.644 -0.234,-2.347 0.469,-0.708 1.056,-1.295 1.524,-2 0.708,-0.82 1.413,-1.642 2,-2.581 0.352,-0.239 0.586,-0.591 0.82,-0.942 3.877,-5.051 7.754,-10.336 11.162,-15.855 1.642,-2.703 2.934,-5.524 4.106,-8.458 0.122,-0.234 0.238,-0.586 0.356,-0.821 0.353,-0.59 0.587,-1.295 0.821,-1.882 4.229,2.82 9.866,3.408 14.799,3.173 1.998,0 3.877,-0.234 5.876,-0.704 -0.825,0.822 -1.411,1.527 -2.116,2.466 z m 15.507,-13.743 v 0 c -4.345,3.993 -9.752,6.813 -15.389,7.987 -3.173,0.704 -6.458,0.704 -9.631,0.47 -2.938,-0.234 -5.521,-1.056 -8.224,-2.112 0.352,-1.061 0.588,-2.117 0.822,-3.173 0.821,-3.055 1.524,-6.229 1.998,-9.279 0.236,-1.411 0.352,-2.82 0.471,-4.347 1.407,1.526 3.289,2.817 5.167,3.643 0.821,0.353 1.643,0.704 2.582,0.939 0.238,0.117 0.591,0.117 0.825,0.234 3.642,0.822 7.515,0.587 11.157,-0.117 4.11,-0.821 8.105,-2.234 11.981,-3.994 1.878,-0.939 3.643,-1.878 5.402,-2.938 1.178,-0.588 2.351,-1.291 3.525,-1.995 -2.7,5.52 -6.222,10.57 -10.686,14.682 z m 20.085,-31.127 v 0 c 0.586,-3.29 0.938,-6.576 1.29,-9.866 0,-0.469 0,-0.938 0.117,-1.525 0,-0.474 0,-0.942 0,-1.412 0,-0.469 0.122,-0.938 0.122,-1.408 0.352,-0.118 0.704,-0.118 1.174,-0.235 1.173,-0.234 2.464,-0.234 3.759,-0.352 0.587,0 1.291,-0.117 1.878,-0.234 0.234,1.525 0.469,3.051 0.586,4.581 0,0.586 0,1.29 0,1.878 0,1.407 -0.234,2.938 -0.586,4.345 -2.938,1.056 -5.755,2.35 -8.34,4.228 z m 11.277,-5.168 v 0 c 0.234,-1.173 0.352,-2.351 0.234,-3.523 0,-0.705 -0.117,-1.292 -0.117,-1.995 -0.234,-1.53 -0.703,-3.056 -1.174,-4.464 1.174,-0.117 2.466,-0.234 3.756,-0.353 3.76,-0.234 7.636,-0.473 11.396,-0.942 0.235,0.821 0.587,1.646 0.821,2.586 0.117,0.234 0.234,0.587 0.234,0.821 0.235,0.587 0.353,1.173 0.471,1.761 0,0.355 0.116,0.825 0.116,1.177 0,0.353 0,0.704 0,1.174 -5.166,1.29 -10.569,2.232 -15.737,3.758 z m 28.66,-8.927 v 0 c -3.169,2.112 -6.811,3.408 -10.453,4.464 0,-0.821 -0.234,-1.646 -0.353,-2.352 -0.117,-0.352 -0.117,-0.587 -0.234,-0.821 -0.117,-0.587 -0.234,-1.173 -0.469,-1.761 -0.234,-0.82 -0.474,-1.529 -0.825,-2.233 0.708,-0.117 1.294,-0.353 1.999,-0.47 3.993,-0.82 7.4,-2.581 10.687,-4.698 0.353,0.354 0.591,0.588 0.825,0.939 0.113,0.234 0.353,0.353 0.47,0.587 0.234,0.591 0.47,1.177 0.588,1.765 0.116,0.352 0.234,0.587 0.234,0.938 0.116,0.586 0.116,1.174 0.116,1.643 -0.822,0.709 -1.643,1.412 -2.585,1.999 z m 6.344,-5.285 v 0 c -0.352,0.353 -0.821,0.705 -1.177,1.174 -0.118,-0.469 -0.118,-0.703 -0.235,-1.057 -0.118,-0.117 -0.118,-0.352 -0.118,-0.469 -0.234,-0.474 -0.586,-1.295 -1.056,-2 -0.352,-0.586 -0.821,-1.173 -1.29,-1.524 2.346,-1.53 4.814,-3.173 7.401,-4.347 0.469,-0.234 1.056,-0.469 1.525,-0.704 -0.235,1.643 -1.057,3.052 -1.764,4.699 -0.119,0.117 -0.235,0.352 -0.354,0.586 -0.234,0.352 -0.586,0.704 -0.821,1.056 -0.702,0.822 -1.407,1.76 -2.111,2.586 z"
   id="path4616"
   inkscape:connector-curvature="0"
   style="fill:#351b10" />
	<path
   d="m 1152.14,827.494 c -1.525,-1.878 -4.229,-2.816 -6.576,-2.465 -1.53,0.234 -2.82,0.821 -3.994,1.878 l -0.116,0.117 c -1.292,0.587 -2.353,2.234 -2.939,3.407 -0.82,2.117 -1.056,4.229 -0.703,6.463 0.703,4.346 3.993,8.102 8.575,8.219 3.876,0.117 6.575,-3.402 7.636,-6.811 1.055,-3.641 0.585,-7.87 -1.883,-10.808 z m -4.933,0.356 v 0 c 0.234,-0.355 0.703,-0.59 1.056,-0.59 v 0 c 0,-0.117 0.469,-0.117 0.587,-0.117 0.474,0 0.826,0.117 1.178,0.234 0.117,0.117 0.234,0.234 0.469,0.352 0.235,0.356 0.47,0.708 0.587,1.061 0,0.235 0,-0.353 0,0.587 0,0.234 0,0.47 0,0.704 -0.117,0.234 -0.234,0.469 -0.469,0.703 0,0.117 -0.118,0.235 -0.118,0.235 -0.352,0.353 -0.703,0.47 -1.055,0.587 -0.592,0.234 -1.296,0.117 -1.766,-0.234 -0.703,-0.353 -1.174,-1.174 -1.174,-1.995 0,-0.352 0.118,-0.705 0.354,-1.057 0,-0.117 0.117,-0.234 0.117,-0.234 0.117,-0.123 0.117,-0.236 0.234,-0.236 z"
   id="path4618"
   inkscape:connector-curvature="0"
   style="fill:#351b10" />
	<path
   d="m 1229.9,823.03 c -0.117,0 -0.117,0.234 0,0.234 0.119,10e-4 0.119,-0.234 0,-0.234 z"
   id="path4620"
   inkscape:connector-curvature="0"
   style="fill:#351b10" />
</g>
</svg>