<?xml version="1.0" encoding="UTF-8" standalone="no"?>
<!-- Generator: Adobe Illustrator 16.0.0, SVG Export Plug-In . SVG Version: 6.00 Build 0)  -->

<svg
   xmlns:ns="&amp;ns_sfw;"
   xmlns:dc="http://purl.org/dc/elements/1.1/"
   xmlns:cc="http://creativecommons.org/ns#"
   xmlns:rdf="http://www.w3.org/1999/02/22-rdf-syntax-ns#"
   xmlns:svg="http://www.w3.org/2000/svg"
   xmlns="http://www.w3.org/2000/svg"
   xmlns:sodipodi="http://sodipodi.sourceforge.net/DTD/sodipodi-0.dtd"
   xmlns:inkscape="http://www.inkscape.org/namespaces/inkscape"
   version="1.0"
   id="Layer_1"
   x="0px"
   y="0px"
   width="600"
   height="300"
   viewBox="0 0 599.99999 300.00001"
   enable-background="new 0 0 1400 980"
   xml:space="preserve"
   sodipodi:docname="Armadillo1.svg"
   inkscape:version="0.92.3 (2405546, 2018-03-11)"><defs
   id="defs3949" /><sodipodi:namedview
   pagecolor="#ffffff"
   bordercolor="#666666"
   borderopacity="1"
   objecttolerance="10"
   gridtolerance="10"
   guidetolerance="10"
   inkscape:pageopacity="0"
   inkscape:pageshadow="2"
   inkscape:window-width="2560"
   inkscape:window-height="1395"
   id="namedview3947"
   showgrid="false"
   units="px"
   inkscape:zoom="1.1408163"
   inkscape:cx="700"
   inkscape:cy="490"
   inkscape:window-x="-13"
   inkscape:window-y="-13"
   inkscape:window-maximized="1"
   inkscape:current-layer="Layer_1" />
<metadata
   id="metadata3832">
	<ns:sfw>
		<ns:slices />
		<ns:sliceSourceBounds
   height="883.218"
   width="1265.103"
   y="-931.609"
   x="67.449"
   bottomLeftOrigin="true" />
	</ns:sfw>
<rdf:RDF><cc:Work
     rdf:about=""><dc:format>image/svg+xml</dc:format><dc:type
       rdf:resource="http://purl.org/dc/dcmitype/StillImage" /><dc:title></dc:title></cc:Work></rdf:RDF></metadata>
<g
   id="g3944"
   transform="translate(-756.47585,-9.4274897)">
	<path
   d="m 876.922,180.514 c -0.236,0.586 -0.588,1.173 -1.058,1.408 -0.352,0.237 -0.821,0.354 -1.173,0.354 -0.353,0 -0.587,-0.117 -0.822,-0.234 0.939,-0.473 1.995,-0.942 3.053,-1.528 z"
   id="path3834"
   inkscape:connector-curvature="0"
   style="fill:#ffffff" />
	<path
   d="M 1090.117,257.334 C 1090,257.216 1090,257.216 1090,257.216 c 0,0 -0.117,-0.47 -0.117,-0.352 v 0 c 0.117,-0.118 0.117,-0.235 0.117,-0.354 0.586,-1.291 1.173,-2.701 1.643,-3.992 1.525,-1.175 3.173,-1.997 4.346,-0.823 0.704,0.823 0.588,2.231 0.469,3.29 0,0.821 -0.234,1.645 -0.469,2.349 -0.117,0.47 -0.234,0.821 -0.352,1.293 -0.47,0 -0.821,-0.118 -1.175,-0.118 -0.469,0 -1.173,-0.119 -1.407,-0.119 -0.474,0 -0.942,-0.117 -1.412,-0.235 -0.235,-0.117 -0.353,-0.234 -0.587,-0.234 v 0 h -0.118 v 0 c 0,-0.117 -0.117,-0.117 -0.234,-0.117 -0.117,-0.118 -0.352,-0.235 -0.469,-0.353 v 0 z"
   id="path3836"
   inkscape:connector-curvature="0"
   style="fill:#ffffff" />
	<path
   d="m 876.922,179.927 c 0,0.234 0,0.47 0,0.587 v 0 h -0.119 c -1.056,-1.057 -2.581,-1.645 -4.11,-1.88 0.234,-0.234 0.469,-0.469 0.821,-0.704 0.355,-0.118 0.708,-0.235 1.178,-0.235 0.352,0 0.821,0.117 1.173,0.235 0.703,0.469 1.057,1.173 1.057,1.997 z"
   id="path3838"
   inkscape:connector-curvature="0"
   style="fill:#ffffff" />
	<path
   d="m 876.803,180.514 h 0.119 c -1.058,0.586 -2.114,1.056 -3.053,1.528 -0.121,0 -0.234,0 -0.355,-0.12 -0.47,-0.235 -0.704,-0.47 -0.938,-0.822 -0.471,-0.704 -0.471,-1.643 0,-2.231 0,-0.118 0.117,-0.118 0.117,-0.235 1.529,0.235 3.054,0.823 4.11,1.88 z"
   id="path3840"
   inkscape:connector-curvature="0"
   style="fill:#ffffff" />
	<path
   d="m 1113.373,259.213 c 0.821,1.174 0.939,2.819 0.821,4.229 -0.116,1.056 -0.353,2.232 -0.704,3.288 -0.234,0.823 -0.587,1.762 -0.821,2.584 -1.761,-0.353 -3.408,-1.174 -4.347,-2.937 -0.703,-1.292 -0.82,-2.818 -0.469,-4.229 0.234,-0.234 0.469,-0.587 0.704,-0.822 0.352,-0.471 0.703,-0.823 1.057,-1.293 0.469,-0.586 1.06,-1.056 1.646,-1.408 0.822,-0.47 1.643,-0.116 2.113,0.588 z"
   id="path3842"
   inkscape:connector-curvature="0"
   style="fill:#ffffff" />
	<path
   d="m 1120.188,267.554 c 0.235,0.353 0.353,0.822 0.353,1.291 -1.295,0.234 -2.586,0.47 -3.878,0.587 -0.234,0 -0.586,0.117 -0.938,0.117 0.117,-0.234 0.234,-0.587 0.234,-0.822 0.822,-1.056 1.76,-2.114 2.934,-2.231 0.586,0 0.943,0.352 1.295,1.058 z"
   id="path3844"
   inkscape:connector-curvature="0"
   style="fill:#ffffff" />
	<path
   d="m 1100.335,255.806 c 0.352,0.823 0.352,1.645 0.469,2.584 -0.704,0.119 -1.408,0.119 -2.112,0.237 0,-0.237 0.117,-0.354 0.117,-0.472 0.117,-0.469 0.117,-0.821 0.235,-1.291 0.235,-0.118 0.47,-0.354 0.587,-0.472 0.234,-0.234 0.469,-0.351 0.704,-0.586 z"
   id="path3846"
   inkscape:connector-curvature="0"
   style="fill:#ffffff" />
	<path
   d="m 1063.219,207.999 c -0.117,1.175 -0.353,2.233 -0.47,3.29 -1.177,0.587 -2.703,0.822 -3.76,0.939 -2.586,0.352 -5.285,0 -7.871,-0.705 -1.76,-0.586 -3.524,-1.291 -5.167,-2.232 0.117,-0.821 0.117,-1.645 0.234,-2.466 1.761,1.057 3.642,1.88 5.637,2.349 2.234,0.47 4.581,0.705 6.815,0.353 1.056,-0.235 2.112,-0.47 3.169,-0.822 0.469,-0.235 0.826,-0.472 1.413,-0.706 z"
   id="path3848"
   inkscape:connector-curvature="0"
   style="fill:#d1a141" />
	<path
   d="m 961.496,267.671 c 0.235,0.822 0.113,1.761 0,2.584 -0.121,0.352 -0.238,0.821 -0.355,1.173 -0.234,0 -0.353,0.117 -0.587,0.117 -0.821,0 -1.526,0.12 -2.347,0.12 -1.057,0.117 -2,0.117 -3.056,0.235 0.704,-1.175 1.291,-2.351 2.352,-3.407 0.938,-0.704 2.347,-1.645 3.403,-1.41 0.235,0.119 0.469,0.354 0.59,0.588 z"
   id="path3850"
   inkscape:connector-curvature="0"
   style="fill:#ffffff" />
	<path
   d="m 952.565,263.442 c 0.825,0.822 0.825,2.466 0.708,3.64 0,1.645 -0.708,3.173 -1.06,4.7 -0.352,0 -0.822,0 -1.174,0 -0.821,-0.117 -1.056,-0.117 -1.878,-0.237 -0.587,-0.117 -1.295,-0.352 -1.881,-0.469 -0.471,-0.234 -0.588,-0.234 -1.292,-0.586 0,-0.117 -0.117,-0.117 -0.117,-0.117 v 0 c 0,0 0,-0.117 -0.117,-0.117 -0.117,-0.118 -0.234,-0.235 -0.234,-0.353 -0.117,0 -0.117,0 -0.117,0 0,-0.117 -0.234,-0.471 -0.234,-0.471 0,0 0,0 0,-0.117 1.407,-0.939 2.112,-3.054 2.581,-4.816 1.647,-1.291 3.407,-2.467 4.815,-1.057 z"
   id="path3852"
   inkscape:connector-curvature="0"
   style="fill:#ffffff" />
	<path
   d="m 950.688,234.545 c 1.526,-0.117 2.117,2.116 0.587,2.351 -0.234,0 -0.587,0.118 -0.938,0.118 -0.117,-0.824 -0.234,-1.528 -0.352,-2.349 0.234,0 0.468,0 0.703,-0.12 z"
   id="path3854"
   inkscape:connector-curvature="0"
   style="fill:#e3a52b" />
	<path
   d="m 939.175,259.448 c 0.118,0.352 0.118,0.705 0.118,1.174 -0.939,0 -1.878,0 -2.817,-0.118 0.353,-0.47 0.47,-1.056 0.704,-1.643 0.118,-0.117 0.118,-0.117 0.118,-0.234 0.352,-0.354 0.704,-0.472 0.938,-0.589 0.586,-0.234 0.822,1.058 0.939,1.41 z"
   id="path3856"
   inkscape:connector-curvature="0"
   style="fill:#ffffff" />
	<path
   d="m 936.241,250.287 c 0.352,1.525 0.234,3.17 -0.117,4.698 -0.234,1.056 -0.704,2.114 -1.06,3.053 -0.354,0.706 -0.822,1.293 -1.175,1.997 -0.352,-0.117 -0.821,-0.352 -0.938,-0.469 -0.234,-0.235 -0.352,-0.235 -0.352,-0.47 1.29,-1.058 1.995,-3.172 2.465,-4.581 0.473,-1.41 0.826,-2.82 1.177,-4.228 z"
   id="path3858"
   inkscape:connector-curvature="0"
   style="fill:#ffffff" />
	<path
   d="m 1171.046,204.241 c -8.457,6.108 -19.145,9.279 -29.601,9.044 -5.285,-0.234 -10.453,-1.175 -15.386,-3.053 -2.469,-0.941 -4.816,-2.116 -7.049,-3.525 -0.118,-0.117 -0.235,-0.235 -0.353,-0.352 -0.821,-0.469 -1.643,-1.058 -2.348,-1.645 -0.586,-0.353 -1.056,-0.824 -1.646,-1.293 0,0.234 -0.117,0.588 -0.234,0.823 0,0.117 -0.117,0.235 -0.117,0.352 0,0.118 0,0.235 0,0.352 -0.705,8.34 -1.995,17.502 -7.281,24.314 v 0 c 1.174,0.352 2.466,0.587 3.643,0.939 1.526,0.471 3.051,0.823 4.698,1.058 2.934,0.587 5.989,1.059 9.045,1.059 6.106,0.117 11.978,-0.354 17.736,-2.116 2.582,-0.822 5.051,-1.761 7.397,-3.054 0.117,-0.117 0.234,-0.234 0.352,-0.353 0.235,-0.234 0.708,-0.352 1.061,-0.352 2.581,-1.41 5.05,-3.172 7.396,-5.052 2.586,-2.23 5.051,-4.581 7.285,-7.282 0.117,0 0.117,0 0.117,-0.117 2.233,-2.584 4.111,-5.637 6.697,-7.751 0.234,-0.117 0.352,-0.234 0.587,-0.352 1.056,-1.528 2.112,-3.055 2.934,-4.7 -0.118,-0.586 0.235,-1.174 0.825,-1.408 0.118,-0.237 0.234,-0.471 0.353,-0.824 v 0 c -1.882,1.998 -3.877,3.643 -6.111,5.288 z"
   id="path3860"
   inkscape:connector-curvature="0"
   style="fill:#b08530" />
	<path
   d="m 1087.297,207.06 c 0.234,-0.939 0.352,-1.762 0.469,-2.702 -0.117,-0.117 -0.117,-0.352 0,-0.589 -1.174,0.354 -2.229,0.824 -3.404,1.176 -1.998,0.587 -4.11,0.941 -6.227,0.941 -1.409,0 -2.82,-0.236 -4.112,-0.588 0,-0.353 -0.117,-0.705 -0.117,-1.057 0,-3.876 -0.117,-7.636 -0.234,-11.511 -0.353,-6.345 -0.821,-12.687 -1.29,-19.03 -0.939,-12.569 -2.586,-25.255 -6.581,-37.118 -1.174,-3.642 -2.698,-7.284 -4.698,-10.689 0.117,0.352 0.234,0.704 0.352,1.058 0.822,3.405 1.413,6.813 2.234,10.218 0,0.117 0,0.235 0,0.352 0.352,1.645 0.704,3.407 1.057,5.052 0.117,0.822 0.47,1.879 0.47,2.701 0,0.587 -0.118,1.173 -0.118,1.645 0.118,0.118 0.118,0.353 0.118,0.47 3.289,13.391 3.642,27.368 2.938,41.113 -0.234,4.581 -0.587,9.161 -1.057,13.742 0,0.705 -0.116,1.291 -0.116,1.879 -0.236,1.646 -0.357,3.171 -0.592,4.699 -0.353,3.522 -0.821,7.165 -1.408,10.689 -0.353,1.997 -0.703,3.994 -1.174,5.872 v 0.118 c 0,0.352 -0.117,0.588 -0.234,0.94 -0.234,1.056 -0.587,2.114 -1.06,3.053 0.121,0.117 0.238,0.117 0.355,0.117 0.938,0.352 1.995,0.587 3.051,0.824 2.117,0.469 4.229,0.586 6.464,0.352 1.994,-0.117 4.228,-0.707 5.871,-1.763 1.057,-0.704 1.765,-1.645 2.586,-2.583 0.352,-0.469 0.703,-0.94 1.056,-1.41 1.878,-4.111 3.407,-8.458 4.347,-12.921 0.467,-1.76 0.818,-3.405 1.054,-5.05 z"
   id="path3862"
   inkscape:connector-curvature="0"
   style="fill:#b08530" />
	<path
   d="m 1115.021,153.615 c 0.352,2.232 0.586,4.464 0.704,6.813 0.703,7.751 0.938,15.387 0.234,23.139 -0.234,3.876 -0.47,7.753 -0.825,11.63 -0.113,1.88 -0.235,3.757 -0.353,5.637 0.591,0.352 1.061,0.706 1.646,1.058 0.822,0.587 1.644,1.174 2.583,1.76 v 0 c 0.116,-1.056 0.234,-1.995 0.354,-3.053 0.354,-3.523 0.588,-7.282 0.705,-10.924 0.353,-7.165 0.353,-14.212 -0.234,-21.378 -0.591,-7.048 -1.647,-14.212 -3.408,-21.142 -0.938,-3.408 -1.998,-6.93 -3.055,-10.455 -0.47,-1.762 -1.056,-3.642 -1.525,-5.402 0.353,1.995 0.587,4.109 0.938,6.106 0.822,5.404 1.645,10.807 2.236,16.211 z"
   id="path3864"
   inkscape:connector-curvature="0"
   style="fill:#b08530" />
	<path
   d="m 1111.025,210.819 c 0.235,-1.293 0.47,-2.586 0.704,-3.877 0.234,-0.821 0.353,-1.645 0.471,-2.466 0.117,-0.589 0.234,-1.176 0.352,-1.763 0,-0.117 0,-0.117 0,-0.234 -1.409,0.939 -2.703,2.232 -4.229,3.053 -1.995,1.058 -4.229,1.645 -6.463,1.879 -1.877,0.118 -3.755,0.118 -5.637,-0.352 0.47,-1.998 0.704,-3.994 0.939,-5.991 0.474,-3.64 0.825,-7.399 1.061,-11.159 0.352,-7.399 0,-14.798 -0.821,-22.082 -0.825,-7.165 -2.117,-14.212 -3.643,-21.145 -1.529,-6.458 -3.173,-12.919 -5.406,-19.145 1.061,5.167 1.999,10.453 2.703,15.623 0.469,3.17 0.821,6.226 1.057,9.396 0.117,0.589 0.117,1.293 0.234,1.998 0.117,1.762 0.352,3.642 0.47,5.521 0.707,2.936 0.473,6.106 0.352,9.044 0,3.288 0,6.461 -0.113,9.631 -0.121,6.343 -0.356,12.569 -1.296,18.795 -0.234,2.466 -0.586,4.933 -1.056,7.282 -0.117,0.704 -0.234,1.41 -0.352,2.114 -0.352,2.231 -0.822,4.463 -1.408,6.695 -0.591,2.466 -1.412,4.933 -2.469,7.282 -0.47,1.175 -1.056,2.349 -1.76,3.407 -0.239,0.353 -0.354,0.587 -0.592,0.822 -0.234,1.175 -0.938,2.232 -1.525,3.173 0,0.117 -0.117,0.234 -0.234,0.234 1.291,0.469 2.352,1.056 3.524,1.525 4.464,1.645 9.514,2.586 13.86,0.589 3.407,-1.646 5.754,-4.581 7.401,-7.871 1.877,-3.755 3.051,-7.866 3.876,-11.978 z"
   id="path3866"
   inkscape:connector-curvature="0"
   style="fill:#b08530" />
	<path
   d="m 1058.989,212.228 c -2.586,0.352 -5.285,0 -7.871,-0.705 -1.76,-0.586 -3.524,-1.291 -5.167,-2.232 0.117,-0.821 0.117,-1.645 0.234,-2.466 0.117,-2.466 0.117,-4.933 0.117,-7.401 0,-3.875 -0.117,-7.752 -0.117,-11.628 0,-6.93 -0.586,-13.743 -1.407,-20.556 -1.765,-13.625 -5.055,-27.25 -10.574,-39.819 -0.939,-2.349 -2.113,-4.815 -3.408,-7.167 2.938,8.81 5.524,17.854 7.401,26.901 0.117,0.822 0.235,1.645 0.47,2.466 2.586,14.446 3.643,29.248 3.408,44.048 -0.118,3.17 -0.118,6.343 -0.354,9.396 0,0.94 -0.117,1.762 -0.117,2.584 -0.234,3.172 -0.587,6.343 -1.294,9.515 -0.587,3.406 -1.409,6.695 -2.582,9.983 0,0.235 -0.117,0.47 -0.234,0.704 0.117,0 0.117,0.237 0.234,0.354 0.586,2.467 -1.291,4.933 -2.703,6.813 -0.117,0.117 -0.234,0.235 -0.234,0.352 0.117,0 0.234,0 0.352,0 1.412,0.234 2.938,0.469 4.346,0.586 2.938,0.234 6.111,0.234 9.045,-0.352 2.82,-0.586 5.641,-1.645 7.87,-3.525 1.174,-1.056 2.352,-2.229 3.174,-3.405 0.352,-0.586 0.703,-1.175 0.938,-1.879 0.234,-0.939 0.469,-1.997 0.703,-2.936 0.704,-3.524 1.179,-7.047 1.53,-10.572 -1.177,0.588 -2.703,0.823 -3.76,0.941 z"
   id="path3868"
   inkscape:connector-curvature="0"
   style="fill:#b08530" />
	<path
   d="m 1037.846,206.355 c 0.117,-1.175 0.117,-2.232 0.234,-3.407 -3.172,1.292 -6.229,2.583 -9.396,3.759 -13.155,4.815 -27.25,7.517 -41.349,7.752 -13.272,0.119 -26.781,-2.584 -38.524,-8.927 -5.055,-2.819 -9.753,-6.226 -14.334,-9.983 -4.463,-3.642 -8.692,-7.519 -12.451,-11.982 -3.638,-4.347 -6.811,-9.044 -8.927,-14.33 -1.292,-3.29 -2.112,-6.93 -1.995,-10.572 -0.587,2.349 -0.938,4.815 -1.174,7.282 -0.587,5.053 -0.234,10.22 0.704,15.271 1.761,9.044 6.106,17.384 12.687,23.962 0.938,0.824 1.761,1.645 2.699,2.466 0.825,-0.235 1.529,0.353 1.412,1.176 7.515,6.108 16.324,10.454 25.252,14.212 5.641,2.467 11.513,4.818 17.384,6.578 3.524,1.059 7.167,1.997 10.691,2.704 1.878,0.469 3.759,0.821 5.754,1.056 0.822,0.234 1.765,0.352 2.586,0.469 0.939,0.234 1.526,0.587 2.348,1.058 0.234,0.117 0.353,0.352 0.469,0.47 0.239,0 0.353,0.117 0.592,0.117 2.464,0.118 4.933,0.118 7.515,0.235 4.581,0 9.279,0.586 13.859,0.704 4.464,0 9.283,-0.117 13.391,-2.114 1.882,-0.939 3.407,-2.23 4.703,-3.875 0.469,-1.294 0.938,-2.584 1.407,-3.877 0.822,-2.232 1.644,-4.463 2.229,-6.695 1.177,-4.464 1.882,-8.927 2.234,-13.509 z"
   id="path3870"
   inkscape:connector-curvature="0"
   style="fill:#b08530" />
	<path
   d="m 905.231,162.895 c -0.704,0.704 -1.647,1.408 -2.703,1.645 -1.408,3.288 -2.468,6.578 -3.29,10.1 -0.117,0.706 -0.353,1.528 -0.47,2.232 0.822,0.117 1.647,0.117 2.352,0.235 1.995,0.234 3.994,0.706 5.988,1.293 0,-0.824 -0.116,-1.646 -0.116,-2.467 -0.118,-2.114 -0.118,-4.229 0.116,-6.343 0.234,-3.407 0.588,-6.695 1.292,-9.985 0.117,-0.353 0.117,-0.705 0.234,-1.056 -0.938,1.408 -1.878,2.818 -3.051,3.994 -0.116,0.116 -0.233,0.234 -0.352,0.352 z"
   id="path3872"
   inkscape:connector-curvature="0"
   style="fill:#b08530" />
	<path
   d="m 1313.53,257.099 c 0,0.469 0,1.056 -0.117,1.528 1.878,0 3.877,-0.118 5.755,-0.118 2.82,0 5.637,-0.236 8.457,-0.236 0,-0.118 0.117,-0.118 0.117,-0.235 -4.698,-0.352 -9.396,-0.704 -14.212,-0.939 z"
   id="path3874"
   inkscape:connector-curvature="0"
   style="fill:#fab732" />
	<path
   d="m 1289.215,254.398 c -0.705,-0.118 -1.409,-0.235 -1.996,-0.235 0,1.057 0,2.112 -0.117,3.171 -0.117,0.234 -0.117,0.47 -0.117,0.704 -0.117,0 -0.117,0.117 -0.117,0.235 2.934,0.117 5.754,0.117 8.574,0.236 3.995,0 7.985,0 11.979,0.118 1.178,0 2.352,0 3.524,0 0.118,-0.354 0.234,-0.706 0.234,-1.059 0,-0.234 0,-0.469 0,-0.704 -1.642,-0.118 -3.289,-0.235 -5.049,-0.354 -5.638,-0.586 -11.275,-1.29 -16.915,-2.112 z"
   id="path3876"
   inkscape:connector-curvature="0"
   style="fill:#fab732" />
	<path
   d="m 1258.908,248.172 c -0.117,0.938 -0.353,1.997 -0.704,3.053 -0.117,0.587 -0.353,1.293 -0.587,1.88 -0.234,0.704 -0.352,1.41 -0.703,2.231 9.16,1.528 18.205,2.467 27.484,2.818 0.117,0 0.117,0 0.234,0 0,-0.117 0.118,-0.234 0.118,-0.352 0,-0.235 0.117,-0.587 0.117,-0.822 0.117,-1.058 0.234,-1.997 0.234,-3.056 v -0.117 c -8.808,-1.523 -17.5,-3.403 -26.193,-5.635 z"
   id="path3878"
   inkscape:connector-curvature="0"
   style="fill:#fab732" />
	<path
   d="m 1234.009,239.832 c -0.355,0.939 -0.825,1.879 -1.178,2.701 -0.469,0.822 -0.821,1.645 -1.291,2.467 -0.587,1.176 -1.29,2.232 -1.877,3.29 -0.117,0.235 -0.234,0.469 -0.356,0.704 3.994,1.175 7.871,2.114 11.864,3.053 4.347,1.059 8.693,1.999 13.157,2.82 0.352,-0.941 0.82,-1.879 1.056,-2.82 0.234,-0.47 0.355,-1.056 0.474,-1.525 0.352,-1.058 0.586,-1.997 0.704,-3.056 -0.234,-0.117 -0.587,-0.117 -0.943,-0.234 -7.281,-2.115 -14.448,-4.464 -21.61,-7.4 z"
   id="path3880"
   inkscape:connector-curvature="0"
   style="fill:#fab732" />
	<path
   d="m 1230.719,241.711 c 0.47,-0.94 0.821,-1.762 1.291,-2.703 -7.519,-3.053 -14.916,-6.693 -21.848,-10.922 -0.47,0.821 -0.938,1.643 -1.409,2.467 -1.764,3.053 -3.759,5.991 -6.345,8.455 7.988,3.76 16.211,6.815 24.552,9.281 0.352,-0.469 0.704,-0.941 0.938,-1.41 0.586,-1.056 1.173,-1.997 1.647,-3.054 0.47,-0.705 0.822,-1.409 1.174,-2.114 z"
   id="path3882"
   inkscape:connector-curvature="0"
   style="fill:#fab732" />
	<path
   d="m 1208.167,226.911 c -4.815,-3.054 -9.518,-6.46 -13.977,-10.103 -1.53,-1.291 -3.057,-2.584 -4.468,-3.875 -0.47,0.704 -1.058,1.525 -1.526,2.231 -1.407,1.998 -2.934,3.994 -4.581,5.872 -1.056,1.176 -2.112,2.351 -3.29,3.525 -0.234,0.234 -0.352,0.352 -0.586,0.586 6.345,5.051 13.272,9.162 20.439,12.804 2.703,-2.467 4.815,-5.403 6.693,-8.575 0.471,-0.82 0.943,-1.642 1.296,-2.465 z"
   id="path3884"
   inkscape:connector-curvature="0"
   style="fill:#fab732" />
	<path
   d="m 1186.436,213.521 c 0.47,-0.823 1.057,-1.528 1.526,-2.349 -2.938,-2.938 -5.872,-5.991 -8.575,-9.279 -0.469,0.704 -0.822,1.408 -1.291,2.114 -0.352,0.587 -0.704,1.174 -1.057,1.644 -1.529,2.231 -3.29,4.229 -5.171,6.108 -0.117,0.118 -0.117,0.235 -0.235,0.235 0,0.118 -0.116,0.118 -0.116,0.235 -0.822,1.058 -1.761,2.114 -2.583,3.173 0.705,0.704 1.291,1.408 1.995,1.997 2.234,2.232 4.464,4.229 6.815,6.226 0.352,-0.235 0.586,-0.471 0.82,-0.706 1.175,-1.174 2.352,-2.349 3.291,-3.641 1.643,-1.881 3.168,-3.76 4.581,-5.757 z"
   id="path3886"
   inkscape:connector-curvature="0"
   style="fill:#fab732" />
	<path
   d="m 1122.301,235.369 c -3.174,-0.353 -6.225,-0.824 -9.162,-1.646 -0.235,-0.117 -0.587,-0.234 -0.821,-0.234 0.586,1.527 0.821,3.29 1.173,4.933 0,0.352 0,0.586 0,0.823 0.117,0.705 0.234,1.409 0.234,1.998 4.815,2.936 10.101,4.112 15.625,4.229 3.168,0.117 6.106,-0.117 9.161,-0.707 1.409,-0.234 2.82,-0.587 4.229,-0.939 0.703,-0.234 1.408,-0.471 2.112,-0.823 0.352,-1.408 0.704,-2.819 1.06,-4.346 0.234,-0.939 0.587,-1.995 0.821,-3.053 0.353,-1.293 0.705,-2.467 1.174,-3.76 -2.468,1.059 -5.05,1.879 -7.636,2.467 -5.872,1.41 -11.978,1.879 -17.97,1.058 z"
   id="path3888"
   inkscape:connector-curvature="0"
   style="fill:#fab732" />
	<path
   d="m 1109.731,232.667 c -1.409,-0.469 -2.816,-1.058 -4.112,-1.762 -2.347,2.232 -5.167,3.877 -8.457,4.464 -0.939,0.117 -1.995,0.235 -3.051,0.235 0.234,1.058 0.234,2.114 0.234,3.17 0,0.235 0,0.471 0,0.707 0,0.352 0,0.704 0,1.056 2.465,1.879 5.285,3.172 8.457,3.877 1.878,0.469 3.994,0.586 5.989,0.586 0.469,0 1.057,0 1.525,0 0.118,-0.939 0.235,-1.879 0.235,-2.818 0,-1.291 0,-2.467 -0.117,-3.759 -0.117,-1.999 -0.468,-3.878 -0.703,-5.756 z"
   id="path3890"
   inkscape:connector-curvature="0"
   style="fill:#fab732" />
	<path
   d="m 972.889,234.545 c -5.52,-1.408 -10.688,-3.288 -15.859,-5.403 -3.286,-1.29 -6.693,-2.701 -9.865,-4.111 0.117,0.117 0.117,0.352 0.234,0.587 0.825,1.762 1.412,3.524 1.881,5.404 0.354,1.175 0.588,2.466 0.705,3.642 0.234,0 0.469,0 0.703,-0.12 1.526,-0.117 2.117,2.116 0.587,2.351 -0.234,0 -0.587,0.118 -0.938,0.118 0,0.352 0.117,0.821 0.117,1.173 0.117,1.058 0.117,2.232 0.234,3.407 3.524,2.819 7.988,4.581 12.569,5.402 2.82,0.586 5.754,0.824 8.692,0.705 2.587,0 5.167,-0.118 7.636,-0.705 0.234,-0.821 0.353,-1.76 0.47,-2.583 v 0 c 0.235,-1.411 0.47,-2.702 0.821,-3.994 0.353,-1.056 0.587,-1.997 0.938,-3.054 0.118,-0.234 0.118,-0.587 0.234,-0.821 0,-0.12 0,-0.12 -0.116,-0.12 -3.055,-0.468 -6.106,-1.172 -9.043,-1.878 z"
   id="path3892"
   inkscape:connector-curvature="0"
   style="fill:#fab732" />
	<path
   d="m 945.989,232.315 c -0.352,-1.879 -0.703,-3.76 -1.29,-5.522 -0.234,-0.821 -0.588,-1.645 -0.943,-2.466 -0.117,-0.352 -0.234,-0.704 -0.352,-1.058 -3.052,-1.526 -6.106,-3.171 -8.928,-4.933 0.234,0.589 0.353,1.058 0.588,1.645 0.59,1.762 1.177,3.642 1.528,5.402 0.471,1.997 0.705,4.111 0.939,6.108 0,0.941 0.117,1.997 0.117,2.936 0.704,0.354 1.408,0.706 2.117,1.058 2.111,1.058 4.345,1.528 6.692,1.645 -0.117,-0.824 -0.117,-1.527 -0.234,-2.349 -0.116,-0.823 -0.116,-1.644 -0.234,-2.466 z"
   id="path3894"
   inkscape:connector-curvature="0"
   style="fill:#fab732" />
	<path
   d="m 909.343,189.441 c -1.178,-3.525 -1.881,-7.282 -2.234,-11.042 -1.994,-0.587 -3.993,-1.059 -5.988,-1.293 -0.704,-0.118 -1.529,-0.118 -2.352,-0.235 -1.056,5.756 -1.291,11.748 -1.056,17.502 0.117,3.407 0.587,6.813 1.173,10.22 -0.117,0.822 -0.234,1.528 -0.352,2.349 -0.47,1.997 -1.291,3.994 -2.347,5.755 -2.352,3.993 -5.876,7.284 -9.4,10.22 -6.576,5.169 -14.329,9.516 -22.2,12.334 3.993,-0.469 7.988,-1.059 11.864,-1.762 0.234,-0.117 0.471,-0.117 0.705,-0.234 5.992,-1.057 12.099,-2.35 17.854,-4.464 3.524,-1.176 6.814,-2.818 9.987,-4.581 0.704,-0.352 1.407,-0.821 1.995,-1.292 1.525,-0.822 2.938,-1.88 4.229,-2.819 2.469,-1.879 5.05,-3.642 7.284,-5.756 1.525,-1.408 3.051,-2.819 4.581,-4.346 -6.111,-5.521 -11.045,-12.334 -13.743,-20.556 z"
   id="path3896"
   inkscape:connector-curvature="0"
   style="fill:#fab732" />
	<path
   d="m 1109.261,135.055 c -1.173,-7.165 -2.229,-14.329 -4.11,-21.259 -1.644,-6.226 -3.877,-12.1 -6.106,-18.091 -0.704,-1.174 -1.291,-2.466 -1.999,-3.641 -1.174,-1.762 -2.347,-3.641 -3.877,-5.169 -2.699,-2.818 -5.637,-5.285 -9.279,-6.93 -3.285,-1.645 -7.045,-2.701 -10.805,-2.818 -1.995,-0.118 -3.876,-0.118 -5.754,0.117 -0.709,0.118 -1.53,0.352 -2.352,0.469 0.587,0.587 1.291,1.293 1.877,1.998 0.239,0.234 0.357,0.469 0.592,0.821 1.525,1.528 2.934,3.407 4.229,5.17 3.403,4.933 5.989,10.454 8.454,15.856 2.938,6.578 5.054,13.391 6.814,20.203 0.47,1.997 0.938,3.877 1.408,5.756 2.233,6.226 3.877,12.687 5.406,19.145 1.525,6.932 2.817,13.979 3.643,21.145 0.821,7.284 1.173,14.683 0.821,22.082 -0.235,3.76 -0.587,7.519 -1.061,11.159 -0.235,1.997 -0.47,3.994 -0.939,5.991 1.882,0.469 3.76,0.469 5.637,0.352 2.234,-0.234 4.468,-0.821 6.463,-1.879 1.526,-0.821 2.82,-2.114 4.229,-3.053 0,-0.822 0.117,-1.762 0.117,-2.701 0.234,-1.997 0.353,-3.994 0.47,-5.991 0.234,-4.229 0.352,-8.34 0.352,-12.569 0,-7.751 -0.352,-15.388 -1.173,-23.139 -0.705,-7.636 -1.882,-15.388 -3.057,-23.024 z"
   id="path3898"
   inkscape:connector-curvature="0"
   style="fill:#d49a26" />
	<path
   d="m 1035.964,155.258 c -1.056,-7.164 -2.699,-14.211 -4.581,-21.259 -1.761,-7.047 -3.872,-14.096 -6.224,-21.026 -1.291,-3.406 -2.469,-6.813 -3.877,-10.221 -0.352,-0.939 -0.704,-1.877 -1.173,-2.818 v 0 c -0.354,-0.704 -0.822,-1.41 -1.174,-2.114 -0.826,-1.643 -1.764,-3.288 -2.82,-4.933 -1.882,-3.29 -4.111,-6.46 -6.814,-9.162 -2.583,-2.466 -5.521,-4.698 -8.928,-5.639 -2.112,-0.587 -4.346,-0.822 -6.459,-0.704 -2.115,0.117 -4.229,0.821 -6.345,0.704 -0.821,0.352 -1.643,0.588 -2.347,0.94 -2.82,1.291 -5.403,2.584 -8.106,4.112 -5.637,3.17 -11.395,6.223 -16.914,9.748 -6.342,3.877 -12.452,7.989 -18.441,12.334 -2.82,1.995 -5.52,4.229 -8.223,6.458 -1.407,1.175 -2.699,2.351 -3.876,3.642 -1.057,1.058 -2.113,2.349 -3.17,3.407 -0.473,1.998 -0.942,3.994 -1.528,5.989 -1.995,6.814 -4.698,13.273 -7.989,19.499 -1.29,2.467 -2.699,4.935 -4.111,7.284 -0.117,0.587 -0.234,1.056 -0.469,1.646 0.469,0 0.825,0.234 0.825,0.704 -0.121,0.939 -0.121,1.998 -0.121,2.936 0,5.522 1.294,10.572 3.994,15.388 2.819,5.167 6.462,9.631 10.456,13.743 8.341,8.34 18.44,15.858 29.48,20.205 12.451,4.815 25.959,5.754 39.232,4.463 6.932,-0.706 13.981,-1.88 20.791,-3.76 6.933,-1.879 13.743,-4.581 20.441,-7.284 0.234,-0.117 0.469,-0.117 0.703,-0.117 0.353,-7.399 0.353,-14.799 0,-22.2 -0.35,-7.282 -1.054,-14.681 -2.232,-21.965 z"
   id="path3900"
   inkscape:connector-curvature="0"
   style="fill:#d49a26" />
	<path
   d="m 1184.201,150.56 c -1.29,-6.93 -4.11,-13.625 -5.519,-20.555 -1.173,-2.232 -2.586,-4.346 -3.994,-6.46 -3.643,-4.933 -7.87,-9.514 -12.451,-13.743 -9.396,-8.927 -20.084,-15.977 -32.066,-21.261 -5.988,-2.584 -12.217,-4.347 -18.676,-5.637 -3.642,-0.589 -7.283,-0.823 -10.926,-0.941 -1.995,0 -3.993,0 -5.988,0.118 -0.588,0 -1.175,0.117 -1.647,0.117 0.825,0.823 1.647,1.645 2.468,2.583 1.525,1.762 2.938,3.76 3.994,5.992 0.939,1.879 1.995,3.876 2.229,6.108 v 0 c 1.178,2.349 2.352,4.698 3.291,7.165 1.525,3.877 2.82,7.871 3.876,11.863 1.291,5.052 2.233,10.22 3.056,15.39 0.47,1.76 1.056,3.64 1.525,5.402 1.057,3.525 2.116,7.047 3.055,10.455 1.761,6.93 2.817,14.094 3.408,21.142 0.587,7.167 0.587,14.213 0.234,21.378 -0.117,3.642 -0.352,7.401 -0.705,10.924 -0.12,1.058 -0.238,1.997 -0.354,3.053 1.529,0.941 3.055,1.763 4.701,2.469 3.287,1.525 6.812,2.701 10.336,3.288 10.101,1.762 20.909,0 29.953,-4.933 4.581,-2.466 8.81,-5.639 12.214,-9.516 2.115,-2.347 3.993,-4.933 5.522,-7.751 0.118,-0.118 0.234,-0.353 0.353,-0.587 1.174,-3.876 1.996,-7.871 2.465,-11.982 0.352,-2.466 0.586,-4.933 0.708,-7.282 0.234,-5.641 0.113,-11.277 -1.062,-16.799 z"
   id="path3902"
   inkscape:connector-curvature="0"
   style="fill:#d49a26" />
	<path
   d="m 1086.005,131.532 c -1.644,-7.049 -3.642,-13.979 -5.988,-20.792 -2.117,-5.991 -4.581,-11.746 -7.519,-17.268 -2,-3.642 -4.229,-7.047 -6.698,-10.218 -0.586,-0.589 -1.29,-1.058 -1.878,-1.645 -1.056,-1.058 -2.115,-2.115 -3.406,-2.936 -2.465,-1.645 -5.285,-2.82 -8.223,-3.407 -3.056,-0.586 -6.225,-0.704 -9.396,-0.469 -1.526,0.117 -3.173,0.234 -4.816,0.469 -0.586,0 -1.173,0.117 -1.76,0.117 1.76,2.232 3.403,4.698 4.815,7.047 1.761,2.701 3.521,5.522 5.05,8.341 3.291,5.639 6.225,11.393 8.811,17.384 2.464,5.756 4.581,11.628 6.105,17.737 2,3.405 3.524,7.047 4.698,10.689 3.995,11.863 5.642,24.549 6.581,37.118 0.469,6.343 0.938,12.685 1.29,19.03 0.117,3.875 0.234,7.634 0.234,11.511 0,0.352 0.117,0.704 0.117,1.057 1.292,0.352 2.703,0.588 4.112,0.588 2.116,0 4.229,-0.354 6.227,-0.941 1.175,-0.352 2.23,-0.822 3.404,-1.176 0,-0.117 0.117,-0.234 0.234,-0.352 0.353,-2.349 0.708,-4.698 1.061,-7.165 0.704,-6.108 0.939,-12.215 1.057,-18.441 0.117,-3.172 0.352,-6.343 0.469,-9.515 0,-1.996 0,-3.995 0.352,-5.872 -0.469,-2.938 -0.703,-5.991 -1.173,-8.927 -0.944,-7.4 -1.999,-14.682 -3.76,-21.964 z"
   id="path3904"
   inkscape:connector-curvature="0"
   style="fill:#d49a26" />
	<path
   d="m 1062.397,149.386 c -0.591,-3.055 -1.882,-6.343 -1.647,-9.396 v 0 c -0.117,-0.706 -0.234,-1.292 -0.353,-1.881 -0.82,-3.405 -1.408,-6.928 -2.347,-10.335 -0.474,-2.231 -1.177,-4.463 -1.882,-6.695 -1.173,-3.876 -2.703,-7.871 -4.347,-11.628 -2.585,-5.991 -5.52,-11.747 -8.691,-17.385 -1.526,-2.82 -3.173,-5.639 -4.816,-8.457 -0.938,-1.41 -1.877,-2.938 -2.703,-4.464 -1.057,-0.586 -1.995,-1.879 -3.051,-2.468 -1.06,-0.586 -2.116,-0.938 -3.289,-1.174 -2.703,-0.469 -5.521,-0.234 -8.106,0.235 -2.938,0.469 -5.871,1.292 -8.692,2.114 -0.939,0.353 -1.994,0.587 -2.938,0.824 0.708,0.587 1.412,1.291 1.998,1.878 2.939,3.172 5.169,6.695 7.046,10.455 0.942,1.879 1.765,3.759 2.469,5.639 0,0.118 0,0.118 0,0.118 1.643,2.936 2.938,5.989 4.229,9.044 1.995,4.698 3.759,9.514 5.402,14.329 0.117,0 0.117,0.117 0.117,0.117 1.295,2.352 2.469,4.818 3.408,7.167 5.52,12.569 8.81,26.194 10.574,39.819 0.821,6.813 1.407,13.625 1.407,20.556 0,3.876 0.117,7.753 0.117,11.628 0,2.468 0,4.935 -0.117,7.401 1.761,1.057 3.642,1.88 5.637,2.349 2.234,0.47 4.581,0.705 6.815,0.353 1.056,-0.235 2.112,-0.47 3.169,-0.822 0.469,-0.234 0.825,-0.471 1.412,-0.706 0.234,-2.349 0.469,-4.816 0.703,-7.165 0.588,-6.93 1.057,-13.86 1.057,-20.673 0.117,-6.929 -0.117,-13.86 -0.939,-20.792 -0.351,-3.407 -0.937,-6.697 -1.642,-9.985 z"
   id="path3906"
   inkscape:connector-curvature="0"
   style="fill:#d49a26" />
	<path
   d="m 921.321,123.779 c 1.999,-7.165 3.055,-14.564 3.523,-21.848 0.471,-7.517 0.119,-14.918 0.471,-22.317 0.117,-3.642 0.469,-7.401 1.056,-11.042 0.238,-1.762 0.474,-3.642 0.942,-5.404 -1.294,1.058 -2.703,2.114 -3.993,3.172 -2.234,1.997 -4.464,4.111 -6.462,6.343 -4.112,4.464 -7.75,9.162 -10.923,14.33 -6.229,10.103 -10.335,21.613 -11.631,33.477 -0.586,6.345 -0.586,12.921 0.588,19.264 0.234,1.293 0.586,2.583 0.821,3.759 0,-1.293 0,-2.584 0.121,-3.877 0.234,-6.108 0.938,-12.215 2.348,-18.089 1.174,-4.581 2.468,-9.162 4.228,-13.507 1.761,-4.112 3.994,-8.106 7.637,-10.689 0.704,-0.353 1.643,0 1.76,0.704 0.118,0.352 0.234,0.706 0.234,1.175 0.822,5.05 0,10.103 -0.703,15.153 -0.704,5.402 -1.643,10.924 -2.703,16.327 -1.056,5.287 -2.23,10.689 -3.638,15.974 -1.178,4.581 -2.352,9.398 -4.229,13.862 0.587,0.704 0.938,1.527 1.761,1.527 1.056,0 2.111,-1.175 2.821,-1.997 0.117,-0.12 0.234,-0.237 0.352,-0.354 2.699,-5.52 5.754,-10.805 8.223,-16.326 2.933,-6.344 5.518,-12.921 7.396,-19.617 z"
   id="path3908"
   inkscape:connector-curvature="0"
   style="fill:#d49a26" />
	<path
   d="m 901.472,164.42 c -0.938,-0.235 -1.999,-1.056 -2.469,-1.995 -0.117,0 -0.234,-0.117 -0.352,-0.352 -2.112,-3.524 -3.407,-7.636 -4.581,-11.513 -0.117,-0.353 -0.117,-0.587 -0.234,-0.822 -1.761,0.352 -3.642,0.469 -5.52,0.822 -1.999,0.352 -3.877,0.823 -5.754,1.41 -3.76,1.176 -7.401,2.701 -10.927,4.698 -7.049,3.877 -13.273,8.811 -19.263,14.214 -10.221,9.396 -20.087,19.027 -31.361,27.133 -4.585,3.407 -9.753,6.695 -15.154,9.044 -2.469,1.056 -4.934,1.879 -7.52,2.466 0.234,0.234 0.587,0.352 0.943,0.352 14.329,-0.822 29.011,-1.997 42.4,-7.751 7.637,-3.173 14.803,-7.519 21.966,-11.63 -0.352,-0.705 -0.821,-1.409 -1.056,-2.113 -0.469,-1.058 -0.705,-2.234 -0.822,-3.407 -0.117,-2.936 1.057,-5.52 3.173,-6.93 0.822,-0.707 1.643,-1.293 2.464,-1.646 2.234,-1.056 4.464,-1.291 6.815,-0.821 2.347,0.586 4.346,1.76 5.754,3.522 0.47,0.589 0.822,1.293 1.174,2.115 3.173,-1.408 6.462,-2.701 9.866,-3.523 2.586,-0.588 5.172,-0.823 7.753,-0.823 0.117,-0.704 0.353,-1.526 0.47,-2.232 0.822,-3.522 1.882,-6.812 3.29,-10.1 -0.351,0.002 -0.703,0.002 -1.055,-0.118 z"
   id="path3910"
   inkscape:connector-curvature="0"
   style="fill:#d49a26" />
	<path
   d="m 883.031,135.172 c 1.408,4.229 3.403,7.871 6.341,11.042 1.174,-0.118 2.352,-0.118 3.525,0 -0.704,-2.584 -1.174,-5.167 -1.644,-7.751 -0.942,-6.93 -0.942,-13.979 0,-20.909 1.291,-9.396 4.347,-18.559 8.692,-26.898 -0.943,-1.293 -1.178,-3.17 -1.882,-4.463 -0.821,-1.763 -1.995,-3.288 -2.938,-5.05 -1.878,-3.291 -3.521,-6.813 -4.698,-10.572 -1.057,-3.759 -1.174,-7.401 -1.057,-11.276 0.118,-1.645 0.118,-3.407 0.353,-5.052 -2.348,3.408 -4.581,6.696 -6.106,10.455 -2.117,4.698 -3.173,9.75 -3.993,14.8 -2.234,13.508 -1.53,27.603 0.234,41.113 0.705,4.931 1.643,9.864 3.173,14.561 z"
   id="path3912"
   inkscape:connector-curvature="0"
   style="fill:#d49a26" />
	<path
   d="m 1326.569,255.572 c -0.943,-0.822 -2.352,-1.174 -3.525,-1.409 -3.172,-0.589 -6.462,-0.471 -9.631,-0.823 -0.117,-0.117 -0.117,-0.117 -0.234,-0.117 0.469,1.175 0.469,2.583 0.352,3.876 4.815,0.235 9.514,0.587 14.212,0.939 0.117,0 0.117,-0.117 0.117,-0.234 -0.235,-0.822 -0.587,-1.646 -1.291,-2.232 z"
   id="path3914"
   inkscape:connector-curvature="0"
   style="fill:#f5be4e" />
	<path
   d="m 1310.944,252.988 c -8.223,-1.058 -16.445,-2.583 -24.546,-4.581 0.116,0.469 0.234,0.939 0.351,1.528 0.235,1.291 0.353,2.701 0.47,3.992 0,0.12 0,0.12 0,0.237 0.587,0 1.291,0.117 1.996,0.235 5.641,0.822 11.277,1.526 16.915,2.112 1.76,0.119 3.407,0.236 5.049,0.354 0,-0.707 0,-1.293 0,-1.998 -0.116,-0.704 -0.235,-1.293 -0.235,-1.879 z"
   id="path3916"
   inkscape:connector-curvature="0"
   style="fill:#f5be4e" />
	<path
   d="m 1284.398,247.82 c -3.525,-0.941 -6.928,-1.88 -10.335,-3.056 -4.816,-1.645 -9.514,-3.405 -14.212,-5.402 0.113,1.056 0,2.114 -0.122,3.053 -0.117,1.762 -0.352,3.525 -0.703,5.286 0,0.119 0,0.236 -0.118,0.471 8.692,2.232 17.385,4.111 26.194,5.637 0,-1.291 -0.117,-2.584 -0.352,-3.757 -0.117,-0.706 -0.352,-1.528 -0.352,-2.232 z"
   id="path3918"
   inkscape:connector-curvature="0"
   style="fill:#f5be4e" />
	<path
   d="m 1237.061,231.726 c -0.588,2.349 -1.409,4.581 -2.348,6.696 -0.234,0.469 -0.47,0.941 -0.704,1.41 7.162,2.936 14.329,5.285 21.609,7.399 0.356,0.117 0.709,0.117 0.943,0.234 0.116,-0.117 0.116,-0.352 0.116,-0.469 0.354,-1.76 0.705,-3.522 0.822,-5.402 0.117,-0.941 0,-2.114 0.234,-3.172 -6.811,-3.053 -13.39,-6.46 -19.735,-10.218 -0.233,1.173 -0.586,2.466 -0.937,3.522 z"
   id="path3920"
   inkscape:connector-curvature="0"
   style="fill:#f5be4e" />
	<path
   d="m 1236.004,227.028 c -7.049,-4.346 -13.977,-9.162 -20.439,-14.449 -0.118,1.059 -0.235,2.117 -0.47,3.173 -0.352,1.291 -0.822,2.466 -1.291,3.642 -0.938,2.584 -1.877,5.168 -3.173,7.634 -0.117,0.352 -0.352,0.706 -0.469,1.058 6.932,4.229 14.329,7.869 21.848,10.922 0.235,-0.352 0.353,-0.821 0.587,-1.291 0.942,-2.114 1.765,-4.346 2.469,-6.46 0.351,-1.41 0.585,-2.936 0.938,-4.229 z"
   id="path3922"
   inkscape:connector-curvature="0"
   style="fill:#f5be4e" />
	<path
   d="m 1213.1,214.931 c 0.352,-1.176 0.938,-2.115 1.408,-3.29 -2.465,-1.997 -4.815,-4.229 -7.166,-6.343 -3.17,-3.054 -6.225,-6.227 -9.041,-9.631 -0.238,2.701 -1.765,5.285 -2.82,7.517 -1.647,3.29 -3.407,6.343 -5.402,9.279 -0.117,0.235 -0.234,0.354 -0.355,0.472 1.411,1.29 2.938,2.583 4.468,3.875 4.459,3.642 9.161,7.049 13.977,10.103 0.234,-0.353 0.352,-0.705 0.586,-1.059 1.175,-2.347 2.229,-4.815 3.174,-7.399 0.349,-1.175 0.702,-2.351 1.171,-3.524 z"
   id="path3924"
   inkscape:connector-curvature="0"
   style="fill:#f5be4e" />
	<path
   d="m 1195.48,197.546 c 0.469,-1.176 0.939,-2.349 1.644,-3.29 -0.822,-1.056 -1.761,-2.231 -2.583,-3.288 -1.881,-2.466 -3.642,-5.052 -5.288,-7.753 -0.353,-0.705 -0.822,-1.41 -1.174,-2.115 -0.47,2.115 -1.409,4.229 -2.465,6.109 -0.117,0.234 -0.238,0.469 -0.352,0.821 -0.356,0.941 -0.591,1.879 -0.942,2.821 -1.409,3.875 -2.935,7.517 -4.934,11.041 2.703,3.288 5.637,6.341 8.575,9.279 0.117,0 0.117,-0.118 0.234,-0.235 1.882,-2.82 3.642,-5.874 5.167,-8.927 0.828,-1.409 1.532,-2.938 2.118,-4.463 z"
   id="path3926"
   inkscape:connector-curvature="0"
   style="fill:#f5be4e" />
	<path
   d="m 1138.511,244.765 c -3.055,0.589 -5.993,0.824 -9.161,0.707 -5.524,-0.117 -10.81,-1.293 -15.625,-4.229 0.117,0.352 0.117,0.704 0.117,0.939 0,0.587 0,1.173 0,1.762 0,0.821 0,1.645 -0.117,2.583 -0.234,2.702 -0.821,5.403 -1.877,7.989 -0.118,0.352 -0.353,0.939 -0.587,1.408 1.408,-0.352 2.817,0.117 3.873,1.175 1.412,1.528 1.999,3.64 1.882,5.757 0,0.469 0,0.821 0,1.29 0.703,-0.352 1.524,-0.469 2.229,-0.469 1.529,0.117 2.82,0.938 3.524,2.349 0.234,0.586 0.586,1.292 0.704,2.114 1.647,-0.47 3.173,-1.058 4.819,-1.763 1.761,-0.704 3.403,-1.41 5.285,-2.349 1.291,-0.704 2.582,-1.527 3.877,-2.466 0.587,-0.469 1.29,-1.058 2.112,-1.528 0.117,-0.352 0.235,-0.704 0.353,-0.938 0.234,-0.706 0.586,-1.41 0.82,-1.997 0.471,-1.41 1.061,-2.819 1.53,-4.229 0.821,-2.819 1.644,-5.639 2.348,-8.458 0.117,-0.47 0.117,-0.939 0.234,-1.411 -0.704,0.352 -1.409,0.589 -2.112,0.823 -1.408,0.354 -2.819,0.706 -4.228,0.941 z"
   id="path3928"
   inkscape:connector-curvature="0"
   style="fill:#f5be4e" />
	<path
   d="m 1102.803,244.413 c -3.172,-0.705 -5.992,-1.998 -8.457,-3.877 -0.118,1.645 -0.353,3.407 -0.704,5.052 -0.353,1.525 -0.825,3.053 -1.295,4.581 1.529,-0.823 3.173,-1.175 4.815,0 1.295,1.056 1.764,2.467 1.998,3.994 0.235,-0.237 0.471,-0.471 0.705,-0.706 0.47,-0.352 1.056,-0.352 1.408,0 1.061,0.941 1.765,1.998 1.999,3.29 0,0.353 0.117,0.822 0.117,1.292 0.117,0 0.234,-0.117 0.352,-0.117 0.235,0 0.471,0 0.587,0 l 0.118,-0.117 c 0.117,0 0.117,0 0.117,0 0.117,0 0.353,0 0.47,0 v 0 0 c 0.234,0 0.469,0 0.703,0 0,0 0,0 0.118,0 0,0 0.117,0 0.234,0.117 0.474,-1.174 1.061,-2.232 1.765,-3.171 0.352,-0.704 0.586,-1.293 0.821,-1.997 0.704,-2.349 1.408,-4.698 1.643,-7.047 0,-0.235 0,-0.47 0,-0.707 -0.469,0 -1.057,0 -1.525,0 -1.995,0 -4.111,-0.118 -5.989,-0.587 z"
   id="path3930"
   inkscape:connector-curvature="0"
   style="fill:#f5be4e" />
	<path
   d="m 963.257,246.997 c -4.581,-0.821 -9.045,-2.583 -12.569,-5.402 0,0.704 0,1.408 0,2.114 0,3.875 -0.352,7.869 -0.939,11.863 -0.234,1.645 -0.469,3.29 -0.938,4.933 0.234,0 0.469,-0.117 0.587,-0.117 1.643,-0.47 3.642,-0.234 4.814,1.058 1.292,1.411 1.761,3.522 1.644,5.402 -0.117,0 -0.117,0 -0.117,0 1.173,-1.056 2.586,-1.88 3.876,-2.114 1.526,-0.235 2.938,0.117 3.877,1.293 1.056,1.41 0.939,3.405 0.587,5.05 0.588,-0.117 1.057,-0.234 1.644,-0.352 1.413,-0.352 2.82,-0.705 4.111,-1.176 1.06,-0.352 1.999,-0.939 3.056,-1.291 0.352,-0.704 0.82,-1.292 1.174,-1.88 0.824,-1.175 1.294,-2.466 1.881,-3.759 1.057,-2.936 1.761,-5.99 2.347,-9.045 0.353,-2.114 0.825,-4.346 1.295,-6.578 -2.469,0.586 -5.049,0.705 -7.636,0.705 -2.94,0.119 -5.874,-0.118 -8.694,-0.704 z"
   id="path3932"
   inkscape:connector-curvature="0"
   style="fill:#f5be4e" />
	<path
   d="m 939.767,235.486 c -0.709,-0.352 -1.413,-0.704 -2.117,-1.058 0,0.941 0,1.879 0,2.82 0,3.405 -0.352,6.93 -0.939,10.335 0.354,0 0.705,0.118 0.822,0.472 1.056,2.232 1.29,4.698 0.821,7.165 0,0.117 -0.117,0.352 -0.117,0.469 0.352,0 0.586,0 0.938,0.117 1.882,0.704 2.703,2.584 2.938,4.464 0.235,0 0.471,-0.117 0.588,-0.117 0.704,-0.118 1.29,-0.353 1.999,-0.353 0.352,-1.762 0.704,-3.408 0.938,-5.167 0.47,-3.525 0.821,-7.05 0.938,-10.689 0,-2.232 0,-4.581 -0.117,-6.813 -2.348,-0.117 -4.581,-0.587 -6.692,-1.645 z"
   id="path3934"
   inkscape:connector-curvature="0"
   style="fill:#f5be4e" />
	<path
   d="m 904.405,110.036 c -1.524,3.994 -2.816,8.341 -3.872,12.569 -1.295,5.754 -2.116,11.628 -2.469,17.502 -0.117,3.053 -0.352,6.106 -0.234,9.044 0,0.939 0.117,1.995 0.234,2.937 0.587,1.997 1.292,3.876 1.761,5.874 0.474,-1.293 0.942,-2.704 1.295,-3.994 0.821,-2.584 1.525,-5.167 2.229,-7.753 1.29,-5.167 2.352,-10.453 3.29,-15.622 0.939,-5.403 1.761,-10.689 2.469,-16.092 0.587,-4.463 1.291,-9.044 0.821,-13.625 -2.467,2.582 -4.228,5.87 -5.524,9.16 z"
   id="path3936"
   inkscape:connector-curvature="0"
   style="fill:#f5be4e" />
	<path
   d="m 898.769,176.872 c -2.581,0 -5.167,0.235 -7.753,0.823 -3.404,0.822 -6.693,2.115 -9.866,3.523 v 0.117 c 1.291,3.525 0.47,7.401 -1.878,10.22 -2.469,3.054 -7.049,4.347 -10.691,2.819 -1.995,-0.822 -3.638,-2.232 -4.933,-3.876 -7.163,4.111 -14.329,8.457 -21.966,11.63 -13.39,5.754 -28.071,6.93 -42.4,7.751 -0.356,0 -0.709,-0.118 -0.943,-0.352 -3.992,0.941 -8.103,1.058 -12.332,0.234 0,0.118 -0.117,0.235 -0.117,0.352 -0.234,0.472 -0.47,1.059 -0.587,1.528 -0.236,0.938 -0.354,1.88 -0.354,2.819 0.117,1.762 0.94,3.407 1.998,4.817 2.702,3.641 7.048,6.107 11.157,8.221 17.971,9.046 38.646,10.337 58.381,8.575 2.699,-0.235 5.402,-0.469 8.103,-0.822 7.871,-2.818 15.624,-7.165 22.2,-12.334 3.524,-2.936 7.049,-6.227 9.4,-10.22 1.056,-1.761 1.877,-3.758 2.347,-5.755 0.117,-0.821 0.234,-1.527 0.352,-2.349 -0.586,-3.407 -1.056,-6.813 -1.173,-10.22 -0.236,-5.754 -0.001,-11.745 1.055,-17.501 z"
   id="path3938"
   inkscape:connector-curvature="0"
   style="fill:#f5be4e" />
	<path
   d="m 1331.032,258.273 c 0,-1.998 -0.704,-3.875 -2.233,-5.167 -1.643,-1.528 -3.76,-2.115 -5.872,-2.467 -2.233,-0.352 -4.464,-0.47 -6.815,-0.587 -3.051,-0.234 -6.223,-0.823 -9.277,-1.293 -13.157,-1.997 -26.078,-5.167 -38.412,-9.75 -10.57,-3.875 -20.787,-8.927 -30.423,-14.682 -1.643,-1.058 -3.286,-1.997 -4.815,-3.055 -10.805,-6.812 -20.905,-14.799 -29.832,-24.078 -3.29,-3.407 -6.346,-7.049 -9.161,-10.809 -2.353,-3.17 -4.229,-6.576 -6.346,-9.983 0.82,-5.874 1.174,-11.982 0.82,-17.854 -0.469,-8.223 -2.347,-16.681 -5.754,-24.315 -1.056,-3.994 -2.938,-7.753 -5.05,-11.158 -3.407,-5.405 -7.519,-10.221 -12.1,-14.684 -9.162,-9.045 -19.85,-16.679 -31.479,-22.083 -6.581,-2.936 -13.626,-5.167 -20.793,-6.226 -3.759,-0.587 -7.754,-0.821 -11.508,-0.821 -2.234,0 -4.347,0 -6.581,0.117 -1.76,0.117 -3.524,0.117 -5.284,0.587 -1.53,-1.173 -3.173,-2.115 -4.934,-2.936 -3.76,-1.762 -7.87,-2.818 -12.1,-2.938 -2.116,-0.117 -4.111,0.12 -6.105,0.472 -1.413,0.118 -3.291,0.352 -4.468,1.291 -2.582,-1.88 -5.521,-3.053 -8.571,-3.759 -3.29,-0.822 -6.815,-0.822 -10.223,-0.47 -1.76,0.117 -3.406,0.352 -5.167,0.707 -1.526,0.352 -3.056,0.586 -4.346,1.291 -0.939,-0.587 -1.879,-1.056 -2.938,-1.41 -3.051,-0.939 -6.341,-0.704 -9.396,-0.235 -3.291,0.472 -6.342,1.293 -9.397,2.114 -1.525,0.472 -2.938,0.941 -4.346,1.41 -0.587,0.235 -1.291,0.47 -1.995,0.705 -1.529,-0.939 -3.29,-1.643 -5.051,-2.232 -2.233,-0.704 -4.819,-1.056 -7.167,-0.821 -1.76,0.118 -3.759,0.469 -5.401,1.292 -1.061,0.118 -2.234,0.47 -3.056,0.705 -2.938,0.821 -5.638,2.232 -8.341,3.642 -5.52,3.053 -11.16,6.106 -16.563,9.396 -6.342,3.876 -12.33,8.105 -18.206,12.687 -5.284,4.111 -10.805,8.103 -15.034,13.39 0.588,-3.877 1.057,-7.636 1.292,-11.513 0.586,-7.399 0.234,-14.798 0.234,-22.2 0.117,-3.758 0.352,-7.399 0.822,-11.042 0.469,-3.288 1.529,-6.578 1.29,-9.748 0.121,-0.352 0.121,-0.587 0,-0.824 0,-0.117 -0.113,-0.234 -0.113,-0.234 0,-0.352 -0.474,-0.586 -0.825,-0.586 -0.352,-0.118 -0.705,-0.118 -1.057,0.117 -2.699,1.292 -5.051,3.407 -7.401,5.285 -2.348,1.999 -4.463,4.111 -6.576,6.228 -4.229,4.344 -7.987,9.162 -11.278,14.329 -0.703,1.056 -1.291,2.115 -1.995,3.29 -0.117,-0.589 -0.352,-1.175 -0.586,-1.645 -0.587,-1.646 -1.413,-3.291 -2.234,-4.818 -1.878,-3.288 -3.524,-6.576 -4.815,-10.101 -1.173,-3.407 -1.995,-7.047 -2.582,-10.572 -0.234,-1.879 -0.234,-3.64 -0.121,-5.521 0,-0.939 0.121,-1.878 0.239,-2.819 0.117,-0.234 0.117,-0.586 0.117,-0.821 0.117,-0.118 0.117,-0.118 0.117,-0.118 0.939,-1.645 -1.529,-3.524 -2.703,-1.997 -4.346,5.167 -7.988,11.394 -10.101,17.854 -2.234,6.343 -3.29,13.273 -3.876,19.968 -0.588,6.93 -0.47,13.979 0,20.909 0.352,6.109 1.056,12.098 2.111,18.089 0.822,4.581 2.233,9.162 4.111,13.508 1.179,2.583 2.703,5.405 4.698,7.399 -0.469,0.117 -1.056,0.236 -1.643,0.354 -3.29,0.704 -6.462,1.762 -9.632,3.17 -6.228,2.584 -11.864,6.343 -17.267,10.572 -5.402,4.111 -10.34,8.927 -15.272,13.508 -5.05,4.698 -10.101,9.396 -15.386,13.86 -6.109,5.287 -12.921,10.337 -20.088,14.214 -3.406,1.762 -6.928,3.053 -10.687,3.876 -3.759,0.822 -7.636,0.822 -11.514,0.939 -1.173,0 -1.407,1.41 -0.703,1.997 0,0.117 -0.117,0.235 -0.235,0.47 -0.469,0.706 -0.82,1.528 -1.057,2.467 -0.471,1.527 -0.353,3.172 0,4.815 0.822,3.29 3.172,6.108 5.756,8.34 6.226,5.287 14.212,8.457 21.73,10.924 9.396,3.173 19.145,4.229 28.897,4.581 1.291,0 2.464,0 3.755,0 6.58,0 13.156,-0.352 19.735,-1.057 5.755,-0.706 11.396,-1.645 17.032,-2.818 9.162,-1.997 18.207,-4.463 26.43,-9.162 0.234,-0.12 0.469,-0.237 0.587,-0.354 0.586,-0.352 1.174,-0.705 1.878,-1.174 3.055,-1.88 5.992,-3.994 8.692,-6.46 2.703,-2.583 5.641,-5.05 8.105,-7.871 1.999,1.645 4.11,3.172 6.345,4.581 0,0.117 0,0.117 0.117,0.117 0,0.353 0.117,0.824 0.117,1.176 0.234,0.822 0.588,1.645 0.822,2.584 0.469,1.645 0.821,3.407 1.056,5.167 0.234,1.879 0.47,3.876 0.587,5.756 0.118,1.88 0.118,3.759 0,5.639 0,3.523 -0.353,7.047 -1.057,10.57 -0.352,1.645 -0.703,3.29 -1.174,4.935 -0.352,0.939 -0.586,1.879 -1.06,2.819 -0.47,1.056 -1.174,1.879 -1.174,2.936 0,0.235 0.118,0.354 0.118,0.589 -0.118,0.587 -0.118,1.173 0.117,1.878 0.704,1.645 2.352,2.351 3.876,2.82 1.765,0.469 3.525,0.586 5.285,0.586 0.469,-0.117 0.826,-0.117 1.178,-0.117 0.353,0.117 0.704,0.117 1.174,-0.117 v 0 c 0.117,0 0.234,0 0.352,-0.117 0.588,0 1.174,-0.118 1.761,-0.235 -0.234,0.586 -0.353,1.173 -0.587,1.761 v 0.117 c -0.234,0.354 -0.352,0.588 -0.586,0.94 -0.354,0.705 -0.588,1.528 -0.705,2.466 -0.117,1.41 0.352,2.818 1.291,3.995 2.234,2.349 6.11,2.701 9.045,2.936 3.642,0.118 7.167,-0.234 10.691,-0.821 1.29,-0.235 2.581,-0.352 3.876,-0.706 2.582,-0.587 6.107,-1.408 8.106,-3.405 1.995,-1.176 3.402,-3.994 4.345,-5.874 1.409,-2.936 2.23,-6.224 2.817,-9.514 0.587,-3.29 0.704,-6.578 1.291,-9.749 0,-0.117 0,-0.117 0,-0.234 0.238,-1.293 0.352,-2.586 0.708,-3.877 0.234,-1.41 0.939,-2.938 1.174,-4.346 0.821,0.117 1.525,0.234 2.347,0.234 1.412,0.587 2.82,0.822 4.229,1.057 2.587,0.352 5.29,0.469 7.87,0.586 5.052,0.236 10.102,0.941 15.156,1.175 5.049,0.235 10.218,-0.469 14.915,-2.701 0.939,-0.469 1.879,-1.059 2.703,-1.645 0.822,0.235 1.644,0.469 2.349,0.586 1.646,0.354 3.406,0.589 5.167,0.824 3.407,0.235 6.813,0.117 10.222,-0.587 3.403,-0.706 6.458,-2.233 9.044,-4.463 0.235,-0.236 0.587,-0.589 1.057,-0.941 0.353,0.352 0.704,0.705 1.29,0.941 1.179,0.587 2.352,1.057 3.643,1.408 2.469,0.705 5.285,0.939 7.871,0.705 2.582,-0.353 4.815,-1.291 6.811,-2.819 0.117,-0.118 0.353,-0.235 0.474,-0.469 1.173,1.058 2.934,1.645 4.225,2.349 1.765,0.704 3.524,1.41 5.407,1.879 0.586,0.118 1.173,0.118 1.642,0.235 0,1.175 0,2.467 -0.117,3.642 0,1.88 -0.352,3.758 -0.704,5.637 -0.82,3.642 -2.116,7.165 -3.523,10.572 -0.235,0.352 -0.235,0.704 -0.235,1.056 -0.118,0.589 -0.118,1.293 0,1.763 0.353,1.645 1.764,2.584 3.173,3.172 3.172,1.292 7.045,1.174 10.452,0.822 1.413,-0.117 2.82,-0.234 4.229,-0.587 -0.471,1.763 -0.471,3.641 0.117,5.403 1.411,4.346 5.758,6.108 9.982,6.226 4.467,0.117 9.049,-1.291 13.156,-2.818 1.882,-0.587 3.76,-1.411 5.641,-2.232 1.408,-0.704 2.817,-1.528 4.229,-2.466 1.525,-0.941 3.168,-1.997 4.11,-3.408 0.235,-0.469 0.471,-0.821 0.588,-1.41 0.117,-0.469 0,-0.822 -0.235,-1.056 0.235,-0.352 0.353,-0.704 0.587,-1.056 0.704,-1.176 1.29,-2.586 1.878,-3.994 1.06,-2.82 1.881,-5.756 2.586,-8.81 0.704,-2.938 1.408,-5.874 2.229,-8.81 0.356,-1.41 0.825,-2.938 1.295,-4.346 0.234,-0.941 0.587,-1.88 0.822,-2.821 1.876,-1.056 3.641,-2.112 5.284,-3.288 3.759,-2.583 7.05,-5.756 10.101,-9.162 2.586,3.054 5.523,5.874 8.574,8.458 0.471,0.352 0.939,0.821 1.53,1.173 0.821,0.707 1.76,1.41 2.582,2.114 5.167,3.995 10.809,7.401 16.445,10.455 11.748,6.226 24.316,10.573 36.999,13.978 7.049,1.88 14.099,3.524 21.262,4.817 7.167,1.291 14.568,2.23 21.848,2.818 7.52,0.587 15.037,0.587 22.553,0.822 7.871,0.117 15.741,0.117 23.612,-0.117 1.291,-0.117 2.464,-0.117 3.76,-0.235 0.234,0 0.351,0 0.469,0 1.525,-0.118 3.051,-0.235 4.58,-0.47 1.882,-0.233 1.296,-3.053 -0.348,-3.053 z m -17.619,-4.933 v 0 c 3.169,0.352 6.459,0.234 9.631,0.823 1.174,0.235 2.582,0.587 3.525,1.409 0.704,0.586 1.056,1.41 1.29,2.232 0,0.117 0,0.234 -0.117,0.234 0,0.117 -0.117,0.117 -0.117,0.235 -2.82,0 -5.637,0.236 -8.457,0.236 -1.878,0 -3.877,0.118 -5.755,0.118 0.117,-0.472 0.117,-1.059 0.117,-1.528 0.117,-1.293 0.117,-2.701 -0.352,-3.876 0.118,0 0.118,0 0.235,0.117 z M 1094.581,82.08 v 0 c 1.995,-0.118 3.993,-0.118 5.988,-0.118 3.643,0.118 7.284,0.353 10.926,0.941 6.459,1.291 12.688,3.053 18.676,5.637 11.982,5.285 22.67,12.334 32.066,21.261 4.581,4.229 8.809,8.81 12.451,13.743 1.408,2.114 2.821,4.229 3.994,6.46 1.408,6.93 4.229,13.625 5.519,20.555 1.175,5.521 1.296,11.158 1.062,16.798 -0.122,2.349 -0.356,4.815 -0.708,7.282 -0.469,4.111 -1.291,8.105 -2.465,11.982 -0.118,0.235 -0.234,0.47 -0.353,0.587 -1.529,2.818 -3.407,5.404 -5.522,7.751 -3.404,3.877 -7.633,7.05 -12.214,9.516 -9.044,4.933 -19.853,6.695 -29.953,4.933 -3.524,-0.587 -7.049,-1.763 -10.336,-3.288 -1.646,-0.706 -3.172,-1.528 -4.701,-2.469 v 0 c -0.939,-0.586 -1.761,-1.173 -2.583,-1.76 -0.586,-0.352 -1.056,-0.706 -1.646,-1.058 0.117,-1.88 0.239,-3.757 0.353,-5.637 0.355,-3.876 0.591,-7.753 0.825,-11.63 0.703,-7.751 0.469,-15.388 -0.234,-23.139 -0.118,-2.349 -0.353,-4.581 -0.704,-6.813 -0.591,-5.404 -1.413,-10.807 -2.234,-16.211 -0.352,-1.997 -0.586,-4.111 -0.938,-6.106 -0.822,-5.17 -1.765,-10.337 -3.056,-15.39 -1.056,-3.993 -2.351,-7.986 -3.876,-11.863 -0.939,-2.466 -2.113,-4.815 -3.291,-7.165 v 0 c -0.234,-2.231 -1.29,-4.229 -2.229,-6.108 -1.056,-2.232 -2.469,-4.229 -3.994,-5.992 -0.82,-0.938 -1.643,-1.76 -2.468,-2.583 0.47,0.001 1.057,-0.116 1.645,-0.116 z m -164.919,33.241 v 0 c 1.177,-1.291 2.469,-2.467 3.876,-3.642 2.703,-2.23 5.402,-4.463 8.223,-6.458 5.989,-4.346 12.1,-8.458 18.441,-12.334 5.52,-3.525 11.277,-6.578 16.914,-9.748 2.703,-1.528 5.286,-2.821 8.106,-4.112 0.704,-0.352 1.525,-0.588 2.347,-0.94 2.116,0.117 4.229,-0.587 6.345,-0.704 2.113,-0.118 4.347,0.117 6.459,0.704 3.407,0.94 6.345,3.172 8.928,5.639 2.703,2.701 4.933,5.872 6.814,9.162 1.057,1.645 1.994,3.29 2.82,4.933 0.352,0.704 0.82,1.41 1.174,2.114 v 0 c 0.469,0.941 0.821,1.879 1.173,2.818 1.408,3.408 2.586,6.814 3.877,10.221 2.352,6.93 4.463,13.979 6.224,21.026 1.882,7.048 3.525,14.095 4.581,21.259 1.178,7.284 1.882,14.684 2.233,21.966 0.353,7.401 0.353,14.801 0,22.2 -0.234,0 -0.469,0 -0.703,0.117 -6.698,2.703 -13.509,5.404 -20.441,7.284 -6.81,1.88 -13.859,3.054 -20.791,3.76 -13.273,1.291 -26.781,0.352 -39.232,-4.463 -11.04,-4.347 -21.14,-11.865 -29.48,-20.205 -3.994,-4.111 -7.637,-8.575 -10.456,-13.743 -2.7,-4.815 -3.994,-9.866 -3.994,-15.388 0,-0.938 0,-1.997 0.121,-2.936 0,-0.469 -0.356,-0.704 -0.825,-0.704 0.234,-0.589 0.352,-1.058 0.469,-1.646 1.412,-2.349 2.821,-4.817 4.111,-7.284 3.291,-6.225 5.994,-12.684 7.989,-19.499 0.586,-1.995 1.056,-3.992 1.528,-5.989 1.056,-1.059 2.112,-2.35 3.169,-3.408 z M 905.936,87.013 v 0 c 3.173,-5.168 6.811,-9.866 10.923,-14.33 1.998,-2.231 4.228,-4.346 6.462,-6.343 1.29,-1.059 2.699,-2.115 3.993,-3.172 -0.469,1.762 -0.704,3.642 -0.942,5.404 -0.587,3.64 -0.938,7.399 -1.056,11.042 -0.352,7.399 0,14.801 -0.471,22.317 -0.469,7.284 -1.524,14.684 -3.523,21.848 -1.878,6.696 -4.463,13.273 -7.397,19.617 -2.469,5.521 -5.523,10.806 -8.223,16.326 -0.117,0.117 -0.234,0.234 -0.352,0.354 -0.71,0.822 -1.766,1.997 -2.821,1.997 -0.822,0 -1.174,-0.824 -1.761,-1.527 1.878,-4.464 3.052,-9.281 4.229,-13.862 1.407,-5.285 2.582,-10.687 3.638,-15.974 1.061,-5.403 1.999,-10.924 2.703,-16.327 0.703,-5.05 1.525,-10.103 0.703,-15.153 0,-0.469 -0.116,-0.823 -0.234,-1.175 -0.117,-0.704 -1.056,-1.057 -1.76,-0.704 -3.643,2.583 -5.876,6.578 -7.637,10.689 -1.76,4.346 -3.054,8.926 -4.228,13.507 -1.409,5.874 -2.113,11.98 -2.348,18.089 -0.121,1.293 -0.121,2.584 -0.121,3.877 -0.235,-1.176 -0.587,-2.466 -0.821,-3.759 -1.174,-6.343 -1.174,-12.919 -0.588,-19.264 1.297,-11.864 5.403,-23.375 11.632,-33.477 z m -7.872,65.075 v 0 c -0.117,-0.941 -0.234,-1.998 -0.234,-2.937 -0.117,-2.938 0.117,-5.991 0.234,-9.044 0.353,-5.874 1.174,-11.748 2.469,-17.502 1.056,-4.229 2.348,-8.575 3.872,-12.569 1.296,-3.29 3.057,-6.578 5.524,-9.161 0.47,4.58 -0.234,9.161 -0.821,13.625 -0.708,5.403 -1.529,10.689 -2.469,16.092 -0.938,5.169 -2,10.455 -3.29,15.622 -0.704,2.586 -1.408,5.169 -2.229,7.753 -0.353,1.291 -0.821,2.701 -1.295,3.994 -0.469,-1.997 -1.174,-3.877 -1.761,-5.873 z m -15.033,-16.916 v 0 c -1.53,-4.698 -2.469,-9.631 -3.172,-14.564 -1.765,-13.51 -2.469,-27.604 -0.234,-41.113 0.82,-5.05 1.876,-10.103 3.993,-14.8 1.525,-3.759 3.759,-7.047 6.106,-10.455 -0.234,1.646 -0.234,3.408 -0.353,5.052 -0.117,3.875 0,7.517 1.057,11.276 1.178,3.759 2.82,7.282 4.698,10.572 0.942,1.762 2.116,3.288 2.938,5.05 0.704,1.293 0.938,3.17 1.882,4.463 -4.346,8.34 -7.401,17.502 -8.692,26.898 -0.942,6.93 -0.942,13.979 0,20.909 0.47,2.584 0.939,5.167 1.644,7.751 -1.174,-0.118 -2.352,-0.118 -3.525,0 -2.938,-3.168 -4.934,-6.81 -6.342,-11.039 z m 35.474,79.17 v 0 c -2.234,2.114 -4.815,3.877 -7.284,5.756 -1.291,0.939 -2.703,1.997 -4.229,2.819 -0.588,0.471 -1.291,0.94 -1.995,1.292 -3.173,1.763 -6.463,3.405 -9.987,4.581 -5.755,2.114 -11.861,3.407 -17.854,4.464 -0.234,0.117 -0.471,0.117 -0.705,0.234 -3.876,0.704 -7.871,1.293 -11.864,1.762 -2.7,0.353 -5.403,0.587 -8.103,0.822 -19.735,1.762 -40.41,0.471 -58.381,-8.575 -4.109,-2.114 -8.455,-4.581 -11.157,-8.221 -1.058,-1.41 -1.881,-3.055 -1.998,-4.817 0,-0.939 0.117,-1.88 0.354,-2.819 0.117,-0.469 0.353,-1.056 0.587,-1.528 0,-0.117 0.117,-0.234 0.117,-0.352 4.229,0.824 8.34,0.707 12.332,-0.234 2.586,-0.587 5.051,-1.41 7.52,-2.466 5.401,-2.349 10.569,-5.637 15.154,-9.044 11.274,-8.106 21.141,-17.737 31.361,-27.133 5.989,-5.404 12.214,-10.337 19.263,-14.214 3.525,-1.997 7.167,-3.522 10.927,-4.698 1.877,-0.587 3.755,-1.058 5.754,-1.41 1.878,-0.353 3.759,-0.47 5.52,-0.822 0.117,0.235 0.117,0.469 0.234,0.822 1.174,3.877 2.469,7.988 4.581,11.513 0.117,0.235 0.234,0.352 0.352,0.352 0.47,0.939 1.53,1.76 2.469,1.995 0.353,0.12 0.704,0.12 1.057,0.12 1.056,-0.237 1.999,-0.941 2.703,-1.645 0.118,-0.118 0.235,-0.235 0.353,-0.353 1.173,-1.175 2.112,-2.586 3.051,-3.994 -0.117,0.352 -0.117,0.704 -0.234,1.056 -0.704,3.29 -1.058,6.578 -1.292,9.985 -0.234,2.114 -0.234,4.229 -0.116,6.343 0,0.821 0.116,1.643 0.116,2.467 0.354,3.759 1.057,7.517 2.234,11.042 2.698,8.222 7.632,15.035 13.743,20.555 -1.532,1.526 -3.058,2.937 -4.583,4.345 z m 14.095,44.754 v 0 c 1.29,-1.058 1.995,-3.172 2.465,-4.581 0.473,-1.41 0.825,-2.821 1.177,-4.229 0.352,1.525 0.234,3.17 -0.117,4.698 -0.234,1.056 -0.704,2.114 -1.06,3.053 -0.354,0.706 -0.822,1.293 -1.175,1.997 -0.352,-0.117 -0.821,-0.352 -0.938,-0.469 -0.235,-0.234 -0.352,-0.234 -0.352,-0.469 z m 3.876,1.408 v 0 c 0.353,-0.47 0.47,-1.056 0.704,-1.643 0.118,-0.117 0.118,-0.117 0.118,-0.234 0.352,-0.354 0.704,-0.472 0.938,-0.589 0.586,-0.234 0.821,1.058 0.938,1.41 0.118,0.352 0.118,0.705 0.118,1.174 -0.938,0 -1.877,0 -2.816,-0.118 z m 6.224,-0.351 v 0 c -0.117,0 -0.353,0.117 -0.588,0.117 -0.234,-1.88 -1.056,-3.76 -2.938,-4.464 -0.353,-0.117 -0.587,-0.117 -0.938,-0.117 0,-0.117 0.117,-0.352 0.117,-0.469 0.469,-2.466 0.234,-4.933 -0.821,-7.165 -0.117,-0.354 -0.469,-0.472 -0.822,-0.472 0.588,-3.405 0.939,-6.93 0.939,-10.335 0,-0.941 0,-1.879 0,-2.82 0,-0.939 -0.117,-1.995 -0.117,-2.936 -0.234,-1.997 -0.469,-4.111 -0.939,-6.108 -0.352,-1.76 -0.938,-3.64 -1.528,-5.402 -0.235,-0.587 -0.354,-1.056 -0.588,-1.645 2.821,1.762 5.876,3.407 8.928,4.933 0.117,0.354 0.234,0.706 0.352,1.058 0.355,0.822 0.709,1.646 0.943,2.466 0.587,1.763 0.938,3.643 1.29,5.522 0.118,0.821 0.118,1.643 0.235,2.466 0.117,0.822 0.117,1.525 0.234,2.349 0.117,2.232 0.117,4.581 0.117,6.813 -0.117,3.64 -0.469,7.165 -0.938,10.689 -0.234,1.76 -0.587,3.405 -0.938,5.167 -0.71,0 -1.296,0.235 -2,0.353 z m 6.462,11.392 v 0 c -0.587,-0.117 -1.295,-0.352 -1.881,-0.469 -0.471,-0.234 -0.588,-0.234 -1.292,-0.586 0,-0.117 -0.117,-0.117 -0.117,-0.117 v 0 c 0,0 0,-0.117 -0.117,-0.117 -0.117,-0.118 -0.234,-0.235 -0.234,-0.353 -0.117,0 -0.117,0 -0.117,0 0,-0.117 -0.234,-0.471 -0.234,-0.471 0,0 0,0 0,-0.117 1.407,-0.939 2.112,-3.054 2.581,-4.816 1.647,-1.291 3.407,-2.466 4.815,-1.056 0.825,0.822 0.825,2.466 0.708,3.64 0,1.645 -0.708,3.173 -1.06,4.7 -0.352,0 -0.822,0 -1.174,0 -0.821,-0.118 -1.056,-0.118 -1.878,-0.238 z m 9.045,0.12 v 0 c -1.057,0.117 -2,0.117 -3.056,0.235 0.704,-1.175 1.291,-2.351 2.352,-3.407 0.938,-0.704 2.347,-1.645 3.403,-1.41 0.234,0.119 0.469,0.354 0.59,0.588 0.235,0.822 0.113,1.761 0,2.584 -0.121,0.352 -0.238,0.821 -0.355,1.173 -0.234,0 -0.353,0.117 -0.587,0.117 -0.822,0 -1.527,0.12 -2.347,0.12 z m 23.607,-34.3 v 0 c -0.352,1.057 -0.586,1.998 -0.938,3.054 -0.352,1.292 -0.586,2.583 -0.821,3.994 v 0 c -0.117,0.823 -0.235,1.762 -0.47,2.583 -0.47,2.232 -0.942,4.463 -1.295,6.578 -0.586,3.055 -1.29,6.109 -2.347,9.045 -0.587,1.292 -1.057,2.584 -1.881,3.759 -0.354,0.587 -0.822,1.176 -1.174,1.88 -1.057,0.352 -1.996,0.939 -3.056,1.291 -1.291,0.471 -2.698,0.824 -4.111,1.176 -0.587,0.117 -1.056,0.234 -1.644,0.352 0.353,-1.645 0.469,-3.64 -0.587,-5.05 -0.938,-1.176 -2.351,-1.528 -3.877,-1.293 -1.29,0.234 -2.703,1.058 -3.876,2.114 0,0 0,0 0.117,0 0.117,-1.88 -0.352,-3.992 -1.644,-5.402 -1.173,-1.292 -3.172,-1.528 -4.814,-1.058 -0.118,0 -0.353,0.117 -0.587,0.117 0.469,-1.643 0.703,-3.288 0.938,-4.933 0.588,-3.995 0.939,-7.989 0.939,-11.863 0,-0.706 0,-1.41 0,-2.114 -0.117,-1.175 -0.117,-2.35 -0.234,-3.407 0,-0.352 -0.117,-0.822 -0.117,-1.173 -0.117,-0.824 -0.234,-1.528 -0.352,-2.349 -0.117,-1.176 -0.352,-2.467 -0.705,-3.642 -0.469,-1.88 -1.056,-3.642 -1.881,-5.404 -0.117,-0.235 -0.117,-0.47 -0.234,-0.587 3.172,1.41 6.579,2.821 9.865,4.111 5.172,2.115 10.34,3.995 15.859,5.403 2.938,0.706 5.988,1.41 9.044,1.879 0.116,0 0.116,0 0.116,0.12 -0.114,0.232 -0.114,0.585 -0.233,0.819 z m 45.457,-3.054 v 0 c -4.107,1.997 -8.927,2.114 -13.391,2.114 -4.58,-0.117 -9.278,-0.704 -13.859,-0.704 -2.582,-0.117 -5.051,-0.117 -7.515,-0.235 -0.239,0 -0.353,-0.117 -0.592,-0.117 -0.116,-0.118 -0.234,-0.353 -0.469,-0.47 -0.821,-0.471 -1.408,-0.824 -2.348,-1.058 -0.821,-0.118 -1.764,-0.235 -2.586,-0.469 -1.995,-0.235 -3.876,-0.587 -5.754,-1.056 -3.524,-0.707 -7.167,-1.645 -10.691,-2.704 -5.871,-1.76 -11.743,-4.111 -17.384,-6.578 -8.928,-3.758 -17.737,-8.104 -25.252,-14.212 0.117,-0.823 -0.587,-1.411 -1.412,-1.176 -0.938,-0.822 -1.761,-1.643 -2.699,-2.466 -6.58,-6.578 -10.926,-14.918 -12.687,-23.962 -0.938,-5.05 -1.291,-10.218 -0.704,-15.271 0.235,-2.466 0.587,-4.933 1.174,-7.282 -0.117,3.642 0.703,7.282 1.995,10.572 2.116,5.285 5.289,9.983 8.927,14.33 3.759,4.463 7.988,8.34 12.451,11.982 4.581,3.757 9.279,7.164 14.334,9.983 11.743,6.343 25.252,9.046 38.524,8.927 14.099,-0.235 28.193,-2.937 41.349,-7.752 3.168,-1.175 6.225,-2.466 9.396,-3.759 -0.117,1.175 -0.117,2.231 -0.234,3.407 -0.352,4.581 -1.057,9.045 -2.234,13.508 -0.586,2.231 -1.407,4.463 -2.229,6.695 -0.469,1.293 -0.938,2.583 -1.407,3.877 -1.295,1.646 -2.821,2.937 -4.703,3.876 z m 29.132,-4.23 v 0 c -2.229,1.88 -5.05,2.938 -7.87,3.525 -2.934,0.586 -6.106,0.586 -9.045,0.352 -1.408,-0.117 -2.934,-0.352 -4.346,-0.586 -0.117,0 -0.234,0 -0.352,0 0,-0.117 0.117,-0.235 0.234,-0.352 1.412,-1.88 3.289,-4.346 2.703,-6.813 -0.117,-0.117 -0.117,-0.354 -0.234,-0.354 0.117,-0.234 0.234,-0.469 0.234,-0.704 1.173,-3.288 1.995,-6.578 2.582,-9.983 0.707,-3.172 1.06,-6.343 1.294,-9.515 0,-0.822 0.117,-1.644 0.117,-2.584 0.235,-3.054 0.235,-6.226 0.354,-9.396 0.234,-14.801 -0.822,-29.602 -3.408,-44.048 -0.234,-0.821 -0.353,-1.645 -0.47,-2.466 -1.877,-9.046 -4.463,-18.091 -7.401,-26.901 0,0 0,-0.117 -0.117,-0.117 -1.644,-4.815 -3.407,-9.631 -5.402,-14.329 -1.291,-3.056 -2.586,-6.108 -4.229,-9.044 0,0 0,0 0,-0.118 -0.704,-1.879 -1.526,-3.759 -2.469,-5.639 -1.877,-3.759 -4.106,-7.282 -7.046,-10.455 -0.586,-0.587 -1.29,-1.291 -1.998,-1.878 0.943,-0.236 1.998,-0.471 2.938,-0.824 2.821,-0.821 5.755,-1.645 8.692,-2.114 2.586,-0.47 5.403,-0.705 8.106,-0.235 1.173,0.235 2.229,0.587 3.289,1.174 1.056,0.589 1.994,1.882 3.051,2.468 0.826,1.526 1.766,3.054 2.703,4.464 1.644,2.818 3.29,5.637 4.816,8.457 3.172,5.638 6.106,11.394 8.691,17.385 1.644,3.758 3.174,7.752 4.347,11.628 0.705,2.232 1.408,4.464 1.882,6.695 0.938,3.407 1.526,6.93 2.347,10.335 0.118,0.589 0.235,1.175 0.353,1.881 v 0 c -0.234,3.054 1.057,6.341 1.647,9.396 0.704,3.288 1.29,6.578 1.642,9.983 0.822,6.932 1.057,13.863 0.939,20.792 0,6.813 -0.469,13.743 -1.057,20.673 -0.234,2.349 -0.469,4.816 -0.703,7.165 -0.117,1.175 -0.353,2.233 -0.47,3.29 -0.352,3.525 -0.826,7.047 -1.53,10.572 -0.234,0.939 -0.469,1.997 -0.703,2.936 -0.235,0.705 -0.587,1.293 -0.938,1.879 -0.821,1.176 -1.999,2.349 -3.173,3.405 z m 21.849,-1.056 v 0 c -1.644,1.056 -3.877,1.646 -5.871,1.763 -2.234,0.235 -4.347,0.117 -6.464,-0.352 -1.056,-0.237 -2.112,-0.472 -3.051,-0.824 -0.117,0 -0.234,0 -0.355,-0.117 0.473,-0.939 0.825,-1.997 1.06,-3.053 0.117,-0.352 0.234,-0.589 0.234,-0.94 v -0.118 c 0.471,-1.878 0.821,-3.875 1.174,-5.872 0.587,-3.525 1.056,-7.167 1.408,-10.689 0.234,-1.528 0.355,-3.053 0.592,-4.699 0,-0.588 0.116,-1.175 0.116,-1.879 0.47,-4.581 0.822,-9.161 1.057,-13.742 0.704,-13.745 0.352,-27.722 -2.938,-41.113 0,-0.117 0,-0.352 -0.118,-0.47 0,-0.471 0.118,-1.058 0.118,-1.645 0,-0.822 -0.353,-1.879 -0.47,-2.701 -0.353,-1.645 -0.705,-3.408 -1.057,-5.052 0,-0.117 0,-0.235 0,-0.352 -0.821,-3.405 -1.412,-6.813 -2.234,-10.218 -0.117,-0.354 -0.234,-0.706 -0.352,-1.058 -1.524,-6.109 -3.642,-11.98 -6.105,-17.737 -2.586,-5.991 -5.52,-11.746 -8.811,-17.384 -1.529,-2.819 -3.289,-5.64 -5.05,-8.341 -1.412,-2.349 -3.056,-4.815 -4.815,-7.047 0.587,0 1.174,-0.117 1.76,-0.117 1.644,-0.235 3.29,-0.352 4.816,-0.469 3.172,-0.235 6.341,-0.117 9.396,0.469 2.938,0.587 5.758,1.762 8.223,3.407 1.291,0.821 2.351,1.878 3.406,2.936 0.588,0.587 1.292,1.056 1.878,1.645 2.469,3.17 4.698,6.576 6.698,10.218 2.938,5.521 5.401,11.276 7.519,17.268 2.347,6.813 4.345,13.743 5.988,20.792 1.761,7.282 2.816,14.564 3.76,21.966 0.47,2.936 0.704,5.989 1.173,8.927 -0.352,1.877 -0.352,3.876 -0.352,5.872 -0.117,3.172 -0.352,6.343 -0.469,9.515 -0.117,6.226 -0.353,12.333 -1.057,18.441 -0.353,2.467 -0.708,4.816 -1.061,7.165 -0.117,0.117 -0.234,0.234 -0.234,0.352 -0.117,0.237 -0.117,0.472 0,0.589 -0.117,0.939 -0.234,1.763 -0.469,2.702 -0.236,1.645 -0.587,3.29 -1.057,5.05 -0.939,4.463 -2.469,8.81 -4.347,12.921 -0.353,0.47 -0.704,0.941 -1.056,1.41 -0.818,0.936 -1.526,1.877 -2.583,2.581 z m 7.636,1.056 v 0 c -1.173,-0.469 -2.233,-1.056 -3.524,-1.525 0.117,0 0.234,-0.117 0.234,-0.234 0.587,-0.941 1.291,-1.998 1.525,-3.173 0.238,-0.235 0.353,-0.469 0.592,-0.822 0.704,-1.058 1.29,-2.231 1.76,-3.407 1.057,-2.349 1.878,-4.816 2.469,-7.282 0.586,-2.232 1.057,-4.464 1.408,-6.695 0.117,-0.704 0.234,-1.41 0.352,-2.114 0.47,-2.349 0.821,-4.816 1.056,-7.282 0.939,-6.226 1.175,-12.452 1.296,-18.795 0.113,-3.17 0.113,-6.343 0.113,-9.631 0.121,-2.938 0.355,-6.108 -0.352,-9.044 -0.118,-1.879 -0.353,-3.759 -0.47,-5.521 -0.117,-0.705 -0.117,-1.408 -0.234,-1.998 -0.235,-3.17 -0.588,-6.226 -1.057,-9.396 -0.704,-5.169 -1.643,-10.455 -2.703,-15.623 -0.47,-1.879 -0.938,-3.759 -1.408,-5.756 -1.761,-6.813 -3.877,-13.625 -6.814,-20.203 -2.465,-5.402 -5.051,-10.924 -8.454,-15.856 -1.295,-1.763 -2.703,-3.642 -4.229,-5.17 -0.234,-0.352 -0.353,-0.587 -0.592,-0.821 -0.586,-0.705 -1.29,-1.411 -1.877,-1.998 0.821,-0.117 1.643,-0.352 2.352,-0.469 1.878,-0.235 3.759,-0.235 5.754,-0.117 3.76,0.117 7.52,1.173 10.805,2.818 3.643,1.645 6.58,4.111 9.279,6.93 1.53,1.528 2.703,3.408 3.877,5.169 0.708,1.174 1.295,2.467 1.999,3.641 2.229,5.991 4.463,11.865 6.106,18.091 1.881,6.93 2.938,14.094 4.11,21.259 1.175,7.636 2.353,15.388 3.057,23.024 0.821,7.751 1.173,15.387 1.173,23.139 0,4.229 -0.117,8.34 -0.352,12.569 -0.117,1.997 -0.235,3.994 -0.47,5.991 0,0.939 -0.117,1.879 -0.117,2.701 0,0.117 0,0.117 0,0.234 -0.117,0.587 -0.234,1.174 -0.352,1.763 -0.118,0.822 -0.236,1.645 -0.471,2.466 -0.234,1.291 -0.469,2.584 -0.704,3.877 -0.825,4.111 -1.999,8.223 -3.876,11.98 -1.647,3.29 -3.994,6.225 -7.401,7.871 -4.347,1.995 -9.396,1.054 -13.86,-0.591 z m 7.167,28.309 v 0 c -0.474,0 -0.942,-0.117 -1.412,-0.235 -0.235,-0.117 -0.353,-0.234 -0.587,-0.234 v 0 h -0.118 v 0 c 0,-0.117 -0.117,-0.117 -0.234,-0.117 -0.117,-0.118 -0.352,-0.235 -0.469,-0.353 v 0 l -0.117,-0.117 v 0 c -0.117,-0.118 -0.117,-0.118 -0.117,-0.118 0,0 -0.117,-0.47 -0.117,-0.352 v 0 c 0.117,-0.118 0.117,-0.235 0.117,-0.354 0.586,-1.291 1.173,-2.701 1.643,-3.992 1.525,-1.175 3.173,-1.997 4.346,-0.823 0.704,0.823 0.588,2.231 0.469,3.29 0,0.821 -0.234,1.645 -0.469,2.349 -0.117,0.47 -0.234,0.821 -0.352,1.293 -0.47,0 -0.821,-0.118 -1.175,-0.118 -0.47,0 -1.174,-0.119 -1.408,-0.119 z m 5.636,0.237 v 0 c 0,-0.237 0.117,-0.354 0.117,-0.472 0.117,-0.469 0.117,-0.821 0.235,-1.291 0.235,-0.118 0.47,-0.354 0.587,-0.472 0.234,-0.234 0.469,-0.352 0.704,-0.586 0.352,0.823 0.352,1.645 0.469,2.584 -0.703,0.119 -1.407,0.119 -2.112,0.237 z m 5.872,-0.823 v 0 c 0,0 0,0 -0.117,0 l -0.118,0.117 c -0.116,0 -0.352,0 -0.587,0 -0.117,0 -0.234,0.117 -0.352,0.117 0,-0.47 -0.117,-0.939 -0.117,-1.292 -0.234,-1.292 -0.938,-2.349 -1.999,-3.29 -0.353,-0.352 -0.938,-0.352 -1.408,0 -0.234,0.235 -0.47,0.469 -0.705,0.706 -0.234,-1.527 -0.703,-2.938 -1.998,-3.994 -1.643,-1.175 -3.286,-0.823 -4.815,0 0.47,-1.527 0.942,-3.055 1.295,-4.581 0.352,-1.645 0.586,-3.407 0.704,-5.052 0,-0.353 0,-0.704 0,-1.056 0,-0.235 0,-0.472 0,-0.707 0,-1.056 0,-2.112 -0.234,-3.17 1.056,0 2.111,-0.118 3.051,-0.235 3.29,-0.587 6.11,-2.232 8.457,-4.464 1.296,0.704 2.703,1.293 4.112,1.762 0.234,1.878 0.586,3.757 0.704,5.755 0.117,1.292 0.117,2.468 0.117,3.759 0,0.939 -0.117,1.879 -0.235,2.818 0,0.237 0,0.472 0,0.707 -0.234,2.349 -0.938,4.698 -1.643,7.047 -0.235,0.704 -0.47,1.292 -0.821,1.997 -0.704,0.939 -1.291,1.997 -1.765,3.171 -0.117,-0.117 -0.234,-0.117 -0.234,-0.117 -0.118,0 -0.118,0 -0.118,0 -0.234,0 -0.469,0 -0.703,0 v 0 0 c -0.118,0.002 -0.353,0.002 -0.471,0.002 z m 3.759,8.574 v 0 c -0.703,-1.292 -0.82,-2.818 -0.469,-4.229 0.234,-0.234 0.469,-0.587 0.704,-0.822 0.352,-0.471 0.703,-0.823 1.057,-1.293 0.469,-0.586 1.06,-1.056 1.646,-1.408 0.821,-0.472 1.643,-0.118 2.112,0.586 0.821,1.174 0.939,2.819 0.821,4.229 -0.116,1.056 -0.353,2.232 -0.704,3.288 -0.234,0.823 -0.587,1.762 -0.821,2.584 -1.76,-0.351 -3.407,-1.172 -4.346,-2.935 z m 8.34,3.054 v 0 c -0.234,0 -0.586,0.117 -0.938,0.117 0.117,-0.234 0.234,-0.587 0.234,-0.822 0.822,-1.056 1.76,-2.114 2.934,-2.231 0.587,0 0.943,0.352 1.295,1.058 0.235,0.353 0.353,0.822 0.353,1.291 -1.295,0.234 -2.586,0.469 -3.878,0.587 z m 30.071,-33.828 v 0 c -0.234,1.058 -0.587,2.114 -0.821,3.053 -0.355,1.527 -0.708,2.938 -1.06,4.346 -0.117,0.472 -0.117,0.941 -0.234,1.411 -0.704,2.818 -1.526,5.639 -2.348,8.458 -0.47,1.41 -1.06,2.818 -1.53,4.229 -0.234,0.587 -0.586,1.291 -0.82,1.997 -0.117,0.235 -0.235,0.587 -0.353,0.938 -0.822,0.47 -1.525,1.059 -2.112,1.528 -1.295,0.939 -2.586,1.763 -3.877,2.466 -1.882,0.939 -3.524,1.646 -5.285,2.349 -1.646,0.705 -3.172,1.293 -4.819,1.763 -0.118,-0.822 -0.47,-1.528 -0.704,-2.114 -0.704,-1.411 -1.995,-2.232 -3.524,-2.349 -0.705,0 -1.526,0.117 -2.229,0.469 0,-0.469 0,-0.821 0,-1.29 0.117,-2.117 -0.47,-4.229 -1.882,-5.757 -1.056,-1.058 -2.465,-1.527 -3.873,-1.175 0.234,-0.469 0.469,-1.057 0.587,-1.408 1.056,-2.586 1.643,-5.287 1.877,-7.989 0.117,-0.938 0.117,-1.762 0.117,-2.583 0,-0.589 0,-1.175 0,-1.762 0,-0.235 0,-0.587 -0.117,-0.939 0,-0.589 -0.117,-1.293 -0.234,-1.998 0,-0.236 0,-0.471 0,-0.823 -0.352,-1.644 -0.587,-3.406 -1.173,-4.933 0.234,0 0.586,0.117 0.821,0.234 2.938,0.822 5.988,1.293 9.162,1.646 5.992,0.821 12.099,0.352 17.971,-1.058 2.586,-0.587 5.168,-1.408 7.636,-2.467 -0.471,1.291 -0.823,2.465 -1.176,3.758 z m 11.626,-14.215 v 0 c -2.347,1.88 -4.815,3.642 -7.396,5.052 -0.353,0 -0.825,0.117 -1.061,0.352 -0.117,0.118 -0.234,0.235 -0.352,0.353 -2.347,1.293 -4.815,2.232 -7.397,3.054 -5.759,1.762 -11.63,2.233 -17.736,2.116 -3.056,0 -6.111,-0.472 -9.045,-1.059 -1.647,-0.234 -3.172,-0.586 -4.698,-1.058 -1.177,-0.353 -2.469,-0.587 -3.643,-0.939 v 0 c 5.286,-6.813 6.576,-15.974 7.281,-24.314 0,-0.117 0,-0.234 0,-0.352 0,-0.117 0.117,-0.235 0.117,-0.352 0.117,-0.235 0.234,-0.589 0.234,-0.823 0.591,0.469 1.061,0.94 1.646,1.293 0.705,0.587 1.526,1.175 2.348,1.645 0.117,0.117 0.234,0.235 0.353,0.352 2.232,1.409 4.58,2.583 7.049,3.525 4.933,1.878 10.101,2.819 15.386,3.053 10.456,0.235 21.144,-2.936 29.601,-9.044 2.234,-1.645 4.229,-3.29 6.111,-5.287 v 0 c -0.118,0.353 -0.234,0.587 -0.353,0.824 -0.59,0.234 -0.943,0.822 -0.825,1.408 -0.821,1.646 -1.878,3.172 -2.934,4.7 -0.235,0.118 -0.353,0.235 -0.587,0.352 -2.586,2.115 -4.464,5.167 -6.697,7.751 0,0.117 0,0.117 -0.117,0.117 -2.234,2.701 -4.699,5.051 -7.285,7.281 z m 12.57,-3.992 v 0 c -0.704,-0.588 -1.29,-1.293 -1.995,-1.997 0.822,-1.059 1.761,-2.115 2.583,-3.173 0,-0.117 0.116,-0.117 0.116,-0.235 0.118,0 0.118,-0.117 0.235,-0.235 1.881,-1.879 3.642,-3.876 5.171,-6.108 0.353,-0.47 0.705,-1.057 1.057,-1.644 0.469,-0.706 0.822,-1.41 1.291,-2.114 1.999,-3.524 3.524,-7.167 4.934,-11.041 0.352,-0.941 0.586,-1.88 0.942,-2.821 0.113,-0.352 0.234,-0.587 0.352,-0.821 1.056,-1.879 1.995,-3.994 2.465,-6.109 0.352,0.705 0.821,1.41 1.174,2.115 1.646,2.701 3.407,5.287 5.288,7.753 0.822,1.056 1.761,2.232 2.583,3.288 -0.704,0.941 -1.175,2.114 -1.644,3.29 -0.587,1.525 -1.29,3.054 -2.117,4.464 -1.525,3.053 -3.285,6.106 -5.167,8.927 -0.117,0.117 -0.117,0.235 -0.234,0.235 -0.47,0.821 -1.057,1.526 -1.526,2.349 -1.412,1.997 -2.938,3.876 -4.58,5.756 -0.939,1.292 -2.116,2.467 -3.291,3.641 -0.234,0.235 -0.469,0.471 -0.82,0.706 -2.353,-1.998 -4.583,-3.994 -6.817,-6.226 z m 8.81,7.751 v 0 c 0.234,-0.235 0.352,-0.352 0.586,-0.586 1.178,-1.174 2.234,-2.349 3.29,-3.525 1.647,-1.878 3.174,-3.875 4.581,-5.872 0.469,-0.706 1.057,-1.527 1.526,-2.231 0.121,-0.118 0.238,-0.237 0.355,-0.472 1.995,-2.936 3.755,-5.989 5.402,-9.279 1.056,-2.232 2.582,-4.815 2.82,-7.517 2.816,3.405 5.871,6.578 9.041,9.631 2.351,2.114 4.701,4.346 7.166,6.343 -0.47,1.175 -1.057,2.114 -1.408,3.29 -0.469,1.173 -0.821,2.349 -1.173,3.522 -0.944,2.584 -1.999,5.052 -3.174,7.399 -0.234,0.354 -0.352,0.706 -0.586,1.059 -0.353,0.823 -0.825,1.645 -1.295,2.466 -1.878,3.172 -3.99,6.108 -6.693,8.575 -7.165,-3.64 -14.093,-7.752 -20.438,-12.803 z m 29.014,5.405 v 0 c 0.471,-0.824 0.939,-1.646 1.409,-2.467 0.117,-0.352 0.352,-0.706 0.469,-1.058 1.296,-2.466 2.234,-5.05 3.173,-7.634 0.469,-1.175 0.939,-2.351 1.291,-3.642 0.234,-1.057 0.352,-2.115 0.47,-3.173 6.463,5.288 13.391,10.103 20.439,14.449 -0.353,1.293 -0.587,2.818 -0.938,4.229 -0.704,2.115 -1.526,4.347 -2.469,6.46 -0.234,0.47 -0.352,0.939 -0.587,1.291 -0.47,0.941 -0.821,1.763 -1.291,2.703 -0.352,0.704 -0.704,1.409 -1.173,2.114 -0.475,1.057 -1.062,1.998 -1.647,3.054 -0.234,0.469 -0.587,0.941 -0.938,1.41 -8.341,-2.466 -16.563,-5.521 -24.552,-9.281 2.585,-2.464 4.58,-5.402 6.344,-8.455 z m 20.554,18.441 v 0 c 0.122,-0.235 0.239,-0.469 0.356,-0.704 0.587,-1.058 1.29,-2.114 1.877,-3.29 0.47,-0.822 0.822,-1.645 1.291,-2.467 0.353,-0.821 0.822,-1.762 1.178,-2.701 0.234,-0.469 0.47,-0.941 0.704,-1.41 0.938,-2.115 1.76,-4.347 2.348,-6.696 0.352,-1.056 0.704,-2.349 0.938,-3.522 6.346,3.757 12.925,7.165 19.735,10.218 -0.234,1.058 -0.117,2.231 -0.234,3.172 -0.117,1.88 -0.469,3.642 -0.822,5.402 0,0.117 0,0.352 -0.116,0.469 -0.118,1.059 -0.353,1.998 -0.704,3.056 -0.118,0.469 -0.239,1.056 -0.474,1.525 -0.235,0.941 -0.704,1.879 -1.056,2.82 -4.464,-0.821 -8.811,-1.762 -13.157,-2.82 -3.993,-0.938 -7.87,-1.877 -11.864,-3.052 z m 27.607,6.343 v 0 c 0.352,-0.821 0.469,-1.528 0.703,-2.231 0.234,-0.587 0.47,-1.293 0.587,-1.88 0.352,-1.056 0.587,-2.114 0.704,-3.053 0.118,-0.235 0.118,-0.352 0.118,-0.471 0.352,-1.761 0.586,-3.523 0.703,-5.286 0.122,-0.939 0.235,-1.997 0.122,-3.053 4.698,1.997 9.396,3.757 14.212,5.402 3.407,1.176 6.81,2.115 10.335,3.056 0,0.704 0.234,1.525 0.353,2.231 0.234,1.173 0.352,2.466 0.352,3.757 v 0.117 c 0,1.059 -0.117,1.998 -0.234,3.056 0,0.234 -0.117,0.586 -0.117,0.822 0,0.117 -0.118,0.234 -0.118,0.352 -0.117,0 -0.117,0 -0.234,0 -9.281,-0.352 -18.326,-1.291 -27.486,-2.819 z m 29.953,2.936 v 0 c 0,-0.118 0,-0.235 0.117,-0.235 0,-0.234 0,-0.47 0.117,-0.704 0.117,-1.059 0.117,-2.114 0.117,-3.171 0,-0.117 0,-0.117 0,-0.237 -0.117,-1.291 -0.234,-2.701 -0.47,-3.992 -0.116,-0.589 -0.234,-1.059 -0.351,-1.528 8.101,1.998 16.323,3.523 24.546,4.581 0,0.586 0.118,1.175 0.234,1.879 0,0.705 0,1.291 0,1.998 0,0.234 0,0.469 0,0.704 0,0.353 -0.116,0.705 -0.234,1.059 -1.173,0 -2.347,0 -3.524,0 -3.993,-0.118 -7.983,-0.118 -11.979,-0.118 -2.819,-0.119 -5.639,-0.119 -8.573,-0.236 z"
   id="path3940"
   inkscape:connector-curvature="0"
   style="fill:#351b10" />
	<path
   d="m 881.149,181.218 c -0.352,-0.821 -0.704,-1.526 -1.174,-2.115 -1.408,-1.762 -3.407,-2.936 -5.754,-3.522 -2.352,-0.47 -4.581,-0.235 -6.815,0.821 -0.821,0.352 -1.642,0.939 -2.464,1.646 -2.116,1.41 -3.29,3.994 -3.173,6.93 0.117,1.173 0.354,2.349 0.822,3.407 0.234,0.704 0.704,1.408 1.056,2.113 1.295,1.645 2.938,3.055 4.933,3.876 3.643,1.528 8.223,0.235 10.691,-2.819 2.348,-2.818 3.169,-6.695 1.878,-10.22 z m -7.635,-3.288 v 0 c 0.355,-0.118 0.708,-0.235 1.178,-0.235 0.352,0 0.821,0.117 1.173,0.235 0.704,0.469 1.058,1.173 1.058,1.997 0,0.234 0,0.47 0,0.587 v 0 c -0.236,0.586 -0.588,1.173 -1.058,1.408 -0.352,0.237 -0.821,0.354 -1.173,0.354 -0.353,0 -0.587,-0.117 -0.822,-0.234 -0.121,0 -0.234,0 -0.355,-0.12 -0.47,-0.235 -0.704,-0.47 -0.938,-0.822 -0.471,-0.704 -0.471,-1.643 0,-2.231 0,-0.118 0.117,-0.118 0.117,-0.235 0.233,-0.235 0.467,-0.469 0.82,-0.704 z"
   id="path3942"
   inkscape:connector-curvature="0"
   style="fill:#351b10" />
</g>
</svg>