<?xml version="1.0" encoding="UTF-8" standalone="no"?>
<!-- Generator: Adobe Illustrator 16.0.0, SVG Export Plug-In . SVG Version: 6.00 Build 0)  -->

<svg
   xmlns:ns="&amp;ns_sfw;"
   xmlns:dc="http://purl.org/dc/elements/1.1/"
   xmlns:cc="http://creativecommons.org/ns#"
   xmlns:rdf="http://www.w3.org/1999/02/22-rdf-syntax-ns#"
   xmlns:svg="http://www.w3.org/2000/svg"
   xmlns="http://www.w3.org/2000/svg"
   xmlns:sodipodi="http://sodipodi.sourceforge.net/DTD/sodipodi-0.dtd"
   xmlns:inkscape="http://www.inkscape.org/namespaces/inkscape"
   version="1.0"
   id="Layer_1"
   x="0px"
   y="0px"
   width="300"
   height="400"
   viewBox="0 0 300 400"
   enable-background="new 0 0 1400 980"
   xml:space="preserve"
   sodipodi:docname="Armadillo2.svg"
   inkscape:version="0.92.3 (2405546, 2018-03-11)"><defs
   id="defs4099" /><sodipodi:namedview
   pagecolor="#ffffff"
   bordercolor="#666666"
   borderopacity="1"
   objecttolerance="10"
   gridtolerance="10"
   guidetolerance="10"
   inkscape:pageopacity="0"
   inkscape:pageshadow="2"
   inkscape:window-width="2560"
   inkscape:window-height="1395"
   id="namedview4097"
   showgrid="false"
   inkscape:zoom="0.96326531"
   inkscape:cx="597.71001"
   inkscape:cy="555.48178"
   inkscape:window-x="-13"
   inkscape:window-y="-13"
   inkscape:window-maximized="1"
   inkscape:current-layer="Layer_1" />
<metadata
   id="metadata4026">
	<ns:sfw>
		<ns:slices />
		<ns:sliceSourceBounds
   height="883.218"
   width="1265.103"
   y="-931.609"
   x="67.449"
   bottomLeftOrigin="true" />
	</ns:sfw>
<rdf:RDF><cc:Work
     rdf:about=""><dc:format>image/svg+xml</dc:format><dc:type
       rdf:resource="http://purl.org/dc/dcmitype/StillImage" /><dc:title></dc:title></cc:Work></rdf:RDF></metadata>
<g
   id="g4094"
   transform="translate(-668.55933,-291.3983)">
	<path
   d="m 944.079,658.009 c -0.234,0.234 -0.47,0.351 -0.822,0.351 -1.764,0 -3.407,-0.234 -5.049,0.47 1.642,3.642 2.346,7.754 1.524,11.983 -0.938,4.933 -3.406,9.982 -6.696,14.093 0.116,0 0.116,0 0.234,0 1.998,-2.229 4.11,-4.227 6.11,-6.575 2.938,-3.642 5.167,-8.224 5.402,-13.038 0.118,-2.47 -0.116,-4.934 -0.703,-7.284 z"
   id="path4028"
   inkscape:connector-curvature="0"
   style="fill:#f5be4e" />
	<path
   d="m 937.029,656.6 c 2.117,-1.055 4.464,-1.412 6.58,-0.47 -0.704,-2.351 -1.646,-4.58 -2.821,-6.813 -3.289,-6.459 -7.752,-12.219 -13.155,-17.033 -0.821,0.469 -1.644,0.938 -2.347,1.646 -1.061,0.938 -1.882,2.113 -2.586,3.402 -0.587,1.062 -0.938,2.234 -1.173,3.409 4.815,3.523 9.279,7.401 12.921,12.098 0.939,1.176 1.878,2.349 2.581,3.761 z"
   id="path4030"
   inkscape:connector-curvature="0"
   style="fill:#f5be4e" />
	<path
   d="m 925.989,630.876 c -1.998,-1.645 -3.993,-3.175 -6.109,-4.582 -8.81,-5.872 -18.558,-9.982 -28.424,-13.86 -1.174,0.822 -2.234,1.76 -3.174,2.817 -1.29,1.53 -2.346,3.172 -3.055,4.937 -0.352,1.057 -0.704,2.23 -0.821,3.287 8.223,2.703 16.445,5.757 24.316,9.631 3.76,1.997 7.52,4.11 11.157,6.461 0.238,-1.289 0.825,-2.469 1.295,-3.523 1.056,-1.88 2.817,-3.995 4.815,-5.168 z"
   id="path4032"
   inkscape:connector-curvature="0"
   style="fill:#f5be4e" />
	<path
   d="m 888.987,611.495 c -8.928,-3.525 -17.972,-6.814 -26.43,-11.043 -2.581,-1.292 -5.167,-2.585 -7.632,-4.111 -0.708,0.235 -1.412,0.351 -2.116,0.586 -1.407,0.469 -2.699,1.177 -3.993,1.999 -2.348,1.526 -4.229,3.76 -5.639,6.341 -0.703,1.409 -1.29,2.939 -1.76,4.464 1.408,0.587 2.817,1.175 4.225,1.648 10.104,3.753 20.676,6.456 31.015,9.631 1.878,0.586 3.755,1.173 5.637,1.759 0.234,-1.173 0.587,-2.347 1.056,-3.407 1.173,-2.816 3.056,-5.872 5.637,-7.867 z"
   id="path4034"
   inkscape:connector-curvature="0"
   style="fill:#f5be4e" />
	<path
   d="m 847.877,597.279 c 1.408,-0.938 2.82,-1.643 4.346,-2.113 0.117,-0.116 0.235,-0.116 0.353,-0.116 -5.52,-3.407 -10.688,-7.167 -15.269,-11.747 -0.942,-1.057 -1.999,-2.113 -2.938,-3.291 -0.588,0 -1.291,-0.234 -1.999,-0.234 -1.056,-0.118 -2.23,-0.118 -3.403,0 -1.882,0.116 -3.643,0.588 -5.402,1.178 -3.643,1.173 -7.166,3.168 -9.988,5.755 -1.056,0.819 -1.877,1.761 -2.816,2.703 1.526,1.407 2.936,2.699 4.582,3.99 7.279,6.227 15.62,11.628 24.43,15.623 0.469,-1.761 1.057,-3.407 1.999,-4.933 1.406,-2.703 3.519,-5.168 6.105,-6.815 z"
   id="path4036"
   inkscape:connector-curvature="0"
   style="fill:#f5be4e" />
	<path
   d="m 823.208,578.604 c 1.999,-0.706 3.994,-1.057 5.993,-1.175 1.057,-0.116 2.113,-0.116 3.169,0 -1.408,-1.998 -2.699,-4.111 -3.638,-6.227 -0.943,-2.113 -1.647,-4.348 -1.999,-6.693 -3.642,-2.822 -8.34,-4.113 -12.804,-4.698 -5.051,-0.704 -10.101,-0.588 -14.682,1.761 -2.352,1.055 -4.347,2.584 -6.107,4.229 2.699,5.168 5.637,10.101 9.397,14.564 1.995,2.585 4.229,5.053 6.576,7.399 0.938,-1.055 1.998,-1.993 3.055,-2.938 3.291,-2.698 6.929,-4.932 11.04,-6.222 z"
   id="path4038"
   inkscape:connector-curvature="0"
   style="fill:#f5be4e" />
	<path
   d="m 756.372,583.537 c -2.815,-0.118 -5.401,-1.175 -7.636,-2.698 -1.173,-0.711 -2.229,-1.53 -3.285,-2.234 0.586,1.643 0.82,3.407 1.174,5.049 0.352,2.118 0.821,4.348 1.524,6.345 0.705,1.526 1.647,2.936 3.174,3.64 4.463,1.881 7.871,-2.583 11.747,-4.225 0.117,-0.239 0.352,-0.357 0.587,-0.592 1.174,-1.292 2.23,-2.815 3.052,-4.58 0.473,-0.938 0.942,-2.113 1.294,-3.168 -1.056,0.469 -2.233,0.938 -3.29,1.289 -2.703,0.822 -5.519,1.408 -8.341,1.174 z"
   id="path4040"
   inkscape:connector-curvature="0"
   style="fill:#f5be4e" />
	<path
   d="m 844.938,464.431 c -0.117,-5.991 -0.938,-11.863 -2.464,-17.619 -1.178,-4.698 -2.82,-9.279 -4.581,-13.743 -1.412,-1.88 -2.938,-3.759 -4.581,-5.522 -4.111,-4.581 -8.927,-8.574 -14.216,-11.745 -2.934,-1.762 -5.871,-3.29 -9.162,-4.464 -3.285,-1.175 -6.693,-1.879 -10.1,-2.818 -0.235,-0.119 -0.47,-0.237 -0.704,-0.471 -1.765,-0.235 -3.408,-0.587 -5.286,-0.704 -4.346,-0.352 -8.927,-0.235 -13.39,0.117 -3.994,0.352 -7.988,0.821 -11.864,1.41 -2.703,0.47 -5.403,0.939 -8.106,1.526 -1.29,0.354 -2.703,0.823 -4.112,1.176 h -0.116 c -1.408,1.056 -3.29,1.41 -4.933,1.879 -1.526,0.47 -3.056,0.939 -4.581,1.527 -2.938,1.291 -5.872,2.936 -8.458,4.816 -5.051,3.522 -9.63,7.634 -13.742,12.332 -4.112,4.701 -7.871,9.868 -11.044,15.505 -1.525,2.703 -2.934,5.522 -4.346,8.34 -0.588,1.41 -1.174,2.701 -1.878,4.111 -0.117,0.353 -0.352,0.822 -0.586,1.176 -0.119,1.88 -0.588,3.875 -1.057,5.754 -0.474,1.997 -1.061,3.994 -1.529,6.108 -0.353,1.997 -0.822,4.111 -1.057,6.226 0.352,-0.117 0.82,0 0.82,0.586 0.119,0.941 0.471,1.88 0.471,2.819 0,0.94 0.117,1.764 0.234,2.703 0.117,1.878 0.234,3.76 0.47,5.638 0.591,3.758 1.294,7.401 2.233,11.159 1.878,7.397 4.815,14.683 8.692,21.376 5.051,8.575 11.982,16.327 20.792,21.26 5.051,2.821 10.452,4.464 16.207,5.052 3.406,0.238 6.932,0.354 10.339,0.238 1.408,-1.177 2.817,-2.233 4.229,-3.29 9.631,-7.283 21.73,-12.217 33.943,-11.865 0.356,-0.116 0.591,-0.352 0.825,-0.47 5.168,-3.288 9.983,-6.932 14.564,-10.925 8.105,-7.516 15.386,-15.974 20.439,-25.84 5.172,-10.337 7.871,-21.73 7.635,-33.358 z"
   id="path4042"
   inkscape:connector-curvature="0"
   style="fill:#d49a26" />
	<path
   d="m 712.208,444.11 c 3.172,-5.522 6.931,-10.689 11.16,-15.388 4.229,-4.698 8.927,-8.927 14.095,-12.452 2.82,-1.879 5.754,-3.405 8.809,-4.581 1.761,-0.704 3.644,-1.528 5.639,-1.88 1.29,-1.056 2.586,-1.41 4.228,-1.762 1.409,-0.353 2.938,-0.704 4.464,-1.056 2.586,-0.587 5.168,-1.059 7.753,-1.646 4.229,-0.821 8.576,-1.41 12.805,-1.762 4.58,-0.352 9.161,-0.586 13.742,0 2.229,0.353 5.051,0.824 7.401,1.88 4.581,0.587 9.162,2.349 13.273,4.346 4.464,2.115 8.575,4.815 12.448,7.871 2.233,1.88 4.346,3.758 6.345,5.872 -1.765,-2.701 -3.877,-5.168 -6.11,-7.399 -4.459,-4.816 -9.631,-9.044 -15.386,-12.1 -5.754,-3.17 -11.981,-5.402 -18.323,-6.813 -3.524,-0.822 -7.05,-1.525 -10.574,-1.878 -3.051,-0.354 -6.106,-0.354 -9.162,-0.823 -0.703,0.117 -1.29,0.234 -1.995,0.234 -2.938,0.235 -5.988,0.469 -8.926,0.824 -5.99,0.469 -11.982,1.408 -17.737,2.936 -5.872,1.645 -11.513,3.994 -16.563,7.399 -2.703,1.645 -4.933,3.525 -7.166,5.757 -1.174,1.175 -2.23,2.349 -3.403,3.524 -1.061,1.056 -2.116,1.995 -3.291,2.936 -0.117,0.117 -0.117,0.117 -0.234,0.234 -1.525,1.88 -2.82,3.76 -4.11,5.874 -2.703,4.463 -4.934,9.162 -6.815,13.978 -0.352,3.29 -0.821,6.578 -1.525,9.868 -0.821,3.64 -1.525,7.165 -2.113,10.806 -0.473,3.523 -0.708,7.165 -0.473,10.688 0.117,1.528 0.238,2.938 0.473,4.347 0.235,-0.939 0.47,-1.995 0.704,-2.936 0.939,-3.406 1.644,-7.282 3.521,-10.337 1.526,-5.871 3.99,-11.275 7.046,-16.561 z"
   id="path4044"
   inkscape:connector-curvature="0"
   style="fill:#d49a26" />
	<path
   d="m 711.152,417.916 c 2.58,-3.524 5.519,-6.812 9.277,-9.161 2.113,-2.349 4.581,-4.229 7.285,-5.991 5.167,-3.524 11.039,-5.991 17.149,-7.636 5.988,-1.643 12.33,-2.466 18.558,-3.053 3.174,-0.234 6.342,-0.234 9.396,-0.234 0.353,0 0.587,0 0.939,0 0.587,0 1.173,-0.117 1.764,-0.117 0.939,0.117 1.878,0.117 2.816,0.117 7.284,0.234 14.33,1.056 21.379,3.053 6.224,1.763 12.452,4.347 17.972,7.871 1.765,1.174 3.524,2.349 5.284,3.76 -2.698,-5.405 -7.279,-9.868 -12.334,-13.156 -8.219,-5.287 -17.732,-8.223 -27.367,-9.985 -4.346,-0.822 -8.81,-1.293 -13.391,-1.528 -3.759,-0.117 -7.519,-0.117 -11.274,0.117 -1.998,0.118 -3.993,0.354 -5.993,0.589 -1.878,0.117 -3.638,0.234 -5.52,-0.117 -0.117,0 -0.352,-0.117 -0.469,-0.237 -1.409,0.237 -2.821,0.588 -4.347,1.058 -4.464,1.411 -8.927,3.408 -13.038,5.874 -5.285,3.053 -10.336,6.93 -14.916,11.041 -4.347,3.995 -8.458,8.221 -11.982,12.804 -4.112,5.52 -7.519,11.628 -9.983,18.089 -0.117,0.939 -0.238,1.997 -0.238,2.936 -0.113,1.762 -0.235,3.524 -0.235,5.287 0,3.64 0.235,7.282 0.591,10.806 0.47,3.64 1.056,7.165 1.761,10.688 0.117,0.354 0.117,0.589 0.234,0.824 1.409,-9.75 4.112,-19.147 8.105,-28.191 2.349,-5.407 5.052,-10.693 8.577,-15.508 z"
   id="path4046"
   inkscape:connector-curvature="0"
   style="fill:#d49a26" />
	<path
   d="m 721.839,389.842 c 5.167,-3.525 10.691,-6.578 16.563,-8.575 2.821,-0.939 5.755,-1.525 8.692,-1.879 1.526,-0.117 3.056,-0.235 4.581,-0.235 0.353,0 0.704,0 1.056,0 1.53,-0.117 3.056,-0.235 4.464,-0.352 3.524,-0.235 6.933,-0.469 10.34,-0.469 4.346,0 8.692,0.352 13.038,0.939 6.106,0.94 12.334,2.232 18.205,4.463 -2.232,-1.762 -4.697,-3.288 -7.165,-4.698 -4.581,-2.584 -9.397,-4.463 -14.447,-5.756 -5.285,-1.525 -10.691,-2.347 -16.095,-2.584 -2.698,-0.117 -5.401,0 -7.987,0.117 -2.112,0.237 -4.229,0.354 -6.224,0.589 -1.408,0.353 -2.82,0.587 -4.229,0.939 -12.335,3.055 -23.843,9.279 -33.479,17.502 -8.22,7.165 -15.502,15.74 -20.319,25.49 -0.821,1.643 -1.529,3.288 -2.115,4.933 -0.117,0.352 -0.234,0.587 -0.354,0.821 -1.173,4.464 -1.759,8.927 -1.876,13.625 0,2.82 0.117,5.756 0.469,8.575 0.117,0.354 0.117,0.589 0.117,0.824 1.995,-10.103 5.754,-19.851 11.279,-28.426 6.693,-10.103 15.62,-19.03 25.486,-25.843 z"
   id="path4048"
   inkscape:connector-curvature="0"
   style="fill:#d49a26" />
	<path
   d="m 770.702,347.204 c 0.353,0.821 0.826,1.643 1.53,2.232 0.352,0.235 0.703,0.469 1.056,0.586 1.291,-1.645 2.469,-3.172 3.643,-4.815 2.938,-4.463 5.637,-9.044 7.636,-13.979 1.878,-4.815 3.051,-9.866 3.521,-14.918 0.352,-2.818 0.475,-5.52 0.586,-8.338 0,-1.879 0,-3.876 0,-5.874 -2.346,1.879 -5.049,3.29 -7.397,5.167 -2.35,1.998 -4.579,4.111 -6.579,6.461 -0.938,1.058 -1.878,2.231 -2.698,3.407 -0.118,0.234 -0.353,0.586 -0.47,0.821 -1.765,3.76 -3.056,7.754 -3.525,11.865 -0.469,3.992 -0.352,8.103 0.704,11.98 0.468,1.881 1.172,3.642 1.993,5.405 z"
   id="path4050"
   inkscape:connector-curvature="0"
   style="fill:#d49a26" />
	<path
   d="m 713.732,382.089 c 5.29,-3.64 10.927,-6.694 16.915,-9.044 5.759,-2.232 12.218,-3.757 18.441,-3.757 0,0 0.122,0 0.239,0 1.056,-0.237 2.229,-0.589 3.402,-0.707 2.703,-0.469 5.524,-0.704 8.34,-0.704 5.639,0 11.396,0.939 16.916,2.349 2.352,0.587 4.698,1.293 6.932,2.232 -1.882,-1.408 -3.877,-2.584 -5.875,-3.759 -4.347,-2.231 -8.928,-3.992 -13.626,-5.167 -0.117,0 -0.352,-0.118 -0.586,-0.118 -14.096,-3.407 -28.895,-2.232 -42.288,3.408 -2.816,1.173 -5.637,2.466 -8.458,3.757 -0.234,0.234 -0.469,0.471 -0.821,0.471 -0.118,0 -0.235,0.117 -0.235,0.117 -1.995,0.822 -3.759,1.878 -5.637,2.818 -2.938,1.763 -5.755,3.64 -8.34,5.874 -1.291,2.112 -2.821,4.11 -3.994,6.341 -1.761,3.055 -3.29,6.343 -4.464,9.633 -1.173,3.288 -2.112,6.695 -2.464,10.218 -0.118,1.175 -0.118,2.349 -0.118,3.407 6.225,-10.923 15.386,-20.32 25.721,-27.369 z"
   id="path4052"
   inkscape:connector-curvature="0"
   style="fill:#d49a26" />
	<path
   d="m 695.292,336.632 c 3.407,3.17 7.284,5.872 11.396,8.105 4.11,2.23 8.574,4.109 12.568,6.458 1.408,0.824 2.699,1.645 3.876,2.468 -1.177,-2.586 -2.468,-5.169 -3.994,-7.636 -2.819,-4.698 -5.993,-9.279 -9.513,-13.508 -3.643,-4.346 -7.519,-8.457 -11.514,-12.452 -1.998,-1.997 -3.993,-3.876 -5.992,-5.871 -1.058,-1.059 -2.23,-2.234 -3.287,-3.29 -0.234,5.756 -0.352,11.628 0.354,17.384 1.291,3.174 3.759,5.993 6.106,8.342 z"
   id="path4054"
   inkscape:connector-curvature="0"
   style="fill:#d49a26" />
	<path
   d="m 938.208,658.829 c -0.236,0.118 -0.471,0.234 -0.827,0.353 -0.703,0.474 -1.407,0.943 -1.994,1.53 -0.47,0.351 -0.821,0.82 -1.174,1.173 0.235,0.82 0.47,1.643 0.587,2.469 0.234,2.465 0.234,4.933 -0.234,7.397 -0.47,1.881 -1.061,4.345 -2.234,5.991 -0.821,1.879 -2.464,3.287 -2.229,5.404 0,0.117 0,0.117 0,0.117 0.234,1.291 1.761,1.525 2.935,1.642 3.29,-4.11 5.758,-9.16 6.696,-14.093 0.82,-4.229 0.116,-8.341 -1.526,-11.983 z"
   id="path4056"
   inkscape:connector-curvature="0"
   style="fill:#fab732" />
	<path
   d="m 934.213,658.479 c 0.821,-0.822 1.761,-1.41 2.816,-1.879 -0.703,-1.412 -1.643,-2.585 -2.581,-3.761 -3.642,-4.696 -8.105,-8.574 -12.921,-12.098 0,0.235 -0.118,0.47 -0.118,0.82 -0.117,0.592 -0.117,1.296 -0.117,1.999 2.816,2.349 5.52,5.052 7.754,7.989 0.352,0.351 0.586,0.704 0.821,1.173 1.525,1.995 2.698,4.229 3.638,6.575 0.239,-0.234 0.474,-0.584 0.708,-0.818 z"
   id="path4058"
   inkscape:connector-curvature="0"
   style="fill:#fab732" />
	<path
   d="m 884.406,623.475 c -0.234,1.177 -0.352,2.35 -0.234,3.522 0,0.588 0.117,1.176 0.117,1.765 1.06,0.235 1.998,0.354 2.938,0.588 2.586,0.47 5.051,0.938 7.637,1.526 0.234,0.116 0.586,0.234 0.82,0.234 3.173,0.82 6.225,1.642 9.279,2.938 5.051,2.111 9.983,4.698 14.447,8.105 0.117,-0.826 0.234,-1.765 0.47,-2.587 -3.638,-2.351 -7.397,-4.464 -11.157,-6.461 -7.871,-3.874 -16.094,-6.927 -24.317,-9.63 z"
   id="path4060"
   inkscape:connector-curvature="0"
   style="fill:#fab732" />
	<path
   d="m 876.657,621.01 c -10.339,-3.175 -20.91,-5.878 -31.015,-9.631 -1.407,-0.474 -2.816,-1.062 -4.225,-1.648 -0.355,1.057 -0.474,2.117 -0.708,3.172 -0.353,2.701 -0.353,5.404 -0.116,8.107 0.59,0.234 1.177,0.351 1.764,0.469 7.162,2.112 14.329,3.407 21.613,4.699 3.876,0.703 7.749,1.407 11.508,2.111 1.179,0.234 2.234,0.353 3.291,0.708 0.234,-0.235 0.47,-0.474 0.821,-0.474 0.821,0 1.764,0 2.586,0 -0.117,-0.704 -0.234,-1.526 -0.234,-2.229 0,-1.173 0.117,-2.351 0.352,-3.525 -1.882,-0.586 -3.759,-1.173 -5.637,-1.759 z"
   id="path4062"
   inkscape:connector-curvature="0"
   style="fill:#fab732" />
	<path
   d="m 810.76,589.413 c -0.59,0.704 -1.294,1.526 -1.881,2.229 -0.939,1.291 -1.76,2.703 -2.465,4.111 -0.708,1.76 -1.412,3.525 -1.764,5.401 -0.117,1.058 -0.117,2 -0.117,3.057 0.82,0.585 1.76,1.173 2.703,1.761 9.865,6.109 20.553,10.924 31.597,14.449 -0.234,-2.703 -0.234,-5.524 0.234,-8.224 0.117,-1.059 0.352,-2.115 0.704,-3.172 -8.81,-3.995 -17.15,-9.396 -24.43,-15.623 -1.646,-1.29 -3.055,-2.582 -4.581,-3.989 z"
   id="path4064"
   inkscape:connector-curvature="0"
   style="fill:#fab732" />
	<path
   d="m 787.383,567.916 c 0.704,-1.177 1.647,-2.233 2.586,-3.172 0.586,-0.588 1.173,-1.291 1.761,-1.765 2.351,-2.111 5.05,-3.872 8.105,-5.05 5.05,-1.879 10.452,-1.644 15.741,-0.705 3.643,0.705 7.866,1.765 10.922,4.229 0,-1.057 0,-2.229 0.235,-3.288 -1.057,-0.588 -2.23,-1.175 -3.291,-1.761 -1.407,-0.822 -2.816,-1.41 -4.346,-2.118 -2.698,-1.173 -5.521,-2.229 -8.458,-2.814 -5.285,-1.176 -10.922,-1.176 -16.206,0.234 -6.463,1.761 -12.569,4.814 -18.09,8.456 -2.703,1.761 -5.167,3.76 -7.401,5.989 -0.234,0.354 -0.469,0.588 -0.821,0.938 1.526,1.53 2.465,3.644 3.76,5.525 0.235,0.469 0.587,0.822 0.821,1.291 1.173,1.643 2.348,3.289 3.525,4.814 1.76,2.118 3.521,4.229 5.402,6.345 0,-0.12 0,-0.239 0,-0.354 -0.353,-5.755 2.348,-12.214 5.755,-16.794 z"
   id="path4066"
   inkscape:connector-curvature="0"
   style="fill:#fab732" />
	<path
   d="m 809.114,587.765 c -2.348,-2.347 -4.581,-4.814 -6.576,-7.399 -3.761,-4.464 -6.698,-9.396 -9.397,-14.564 -0.708,0.704 -1.294,1.408 -1.881,2.115 -1.057,1.174 -1.995,2.583 -2.821,3.995 -1.29,2.346 -2.346,4.814 -3.051,7.397 -0.47,1.646 -0.704,3.288 -0.704,5.049 0.117,1.414 0.587,2.938 0.587,4.348 0.234,0.234 0.352,0.469 0.586,0.585 5.169,4.938 10.688,9.52 16.563,13.512 0,-0.824 0.118,-1.528 0.235,-2.231 0.234,-1.995 0.821,-3.879 1.761,-5.639 0.703,-1.763 1.764,-3.407 2.82,-4.814 0.586,-0.829 1.291,-1.648 1.878,-2.354 z"
   id="path4068"
   inkscape:connector-curvature="0"
   style="fill:#fab732" />
	<path
   d="m 765.651,569.912 c -0.352,0.351 -0.586,0.821 -0.938,1.173 -0.704,2.587 -3.643,4.229 -6.341,4.464 -3.642,0.353 -7.283,-1.058 -10.574,-2.583 -3.29,-1.528 -6.341,-3.407 -9.278,-5.402 0.704,0.706 1.29,1.41 1.877,2.229 1.296,1.645 2.586,3.409 3.525,5.286 0.469,0.704 0.821,1.53 1.177,2.351 0.117,0.353 0.235,0.822 0.353,1.175 1.056,0.704 2.112,1.523 3.285,2.234 2.234,1.523 4.82,2.58 7.636,2.698 2.822,0.234 5.638,-0.353 8.341,-1.175 1.057,-0.351 2.234,-0.82 3.29,-1.289 0.234,-0.708 0.352,-1.414 0.588,-2.118 0.116,-0.703 0.351,-1.525 0.469,-2.346 0,-0.234 0.117,-0.357 0.117,-0.469 0,-0.123 0,-0.239 0,-0.357 -0.822,-1.292 -1.525,-2.465 -2.347,-3.756 -0.357,-0.708 -0.827,-1.412 -1.18,-2.115 z"
   id="path4070"
   inkscape:connector-curvature="0"
   style="fill:#fab732" />
	<path
   d="m 697.995,515.646 c -1.529,-2.938 -3.055,-5.76 -4.345,-8.693 -0.236,-0.351 -0.354,-0.703 -0.471,-1.059 0.471,1.646 0.821,3.289 1.057,4.938 0.47,3.05 0.704,6.105 0.352,9.043 -0.117,1.408 -0.352,2.934 -0.703,4.229 -0.118,0.469 -0.234,0.938 -0.354,1.289 0.119,0.237 0.354,0.354 0.705,0.472 0.587,0.116 0.821,0.116 1.29,0.234 2.469,0.116 4.698,-0.353 7.167,-1.057 0,0 0,0 0.117,0 -0.938,-1.646 -1.643,-3.291 -2.351,-5.052 -0.82,-1.411 -1.642,-2.937 -2.464,-4.344 z"
   id="path4072"
   inkscape:connector-curvature="0"
   style="fill:#fab732" />
	<path
   d="m 949.012,662.589 c -0.234,-5.989 -2.581,-11.626 -5.402,-16.914 -2.586,-4.817 -5.872,-9.28 -9.631,-13.157 -15.037,-15.502 -36.651,-21.612 -56.148,-29.362 -6.814,-2.703 -13.507,-5.642 -19.971,-9.162 -2.229,-1.296 -4.581,-2.585 -6.811,-3.995 -4.814,-3.054 -9.631,-6.579 -13.625,-10.924 0,-0.235 -0.117,-0.47 -0.473,-0.704 0,0 -0.113,0 -0.235,-0.118 -2.581,-2.938 -4.698,-6.106 -5.988,-9.748 -0.588,-1.414 -0.822,-2.703 -1.174,-3.994 -0.234,-1.646 -0.353,-3.407 -0.47,-5.052 0.117,0 0.235,0 0.353,0 5.754,-0.703 8.457,-6.579 10.687,-11.159 3.055,-6.225 5.641,-12.688 7.988,-19.263 4.464,-13.038 7.167,-26.782 5.989,-40.645 0.356,-2.935 0.117,-5.873 0,-8.925 -0.234,-3.525 -0.587,-7.047 -1.057,-10.572 -0.938,-7.047 -2.347,-13.978 -4.464,-20.79 -1.877,-5.874 -4.463,-11.396 -7.752,-16.328 -0.118,-1.174 -0.354,-2.115 -0.705,-3.171 -0.469,-1.645 -1.173,-3.172 -1.878,-4.698 -1.529,-2.938 -3.524,-5.639 -5.641,-8.105 -2.112,-2.584 -4.46,-4.933 -6.928,-7.047 -0.587,-1.997 -1.291,-3.877 -2.112,-5.874 -0.943,-2.114 -2.352,-3.994 -3.877,-5.756 -2.938,-3.64 -6.932,-6.695 -10.926,-8.927 -0.353,-0.235 -0.705,-0.353 -1.057,-0.587 -0.469,-1.293 -1.646,-2.232 -2.703,-3.053 -1.291,-1.058 -2.699,-2.114 -4.11,-3.173 -2.349,-1.762 -4.817,-3.405 -7.397,-4.933 0,-0.352 -0.118,-0.821 -0.475,-1.293 -1.994,-2.584 -4.697,-4.581 -7.28,-6.46 -2.703,-1.76 -5.52,-3.288 -8.457,-4.698 -2.586,-1.174 -5.284,-2.115 -7.988,-2.937 1.646,-1.762 3.056,-3.876 4.464,-5.639 1.999,-2.584 4.111,-5.167 5.989,-7.751 3.406,-4.581 6.228,-9.516 8.34,-14.801 1.999,-5.05 3.173,-10.218 3.76,-15.622 0.352,-2.818 0.469,-5.639 0.352,-8.575 0,-3.054 -0.117,-6.226 -0.821,-9.279 0.235,-0.589 -0.352,-1.528 -1.057,-1.528 -3.289,0.353 -6.462,2.82 -9.045,4.698 -2.703,1.998 -5.283,4.229 -7.636,6.579 -0.469,0.588 -1.056,1.175 -1.524,1.645 -3.174,3.642 -5.877,7.636 -8.223,11.746 -2.938,5.287 -5.403,10.924 -6.933,16.798 -1.526,5.404 -2.464,11.158 -1.761,16.798 0.117,0.821 0.353,1.525 0.47,2.231 -6.693,-0.706 -13.625,-0.235 -20.205,1.057 -1.995,0.469 -3.994,0.94 -5.989,1.527 -1.174,-5.874 -3.76,-11.276 -6.697,-16.563 -2.934,-4.933 -6.342,-9.514 -9.983,-13.978 -3.759,-4.346 -7.753,-8.575 -11.861,-12.452 -2.115,-1.997 -4.11,-3.875 -6.227,-5.637 -2.113,-1.763 -4.112,-3.642 -6.342,-5.053 -0.591,-0.586 -1.646,-0.586 -2,0.118 -0.82,1.645 -0.938,3.407 -1.173,5.169 -0.234,1.88 -0.234,3.877 -0.352,5.874 0,3.522 0.117,7.047 0.586,10.452 0.704,5.288 1.996,10.455 3.878,15.388 3.876,9.985 10.218,19.968 19.614,25.49 0.117,0 0.117,0 0.234,0 -1.995,1.176 -3.873,2.349 -5.755,3.64 -1.995,1.41 -3.993,2.938 -5.637,4.818 -1.057,1.056 -1.999,2.231 -2.703,3.405 -1.291,1.058 -2.465,2.231 -3.76,3.407 -1.994,1.88 -3.638,4.581 -5.168,6.93 -3.172,5.05 -5.637,10.572 -7.752,16.092 -4.582,12.099 -8.103,25.021 -7.75,38.059 0.234,9.983 2.581,19.734 5.755,29.13 1.642,4.581 3.406,9.047 5.637,13.393 1.173,1.994 2.352,4.107 3.642,5.988 0.587,0.822 1.057,1.645 1.761,2.348 0.59,1.882 1.295,3.761 1.882,5.642 0.821,2.698 1.524,5.521 1.878,8.224 0.352,2.698 0.469,5.519 0.116,8.34 -0.116,1.173 -0.351,2.464 -0.587,3.637 -0.117,0.354 -0.234,0.708 -0.352,1.062 -0.352,1.055 -0.821,2.111 -0.47,3.05 0.235,0.704 0.821,1.057 1.408,1.057 0.709,0.708 1.647,1.177 2.703,1.53 3.056,0.82 6.697,0.116 9.631,-0.704 0.471,-0.118 0.705,-0.353 0.939,-0.469 1.529,3.988 3.524,7.982 6.11,11.624 1.291,1.883 2.7,3.76 4.347,5.404 0.703,0.708 1.407,1.412 2.229,1.997 0.704,1.41 1.999,2.469 2.938,3.644 1.409,1.524 2.703,2.934 4.112,4.462 0.586,0.587 1.056,1.057 1.643,1.645 0,0 0,0 0,0.116 1.056,2.821 3.055,5.051 5.05,7.401 1.999,2.348 4.111,4.582 6.111,6.928 1.643,2.118 3.285,4.587 4.228,7.167 0.705,1.999 1.057,4.229 1.409,6.345 0.82,4.225 1.76,8.812 5.52,11.511 4.815,3.522 11.278,0.469 15.154,-2.938 0.235,-0.234 0.587,-0.469 0.822,-0.822 0.469,-0.353 0.938,-0.703 1.407,-1.057 1.647,-1.407 2.939,-3.172 3.995,-5.049 1.056,-1.884 1.764,-3.995 2.352,-6.11 0,-0.234 0.117,-0.472 0.234,-0.822 1.291,1.881 2.698,3.525 4.229,5.288 4.229,4.933 9.044,9.632 14.212,13.744 9.982,8.34 21.145,15.033 33.005,20.083 9.165,3.876 18.563,6.815 28.311,8.692 5.637,1.177 11.396,1.999 17.15,2.819 2.938,0.472 5.871,0.822 8.809,1.175 1.292,0.235 2.699,0.235 4.112,0.352 0.117,0 0.117,0 0.234,0 2.464,0.821 5.05,1.175 7.519,1.765 3.287,0.703 6.576,1.407 9.866,2.464 4.464,1.292 8.692,3.291 12.569,5.637 7.983,4.821 16.09,11.749 18.559,21.146 0,0.116 0.116,0.235 0.116,0.47 0.47,2.115 0.587,4.345 0.353,6.461 -0.234,1.291 -0.469,2.583 -0.822,3.878 -0.352,0.938 -0.703,1.877 -0.938,2.934 -0.825,0.824 -1.411,2 -1.882,3.055 -0.469,1.409 -0.704,2.821 -0.352,4.229 0.117,0.822 0.469,1.526 1.057,2 -0.588,1.407 1.294,2.698 2.469,1.642 0,-0.116 0,-0.116 0.116,-0.234 0.118,0.118 0.234,0.118 0.353,0.118 0,0.588 0.469,1.291 1.173,0.938 5.402,-1.877 9.749,-6.341 12.687,-11.157 2.702,-4.353 4.11,-9.525 3.876,-14.692 z M 834.721,551.706 v 0 c -1.29,2.229 -2.938,3.523 -5.284,4.464 -2,-1.884 -4.698,-3.057 -7.167,-4.229 -2.699,-1.291 -5.637,-2.469 -8.574,-3.407 -5.639,-1.644 -11.275,-1.995 -16.916,-1.175 -6.342,1.057 -12.213,3.76 -17.736,6.816 -5.872,3.284 -11.04,7.397 -14.916,12.915 -0.588,0.708 -1.057,1.414 -1.526,2.234 -0.942,0.822 -1.53,1.645 -2.586,2.113 0.118,0 -0.469,0.234 -0.586,0.234 -0.354,0.121 -0.704,0.121 -0.939,0.239 0.117,0 -0.708,0 -0.825,0 -0.353,0 -0.821,0 -1.292,0 -0.234,-0.118 -1.407,-0.357 -1.994,-0.474 -0.943,-0.234 -1.882,-0.588 -2.703,-0.822 -1.76,-0.703 -3.525,-1.642 -5.284,-2.582 -3.643,-1.998 -7.05,-4.346 -10.34,-6.931 -2.229,-1.645 -4.581,-3.409 -6.693,-5.521 1.643,0.938 3.407,1.761 5.051,2.465 4.698,1.999 9.865,3.29 15.037,2.821 3.402,-0.234 7.397,-1.526 9.983,-3.878 0.234,0 0.352,-0.117 0.469,-0.235 1.292,-0.819 2.465,-1.877 3.642,-2.938 1.292,-1.173 2.583,-2.464 3.995,-3.638 0.117,-0.118 0.234,-0.118 0.469,-0.238 2.465,-2.113 5.285,-3.872 8.105,-5.402 5.872,-3.402 12.564,-5.755 19.38,-6.459 0.47,-0.118 0.939,-0.118 1.408,-0.234 2.469,-0.118 4.815,-0.118 7.167,0 3.524,0.353 6.933,0.938 10.335,1.761 5.993,1.407 11.982,3.406 17.268,6.697 1.529,0.938 2.938,2.111 4.346,3.168 -0.355,0.71 -0.825,1.532 -1.294,2.236 z m 14.681,-89.272 v 0 c 0.942,4.464 1.646,9.045 2.117,13.625 0.234,3.76 0.234,7.636 0.586,11.276 -0.117,1.057 0,2.234 0,3.29 0.117,1.643 0.117,3.29 0,4.932 -0.117,3.409 -0.586,6.815 -1.057,10.103 -1.173,6.813 -2.938,13.628 -5.167,20.205 -2.116,6.341 -4.698,12.569 -7.519,18.675 -0.47,1.059 -0.822,1.999 -1.291,2.938 -1.647,-1.525 -3.76,-2.821 -5.523,-3.876 -2.582,-1.645 -5.403,-2.938 -8.223,-3.994 -5.052,-1.995 -10.453,-3.291 -15.738,-3.995 -0.704,-0.116 -1.408,-0.234 -1.999,-0.234 -1.408,-0.234 -2.699,-0.353 -4.111,-0.353 -12.213,-0.352 -24.313,4.582 -33.943,11.865 -1.412,1.057 -2.821,2.113 -4.229,3.29 -1.295,1.174 -2.586,2.347 -3.524,3.756 -0.234,0.239 -0.469,0.59 -0.705,0.942 -1.173,0.822 -2.467,1.526 -3.876,2.112 -1.999,0.821 -4.11,1.291 -6.345,1.409 -4.815,0.355 -9.631,-1.057 -13.978,-2.936 -4.464,-1.881 -8.575,-4.462 -12.334,-7.399 -0.587,-0.588 -1.291,-1.057 -1.878,-1.645 -0.938,-0.822 -1.877,-1.765 -2.82,-2.819 -1.878,-2.348 -3.639,-4.698 -5.755,-6.812 -0.703,-1.178 -1.408,-2.351 -1.995,-3.642 -2.938,-5.76 -4.702,-11.981 -5.992,-18.324 -1.761,-8.69 -2.466,-17.618 -1.995,-26.432 0.234,-3.052 0.469,-6.107 0.938,-9.042 0.234,-2.115 0.704,-4.229 1.057,-6.226 0.469,-2.114 1.056,-4.111 1.529,-6.108 0.469,-1.88 0.938,-3.875 1.057,-5.754 0.234,-0.354 0.469,-0.823 0.586,-1.176 0.704,-1.41 1.29,-2.701 1.878,-4.111 1.412,-2.818 2.82,-5.637 4.346,-8.34 3.173,-5.637 6.932,-10.804 11.044,-15.505 4.112,-4.698 8.691,-8.81 13.742,-12.332 2.586,-1.88 5.52,-3.525 8.458,-4.816 1.525,-0.588 3.055,-1.058 4.581,-1.527 1.643,-0.47 3.524,-0.824 4.933,-1.879 h 0.116 c 1.409,-0.353 2.822,-0.822 4.112,-1.176 2.703,-0.587 5.403,-1.056 8.106,-1.526 3.876,-0.589 7.87,-1.059 11.864,-1.41 4.463,-0.352 9.044,-0.469 13.39,-0.117 1.878,0.117 3.521,0.469 5.286,0.704 0.234,0.234 0.469,0.352 0.704,0.471 3.406,0.939 6.814,1.643 10.1,2.818 3.291,1.174 6.229,2.702 9.162,4.464 5.289,3.171 10.104,7.165 14.216,11.745 1.644,1.763 3.169,3.642 4.581,5.522 2.112,3.053 3.994,6.343 5.52,9.748 1.174,2.584 2.229,5.288 3.056,7.989 1.172,3.758 2.11,7.75 2.932,11.627 z m -21.143,-46.28 v 0 c 2.233,2.231 4.346,4.698 6.11,7.399 -1.999,-2.114 -4.111,-3.992 -6.345,-5.872 -3.873,-3.055 -7.984,-5.756 -12.448,-7.871 -4.111,-1.998 -8.692,-3.759 -13.273,-4.346 -2.351,-1.056 -5.172,-1.527 -7.401,-1.88 -4.581,-0.586 -9.162,-0.352 -13.742,0 -4.229,0.353 -8.575,0.941 -12.805,1.762 -2.585,0.587 -5.167,1.059 -7.753,1.646 -1.526,0.352 -3.055,0.704 -4.464,1.056 -1.642,0.352 -2.938,0.706 -4.228,1.762 -1.995,0.352 -3.878,1.176 -5.639,1.88 -3.055,1.175 -5.988,2.701 -8.809,4.581 -5.168,3.525 -9.866,7.754 -14.095,12.452 -4.229,4.698 -7.988,9.866 -11.16,15.388 -3.056,5.285 -5.52,10.689 -7.05,16.561 -1.878,3.055 -2.582,6.932 -3.521,10.337 -0.234,0.941 -0.469,1.997 -0.704,2.936 -0.473,1.997 -0.825,3.994 -1.177,5.991 -0.117,0.704 -0.234,1.411 -0.352,1.997 -0.939,6.815 -0.705,13.742 -0.235,20.556 0.235,2.23 0.47,4.464 0.704,6.694 -0.469,-1.643 -0.821,-3.289 -1.174,-5.05 -1.525,-6.812 -2.111,-13.743 -2.233,-20.79 0,-3.876 0.122,-7.753 0.474,-11.63 0.117,-2.818 0.47,-5.637 0.938,-8.456 1.056,-6.814 2.582,-13.51 4.815,-20.088 0.587,-1.643 1.173,-3.288 1.878,-4.933 1.882,-4.816 4.112,-9.514 6.815,-13.978 1.29,-2.114 2.585,-3.994 4.11,-5.874 0.117,-0.117 0.117,-0.117 0.234,-0.234 1.175,-0.941 2.23,-1.88 3.291,-2.936 1.173,-1.175 2.229,-2.349 3.403,-3.524 2.233,-2.232 4.463,-4.112 7.166,-5.757 5.051,-3.405 10.691,-5.754 16.563,-7.399 5.755,-1.528 11.747,-2.467 17.737,-2.936 2.938,-0.354 5.988,-0.589 8.926,-0.824 0.705,0 1.292,-0.117 1.995,-0.234 3.056,0.469 6.111,0.469 9.162,0.823 3.524,0.353 7.05,1.056 10.574,1.878 6.342,1.41 12.569,3.642 18.323,6.813 5.759,3.055 10.931,7.284 15.39,12.1 z m -17.62,-22.787 v 0 c 5.055,3.288 9.636,7.751 12.334,13.156 -1.76,-1.411 -3.52,-2.586 -5.284,-3.76 -5.52,-3.524 -11.748,-6.108 -17.972,-7.871 -7.049,-1.997 -14.095,-2.818 -21.379,-3.053 -0.938,0 -1.877,0 -2.816,-0.117 -0.591,0 -1.177,0.117 -1.764,0.117 -0.353,0 -0.587,0 -0.939,0 -3.055,0 -6.223,0 -9.396,0.234 -6.228,0.587 -12.569,1.411 -18.558,3.053 -6.11,1.646 -11.982,4.112 -17.149,7.636 -2.704,1.763 -5.172,3.642 -7.285,5.991 -3.759,2.349 -6.697,5.637 -9.277,9.161 -3.525,4.816 -6.229,10.101 -8.576,15.505 -3.993,9.044 -6.696,18.441 -8.105,28.191 -0.352,2.349 -0.704,4.698 -0.939,7.047 0,0.704 -0.117,1.41 -0.117,2.231 -0.703,9.044 -0.352,18.091 0.939,27.134 0.234,1.76 0.587,3.525 0.938,5.169 -0.586,-1.175 -1.056,-2.468 -1.642,-3.76 -0.588,-3.525 -2.117,-6.815 -3.291,-10.218 -0.117,-0.117 -0.117,-0.234 -0.117,-0.352 -0.47,-1.413 -0.821,-2.938 -1.174,-4.464 -2.82,-12.217 -3.29,-24.903 -1.174,-37.238 0.353,-2.584 0.938,-5.05 1.644,-7.399 0.704,-2.936 1.644,-5.874 2.82,-8.692 2.465,-6.46 5.871,-12.569 9.983,-18.089 3.524,-4.583 7.636,-8.809 11.982,-12.804 4.58,-4.111 9.631,-7.988 14.916,-11.041 4.111,-2.466 8.574,-4.463 13.038,-5.874 1.525,-0.47 2.938,-0.821 4.347,-1.058 0.117,0.12 0.352,0.237 0.469,0.237 1.882,0.352 3.642,0.234 5.52,0.117 2,-0.234 3.995,-0.471 5.993,-0.589 3.756,-0.234 7.516,-0.234 11.274,-0.117 4.581,0.235 9.045,0.706 13.391,1.528 9.633,1.766 19.147,4.702 27.366,9.989 z m -11.862,-9.634 v 0 c -5.871,-2.231 -12.099,-3.522 -18.205,-4.463 -4.346,-0.587 -8.692,-0.939 -13.038,-0.939 -3.407,0 -6.815,0.234 -10.34,0.469 -1.408,0.117 -2.934,0.235 -4.464,0.352 -0.352,0 -0.703,0 -1.056,0 -1.525,0 -3.055,0.118 -4.581,0.235 -2.938,0.354 -5.871,0.94 -8.692,1.879 -5.871,1.997 -11.396,5.05 -16.563,8.575 -9.866,6.813 -18.793,15.74 -25.485,25.842 -5.525,8.575 -9.284,18.323 -11.279,28.426 -0.352,2.231 -0.703,4.463 -1.056,6.578 0,0 0,0 0,0.117 -0.592,5.167 -0.705,10.455 -0.47,15.74 -0.591,-2.936 -1.061,-5.874 -1.412,-8.927 -0.821,-6.695 -0.705,-13.39 0.117,-20.086 0.704,-5.521 2.117,-11.041 4.11,-16.446 0.119,-0.234 0.236,-0.469 0.354,-0.821 0.586,-1.645 1.294,-3.29 2.115,-4.933 4.817,-9.75 12.1,-18.325 20.319,-25.49 9.636,-8.223 21.144,-14.447 33.479,-17.502 1.408,-0.352 2.82,-0.586 4.229,-0.939 1.995,-0.235 4.111,-0.352 6.224,-0.589 2.586,-0.117 5.289,-0.234 7.987,-0.117 5.403,0.237 10.81,1.059 16.095,2.584 5.05,1.293 9.866,3.172 14.447,5.756 2.468,1.411 4.933,2.937 7.165,4.699 z m -40.288,-31.127 v 0 c 0.117,-2.701 0.47,-5.521 1.057,-8.223 1.056,-5.52 3.055,-10.807 5.52,-15.857 0.117,-0.235 0.352,-0.587 0.469,-0.822 1.882,-3.642 3.995,-7.284 6.464,-10.572 0.82,-1.176 1.76,-2.349 2.698,-3.407 2,-2.35 4.229,-4.463 6.579,-6.461 2.349,-1.877 5.052,-3.288 7.397,-5.167 0,1.997 0,3.994 0,5.874 -0.111,2.819 -0.234,5.52 -0.586,8.338 -0.47,5.052 -1.643,10.103 -3.521,14.918 -1.999,4.935 -4.698,9.516 -7.636,13.979 -1.174,1.643 -2.352,3.171 -3.643,4.815 -0.704,0.822 -1.29,1.646 -1.994,2.584 0,0.117 -0.118,0.117 -0.239,0.234 -0.822,1.176 -1.761,2.467 -2.7,3.642 -0.938,1.174 -2.232,2.232 -3.172,3.406 -2.229,-0.469 -4.464,-0.821 -6.576,-1.174 0,-1.995 -0.234,-4.109 -0.117,-6.107 z m -47.22,14.918 v 0 c -1.056,-0.704 -2.116,-1.41 -3.173,-2.232 -1.995,-1.645 -3.876,-3.407 -5.637,-5.404 -3.525,-4.229 -6.105,-9.044 -8.34,-14.095 -1.408,-3.29 -2.586,-6.813 -3.525,-10.455 -0.352,-1.527 -0.704,-3.053 -0.938,-4.58 -0.234,-0.822 -0.352,-1.645 -0.469,-2.467 -0.705,-5.756 -0.588,-11.628 -0.354,-17.384 1.057,1.056 2.229,2.231 3.287,3.29 1.999,1.995 3.994,3.875 5.992,5.871 3.995,3.995 7.871,8.106 11.514,12.452 3.52,4.229 6.693,8.81 9.513,13.508 1.526,2.466 2.817,5.05 3.994,7.636 1.058,2.584 1.996,5.167 2.582,7.869 0.117,0.117 0.117,0.352 0.235,0.589 v 0 c -3.173,1.173 -6.341,2.583 -9.396,3.992 -1.408,0.589 -2.821,1.293 -4.229,1.998 -0.352,-0.236 -0.704,-0.353 -1.056,-0.588 z m -29.132,112.998 v 0 c -2.816,-6.813 -4.933,-13.977 -6.342,-21.142 -1.529,-7.047 -1.999,-14.332 -1.407,-21.613 0.586,-6.46 2.229,-12.804 3.99,-19.147 1.998,-7.047 4.345,-13.977 7.752,-20.555 0.822,-1.763 1.765,-3.408 2.821,-5.051 0.821,-1.41 1.877,-2.821 2.816,-4.229 1.061,-1.292 2.117,-2.703 3.173,-3.994 1.174,-1.293 2.351,-2.466 3.289,-3.994 0.118,-0.117 0.118,-0.235 0.118,-0.235 0.235,-0.235 0.47,-0.469 0.704,-0.704 2.585,-2.234 5.402,-4.111 8.34,-5.874 1.878,-0.94 3.642,-1.997 5.637,-2.818 0,0 0.117,-0.117 0.235,-0.117 0.353,0 0.587,-0.237 0.821,-0.471 2.821,-1.291 5.642,-2.584 8.458,-3.757 13.394,-5.64 28.192,-6.815 42.288,-3.408 0.234,0 0.469,0.118 0.586,0.118 4.698,1.175 9.279,2.936 13.626,5.167 1.998,1.175 3.993,2.351 5.875,3.759 -2.233,-0.939 -4.58,-1.645 -6.932,-2.232 -5.52,-1.41 -11.277,-2.349 -16.916,-2.349 -2.815,0 -5.637,0.235 -8.34,0.704 -1.173,0.118 -2.347,0.47 -3.402,0.707 -0.117,0 -0.239,0 -0.239,0 -6.224,0 -12.683,1.525 -18.441,3.757 -5.988,2.351 -11.625,5.404 -16.915,9.044 -10.335,7.049 -19.496,16.446 -25.721,27.37 -0.117,0.235 -0.238,0.352 -0.352,0.586 -0.591,1.176 -1.177,2.232 -1.765,3.525 -5.05,10.22 -7.518,21.496 -7.636,32.89 -0.235,14.095 3.407,27.839 8.224,40.993 0.234,0.705 0.469,1.295 0.703,2 0.235,0.938 0.474,1.877 0.708,2.816 -0.473,-0.822 -0.942,-1.643 -1.294,-2.464 -1.642,-3.055 -3.05,-6.109 -4.462,-9.282 z m 20.556,44.52 v 0 c -2.469,0.704 -4.698,1.173 -7.167,1.057 -0.469,-0.118 -0.703,-0.118 -1.29,-0.234 -0.352,-0.118 -0.586,-0.234 -0.705,-0.472 0.119,-0.351 0.235,-0.82 0.354,-1.289 0.352,-1.296 0.586,-2.821 0.703,-4.229 0.353,-2.938 0.118,-5.993 -0.352,-9.043 -0.235,-1.648 -0.586,-3.291 -1.057,-4.938 0.117,0.355 0.234,0.708 0.471,1.059 1.29,2.934 2.815,5.755 4.345,8.693 0.822,1.407 1.644,2.934 2.465,4.345 0.708,1.761 1.412,3.405 2.351,5.052 -0.118,-10e-4 -0.118,-10e-4 -0.118,-10e-4 z m 64.016,59.199 v 0 c -0.821,1.765 -1.878,3.288 -3.052,4.58 -0.235,0.234 -0.47,0.353 -0.587,0.592 -3.876,1.642 -7.284,6.105 -11.747,4.225 -1.526,-0.704 -2.469,-2.113 -3.174,-3.64 -0.703,-1.997 -1.173,-4.227 -1.524,-6.345 -0.354,-1.642 -0.588,-3.406 -1.174,-5.049 -0.117,-0.353 -0.235,-0.822 -0.353,-1.175 -0.355,-0.82 -0.708,-1.646 -1.177,-2.351 -0.939,-1.877 -2.229,-3.642 -3.525,-5.286 -0.587,-0.819 -1.173,-1.523 -1.877,-2.229 2.938,1.995 5.988,3.874 9.278,5.402 3.291,1.525 6.933,2.936 10.574,2.583 2.698,-0.235 5.637,-1.877 6.341,-4.464 0.353,-0.352 0.587,-0.822 0.938,-1.173 0.353,0.703 0.822,1.407 1.179,2.115 0.821,1.291 1.524,2.464 2.347,3.756 0,0.118 0,0.234 0,0.357 0,0.111 -0.117,0.234 -0.117,0.469 -0.118,0.82 -0.353,1.643 -0.469,2.346 -0.236,0.704 -0.354,1.41 -0.588,2.118 -0.351,1.056 -0.82,2.231 -1.293,3.169 z m 9.518,-5.52 v 0 c -1.178,-1.525 -2.353,-3.172 -3.525,-4.814 -0.234,-0.469 -0.586,-0.822 -0.821,-1.291 -1.295,-1.882 -2.233,-3.995 -3.76,-5.525 0.353,-0.351 0.587,-0.585 0.821,-0.938 2.234,-2.229 4.698,-4.229 7.401,-5.989 5.521,-3.642 11.627,-6.695 18.09,-8.456 5.284,-1.41 10.921,-1.41 16.206,-0.234 2.938,0.585 5.76,1.642 8.458,2.814 1.529,0.708 2.938,1.296 4.346,2.118 1.061,0.586 2.234,1.173 3.291,1.761 -0.235,1.059 -0.235,2.231 -0.235,3.288 -3.056,-2.464 -7.279,-3.523 -10.922,-4.229 -5.289,-0.938 -10.691,-1.174 -15.741,0.705 -3.056,1.178 -5.755,2.938 -8.105,5.05 -0.588,0.474 -1.175,1.177 -1.761,1.765 -0.938,0.938 -1.882,1.995 -2.586,3.172 -3.407,4.58 -6.107,11.039 -5.754,16.795 0,0.115 0,0.234 0,0.354 -1.883,-2.117 -3.644,-4.228 -5.403,-6.346 z m 9.629,10.569 v 0 c -0.234,-0.116 -0.352,-0.351 -0.586,-0.585 0,-1.41 -0.47,-2.934 -0.587,-4.348 0,-1.761 0.234,-3.402 0.704,-5.049 0.705,-2.583 1.761,-5.052 3.051,-7.397 0.826,-1.412 1.765,-2.821 2.821,-3.995 0.587,-0.707 1.173,-1.411 1.881,-2.115 1.761,-1.645 3.756,-3.174 6.107,-4.229 4.581,-2.349 9.631,-2.465 14.682,-1.761 4.464,0.585 9.162,1.876 12.804,4.698 0.352,2.346 1.056,4.58 1.999,6.693 0.938,2.115 2.229,4.229 3.638,6.227 -1.056,-0.116 -2.112,-0.116 -3.169,0 -1.999,0.118 -3.994,0.469 -5.993,1.175 -4.111,1.289 -7.749,3.523 -11.039,6.222 -1.057,0.945 -2.116,1.884 -3.055,2.938 -0.587,0.706 -1.292,1.525 -1.878,2.353 -1.057,1.407 -2.117,3.052 -2.82,4.814 -0.939,1.76 -1.526,3.644 -1.761,5.639 -0.117,0.703 -0.235,1.407 -0.235,2.231 -5.875,-3.991 -11.395,-8.573 -16.564,-13.511 z m 21.38,16.683 v 0 c -0.943,-0.588 -1.883,-1.176 -2.703,-1.761 0,-1.057 0,-1.999 0.117,-3.057 0.352,-1.876 1.056,-3.642 1.764,-5.401 0.705,-1.408 1.525,-2.82 2.465,-4.111 0.587,-0.703 1.291,-1.525 1.881,-2.229 0.939,-0.942 1.761,-1.884 2.816,-2.703 2.822,-2.587 6.346,-4.582 9.988,-5.755 1.76,-0.59 3.521,-1.062 5.402,-1.178 1.173,-0.118 2.348,-0.118 3.403,0 0.708,0 1.411,0.234 1.999,0.234 0.938,1.178 1.995,2.234 2.938,3.291 4.581,4.58 9.749,8.34 15.269,11.747 -0.117,0 -0.235,0 -0.353,0.116 -1.525,0.471 -2.938,1.175 -4.346,2.113 -2.586,1.646 -4.699,4.111 -6.106,6.814 -0.942,1.525 -1.53,3.172 -1.999,4.933 -0.353,1.057 -0.587,2.113 -0.704,3.172 -0.469,2.699 -0.469,5.521 -0.234,8.224 -11.044,-3.526 -21.731,-8.34 -31.597,-14.449 z m 68.243,22.316 v 0 c -3.759,-0.704 -7.632,-1.408 -11.508,-2.111 -7.284,-1.292 -14.451,-2.587 -21.613,-4.699 -0.587,-0.118 -1.174,-0.234 -1.764,-0.469 -0.236,-2.703 -0.236,-5.406 0.116,-8.107 0.234,-1.055 0.353,-2.115 0.708,-3.172 0.47,-1.524 1.057,-3.055 1.76,-4.464 1.409,-2.581 3.291,-4.814 5.639,-6.341 1.294,-0.822 2.586,-1.53 3.993,-1.999 0.704,-0.235 1.408,-0.351 2.116,-0.586 2.465,1.526 5.051,2.819 7.632,4.111 8.458,4.229 17.502,7.518 26.43,11.043 -2.581,1.995 -4.464,5.051 -5.638,7.866 -0.469,1.061 -0.821,2.234 -1.056,3.407 -0.234,1.175 -0.352,2.353 -0.352,3.525 0,0.703 0.117,1.525 0.234,2.229 -0.822,0 -1.765,0 -2.586,0 -0.352,0 -0.587,0.238 -0.821,0.474 -1.056,-0.354 -2.112,-0.473 -3.29,-0.707 z m 19.384,2.587 v 0 c -2.586,-0.588 -5.051,-1.057 -7.637,-1.526 -0.939,-0.234 -1.878,-0.353 -2.938,-0.588 0,-0.589 -0.117,-1.177 -0.117,-1.765 -0.117,-1.173 0,-2.346 0.234,-3.522 0.117,-1.057 0.47,-2.23 0.821,-3.287 0.709,-1.765 1.765,-3.406 3.055,-4.937 0.939,-1.058 2,-1.995 3.174,-2.817 9.866,3.878 19.614,7.988 28.424,13.86 2.116,1.407 4.111,2.938 6.109,4.582 -1.998,1.173 -3.759,3.288 -4.814,5.167 -0.47,1.055 -1.057,2.234 -1.295,3.523 -0.235,0.822 -0.353,1.761 -0.47,2.587 -4.464,-3.407 -9.396,-5.994 -14.447,-8.105 -3.055,-1.296 -6.106,-2.117 -9.279,-2.938 -0.234,0 -0.585,-0.118 -0.82,-0.234 z m 35.004,21.847 v 0 c -0.235,-0.469 -0.47,-0.822 -0.821,-1.173 -2.234,-2.938 -4.938,-5.641 -7.754,-7.989 0,-0.703 0,-1.407 0.117,-1.999 0,-0.351 0.118,-0.585 0.118,-0.82 0.234,-1.175 0.586,-2.348 1.173,-3.409 0.704,-1.289 1.525,-2.464 2.586,-3.402 0.703,-0.708 1.525,-1.178 2.347,-1.646 5.403,4.814 9.866,10.574 13.155,17.033 1.175,2.233 2.117,4.463 2.821,6.813 -2.116,-0.942 -4.463,-0.585 -6.58,0.47 -1.056,0.469 -1.995,1.057 -2.816,1.879 -0.234,0.234 -0.469,0.585 -0.708,0.819 -0.94,-2.347 -2.112,-4.581 -3.638,-6.576 z m 14.916,12.569 v 0 c -0.235,4.814 -2.465,9.396 -5.402,13.038 -2,2.349 -4.112,4.346 -6.11,6.575 -0.118,0 -0.118,0 -0.234,0 -1.174,-0.116 -2.7,-0.351 -2.935,-1.642 0,0 0,0 0,-0.117 -0.234,-2.117 1.408,-3.525 2.229,-5.404 1.174,-1.646 1.765,-4.11 2.234,-5.991 0.469,-2.465 0.469,-4.933 0.234,-7.397 -0.117,-0.826 -0.352,-1.648 -0.587,-2.469 0.353,-0.353 0.704,-0.822 1.174,-1.173 0.587,-0.587 1.291,-1.057 1.994,-1.53 0.356,-0.118 0.591,-0.234 0.827,-0.353 1.642,-0.704 3.285,-0.47 5.049,-0.47 0.353,0 0.588,-0.116 0.822,-0.351 0.588,2.351 0.822,4.815 0.705,7.284 z"
   id="path4074"
   inkscape:connector-curvature="0"
   style="fill:#351b10" />
	<path
   d="m 852.105,490.625 c 0,-1.056 -0.117,-2.233 0,-3.29 -0.352,-3.64 -0.352,-7.517 -0.586,-11.276 -0.471,-4.58 -1.175,-9.161 -2.117,-13.625 -0.822,-3.876 -1.761,-7.869 -2.934,-11.628 -0.826,-2.701 -1.882,-5.404 -3.056,-7.989 -1.525,-3.405 -3.407,-6.695 -5.52,-9.748 1.761,4.463 3.403,9.044 4.581,13.743 1.525,5.756 2.347,11.628 2.464,17.619 0.235,11.628 -2.464,23.021 -7.632,33.359 -5.054,9.866 -12.334,18.324 -20.439,25.84 -4.581,3.993 -9.396,7.637 -14.564,10.925 -0.234,0.118 -0.469,0.354 -0.825,0.47 1.412,0 2.703,0.118 4.111,0.353 0.591,0 1.295,0.118 1.999,0.234 5.285,0.704 10.687,2 15.738,3.995 2.819,1.057 5.641,2.35 8.223,3.994 1.764,1.055 3.876,2.351 5.523,3.876 0.469,-0.938 0.821,-1.879 1.291,-2.938 2.82,-6.105 5.402,-12.334 7.519,-18.675 2.229,-6.577 3.994,-13.392 5.167,-20.205 0.471,-3.287 0.939,-6.693 1.057,-10.103 0.118,-1.642 0.118,-3.288 0,-4.931 z"
   id="path4076"
   inkscape:connector-curvature="0"
   style="fill:#b08530" />
	<path
   d="m 814.398,539.606 c -3.402,-0.822 -6.811,-1.408 -10.335,-1.761 -2.352,-0.118 -4.698,-0.118 -7.167,0 -0.469,0.116 -0.938,0.116 -1.408,0.234 -6.815,0.704 -13.508,3.057 -19.38,6.459 -2.82,1.53 -5.641,3.289 -8.105,5.402 -0.234,0.12 -0.352,0.12 -0.469,0.238 -1.412,1.174 -2.703,2.465 -3.995,3.638 -1.177,1.061 -2.35,2.118 -3.642,2.938 -0.117,0.118 -0.234,0.235 -0.469,0.235 -2.586,2.352 -6.581,3.644 -9.983,3.878 -5.172,0.469 -10.339,-0.822 -15.037,-2.821 -1.644,-0.704 -3.408,-1.526 -5.051,-2.465 2.112,2.111 4.464,3.876 6.693,5.521 3.29,2.585 6.697,4.933 10.34,6.931 1.759,0.94 3.524,1.879 5.284,2.582 0.821,0.234 1.76,0.588 2.703,0.822 0.587,0.116 1.76,0.355 1.994,0.474 0.471,0 0.939,0 1.292,0 0.117,0 0.942,0 0.825,0 0.235,-0.118 0.586,-0.118 0.939,-0.239 0.117,0 0.704,-0.234 0.586,-0.234 1.056,-0.469 1.644,-1.291 2.586,-2.113 0.47,-0.82 0.938,-1.526 1.526,-2.234 3.876,-5.518 9.044,-9.631 14.916,-12.915 5.523,-3.057 11.395,-5.76 17.736,-6.816 5.641,-0.82 11.277,-0.469 16.916,1.175 2.938,0.938 5.875,2.116 8.574,3.407 2.469,1.173 5.167,2.346 7.167,4.229 2.347,-0.94 3.994,-2.234 5.284,-4.464 0.47,-0.704 0.939,-1.526 1.291,-2.234 -1.408,-1.057 -2.816,-2.229 -4.346,-3.168 -5.282,-3.292 -11.271,-5.291 -17.265,-6.699 z"
   id="path4078"
   inkscape:connector-curvature="0"
   style="fill:#b08530" />
	<path
   d="m 758.606,358.715 c 2.112,0.353 4.347,0.705 6.576,1.174 0.939,-1.174 2.233,-2.232 3.172,-3.406 0.939,-1.175 1.878,-2.466 2.7,-3.642 0.121,-0.117 0.239,-0.117 0.239,-0.234 0.704,-0.938 1.29,-1.762 1.994,-2.584 -0.353,-0.117 -0.704,-0.352 -1.056,-0.586 -0.704,-0.589 -1.178,-1.411 -1.53,-2.232 -0.821,-1.763 -1.525,-3.524 -1.995,-5.404 -1.056,-3.877 -1.173,-7.989 -0.704,-11.98 0.47,-4.111 1.761,-8.105 3.525,-11.865 0.117,-0.235 0.352,-0.587 0.47,-0.821 -2.469,3.288 -4.582,6.93 -6.464,10.572 -0.117,0.234 -0.352,0.587 -0.469,0.822 -2.465,5.05 -4.464,10.337 -5.52,15.857 -0.587,2.701 -0.939,5.521 -1.057,8.223 -0.115,1.995 0.119,4.109 0.119,6.106 z"
   id="path4080"
   inkscape:connector-curvature="0"
   style="fill:#b08530" />
	<path
   d="m 748.854,558.399 c 2.234,-0.118 4.346,-0.588 6.345,-1.409 1.409,-0.586 2.703,-1.29 3.876,-2.112 0.236,-0.353 0.471,-0.703 0.705,-0.942 0.938,-1.409 2.229,-2.582 3.524,-3.756 -3.407,0.116 -6.933,0 -10.339,-0.238 -5.755,-0.588 -11.156,-2.23 -16.207,-5.052 -8.81,-4.933 -15.741,-12.685 -20.792,-21.26 -3.877,-6.693 -6.814,-13.979 -8.692,-21.376 -0.939,-3.758 -1.643,-7.401 -2.233,-11.159 -0.235,-1.878 -0.353,-3.76 -0.47,-5.638 -0.117,-0.938 -0.234,-1.762 -0.234,-2.703 0,-0.939 -0.352,-1.878 -0.471,-2.819 0,-0.586 -0.469,-0.704 -0.82,-0.586 -0.47,2.936 -0.704,5.991 -0.938,9.042 -0.471,8.813 0.234,17.741 1.995,26.432 1.29,6.343 3.055,12.564 5.992,18.324 0.587,1.291 1.292,2.464 1.995,3.642 2.116,2.113 3.877,4.464 5.755,6.812 0.943,1.055 1.882,1.997 2.82,2.819 0.587,0.588 1.291,1.057 1.878,1.645 3.759,2.938 7.87,5.519 12.334,7.399 4.347,1.879 9.162,3.291 13.977,2.935 z"
   id="path4082"
   inkscape:connector-curvature="0"
   style="fill:#b08530" />
	<path
   d="m 690.594,335.339 c 0.939,3.642 2.117,7.165 3.525,10.455 2.234,5.05 4.814,9.866 8.34,14.095 1.761,1.997 3.642,3.759 5.637,5.404 1.057,0.822 2.117,1.528 3.173,2.232 0.353,0.235 0.704,0.352 1.057,0.587 1.407,-0.705 2.82,-1.408 4.229,-1.998 3.056,-1.408 6.224,-2.818 9.396,-3.992 v 0 c -0.118,-0.237 -0.118,-0.472 -0.235,-0.589 -0.586,-2.702 -1.524,-5.285 -2.582,-7.869 -1.177,-0.824 -2.468,-1.645 -3.876,-2.468 -3.994,-2.349 -8.458,-4.229 -12.568,-6.458 -4.112,-2.234 -7.989,-4.935 -11.396,-8.105 -2.347,-2.349 -4.815,-5.168 -6.105,-8.34 0.117,0.822 0.234,1.645 0.469,2.467 0.232,1.526 0.584,3.052 0.936,4.579 z"
   id="path4084"
   inkscape:connector-curvature="0"
   style="fill:#b08530" />
	<path
   d="m 703.046,448.104 c 0.704,-3.29 1.174,-6.578 1.525,-9.868 -0.705,1.645 -1.291,3.29 -1.878,4.933 -2.233,6.578 -3.76,13.273 -4.815,20.088 -0.469,2.818 -0.821,5.637 -0.938,8.456 -0.352,3.877 -0.474,7.753 -0.474,11.63 0.122,7.047 0.708,13.979 2.233,20.79 0.353,1.761 0.705,3.407 1.174,5.05 -0.234,-2.23 -0.469,-4.464 -0.704,-6.694 -0.47,-6.813 -0.704,-13.741 0.235,-20.556 0.117,-0.586 0.234,-1.293 0.352,-1.997 0.352,-1.997 0.704,-3.994 1.177,-5.991 -0.234,-1.409 -0.355,-2.819 -0.473,-4.347 -0.235,-3.522 0,-7.165 0.473,-10.688 0.588,-3.641 1.292,-7.165 2.113,-10.806 z"
   id="path4086"
   inkscape:connector-curvature="0"
   style="fill:#b08530" />
	<path
   d="m 693.414,470.891 c 0,-0.821 0.117,-1.527 0.117,-2.231 0.235,-2.35 0.588,-4.698 0.939,-7.047 -0.117,-0.235 -0.117,-0.47 -0.234,-0.824 -0.705,-3.522 -1.291,-7.047 -1.761,-10.688 -0.355,-3.524 -0.591,-7.166 -0.591,-10.806 0,-1.763 0.122,-3.525 0.235,-5.287 0,-0.939 0.121,-1.997 0.238,-2.936 -1.177,2.819 -2.116,5.757 -2.82,8.692 -0.705,2.349 -1.291,4.815 -1.644,7.399 -2.116,12.334 -1.646,25.021 1.174,37.238 0.353,1.526 0.704,3.051 1.174,4.464 0,0.117 0,0.234 0.117,0.352 1.174,3.402 2.703,6.692 3.291,10.218 0.586,1.292 1.056,2.585 1.642,3.76 -0.352,-1.644 -0.704,-3.409 -0.938,-5.169 -1.29,-9.044 -1.642,-18.09 -0.939,-27.135 z"
   id="path4088"
   inkscape:connector-curvature="0"
   style="fill:#b08530" />
	<path
   d="m 686.483,487.452 c -4.816,-13.153 -8.459,-26.898 -8.224,-40.993 0.118,-11.394 2.586,-22.67 7.636,-32.89 0.588,-1.293 1.174,-2.349 1.765,-3.525 0.113,-0.234 0.234,-0.352 0.352,-0.586 0,-1.058 0,-2.232 0.118,-3.407 0.352,-3.523 1.291,-6.93 2.464,-10.218 1.174,-3.291 2.703,-6.578 4.464,-9.633 1.173,-2.231 2.703,-4.229 3.994,-6.341 -0.234,0.235 -0.469,0.469 -0.704,0.704 0,0 0,0.118 -0.118,0.235 -0.938,1.528 -2.115,2.701 -3.289,3.994 -1.056,1.291 -2.112,2.701 -3.173,3.994 -0.939,1.408 -1.995,2.819 -2.816,4.229 -1.057,1.643 -1.999,3.288 -2.821,5.051 -3.407,6.578 -5.754,13.508 -7.752,20.555 -1.761,6.343 -3.404,12.687 -3.99,19.147 -0.592,7.282 -0.122,14.566 1.407,21.613 1.409,7.165 3.525,14.329 6.342,21.142 1.412,3.172 2.82,6.226 4.464,9.281 0.352,0.821 0.821,1.642 1.294,2.464 -0.234,-0.938 -0.473,-1.877 -0.708,-2.816 -0.236,-0.704 -0.47,-1.295 -0.705,-2 z"
   id="path4090"
   inkscape:connector-curvature="0"
   style="fill:#b08530" />
	<path
   d="m 686.364,421.086 c -1.993,5.405 -3.406,10.924 -4.11,16.446 -0.822,6.696 -0.938,13.391 -0.117,20.086 0.352,3.053 0.821,5.991 1.412,8.927 -0.235,-5.285 -0.122,-10.572 0.47,-15.74 0,-0.117 0,-0.117 0,-0.117 0.353,-2.115 0.704,-4.347 1.056,-6.578 0,-0.235 0,-0.47 -0.117,-0.824 -0.352,-2.818 -0.469,-5.754 -0.469,-8.575 0.116,-4.697 0.702,-9.161 1.875,-13.625 z"
   id="path4092"
   inkscape:connector-curvature="0"
   style="fill:#b08530" />
</g>
</svg>