<?xml version="1.0" encoding="UTF-8" standalone="no"?>
<!-- Generator: Adobe Illustrator 16.0.0, SVG Export Plug-In . SVG Version: 6.00 Build 0)  -->

<svg
   xmlns:ns="&amp;ns_sfw;"
   xmlns:dc="http://purl.org/dc/elements/1.1/"
   xmlns:cc="http://creativecommons.org/ns#"
   xmlns:rdf="http://www.w3.org/1999/02/22-rdf-syntax-ns#"
   xmlns:svg="http://www.w3.org/2000/svg"
   xmlns="http://www.w3.org/2000/svg"
   xmlns:sodipodi="http://sodipodi.sourceforge.net/DTD/sodipodi-0.dtd"
   xmlns:inkscape="http://www.inkscape.org/namespaces/inkscape"
   version="1.0"
   id="Layer_1"
   x="0px"
   y="0px"
   width="450"
   height="400"
   viewBox="0 0 450 400"
   enable-background="new 0 0 1400 980"
   xml:space="preserve"
   sodipodi:docname="Armadillo5.svg"
   inkscape:version="0.92.3 (2405546, 2018-03-11)"><defs
   id="defs4861" /><sodipodi:namedview
   pagecolor="#ffffff"
   bordercolor="#666666"
   borderopacity="1"
   objecttolerance="10"
   gridtolerance="10"
   guidetolerance="10"
   inkscape:pageopacity="0"
   inkscape:pageshadow="2"
   inkscape:window-width="2560"
   inkscape:window-height="1395"
   id="namedview4859"
   showgrid="false"
   inkscape:zoom="0.96326531"
   inkscape:cx="262.06967"
   inkscape:cy="473.80624"
   inkscape:window-x="-13"
   inkscape:window-y="-13"
   inkscape:window-maximized="1"
   inkscape:current-layer="g4856" />
<metadata
   id="metadata4746">
	<ns:sfw>
		<ns:slices />
		<ns:sliceSourceBounds
   height="883.218"
   width="1265.103"
   y="-931.609"
   x="67.449"
   bottomLeftOrigin="true" />
	</ns:sfw>
<rdf:RDF><cc:Work
     rdf:about=""><dc:format>image/svg+xml</dc:format><dc:type
       rdf:resource="http://purl.org/dc/dcmitype/StillImage" /><dc:title></dc:title></cc:Work></rdf:RDF></metadata>
<g
   id="g4856"
   transform="translate(0,-580)">
	<path
   d="m 339.56875,724.33285 c -0.704,0 -1.292,0.354 -1.76,0.941 -0.235,0.352 -0.469,0.822 -0.469,1.293 0,1.291 1.056,2.23 2.229,2.23 0.94,0 1.762,-0.47 1.997,-1.291 0.237,-0.234 0.237,-0.587 0.237,-0.939 0,-1.176 -1.059,-2.234 -2.234,-2.234 z"
   id="path4748"
   inkscape:connector-curvature="0"
   style="fill:#ffffff" />
	<path
   d="m 326.52975,821.82785 c -0.352,0 -0.705,0.235 -0.822,0.47 -0.586,0.823 -0.704,1.88 -0.704,2.936 -0.117,1.293 0,2.586 0.234,3.876 0.117,0.941 0.469,2.115 0.352,3.173 0.587,-0.234 1.057,-0.353 1.528,-0.589 0.118,0 0.235,0 0.352,-0.117 v 0 0 0 0 0 c 0.117,0 0.235,-0.118 0.235,-0.118 0.352,-0.117 0.704,-0.234 0.94,-0.469 0.235,-0.118 0.587,-0.235 0.822,-0.47 0,0 0.234,-0.117 0.234,-0.234 v 0 0 h 0.117 c 0.117,-0.117 0.352,-0.469 0.469,-0.469 v 0 c 0,-0.237 0.117,-0.354 0.235,-0.471 0,-0.118 0.117,-0.118 0.117,-0.235 0,0 0,0 0,-0.117 -1.056,-1.173 -1.643,-2.936 -2.349,-4.111 -0.584,-1.058 -1.171,-1.999 -1.76,-3.055 z"
   id="path4750"
   inkscape:connector-curvature="0"
   style="fill:#ffffff" />
	<path
   d="m 320.07175,829.57985 c -0.588,-0.47 -1.058,-0.704 -1.528,-0.234 -0.706,0.706 -0.94,1.879 -1.175,2.82 -0.117,0.469 -0.117,1.056 -0.234,1.525 v 0 c 0.469,0 0.94,0 1.41,-0.117 0.235,0 0.47,0 0.705,0 0.118,-0.117 0.118,-0.117 0.235,-0.117 v 0 c 0,0 0,0 0.117,0 1.058,-0.118 2.114,-0.353 3.172,-0.587 -0.117,-0.117 -0.117,-0.352 -0.235,-0.704 -0.706,-0.824 -1.529,-1.763 -2.467,-2.586 z"
   id="path4752"
   inkscape:connector-curvature="0"
   style="fill:#ffffff" />
	<path
   d="m 301.74675,840.73985 c -1.528,-1.879 -2.819,-3.759 -4.112,-5.874 -0.469,0.704 -1.056,1.41 -1.291,2.114 -0.472,1.173 -0.707,2.349 -0.589,3.524 0,1.409 0.237,2.701 0.707,3.875 0.234,0.94 0.822,1.762 1.291,2.584 0.12,0 0.237,-0.117 0.237,-0.117 0.469,0 0.822,-0.118 1.174,-0.235 0.587,-0.117 1.173,-0.234 1.762,-0.469 -0.118,0 0.587,-0.353 0.704,-0.47 0.118,0 0.824,-0.469 0.587,-0.234 0.354,-0.352 0.823,-0.706 1.175,-1.176 v 0 c 0,0 0,-0.117 0.117,-0.117 0,-0.117 0.118,-0.235 0.235,-0.352 0.117,-0.234 0.117,-0.117 0.234,-0.587 v 0 c -0.822,-0.705 -1.525,-1.644 -2.231,-2.466 z"
   id="path4754"
   inkscape:connector-curvature="0"
   style="fill:#ffffff" />
	<path
   d="m 290.00075,844.26285 c -1.293,0 -1.88,1.176 -2.232,2.466 1.293,0.235 2.701,0.353 3.994,0.353 0.821,0.117 1.525,0.117 2.349,0.117 -1.175,-1.409 -2.466,-2.936 -4.111,-2.936 z"
   id="path4756"
   inkscape:connector-curvature="0"
   style="fill:#ffffff" />
	<path
   d="m 271.55975,947.15985 c -0.354,-1.526 -0.707,-2.938 -1.058,-4.464 -0.352,0.822 -0.704,1.878 -0.941,2.586 -0.47,1.643 -0.939,3.285 -1.174,4.933 -0.235,1.878 0.353,3.994 0.704,5.988 0.824,-0.234 1.645,-0.469 2.469,-0.82 0.235,-0.118 0.47,-0.118 0.705,-0.235 v 0 c 0,0 0.469,-0.234 0.586,-0.234 0.117,-0.117 0.352,-0.352 0.469,-0.352 -0.235,-1.062 -0.469,-2 -0.704,-3.056 -0.351,-1.408 -0.703,-2.938 -1.056,-4.346 z"
   id="path4758"
   inkscape:connector-curvature="0"
   style="fill:#ffffff" />
	<path
   d="m 265.45175,954.56185 c 0,-0.117 -0.118,-0.234 -0.118,-0.353 -0.823,-1.061 -1.763,-2.351 -3.055,-2.82 -1.409,-0.47 -2.467,0.234 -3.171,1.408 -0.587,0.942 -0.941,1.999 -1.059,3.055 -0.117,0.352 -0.117,0.705 -0.117,1.057 1.411,0 2.938,0 4.464,0 1.292,-0.117 2.466,-0.117 3.524,-0.234 -0.234,-0.706 -0.351,-1.41 -0.468,-2.113 z"
   id="path4760"
   inkscape:connector-curvature="0"
   style="fill:#ffffff" />
	<path
   d="m 243.48575,965.95285 c -0.237,-0.471 -0.471,-1.057 -0.706,-1.526 -0.586,-1.761 -1.173,-3.406 -1.643,-5.167 -0.471,-0.234 -0.706,-0.588 -0.94,-0.822 -0.117,0.117 -0.586,0.705 -0.704,1.057 -0.235,0.704 -0.47,1.407 -0.706,2.229 -0.47,1.412 -0.822,2.938 -0.939,4.464 -0.235,1.412 0.352,3.29 0.586,4.934 1.176,-0.235 2.349,-0.471 3.525,-0.822 0.352,0 0.704,-0.117 0.938,-0.353 0.234,0 0.352,0 0.471,-0.117 v 0 0 c 0,0 0,0 0.117,0 0.117,-0.117 0.353,-0.234 0.587,-0.352 0.118,-0.117 0.118,-0.117 0.118,-0.117 0,0 0.117,0 0.117,-0.118 0.118,-0.117 0.235,-0.234 0.353,-0.352 v 0 -0.118 0 c 0.117,0 0.117,-0.116 0.117,-0.116 0,-0.118 0.117,-0.354 0.117,-0.471 -0.117,-0.234 -0.234,-0.352 -0.352,-0.586 -0.352,-0.587 -0.821,-1.061 -1.056,-1.647 z"
   id="path4762"
   inkscape:connector-curvature="0"
   style="fill:#ffffff" />
	<path
   d="m 234.32275,969.00785 c -0.353,-0.235 -0.587,-0.587 -0.939,-0.822 -0.117,0 -0.117,0 -0.235,-0.117 v 0.117 c -1.056,0.353 -1.527,1.878 -1.997,3.29 0.353,0 0.587,0 0.941,0 1.056,-0.116 2.112,-0.116 3.288,-0.116 -0.234,-0.592 -0.352,-1.061 -0.469,-1.647 -0.235,-0.235 -0.472,-0.471 -0.589,-0.705 z"
   id="path4764"
   inkscape:connector-curvature="0"
   style="fill:#ffffff" />
	<path
   d="m 331.34775,677.93585 c -0.706,-2.583 -1.762,-5.167 -2.701,-7.634 -2.116,-4.933 -4.346,-9.868 -6.226,-14.918 -1.997,-4.933 -3.407,-9.985 -3.759,-15.388 -0.235,-2.583 -0.235,-5.167 -0.235,-7.871 0.117,-2.584 0.117,-5.285 0.352,-7.869 0,-0.117 0,-0.117 0,-0.117 -0.117,0.822 -0.235,1.645 -0.352,2.349 -0.706,5.05 -1.762,9.983 -2.701,14.918 -0.235,1.174 -0.472,2.349 -0.706,3.64 -2.232,12.569 -2.349,26.077 3.642,37.824 0.117,0.235 0.235,0.352 0.235,0.587 0.352,0.117 0.704,0.117 1.058,0.234 4.109,0.704 7.869,1.997 11.628,3.76 0,-0.117 0,-0.235 0,-0.353 0.353,-1.41 0.822,-2.938 1.173,-4.346 0,-0.117 0,-0.354 0,-0.471 -0.352,-1.524 -0.939,-2.935 -1.408,-4.345 z"
   id="path4766"
   inkscape:connector-curvature="0"
   style="fill:#b08530" />
	<path
   d="m 325.00475,784.94485 c 0,-0.47 -0.117,-0.939 -0.117,-1.409 -1.528,0 -2.938,0 -4.347,-0.12 0,0.354 -0.117,0.589 0,0.941 0,1.291 0,2.467 -0.117,3.759 0,2.584 -0.117,5.168 -0.469,7.751 -0.117,1.176 -0.237,2.232 -0.471,3.29 0.117,0 0.117,0.118 0.234,0.235 0.471,0.704 0.706,1.526 1.058,2.349 0.47,1.056 0.939,2.115 1.409,3.171 0.471,0.94 1.058,1.997 1.527,2.938 0.117,-0.823 0.352,-1.527 0.471,-2.349 0.587,-2.703 0.939,-5.521 1.056,-8.223 0.235,-2.82 0.235,-5.522 0.117,-8.34 -0.117,-1.292 -0.234,-2.7 -0.351,-3.993 z"
   id="path4768"
   inkscape:connector-curvature="0"
   style="fill:#b08530" />
	<path
   d="m 307.26775,838.38885 c -0.234,0.706 -0.352,1.41 -0.706,1.997 0.354,0.354 0.706,0.706 0.941,1.175 0.704,1.174 0.234,2.349 -0.705,2.584 0,0.47 -0.117,0.824 -0.236,1.293 -0.469,1.409 -1.291,2.466 -2.467,3.288 -1.525,1.175 -3.288,1.762 -5.167,2.114 -1.293,3.995 -3.056,7.872 -4.815,11.631 -5.287,11.159 -11.748,21.731 -19.381,31.361 -0.235,0.939 -0.352,1.76 -0.587,2.7 0.47,-0.587 0.822,-1.174 1.291,-1.76 1.88,-2.699 3.877,-5.402 5.874,-8.105 3.877,-5.285 7.753,-10.571 11.394,-16.092 3.642,-5.402 7.282,-10.924 10.572,-16.561 1.762,-2.938 3.524,-5.874 5.167,-8.81 1.176,-2.232 2.231,-4.463 3.408,-6.578 -0.941,0 -1.997,-0.118 -2.938,-0.118 -0.589,0.001 -1.176,-0.119 -1.645,-0.119 z"
   id="path4770"
   inkscape:connector-curvature="0"
   style="fill:#b08530" />
	<path
   d="m 281.42575,799.62785 c 1.762,-2.114 3.525,-4.346 5.05,-6.695 4.229,-6.108 7.519,-12.921 9.75,-19.968 5.872,-18.208 6.226,-40.291 -5.991,-56.148 -4.463,-5.874 -10.572,-10.455 -17.267,-13.391 -0.704,0.47 -1.291,0 -1.528,-0.586 -2.114,-0.824 -4.346,-1.528 -6.578,-1.998 1.762,1.644 3.524,3.288 5.17,5.05 4.581,4.815 8.81,10.103 11.746,15.975 3.055,5.991 5.167,12.452 5.991,19.029 1.88,13.156 -0.352,26.312 -5.756,38.294 -5.167,11.159 -12.803,21.611 -22.2,29.6 -4.463,3.877 -9.396,7.399 -14.801,9.868 -2.701,1.173 -5.52,2.349 -8.456,2.936 -1.176,0.353 -2.351,0.47 -3.642,0.704 3.405,0.941 6.813,1.762 10.335,2.115 2.586,0.235 5.287,0.352 7.753,-0.235 1.176,-0.235 2.349,-0.587 3.525,-0.939 1.877,-1.997 4.228,-3.524 6.46,-5.17 2.349,-1.762 4.815,-3.64 7.165,-5.52 4.816,-3.876 9.28,-8.105 13.274,-12.921 z"
   id="path4772"
   inkscape:connector-curvature="0"
   style="fill:#b08530" />
	<path
   d="m 253.35175,636.94285 c 0.941,2.349 1.998,4.815 3.054,7.165 1.999,4.816 4.111,9.514 6.462,14.212 4.698,8.927 10.101,17.502 17.148,24.669 -1.291,-2.469 -2.584,-5.053 -3.64,-7.636 -1.997,-4.581 -3.173,-9.279 -3.994,-14.095 -0.117,-0.94 -0.235,-1.997 -0.352,-3.055 0,0 0,-0.118 0,-0.235 -0.235,-0.234 -0.589,-0.469 -0.824,-0.704 -1.173,-1.176 -2.232,-2.467 -3.171,-3.877 -1.762,-2.818 -3.29,-5.871 -5.05,-8.692 -1.88,-2.819 -3.994,-5.402 -6.108,-7.869 -1.528,-1.645 -2.819,-3.408 -3.995,-5.17 -0.704,-0.117 -1.293,-0.352 -1.997,-0.587 0.704,1.293 1.174,2.702 1.763,3.995 0.234,0.586 0.469,1.29 0.704,1.879 z"
   id="path4774"
   inkscape:connector-curvature="0"
   style="fill:#b08530" />
	<path
   d="m 231.50375,825.58785 c -4.581,-1.41 -8.927,-3.055 -13.273,-5.052 -1.292,-0.469 -2.466,-1.056 -3.759,-1.643 -3.875,1.291 -7.869,1.995 -12.098,1.995 -2.466,-0.118 -4.815,-0.587 -7.165,-1.291 -2.349,-0.822 -4.583,-2.115 -6.93,-3.291 -0.236,-0.117 -0.471,-0.117 -0.588,0 0.706,0.589 1.41,1.059 2.115,1.528 2.466,1.763 5.167,3.525 7.871,5.169 8.105,4.816 16.796,8.69 26.194,10.218 5.754,0.941 11.862,1.176 17.502,-0.704 2.936,-0.941 5.637,-2.232 8.223,-3.877 0.469,-0.352 1.056,-0.704 1.643,-1.173 -1.643,0.352 -3.288,0.586 -4.816,0.586 -5.051,0.236 -10.104,-1.057 -14.919,-2.465 z"
   id="path4776"
   inkscape:connector-curvature="0"
   style="fill:#b08530" />
	<path
   d="m 219.17075,836.03985 c -1.175,-0.235 -2.351,-0.587 -3.407,-0.939 -3.876,3.288 -9.631,3.76 -14.566,3.994 -3.17,0.117 -6.343,-0.117 -9.396,-0.706 -2.349,-0.353 -4.933,-0.821 -7.047,-1.995 -0.353,-0.117 -0.705,0.117 -0.705,0.469 1.174,0.705 2.467,1.408 3.757,1.998 1.41,0.821 2.818,1.525 4.347,2.231 8.574,4.111 17.854,7.282 27.37,7.517 0.469,-0.235 1.173,-0.235 1.643,0 4.581,0 9.516,-0.821 13.51,-3.288 2.231,-1.292 4.109,-3.055 5.754,-5.169 1.059,-1.291 1.88,-2.701 2.818,-4.229 -3.639,1.176 -7.517,1.879 -11.511,1.762 -4.228,0 -8.455,-0.586 -12.567,-1.645 z"
   id="path4778"
   inkscape:connector-curvature="0"
   style="fill:#b08530" />
	<path
   d="m 235.73175,889.95585 c -1.173,-2.82 -2.818,-5.52 -3.64,-8.457 -0.823,0.469 -1.763,0.821 -2.585,0.821 -0.587,0.352 -1.292,0.587 -1.998,0.938 0.472,0.474 0.823,1.061 1.058,1.647 0.704,1.291 1.291,2.582 1.645,3.994 0.938,2.817 1.525,5.873 1.644,8.81 0.117,6.107 -1.057,12.1 -3.523,17.502 -4.698,10.805 -14.097,18.323 -24.669,22.904 -5.285,2.234 -10.804,3.994 -16.443,5.167 -2.466,0.588 -5.05,0.939 -7.517,1.175 5.402,0.825 10.921,0.708 16.326,-0.118 1.176,-0.234 2.349,-0.469 3.525,-0.704 0,-0.116 0.117,-0.353 0.352,-0.47 0.586,-0.586 1.173,-0.469 1.645,0 3.757,-0.938 7.399,-2.112 10.922,-3.758 10.337,-4.815 21.026,-13.038 25.021,-24.313 1.762,-5.285 2.115,-10.926 0.938,-16.329 -0.586,-3.055 -1.525,-5.988 -2.701,-8.809 z"
   id="path4780"
   inkscape:connector-curvature="0"
   style="fill:#b08530" />
	<path
   d="m 196.26475,862.82285 c 5.992,1.878 12.452,3.875 18.913,4.581 3.17,0.352 6.343,0.469 9.514,0.118 4.229,-0.469 8.457,-1.88 11.275,-5.287 1.646,-2.115 2.467,-4.698 2.467,-7.399 0.117,-2.583 -0.235,-5.05 -0.469,-7.517 -3.17,2.232 -6.813,3.64 -10.806,4.346 -1.763,0.235 -3.641,0.353 -5.403,0.47 -1.176,0 -2.349,0 -3.408,-0.117 -0.117,0.469 -0.352,0.938 -0.586,1.291 -0.586,1.058 -1.41,1.997 -2.466,2.701 -2.584,1.762 -5.756,2.586 -8.81,3.172 -3.408,0.587 -6.813,0.705 -10.103,0.822 -1.528,0 -3.054,0 -4.581,0 -0.939,0 -2.231,-0.234 -3.288,0.117 2.466,0.941 4.933,1.763 7.399,2.586 0.117,-10e-4 0.235,-10e-4 0.352,0.116 z"
   id="path4782"
   inkscape:connector-curvature="0"
   style="fill:#b08530" />
	<path
   d="m 188.74775,880.09085 c 2.349,0.469 4.698,0.821 7.048,1.173 4.463,0.588 8.927,0.939 13.391,1.057 3.524,0.118 7.047,0 10.572,-0.704 1.762,-0.353 3.524,-0.705 5.285,-1.292 1.645,-0.586 3.172,-1.291 4.933,-1.529 0.236,0 0.354,0 0.588,0 0.235,-0.117 0.469,-0.353 0.586,-0.47 1.176,-1.056 2.232,-2.113 3.054,-3.403 0.824,-1.413 1.527,-2.82 1.879,-4.466 0.235,-1.173 0.118,-2.349 0.118,-3.522 -2.466,1.877 -5.402,3.17 -8.575,3.756 -3.875,0.707 -7.751,0.707 -11.746,0.235 -1.056,-0.117 -2.232,-0.353 -3.407,-0.47 -0.352,0.47 -0.705,0.824 -1.057,1.293 -1.056,1.173 -2.231,2.232 -3.642,3.056 -2.936,1.877 -6.341,2.816 -9.866,3.403 -5.639,0.943 -11.748,0.943 -17.619,0.117 2.819,0.709 5.638,1.296 8.458,1.766 z"
   id="path4784"
   inkscape:connector-curvature="0"
   style="fill:#b08530" />
	<path
   d="m 163.25775,792.58085 c 3.525,5.05 7.871,9.514 12.334,13.743 3.757,3.525 7.869,6.93 12.098,9.983 0.117,-0.117 0.352,-0.117 0.588,0 2.347,1.176 4.581,2.469 6.93,3.291 2.35,0.704 4.699,1.173 7.165,1.291 4.229,0 8.223,-0.704 12.098,-1.995 -3.875,-1.997 -7.752,-4.111 -11.511,-6.578 -11.041,-7.167 -21.496,-15.977 -29.717,-26.312 -6.226,-7.988 -12.217,-16.915 -14.331,-26.783 -0.118,0.117 -0.118,0.235 -0.118,0.352 -1.29,3.524 -2.231,7.167 -2.466,10.809 -0.117,2.23 -0.117,4.347 0.235,6.458 0.941,5.755 3.408,11.043 6.695,15.741 z"
   id="path4786"
   inkscape:connector-curvature="0"
   style="fill:#d49a26" />
	<path
   d="m 224.80875,884.08485 c -2.114,0.586 -4.112,1.056 -6.226,1.29 -1.173,0.235 -2.466,0.352 -3.64,0.352 0.235,4.464 -0.588,8.693 -2.586,12.687 -1.995,4.111 -5.05,7.636 -8.456,10.688 -3.524,3.055 -7.519,5.641 -11.747,7.753 -4.229,2.234 -8.811,3.994 -13.509,5.05 -11.041,2.586 -22.552,0.235 -31.596,-6.693 -4.7,-3.642 -8.692,-8.105 -11.865,-13.155 -1.409,-2.117 -2.584,-4.464 -3.64,-6.815 0.705,3.995 1.76,7.871 3.171,11.631 0.823,2.229 1.762,4.581 2.818,6.811 0.352,0.235 0.469,0.591 0.469,0.943 0.354,0.586 0.706,1.173 1.059,1.761 0.47,1.056 1.058,1.998 1.645,2.938 1.056,1.173 1.998,2.464 3.053,3.759 1.176,1.292 2.701,2.464 3.877,3.756 1.292,1.294 2.584,2.703 3.877,3.876 5.167,4.698 11.159,8.576 17.619,11.044 0.47,0 0.822,0 1.291,0 1.528,0.117 3.055,0.117 4.583,0 2.936,-0.117 5.988,-0.469 8.927,-1.057 4.581,-0.942 9.162,-2.115 13.625,-3.759 10.569,-3.643 21.024,-9.87 26.663,-20.088 5.52,-9.983 6.695,-22.669 1.645,-33.123 -0.353,0.116 -0.705,0.233 -1.057,0.351 z"
   id="path4788"
   inkscape:connector-curvature="0"
   style="fill:#d49a26" />
	<path
   d="m 160.43975,819.94785 c 7.165,6.46 15.153,12.217 23.61,16.915 0,-0.352 0.352,-0.586 0.705,-0.469 2.114,1.174 4.698,1.643 7.047,1.995 3.053,0.589 6.226,0.823 9.396,0.706 4.935,-0.234 10.69,-0.706 14.566,-3.994 -0.586,-0.234 -1.173,-0.352 -1.762,-0.586 -12.098,-3.995 -23.139,-10.924 -33.007,-18.913 -4.581,-3.759 -8.809,-7.751 -12.921,-11.98 -4.346,-4.581 -8.34,-9.516 -11.159,-15.153 -2.114,-4.463 -3.64,-9.396 -3.876,-14.331 -0.469,0.707 -1.056,1.527 -1.525,2.232 -1.059,1.41 -2.115,2.938 -2.938,4.581 -1.643,2.938 -2.818,5.991 -3.405,9.281 -0.352,2.701 -0.235,5.402 0.234,7.986 1.879,8.575 8.575,15.976 15.035,21.73 z"
   id="path4790"
   inkscape:connector-curvature="0"
   style="fill:#d49a26" />
	<path
   d="m 397.00975,731.85185 c -1.411,-0.352 -2.82,-0.704 -4.347,-1.056 -3.994,-1.175 -7.871,-2.703 -11.63,-4.7 -4.815,-2.466 -9.279,-5.52 -13.625,-8.575 -9.045,-6.343 -16.796,-14.095 -25.96,-20.203 -3.053,-2.115 -6.226,-4.229 -9.631,-5.872 -1.997,-1.059 -4.111,-1.997 -6.226,-2.703 -5.05,-1.644 -10.22,-2.466 -15.387,-2.232 0.117,0.588 0.234,1.176 0.352,1.762 0.824,3.29 1.528,6.578 1.998,9.866 0.117,0.824 0.117,1.528 0.234,2.351 5.521,1.761 11.042,3.406 16.329,5.872 5.754,2.703 11.042,6.108 16.092,9.985 9.631,7.399 19.264,16.326 31.362,19.146 7.166,1.644 14.213,0 21.143,-1.997 0.705,-0.237 1.059,-0.706 1.293,-1.175 -0.707,-0.234 -1.411,-0.352 -1.997,-0.469 z"
   id="path4792"
   inkscape:connector-curvature="0"
   style="fill:#d49a26" />
	<path
   d="m 322.42075,655.38385 c 1.88,5.05 4.109,9.985 6.226,14.918 0.939,2.466 1.995,5.05 2.701,7.634 0.47,1.411 1.057,2.821 1.408,4.347 2.821,-12.567 2.584,-25.84 0.118,-38.527 -1.174,-6.225 -2.936,-12.451 -5.52,-18.206 -1.293,-3.172 -2.936,-5.991 -4.698,-8.81 -1.059,-1.527 -1.998,-2.938 -3.055,-4.346 0,-0.118 -0.117,-0.237 -0.234,-0.237 0,0.119 0.117,0.237 0.117,0.354 0,1.643 0,3.288 -0.117,4.815 0,2.349 -0.235,4.581 -0.587,6.813 0,0 0,0 0,0.117 -0.235,2.584 -0.235,5.285 -0.352,7.869 0,2.704 0,5.288 0.235,7.871 0.351,5.403 1.761,10.455 3.758,15.388 z"
   id="path4794"
   inkscape:connector-curvature="0"
   style="fill:#d49a26" />
	<path
   d="m 282.36475,646.45685 c -4.346,-3.759 -9.162,-6.93 -14.33,-9.514 -2.938,-1.41 -5.991,-2.701 -9.162,-3.642 -1.997,-0.586 -3.994,-1.058 -5.991,-1.645 1.176,1.762 2.467,3.525 3.995,5.17 2.114,2.466 4.228,5.05 6.108,7.869 1.761,2.821 3.288,5.874 5.05,8.692 0.939,1.411 1.998,2.701 3.171,3.877 0.234,0.234 0.589,0.469 0.824,0.704 0.117,-0.469 0.704,-0.822 1.173,-0.939 1.176,0 2.115,0.939 2.938,1.525 1.057,0.707 2.112,1.411 3.171,2.117 2.114,1.526 4.228,3.171 6.225,4.816 4.347,3.405 8.34,7.165 11.98,11.276 1.997,2.232 3.877,4.581 5.639,7.047 1.174,-0.235 2.349,-0.352 3.525,-0.587 -1.058,-3.29 -2.468,-6.578 -3.994,-9.75 -4.815,-10.218 -11.748,-19.617 -20.322,-27.016 z"
   id="path4796"
   inkscape:connector-curvature="0"
   style="fill:#d49a26" />
	<path
   d="m 304.09475,754.63885 c 0,0 0.118,0.117 0.235,0.117 0,-0.587 0,-1.174 0,-1.761 -0.704,0.119 -0.939,1.175 -0.235,1.644 z"
   id="path4798"
   inkscape:connector-curvature="0"
   style="fill:#d49a26" />
	<path
   d="m 292.58475,698.02185 c -1.997,-1.291 -4.112,-2.701 -5.991,-4.227 -1.997,1.173 -3.757,2.349 -5.637,3.64 -1.527,1.175 -3.055,2.349 -4.581,3.524 3.288,1.526 6.46,3.406 9.279,5.637 0.705,0.472 1.292,1.059 1.88,1.528 0.235,-0.117 0.587,-0.352 0.821,-0.586 1.176,-0.587 2.232,-1.293 3.408,-1.88 2.466,-1.293 4.815,-2.232 7.517,-2.936 0.234,-0.117 0.586,-0.236 0.704,-0.588 -0.939,-0.47 -1.877,-0.939 -2.818,-1.409 -1.529,-0.823 -3.055,-1.762 -4.582,-2.703 z"
   id="path4800"
   inkscape:connector-curvature="0"
   style="fill:#d49a26" />
	<path
   d="m 271.91275,712.46985 c -3.76,-4.581 -8.106,-8.692 -12.569,-12.569 -5.05,-0.587 -10.22,-0.47 -15.271,0.354 -0.704,0.352 -1.41,0.704 -2.232,0.939 -1.762,0.586 -3.407,1.173 -5.05,1.762 -3.525,1.173 -7.049,2.349 -10.572,3.64 -12.804,4.935 -25.373,10.925 -36.884,18.444 -5.52,3.757 -11.042,7.869 -16.092,12.332 -2.467,2.116 -4.818,4.346 -6.93,6.814 -0.472,0.47 -0.823,1.056 -1.292,1.525 -1.528,2.586 -2.232,5.404 -2.349,8.341 0,3.173 0.704,6.226 1.408,9.278 0.471,1.88 1.058,3.643 1.527,5.405 1.997,3.757 4.464,7.399 7.047,10.807 6.578,8.457 14.097,16.091 22.554,22.787 9.631,7.636 20.438,13.625 31.949,17.971 0.94,0.235 1.762,0.587 2.701,0.941 1.292,-0.354 2.703,-0.706 3.994,-1.175 11.63,-3.523 21.73,-10.101 29.954,-19.028 8.575,-9.281 15.623,-20.439 19.147,-32.654 3.64,-12.687 3.758,-26.194 -0.941,-38.646 -2.348,-6.344 -5.754,-12.098 -10.099,-17.268 z"
   id="path4802"
   inkscape:connector-curvature="0"
   style="fill:#d49a26" />
	<path
   d="m 140.11975,826.99585 c 2.349,5.052 6.106,9.164 10.335,12.569 4.464,3.524 9.633,6.225 13.625,10.22 1.645,0.586 3.173,1.408 4.7,1.997 3.054,1.408 5.99,2.701 9.045,3.992 3.522,1.528 7.165,3.056 10.689,4.346 1.057,-0.352 2.349,-0.117 3.288,-0.117 1.527,0 3.053,0 4.581,0 3.29,-0.117 6.695,-0.234 10.103,-0.822 3.053,-0.586 6.226,-1.41 8.81,-3.172 1.056,-0.704 1.88,-1.643 2.466,-2.701 0.235,-0.352 0.469,-0.821 0.586,-1.291 -7.986,-0.353 -15.974,-2.702 -23.256,-5.874 -10.807,-4.463 -20.792,-10.807 -29.954,-17.972 -8.81,-6.812 -18.443,-15.153 -22.083,-26.076 -1.88,3.524 -3.759,7.047 -4.581,11.041 -0.823,4.581 -0.352,9.396 1.646,13.625 0,0.118 0,0.118 0,0.235 z"
   id="path4804"
   inkscape:connector-curvature="0"
   style="fill:#d49a26" />
	<path
   d="m 139.64775,855.06985 c 1.292,2.349 3.172,4.463 4.346,6.813 2.701,2.349 5.521,4.229 8.692,5.991 8.575,4.699 17.973,8.105 27.604,10.453 5.871,0.826 11.98,0.826 17.619,-0.117 3.525,-0.587 6.93,-1.525 9.866,-3.403 1.411,-0.824 2.586,-1.882 3.642,-3.056 0.352,-0.469 0.705,-0.823 1.057,-1.293 -4.464,-0.821 -8.928,-1.997 -13.039,-3.288 -6.93,-2.115 -13.625,-4.698 -20.204,-7.519 -3.405,-1.526 -6.812,-3.17 -10.217,-4.698 -3.056,-1.527 -6.46,-2.936 -8.927,-5.285 -4.583,-2.115 -8.693,-5.169 -12.452,-8.34 -3.759,-3.173 -7.047,-6.813 -9.396,-11.159 -0.237,0.821 -0.589,1.645 -0.94,2.349 -0.587,1.408 -0.939,2.818 -1.292,4.346 -0.469,3.054 -0.352,6.226 0.352,9.279 0.588,3.053 1.764,6.109 3.289,8.927 z"
   id="path4806"
   inkscape:connector-curvature="0"
   style="fill:#d49a26" />
	<path
   d="m 135.89075,896.77085 c 2.349,4.228 5.167,7.984 8.458,11.391 5.637,5.638 12.919,10.101 21.025,11.044 10.923,1.29 22.2,-2.939 31.244,-8.927 8.34,-5.641 15.74,-13.981 16.329,-24.435 -2.466,0.117 -4.935,0 -7.402,-0.117 -13.742,-0.938 -27.602,-3.407 -40.406,-8.692 -5.287,-2.112 -10.689,-4.346 -15.504,-7.399 -4.229,-2.701 -8.811,-6.108 -10.925,-10.807 -0.706,-1.059 -1.175,-2.115 -1.762,-3.056 -0.587,-1.056 -1.056,-2.231 -1.528,-3.288 v 0 c -1.88,5.874 -3.64,11.628 -4.463,17.736 -0.469,4.345 -0.704,8.691 -0.586,12.919 0.94,2.117 1.527,4.347 2.349,6.463 0.819,2.47 1.878,4.934 3.171,7.168 z"
   id="path4808"
   inkscape:connector-curvature="0"
   style="fill:#d49a26" />
	<path
   d="m 434.47975,733.84885 c -6.461,0.352 -13.156,0.352 -19.616,0 -5.287,-0.353 -10.689,-0.589 -15.857,-1.528 -0.234,0.469 -0.588,0.938 -1.293,1.175 -6.93,1.997 -13.977,3.641 -21.143,1.997 -12.098,-2.82 -21.731,-11.747 -31.362,-19.146 -5.05,-3.877 -10.337,-7.282 -16.092,-9.985 -5.287,-2.466 -10.807,-4.111 -16.329,-5.872 0.117,1.526 0.235,3.171 0.235,4.699 0,0.234 -0.118,0.469 -0.352,0.586 -0.117,0.821 -0.821,1.528 -1.763,1.176 -3.522,-1.059 -6.813,-2.821 -10.101,-4.346 -0.234,-0.119 -0.588,-0.354 -0.823,-0.471 -0.117,0.352 -0.469,0.471 -0.704,0.588 -2.702,0.704 -5.051,1.643 -7.517,2.936 -1.176,0.587 -2.231,1.293 -3.408,1.88 -0.234,0.234 -0.586,0.469 -0.821,0.586 2.467,2.232 4.816,4.581 6.813,7.282 7.988,10.807 10.689,24.317 9.983,37.589 0.117,0 0.234,0 0.352,0.118 5.287,1.643 10.337,3.757 15.506,5.402 5.285,1.763 10.57,3.173 15.975,4.229 10.924,2.232 21.965,3.29 33.125,3.055 12.686,-0.237 25.373,-2.233 37.47,-6.462 5.756,-1.995 11.628,-4.346 16.68,-7.986 2.232,-1.528 4.347,-3.408 6.109,-5.64 1.76,-2.231 3.053,-4.698 4.346,-7.282 0.235,-0.469 0.587,-0.704 1.056,-0.823 0,-1.29 -0.117,-2.583 -0.469,-3.757 z m -92.208,6.226 v 0 c -3.525,1.291 -7.753,0.118 -10.689,-2.231 -3.994,-3.525 -5.404,-10.22 -1.176,-13.979 0.235,-0.234 0.469,-0.353 0.706,-0.47 0.353,-0.352 0.822,-0.586 1.292,-0.821 1.645,-0.706 3.29,-0.941 5.052,-0.587 4.464,0.587 8.81,3.992 9.631,8.573 0.821,4.111 -0.587,8.105 -4.816,9.515 z"
   id="path4810"
   inkscape:connector-curvature="0"
   style="fill:#f5be4e" />
	<path
   d="m 322.42075,813.48785 c -1.293,-2.584 -2.466,-5.168 -3.524,-7.751 -0.118,-0.472 -0.353,-1.058 -0.587,-1.528 -0.706,2.115 -1.645,4.111 -2.583,6.109 -0.235,0.469 -0.94,0.117 -0.823,-0.352 0.823,-2.352 1.175,-4.935 1.41,-7.401 0.117,-1.763 0.352,-3.523 0.47,-5.285 -0.118,-0.117 -0.235,-0.117 -0.353,-0.352 -0.821,-0.941 -1.527,-1.645 -2.701,-1.528 -0.941,0.117 -2.231,0.939 -3.173,1.646 -2.349,1.525 -4.581,3.875 -6.108,5.989 -2.466,3.407 -4.464,7.049 -5.754,11.161 -0.705,2.349 -1.176,4.815 -1.528,7.282 -0.234,1.173 -0.352,2.232 -0.47,3.405 1.056,2.232 2.232,4.581 3.523,6.813 1.176,0.119 2.468,0.941 3.525,1.293 0.352,0.117 0.587,0.234 0.939,0.352 0.236,-0.469 0.354,-0.821 0.588,-1.173 0.469,-1.176 1.056,-2.232 1.527,-3.29 0.47,-1.056 0.822,-2.232 1.643,-2.937 0.352,-0.234 1.059,-0.234 1.176,0.353 0.118,1.059 -0.234,1.997 -0.589,2.936 -0.469,1.176 -0.939,2.232 -1.408,3.408 -0.117,0.469 -0.234,0.822 -0.469,1.173 0.117,0 0.117,0.118 0.117,0.118 0.704,0 1.408,0 2.115,0 1.525,0.117 3.053,0.117 4.581,0 0.117,-1.291 0.587,-2.701 0.939,-3.64 0.469,-1.41 1.175,-3.055 2.701,-3.525 1.645,-0.586 3.172,0.235 4.463,1.528 -0.117,-1.645 -0.234,-3.29 0.118,-4.933 0.236,-1.41 1.058,-2.82 2.351,-3.524 0.234,-0.117 0.586,-0.117 0.938,-0.234 -1.056,-1.88 -1.998,-3.877 -2.936,-5.874 -10e-4,-0.004 -0.118,-0.121 -0.118,-0.239 z"
   id="path4812"
   inkscape:connector-curvature="0"
   style="fill:#f5be4e" />
	<path
   d="m 293.99475,828.17085 c -2.232,-4.698 -3.994,-9.513 -5.287,-14.565 -1.762,-0.939 -4.581,0.352 -5.991,1.175 -2.23,1.174 -4.581,2.701 -6.458,4.111 -2.821,2.232 -5.17,5.285 -6.932,8.458 -1.057,1.76 -1.995,3.522 -2.584,5.519 -0.47,1.411 -0.705,3.408 -1.88,4.581 0.471,0.586 0.94,1.293 1.528,1.762 0.352,0.353 0.587,0.705 0.941,1.056 v 0 0 c 0.117,0 0.352,0.237 0.469,0.237 0.117,0.117 0.234,0.235 0.469,0.352 0.704,0.353 1.528,0.822 2.349,1.174 v 0 0 0 0 c 0.117,0 0.352,0.118 0.469,0.118 0.118,0.117 0.352,0.117 0.472,0.234 0.705,0.234 0.47,0.234 1.056,0.471 0.821,0.235 1.527,0.586 2.349,0.822 1.762,0.586 3.642,1.173 5.521,1.645 1.292,0.352 2.701,0.587 3.993,0.939 0.706,-2.583 2.701,-5.05 5.404,-4.815 1.173,0.117 2.349,0.705 3.405,1.527 -0.118,-0.94 -0.235,-1.879 -0.235,-2.703 0.235,-2.466 1.293,-5.872 3.525,-7.282 -0.234,-0.235 -0.352,-0.469 -0.47,-0.821 -0.705,-1.294 -1.409,-2.586 -2.113,-3.995 z"
   id="path4814"
   inkscape:connector-curvature="0"
   style="fill:#f5be4e" />
	<path
   d="m 282.59975,683.22285 c 0.706,1.409 1.41,2.818 2.234,4.229 0.821,0.821 1.643,1.525 2.583,2.231 0.938,0.704 1.879,1.408 2.818,2.115 1.291,0.939 2.584,1.877 3.994,2.701 4.815,3.171 10.101,5.522 15.036,8.223 -1.293,-5.404 -3.76,-10.572 -6.93,-15.27 -0.707,-1.058 -1.411,-1.997 -2.117,-2.938 -1.408,-1.995 -3.053,-3.875 -4.581,-5.755 -3.522,-3.876 -7.399,-7.518 -11.393,-10.923 -1.88,-1.646 -3.875,-3.291 -5.992,-4.698 -1.056,-0.823 -1.995,-1.528 -3.053,-2.35 -0.235,-0.117 -0.469,-0.234 -0.704,-0.354 0.469,5.053 2.231,10.22 4.229,14.801 1.057,2.701 2.349,5.404 3.876,7.988 z"
   id="path4816"
   inkscape:connector-curvature="0"
   style="fill:#f5be4e" />
	<path
   d="m 265.33375,842.61785 c -1.763,-1.643 -3.29,-3.757 -4.229,-5.989 -1.292,-2.703 -2.583,-5.874 -2.466,-9.044 0,-0.234 0.117,-0.471 0.353,-0.706 l -0.587,-0.235 c -0.588,0.587 -1.292,1.293 -1.999,1.88 -0.117,0.704 -0.235,1.293 -0.235,1.997 -0.235,1.998 -0.47,4.112 -0.47,6.109 0.118,3.522 0.47,7.165 2.232,10.335 1.528,2.703 3.995,4.463 7.165,4.581 2.117,0.119 4.229,-0.235 6.343,-0.822 1.411,-0.469 2.821,-0.938 4.111,-1.527 0.472,-0.235 0.941,-0.469 1.293,-0.704 -1.293,-0.353 -2.466,-0.821 -3.76,-1.293 -2.701,-1.174 -5.519,-2.467 -7.751,-4.582 z"
   id="path4818"
   inkscape:connector-curvature="0"
   style="fill:#f5be4e" />
	<path
   d="m 267.80075,923.31685 c 0,-0.708 -0.117,-1.412 -0.117,-2.117 -0.706,0.939 -1.293,1.526 -1.528,1.765 -2.231,2.464 -4.815,4.698 -7.634,6.576 -5.287,3.759 -11.278,6.223 -17.739,6.931 0,1.995 0.12,3.877 0.354,5.754 0.47,4.581 1.409,9.044 2.702,13.508 0.117,0 0.234,0 0.352,0 0.821,0.234 1.645,0.353 2.583,0.588 0.822,0.117 1.41,0.234 2.232,0.234 1.176,0.117 2.232,0.234 3.29,0.234 0.938,0.117 1.879,0.117 2.818,0.117 -0.117,-0.821 0.117,-1.761 0.235,-2.581 0.234,-1.413 0.939,-2.704 1.88,-3.761 1.292,-1.646 3.288,-2.586 5.402,-1.999 0.94,0.353 1.88,0.943 2.703,1.647 0.235,-2.703 0.939,-5.168 2.115,-7.636 0.469,-1.055 1.291,-2.586 2.466,-3.055 0,-0.117 0,-0.117 0,-0.234 -1.058,-5.283 -1.763,-10.568 -2.114,-15.971 z"
   id="path4820"
   inkscape:connector-curvature="0"
   style="fill:#f5be4e" />
	<path
   d="m 237.37775,940.58385 c -0.117,0.117 -0.235,0.117 -0.235,0.235 -0.704,0.352 -1.411,0.822 -2.114,1.173 -1.411,0.938 -2.936,1.761 -4.464,2.465 -2.938,1.528 -5.991,2.938 -9.281,3.994 -3.171,0.942 -6.458,1.646 -9.866,1.646 -1.762,0 -3.524,-0.117 -5.285,-0.47 -0.823,-0.117 -1.645,-0.234 -2.469,-0.473 0.472,2.351 0.824,4.702 1.293,7.048 0.352,2.469 0.823,4.934 1.645,7.402 0.353,0.939 0.822,1.877 1.291,2.816 0.234,0.353 0.471,0.708 0.706,1.061 1.057,0.234 2.232,0.703 3.171,1.174 2.115,0.938 4.346,1.643 6.578,1.994 0.118,0 0.353,0.117 0.589,0.117 v 0 0 0 0 0 0 0 0 c 0.234,0 0.469,0 0.587,0 0.586,0.118 1.291,0.239 1.879,0.239 2.231,0.234 4.463,0.353 6.695,0.353 0.469,-2.469 2.231,-6.111 5.05,-5.76 0.587,0.118 1.057,0.354 1.528,0.588 0.117,-2.464 0.821,-4.933 1.643,-6.928 0.472,-1.292 1.528,-3.995 3.408,-3.877 0.117,0.117 0.234,0.117 0.234,0.117 -1.058,-4.229 -1.997,-8.458 -2.466,-12.804 0,-0.702 -0.117,-1.405 -0.117,-2.11 z"
   id="path4822"
   inkscape:connector-curvature="0"
   style="fill:#f5be4e" />
	<path
   d="m 143.87675,925.89885 c -0.235,0.47 -0.939,0.705 -1.408,0.353 -1.528,-1.644 -2.82,-3.287 -3.995,-5.051 -0.706,-1.173 -1.41,-2.346 -2.114,-3.524 -0.352,0.352 -0.704,0.821 -1.058,1.178 -0.821,1.056 -1.763,1.994 -2.701,2.934 -1.88,1.881 -3.877,3.524 -5.874,5.167 -4.344,3.29 -8.927,6.11 -13.743,8.575 -0.939,0.591 -1.997,1.061 -3.053,1.647 0.352,1.056 0.586,2.347 0.821,3.524 0.352,1.643 0.822,3.403 1.293,5.05 6.343,-1.881 12.685,-3.759 18.91,-5.875 5.991,-2.112 12.1,-4.581 17.15,-8.457 -1.173,-1.409 -2.466,-2.699 -3.405,-4.229 -0.352,-0.47 -0.589,-0.822 -0.823,-1.292 z"
   id="path4824"
   inkscape:connector-curvature="0"
   style="fill:#f5be4e" />
	<path
   d="m 108.16875,937.99785 c -8.458004,3.877 -17.502004,6.811 -26.546004,9.044 -3.994,1.057 -8.106,1.996 -12.1,2.704 -0.469,1.524 -0.822,3.051 -0.822,4.581 6.344,-0.47 12.687,-0.943 18.913,-2.234 7.517,-1.409 14.916004,-3.525 22.318004,-5.637 v -0.118 c -0.587,-1.764 -0.941,-3.642 -1.294,-5.519 -0.235,-0.943 -0.352,-1.881 -0.469,-2.821 z"
   id="path4826"
   inkscape:connector-curvature="0"
   style="fill:#f5be4e" />
	<path
   d="m 34.990746,955.02985 c -0.117,0.234 -0.117,0.587 -0.235,0.938 9.983,-0.117 20.086,-0.821 29.952,-1.407 0.586,0 1.175,-0.117 1.762,-0.117 0.118,-1.53 0.353,-2.938 0.939,-4.229 -6.341,1.174 -12.804,2.229 -19.262,3.051 -4.347,0.592 -8.811,1.179 -13.156,1.764 z"
   id="path4828"
   inkscape:connector-curvature="0"
   style="fill:#f5be4e" />
	<path
   d="m 27.354746,955.85185 c 1.645,0 3.407,0.117 5.05,0.117 0,-0.234 0.117,-0.469 0.117,-0.704 -0.939,0.118 -1.877,0.235 -2.818,0.353 -0.705,-10e-4 -1.528,0.117 -2.349,0.234 z"
   id="path4830"
   inkscape:connector-curvature="0"
   style="fill:#f5be4e" />
	<path
   d="m 32.169746,957.72985 c 0.117,-0.47 0.117,-1.173 0.234,-1.761 -1.643,0 -3.406,-0.117 -5.05,-0.117 -3.053,0.235 -6.226,0.588 -9.279,0.471 -2.466,0 -4.933,-0.235 -7.282,-0.588 0.234,0.234 0.586,0.353 0.939,0.469 6.46,3.057 13.742,4.229 20.907,4.581 -0.235,-0.938 -0.352,-1.994 -0.469,-2.698 0,-0.119 0,-0.24 0,-0.357 z"
   id="path4832"
   inkscape:connector-curvature="0"
   style="fill:#fab732" />
	<path
   d="m 66.468746,954.91285 c 0,-0.117 0,-0.352 0,-0.469 -0.586,0 -1.175,0.117 -1.762,0.117 -9.866,0.586 -19.968,1.29 -29.952,1.407 -0.118,0.588 -0.237,1.174 -0.237,1.761 0,0.117 0,0.238 0.119,0.356 0,0.939 0.118,1.76 0.47,2.581 0,0.117 0.118,0.117 0.118,0.234 2.701,0.119 5.285,0 7.868,0 5.874,-0.117 11.748,-0.586 17.737,-0.82 2.232,-0.117 4.463,-0.235 6.695,-0.235 -0.352,-0.939 -0.587,-1.76 -0.821,-2.703 -0.117,-0.82 -0.235,-1.525 -0.235,-2.229 z"
   id="path4834"
   inkscape:connector-curvature="0"
   style="fill:#fab732" />
	<path
   d="m 434.94875,737.60685 c -0.469,0.119 -0.821,0.354 -1.056,0.823 -1.293,2.583 -2.586,5.05 -4.346,7.282 -1.762,2.232 -3.877,4.112 -6.109,5.64 -5.052,3.64 -10.923,5.991 -16.68,7.986 -12.098,4.229 -24.784,6.226 -37.47,6.462 -11.159,0.235 -22.2,-0.823 -33.125,-3.055 -5.405,-1.056 -10.689,-2.466 -15.975,-4.229 -5.169,-1.645 -10.22,-3.759 -15.506,-5.402 -0.118,-0.118 -0.235,-0.118 -0.352,-0.118 0,0.587 0,1.174 0,1.761 -0.47,6.343 -1.761,12.569 -3.523,18.442 -0.352,1.056 -0.588,1.997 -0.94,2.936 2.115,0.704 4.347,1.645 6.578,2.114 3.056,0.587 6.226,0.704 9.398,0.941 6.695,0.47 13.391,0.47 20.085,0 14.566,-0.941 28.896,-3.642 43.343,-6.462 6.58,-1.291 13.275,-2.584 19.853,-4.464 1.76,-0.469 3.522,-1.056 5.168,-1.525 0.117,-0.234 0.234,-0.352 0.469,-0.469 2.466,-1.41 5.404,-2.114 8.105,-3.29 2.232,-0.939 4.347,-2.115 6.344,-3.407 2.349,-1.643 4.698,-3.405 6.813,-5.402 1.056,-1.056 2.114,-2.114 3.053,-3.288 2.701,-3.055 5.521,-6.93 5.874,-11.158 -10e-4,-0.708 0.116,-1.413 -10e-4,-2.118 z"
   id="path4836"
   inkscape:connector-curvature="0"
   style="fill:#fab732" />
	<path
   d="m 317.13375,783.18185 c -0.47,0 -0.822,0 -1.292,0 -3.407,-0.352 -6.932,-0.821 -10.337,-1.762 -2.231,-0.587 -4.581,-1.291 -6.695,-2.467 -2.349,6.226 -5.522,12.1 -9.279,17.62 0,0.119 0,0.354 0,0.472 0.234,1.408 0.352,2.701 0.469,3.993 0.352,2.702 0.821,5.403 1.525,7.987 0.707,3.173 1.527,6.343 2.586,9.396 0.704,2.114 1.525,4.111 2.466,6.108 0,0.118 0.117,0.235 0.117,0.352 0.118,-1.173 0.235,-2.232 0.47,-3.405 0.352,-2.467 0.823,-4.933 1.528,-7.282 1.291,-4.111 3.288,-7.753 5.754,-11.161 1.527,-2.114 3.759,-4.463 6.108,-5.989 0.941,-0.707 2.232,-1.528 3.173,-1.646 1.174,-0.117 1.88,0.587 2.701,1.528 0.117,0.235 0.235,0.235 0.353,0.352 0.117,-0.706 0.117,-1.411 0.234,-2.231 0,-0.472 0,-0.941 0,-1.411 0.118,-1.997 0.118,-3.994 0.118,-5.874 0,-1.291 0,-2.584 0,-3.875 0.001,-0.233 0.001,-0.47 0.001,-0.705 z"
   id="path4838"
   inkscape:connector-curvature="0"
   style="fill:#fab732" />
	<path
   d="m 285.18575,850.60585 c -1.293,-0.235 -2.704,-0.586 -3.994,-0.821 -1.528,-0.47 -2.938,-0.824 -4.346,-1.293 -0.352,0.235 -0.822,0.469 -1.293,0.704 -1.291,0.589 -2.701,1.058 -4.111,1.527 -2.114,0.587 -4.226,0.941 -6.343,0.822 -3.17,-0.118 -5.637,-1.877 -7.165,-4.581 -1.762,-3.171 -2.114,-6.813 -2.232,-10.335 0,-1.997 0.235,-4.111 0.47,-6.109 0,-0.704 0.118,-1.293 0.235,-1.997 -1.056,0.822 -2.112,1.645 -3.171,2.349 -1.175,0.822 -2.466,1.528 -3.64,2.232 -0.706,0.353 -1.293,0.704 -1.999,1.058 0,0.118 -0.117,0.118 -0.117,0.235 -1.292,3.757 -3.64,7.517 -6.576,10.335 0.117,0.117 0.117,0.354 0.234,0.471 0.939,2.936 1.174,6.578 0.939,9.631 -0.117,3.053 -0.822,6.226 -2.702,8.81 0,0 0,0 -0.117,0.117 0.117,0.118 0.235,0.352 0.353,0.469 0.352,0.824 0.586,1.998 0.117,2.821 0.117,1.525 -0.235,3.288 -0.587,4.581 -0.472,1.877 -1.176,3.642 -2.232,5.285 -0.824,1.056 -1.762,2.234 -2.82,3.172 2.468,2.229 3.994,5.402 5.287,8.34 1.173,3.052 2.349,5.99 2.936,9.162 1.175,5.402 1.292,11.039 -0.117,16.445 v 0 c 0,0.939 -0.117,1.877 -0.234,2.7 0,1.173 -0.235,2.233 -0.353,3.407 1.408,-1.291 2.936,-2.352 4.346,-3.524 1.763,-1.526 3.643,-3.172 5.403,-4.698 5.05,-4.347 9.985,-8.81 14.566,-13.743 1.997,-2.234 3.994,-4.581 5.874,-6.931 2.229,-2.7 4.229,-5.521 6.224,-8.458 3.76,-5.402 7.049,-11.156 10.22,-16.913 2.466,-4.815 4.698,-9.749 7.165,-14.684 -3.408,0.235 -6.815,10e-4 -10.22,-0.586 z"
   id="path4840"
   inkscape:connector-curvature="0"
   style="fill:#fab732" />
	<path
   d="m 260.51675,827.11385 c 0.941,1.997 1.411,4.229 2.232,6.343 0,0.117 0.119,0.234 0.119,0.352 0.586,1.176 1.173,2.469 1.995,3.642 1.175,-1.173 1.41,-3.17 1.88,-4.581 0.589,-1.997 1.527,-3.759 2.584,-5.519 1.762,-3.173 4.111,-6.226 6.932,-8.458 1.877,-1.41 4.229,-2.938 6.458,-4.111 1.41,-0.824 4.229,-2.114 5.991,-1.175 0,-0.118 -0.117,-0.235 -0.117,-0.353 -0.235,-0.821 -0.47,-1.762 -0.587,-2.584 -0.587,-2.466 -1.058,-5.05 -1.292,-7.519 -0.118,-0.821 -0.235,-1.643 -0.235,-2.466 -0.47,0.589 -0.939,1.058 -1.408,1.645 -4.112,4.933 -8.692,9.396 -13.745,13.39 -2.466,2.115 -5.05,4.112 -7.752,5.991 -1.292,0.939 -2.701,1.762 -3.993,2.584 0.117,0.47 0,1.058 -0.353,1.527 -0.234,0.235 -0.47,0.47 -0.822,0.822 l 0.587,0.235 c 0.47,-0.352 1.291,-0.47 1.526,0.235 z"
   id="path4842"
   inkscape:connector-curvature="0"
   style="fill:#fab732" />
	<path
   d="m 259.34275,910.04385 c -2.584,2.347 -5.405,4.581 -8.105,6.693 -1.643,1.291 -3.171,2.469 -4.699,3.759 -1.41,1.057 -2.818,2.347 -4.346,3.291 -0.353,0.116 -0.704,0.234 -0.939,0.116 -0.117,1.292 -0.234,2.583 -0.352,3.877 0,1.644 -0.12,3.286 -0.12,5.05 -0.117,1.174 -0.117,2.464 0,3.642 6.461,-0.708 12.452,-3.172 17.739,-6.931 2.819,-1.878 5.402,-4.112 7.634,-6.576 0.235,-0.239 0.822,-0.825 1.528,-1.765 -0.118,-1.525 -0.118,-3.055 -0.118,-4.463 0,-3.29 0.118,-6.576 0.586,-9.749 0.235,-2.234 0.587,-4.464 1.057,-6.698 -3.053,3.527 -6.34,6.699 -9.865,9.754 z"
   id="path4844"
   inkscape:connector-curvature="0"
   style="fill:#fab732" />
	<path
   d="m 207.42375,946.10285 c -1.409,0.354 -2.818,0.822 -4.112,1.175 0.234,0.821 0.352,1.525 0.352,1.878 v 0 c 0.824,0.238 1.646,0.355 2.469,0.473 1.761,0.353 3.523,0.47 5.285,0.47 3.408,0 6.695,-0.704 9.866,-1.646 3.29,-1.057 6.343,-2.466 9.281,-3.994 1.528,-0.704 3.053,-1.526 4.464,-2.465 0.704,-0.352 1.41,-0.822 2.114,-1.173 0,-0.118 0.118,-0.118 0.235,-0.235 -0.117,-0.942 -0.235,-1.882 -0.235,-2.82 -0.117,-3.524 0,-6.932 0.352,-10.452 0.117,-1.179 0.234,-2.234 0.352,-3.408 -1.645,2.583 -3.524,5.051 -5.754,7.163 -6.815,6.929 -15.507,11.979 -24.669,15.034 z"
   id="path4846"
   inkscape:connector-curvature="0"
   style="fill:#fab732" />
	<path
   d="m 150.68875,934.00485 c -0.821,-0.822 -1.761,-1.761 -2.584,-2.586 -5.05,3.876 -11.159,6.345 -17.15,8.457 -6.226,2.116 -12.567,3.994 -18.91,5.875 0,0.234 0.118,0.352 0.118,0.471 0.352,0.938 0.704,1.877 1.056,2.816 0.352,0.942 0.824,1.998 1.411,2.938 0.352,0.703 0.704,1.29 1.056,1.882 3.407,-0.592 6.698,-1.296 10.103,-1.999 7.399,-1.644 14.918,-3.173 22.317,-4.581 5.521,-1.056 10.924,-2.23 16.329,-3.524 -4.935,-2.348 -9.398,-5.52 -13.275,-9.396 -0.119,-0.119 -0.353,-0.236 -0.471,-0.353 z"
   id="path4848"
   inkscape:connector-curvature="0"
   style="fill:#fab732" />
	<path
   d="m 110.98675,949.62785 c -0.352,-0.825 -0.587,-1.647 -0.821,-2.351 -0.117,-0.353 -0.234,-0.587 -0.234,-0.939 v 0.118 c -7.402,2.111 -14.801004,4.228 -22.318004,5.637 -6.226,1.291 -12.569,1.765 -18.913,2.234 0,0.82 0.117,1.524 0.353,2.229 0,0.117 0,0.234 0,0.352 0.352,1.06 0.706,1.998 1.293,2.82 3.522,-0.117 7.047,-0.352 10.569,-0.586 10.926,-0.939 21.614004,-2.703 32.303004,-4.815 -0.352,-0.47 -0.586,-1.062 -0.821,-1.53 -0.587,-1.056 -1.059,-2.113 -1.411,-3.169 z"
   id="path4850"
   inkscape:connector-curvature="0"
   style="fill:#fab732" />
	<path
   d="m 337.45675,721.98585 c -1.763,-0.354 -3.408,-0.119 -5.052,0.587 -0.469,0.235 -0.939,0.469 -1.292,0.821 -0.237,0.117 -0.471,0.235 -0.706,0.47 -4.229,3.759 -2.818,10.455 1.176,13.979 2.936,2.349 7.165,3.522 10.689,2.231 4.229,-1.41 5.637,-5.404 4.816,-9.516 -0.822,-4.58 -5.168,-7.985 -9.631,-8.572 z m 4.108,5.52 v 0 c -0.234,0.821 -1.056,1.291 -1.997,1.291 -1.174,0 -2.229,-0.939 -2.229,-2.23 0,-0.471 0.234,-0.941 0.469,-1.293 0.469,-0.586 1.056,-0.941 1.76,-0.941 1.175,0 2.234,1.058 2.234,2.234 10e-4,0.352 10e-4,0.705 -0.237,0.939 z"
   id="path4852"
   inkscape:connector-curvature="0"
   style="fill:#351b10" />
	<path
   d="m 438.47375,737.25485 c -0.235,-2.232 -0.354,-4.698 -1.879,-6.459 -1.293,-1.527 -3.291,-1.058 -4.818,-0.119 -6.693,-0.235 -13.391,0.236 -20.085,0.119 -4.699,0 -9.514,-0.471 -14.095,-1.527 -1.88,-0.471 -3.759,-0.941 -5.639,-1.645 -10.453,-3.407 -19.145,-10.103 -27.603,-16.916 -8.576,-6.93 -16.916,-14.329 -26.429,-19.968 -1.175,-0.704 -2.469,-1.41 -3.642,-1.997 2.231,-5.285 3.055,-11.394 3.642,-17.033 0.704,-6.576 0.586,-13.273 0,-19.849 -1.293,-12.921 -4.816,-26.194 -11.982,-37.12 -0.938,-1.526 -1.997,-2.936 -3.17,-4.346 -1.058,-1.408 -2.115,-2.818 -3.642,-3.64 -0.704,-0.353 -1.41,-0.117 -1.762,0.352 -0.352,0.235 -0.704,0.47 -0.704,0.941 -0.118,6.341 -0.469,12.567 -1.528,18.793 -1.173,6.343 -2.701,12.569 -3.757,18.795 -1.058,6.46 -1.645,12.918 -1.058,19.382 0.234,3.405 0.941,6.693 1.763,9.983 0.704,2.701 1.645,5.52 2.936,7.988 -1.997,-0.118 -3.875,-0.118 -5.872,0 -1.058,-3.642 -2.466,-7.402 -3.994,-11.042 -4.464,-10.455 -11.042,-19.969 -19.617,-27.604 -4.581,-4.111 -9.75,-7.636 -15.27,-10.572 -3.053,-1.528 -6.226,-2.937 -9.516,-3.993 -3.639,-1.058 -7.634,-2.351 -11.393,-1.999 -0.47,0 -0.939,0.354 -1.174,0.823 -0.588,0.235 -0.94,0.821 -0.823,1.528 0.589,2.936 1.762,5.637 2.821,8.338 1.056,2.703 2.114,5.405 3.287,7.988 2.115,5.167 4.347,10.22 6.931,15.153 4.935,9.514 11.041,18.441 18.794,25.842 1.528,1.525 3.054,2.936 4.699,4.229 -3.76,2.35 -7.399,4.933 -10.455,7.987 -2.467,-0.939 -5.05,-1.646 -7.517,-2.115 -1.997,-0.47 -3.876,-0.704 -5.874,-0.939 -0.117,0 -0.235,-0.117 -0.352,-0.234 -0.822,-0.587 -1.646,-0.353 -2.114,0.117 -6.931,-0.235 -13.978,0.704 -20.555,2.818 -0.118,0.117 -0.235,0.117 -0.353,0.117 -3.407,0.941 -6.58,1.997 -9.868,3.054 -6.578,2.234 -13.038,4.817 -19.264,7.753 -12.569,5.991 -24.08,13.391 -34.769,22.2 -2.113,1.645 -4.112,3.407 -5.989,5.404 -0.941,0.821 -1.762,1.645 -2.586,2.583 -2.701,2.936 -5.403,6.108 -7.164,9.631 -0.705,1.293 0,2.466 1.058,2.82 0,0.704 0.117,1.525 0.117,2.349 -3.055,4.227 -4.698,9.631 -5.05,14.916 -1.058,0.94 -2.234,1.88 -3.055,3.055 -1.174,1.292 -2.231,2.701 -3.17,4.229 -1.645,2.467 -2.938,5.167 -3.877,8.104 -1.527,4.346 -1.763,9.164 -0.706,13.627 -3.406,3.523 -5.52,8.221 -6.576,12.919 -1.175,5.052 -0.706,10.455 1.173,15.272 0.118,0.234 0.235,0.469 0.353,0.704 -0.822,0.822 -1.526,1.763 -2.115,2.818 -0.704,1.528 -1.292,3.29 -1.646,4.933 -0.704,3.407 -0.586,6.93 0,10.337 0.237,1.056 0.472,2.114 0.707,3.053 -1.762,2.231 -2.819,4.935 -3.759,7.519 -0.939,2.936 -1.763,5.991 -2.232,8.927 -1.173,6.227 -1.645,12.685 -1.291,19.03 0.353,6.223 1.291,12.334 3.054,18.323 1.175,4.112 2.701,7.871 4.698,11.514 -0.704,0.586 -1.411,1.173 -1.997,1.759 -1.056,0.939 -2.115,1.995 -3.171,2.939 -1.997,1.759 -3.994,3.403 -6.226,5.05 -4.463,3.29 -9.279,6.106 -14.214,8.574 -10.218004,5.05 -21.259004,8.34 -32.300004,10.922 -10.338,2.469 -20.675,4.11 -31.129,5.641 -5.637,0.821 -11.276,1.643 -16.914,2.229 -3.524,0.353 -7.047,0.587 -10.689,0.704 -2.232,0.117 -4.463,0.234 -6.695,0.47 v 0 c -0.352,-0.118 -0.586,-0.235 -0.94,-0.235 -0.9390005,-0.234 -1.8780005,-0.234 -2.8180005,-0.352 -0.705,-0.117 -1.528,-0.234 -2.232,-0.352 -0.939,-0.117 -1.409,0.117 -2.115,0.82 -0.586,0.47 -0.704,1.648 0,2.234 8.8100005,7.046 20.6740005,9.045 31.7160005,9.396 0.352,0 0.586,0 0.938,0 5.991,0.235 11.982,0 17.971,-0.352 5.405,-0.353 10.925,-0.471 16.329,-0.705 0.587,0 1.056,0 1.643,0 15.035,-0.587 29.954004,-2.938 44.754004,-5.758 0.117,0 0.234,0 0.234,0 7.517,-1.526 15.036,-2.934 22.552,-4.464 7.401,-1.408 14.918,-2.699 22.2,-4.464 3.056,-0.587 6.109,-1.407 9.046,-2.346 9.279,3.172 19.38,3.642 29.013,1.759 0.235,1.058 0.469,2 0.586,2.938 0.469,2.465 0.821,4.815 1.293,7.284 0.47,2.464 1.173,4.933 2.23,7.279 0.471,0.939 0.941,2 1.645,2.938 0.235,0.235 0.472,0.47 0.706,0.704 0.704,1.291 2.115,2.234 3.289,2.703 1.762,0.821 3.524,1.525 5.287,1.996 1.408,0.469 2.701,0.703 4.109,0.82 3.055,0.47 6.226,0.587 9.398,0.704 3.758,0.117 7.517,-0.117 11.276,-0.704 2.701,-0.352 5.874,-1.056 7.399,-3.523 0.235,-0.354 0.352,-0.705 0.352,-1.058 0.706,0 1.058,-0.469 1.175,-1.173 0.117,-1.057 -0.587,-1.995 -1.058,-2.821 -0.234,-0.47 -0.352,-1.056 -0.469,-1.524 -0.235,-0.47 -0.47,-0.939 -0.705,-1.526 -0.352,-0.825 -0.586,-1.764 -0.938,-2.703 0.117,0 0.234,0 0.352,0 1.173,0.234 2.231,0.352 3.288,0.469 1.175,0.117 2.466,0.236 3.642,0.236 3.522,0.234 7.165,0.234 10.806,0 3.288,-0.119 7.399,-0.354 10.453,-2.114 0.941,-0.469 1.762,-1.177 2.351,-2.115 0.705,-0.234 1.291,-0.939 1.409,-1.761 0,-2.703 -1.056,-5.637 -1.644,-8.223 -0.706,-2.586 -1.175,-5.167 -1.762,-7.87 -0.941,-5.168 -1.645,-10.336 -2.114,-15.621 -0.353,-5.172 -0.353,-10.339 0.117,-15.507 0.118,-1.761 0.352,-3.524 0.704,-5.285 1.645,-1.647 3.055,-3.76 4.581,-5.636 2.115,-2.586 4.111,-5.289 6.108,-7.989 3.994,-5.285 7.869,-10.809 11.746,-16.328 3.759,-5.52 7.401,-11.159 10.924,-16.916 1.645,-2.936 3.407,-5.872 5.052,-8.809 1.525,-2.819 3.054,-5.52 4.229,-8.458 1.409,-0.118 2.818,-0.235 4.227,-0.353 3.642,-0.586 7.401,-1.291 10.689,-3.053 2.115,-1.058 3.995,-3.171 3.877,-5.521 0,-0.117 0.117,-0.235 0.117,-0.47 0.234,-1.997 -1.528,-4.111 -2.466,-5.754 -0.822,-1.411 -1.528,-2.703 -2.349,-4.111 -1.176,-2.232 -2.349,-4.463 -3.525,-6.695 -0.353,-0.588 -0.587,-1.058 -0.822,-1.645 0,-0.118 0,-0.235 0.117,-0.352 0.352,-1.41 0.705,-2.821 1.057,-4.346 0.589,-2.701 0.941,-5.639 1.058,-8.458 0.235,-2.818 0.235,-5.757 0,-8.692 -0.117,-1.293 -0.234,-2.583 -0.352,-3.876 -0.117,-0.469 -0.117,-0.939 -0.234,-1.526 3.757,0 7.517,-0.12 11.275,-0.237 14.682,-0.821 29.013,-3.64 43.462,-6.46 6.578,-1.291 13.039,-2.584 19.497,-4.581 3.29,-0.939 6.462,-2.115 9.633,-3.522 2.231,-0.941 4.815,-2.115 6.813,-3.643 1.41,-0.821 2.818,-1.645 4.229,-2.583 4.463,-3.055 8.574,-6.813 11.862,-11.042 3.056,-4.104 5.405,-9.037 4.818,-14.206 z m -123.454,-92.208 v 0 c 0.234,-1.292 0.471,-2.466 0.706,-3.64 0.939,-4.935 1.995,-9.868 2.701,-14.918 0.117,-0.704 0.235,-1.527 0.352,-2.349 0.352,-2.232 0.587,-4.464 0.587,-6.813 0.117,-1.527 0.117,-3.172 0.117,-4.815 0,-0.117 -0.117,-0.235 -0.117,-0.354 0.117,0 0.234,0.119 0.234,0.237 1.058,1.407 1.997,2.818 3.055,4.346 1.763,2.818 3.405,5.637 4.698,8.81 2.583,5.754 4.346,11.98 5.52,18.206 2.466,12.687 2.703,25.96 -0.118,38.527 0,0.117 0,0.354 0,0.471 -0.352,1.408 -0.821,2.936 -1.173,4.346 0,0.118 0,0.235 0,0.353 -3.759,-1.763 -7.519,-3.056 -11.628,-3.76 -0.354,-0.117 -0.706,-0.117 -1.058,-0.234 0,-0.235 -0.118,-0.352 -0.235,-0.587 -5.991,-11.75 -5.873,-25.258 -3.641,-37.826 z m -52.152,13.273 v 0 c -2.351,-4.698 -4.464,-9.396 -6.462,-14.212 -1.056,-2.349 -2.112,-4.815 -3.054,-7.165 -0.234,-0.589 -0.469,-1.293 -0.704,-1.879 -0.589,-1.293 -1.059,-2.701 -1.763,-3.995 0.704,0.235 1.293,0.47 1.997,0.587 1.998,0.587 3.995,1.059 5.991,1.645 3.171,0.941 6.224,2.232 9.162,3.642 5.167,2.583 9.983,5.754 14.33,9.514 8.575,7.399 15.507,16.798 20.322,27.016 1.526,3.173 2.936,6.461 3.994,9.75 -1.176,0.235 -2.351,0.352 -3.525,0.587 -1.762,-2.466 -3.642,-4.815 -5.639,-7.047 -3.64,-4.111 -7.634,-7.871 -11.98,-11.276 -1.997,-1.645 -4.111,-3.29 -6.225,-4.816 -1.059,-0.706 -2.115,-1.41 -3.171,-2.117 -0.823,-0.586 -1.762,-1.525 -2.938,-1.525 -0.469,0.117 -1.056,0.47 -1.173,0.939 0,0.117 0,0.235 0,0.235 0.117,1.058 0.235,2.114 0.352,3.055 0.821,4.816 1.997,9.514 3.994,14.095 1.056,2.583 2.349,5.167 3.64,7.636 -7.048,-7.167 -12.45,-15.742 -17.148,-24.669 z m 19.732,24.903 v 0 c -1.526,-2.583 -2.818,-5.287 -3.875,-7.988 -1.997,-4.581 -3.759,-9.749 -4.229,-14.801 0.235,0.12 0.469,0.237 0.704,0.354 1.058,0.822 1.997,1.526 3.053,2.35 2.117,1.408 4.112,3.053 5.992,4.698 3.994,3.405 7.871,7.047 11.393,10.923 1.528,1.88 3.173,3.76 4.581,5.755 0.706,0.941 1.41,1.88 2.117,2.938 3.17,4.698 5.637,9.866 6.93,15.27 -4.935,-2.701 -10.22,-5.052 -15.036,-8.223 -1.41,-0.823 -2.703,-1.762 -3.994,-2.701 -0.939,-0.707 -1.88,-1.411 -2.818,-2.115 -0.941,-0.706 -1.763,-1.41 -2.583,-2.231 -0.825,-1.411 -1.53,-2.82 -2.235,-4.229 z m -11.16,19.617 v 0 c 0.237,0.586 0.824,1.056 1.528,0.586 6.695,2.936 12.804,7.517 17.267,13.391 12.217,15.857 11.863,37.94 5.991,56.148 -2.231,7.047 -5.522,13.86 -9.75,19.968 -1.525,2.349 -3.288,4.581 -5.05,6.695 -3.994,4.816 -8.458,9.044 -13.273,12.921 -2.349,1.88 -4.815,3.757 -7.165,5.52 -2.232,1.646 -4.583,3.173 -6.46,5.17 -1.176,0.352 -2.349,0.704 -3.525,0.939 -2.466,0.587 -5.167,0.47 -7.753,0.235 -3.522,-0.353 -6.93,-1.174 -10.335,-2.115 1.291,-0.234 2.466,-0.352 3.642,-0.704 2.936,-0.587 5.754,-1.762 8.456,-2.936 5.404,-2.469 10.337,-5.991 14.801,-9.868 9.397,-7.988 17.033,-18.441 22.2,-29.6 5.404,-11.982 7.636,-25.138 5.756,-38.294 -0.823,-6.578 -2.936,-13.038 -5.991,-19.029 -2.936,-5.872 -7.165,-11.159 -11.746,-15.975 -1.646,-1.762 -3.408,-3.407 -5.17,-5.05 2.232,0.47 4.464,1.174 6.577,1.998 z m -106.419,42.872 v 0 c 0.469,-0.469 0.821,-1.056 1.292,-1.525 2.112,-2.468 4.463,-4.698 6.93,-6.814 5.05,-4.463 10.572,-8.575 16.092,-12.332 11.51,-7.519 24.08,-13.508 36.883,-18.443 3.523,-1.291 7.047,-2.466 10.572,-3.64 1.643,-0.589 3.288,-1.176 5.05,-1.762 0.822,-0.235 1.528,-0.587 2.232,-0.939 5.05,-0.824 10.22,-0.941 15.271,-0.354 4.463,3.876 8.809,7.988 12.569,12.569 4.346,5.17 7.751,10.924 10.1,17.268 4.699,12.452 4.581,25.959 0.941,38.646 -3.524,12.215 -10.572,23.374 -19.147,32.654 -8.223,8.928 -18.324,15.505 -29.954,19.028 -1.291,0.469 -2.702,0.821 -3.994,1.175 -0.939,-0.354 -1.76,-0.706 -2.701,-0.941 -11.511,-4.346 -22.318,-10.335 -31.949,-17.971 -8.458,-6.695 -15.977,-14.33 -22.554,-22.787 -2.583,-3.408 -5.05,-7.05 -7.047,-10.807 -0.469,-1.763 -1.056,-3.525 -1.527,-5.405 -0.705,-3.053 -1.408,-6.105 -1.408,-9.278 0.117,-2.938 0.821,-5.756 2.349,-8.342 z m -8.693,24.669 v 0 c 0.235,-3.642 1.176,-7.284 2.466,-10.809 0,-0.117 0,-0.235 0.118,-0.352 2.114,9.868 8.105,18.794 14.331,26.783 8.221,10.335 18.676,19.145 29.717,26.312 3.759,2.466 7.636,4.581 11.511,6.578 1.292,0.587 2.466,1.174 3.759,1.643 4.347,1.997 8.693,3.642 13.273,5.052 4.815,1.409 9.868,2.701 14.918,2.466 1.528,0 3.173,-0.234 4.816,-0.586 -0.587,0.469 -1.174,0.821 -1.643,1.173 -2.586,1.645 -5.287,2.936 -8.223,3.877 -5.64,1.879 -11.748,1.645 -17.502,0.704 -9.398,-1.527 -18.089,-5.402 -26.194,-10.218 -2.703,-1.645 -5.404,-3.407 -7.871,-5.169 -0.705,-0.469 -1.409,-0.939 -2.115,-1.528 -4.229,-3.053 -8.34,-6.458 -12.098,-9.983 -4.464,-4.229 -8.81,-8.692 -12.334,-13.743 -3.288,-4.698 -5.754,-9.985 -6.695,-15.742 -0.351,-2.112 -0.351,-4.228 -0.234,-6.458 z m -11.158,19.851 v 0 c 0.586,-3.29 1.762,-6.343 3.405,-9.281 0.824,-1.643 1.88,-3.17 2.938,-4.581 0.469,-0.705 1.056,-1.525 1.525,-2.232 0.237,4.935 1.763,9.868 3.876,14.331 2.819,5.637 6.813,10.572 11.159,15.153 4.112,4.229 8.34,8.221 12.921,11.98 9.868,7.988 20.91,14.918 33.007,18.913 0.589,0.235 1.176,0.352 1.762,0.586 1.057,0.352 2.232,0.704 3.407,0.939 4.111,1.059 8.338,1.645 12.567,1.645 3.994,0.117 7.872,-0.586 11.511,-1.762 -0.938,1.527 -1.76,2.938 -2.818,4.229 -1.645,2.115 -3.522,3.877 -5.754,5.169 -3.995,2.467 -8.93,3.288 -13.51,3.288 -0.47,-0.235 -1.173,-0.235 -1.643,0 -9.516,-0.235 -18.795,-3.405 -27.37,-7.517 -1.528,-0.706 -2.937,-1.41 -4.347,-2.231 -1.291,-0.589 -2.583,-1.293 -3.757,-1.998 -8.458,-4.698 -16.446,-10.455 -23.61,-16.915 -6.46,-5.754 -13.156,-13.156 -15.036,-21.731 -0.468,-2.583 -0.585,-5.284 -0.233,-7.985 z m -6.696,22.904 v 0 c 0.822,-3.994 2.701,-7.517 4.581,-11.041 3.64,10.923 13.273,19.264 22.083,26.076 9.162,7.165 19.147,13.508 29.954,17.972 7.282,3.172 15.27,5.521 23.256,5.874 1.059,0.117 2.232,0.117 3.408,0.117 1.762,-0.117 3.64,-0.235 5.403,-0.47 3.993,-0.706 7.636,-2.114 10.806,-4.346 0.234,2.466 0.586,4.933 0.469,7.517 0,2.701 -0.821,5.285 -2.467,7.399 -2.818,3.407 -7.047,4.818 -11.275,5.287 -3.171,0.352 -6.344,0.234 -9.514,-0.118 -6.461,-0.706 -12.921,-2.703 -18.913,-4.581 -0.117,-0.117 -0.234,-0.117 -0.352,-0.117 -2.467,-0.823 -4.933,-1.645 -7.399,-2.586 -3.524,-1.291 -7.167,-2.818 -10.689,-4.346 -3.055,-1.291 -5.991,-2.584 -9.045,-3.992 -1.527,-0.589 -3.055,-1.411 -4.7,-1.997 -3.992,-3.995 -9.162,-6.695 -13.625,-10.22 -4.229,-3.405 -7.986,-7.517 -10.335,-12.569 0,-0.118 0,-0.118 0,-0.235 -1.997,-4.228 -2.469,-9.043 -1.646,-13.624 z m -2.466,23.728 v 0 c 0.352,-1.527 0.704,-2.938 1.292,-4.346 0.352,-0.705 0.704,-1.528 0.94,-2.349 2.349,4.346 5.637,7.986 9.396,11.159 3.759,3.171 7.869,6.226 12.452,8.34 2.467,2.349 5.872,3.757 8.927,5.285 3.405,1.528 6.812,3.172 10.217,4.698 6.578,2.821 13.273,5.404 20.204,7.519 4.111,1.291 8.575,2.466 13.039,3.288 1.175,0.117 2.351,0.353 3.407,0.47 3.995,0.471 7.871,0.471 11.746,-0.235 3.173,-0.586 6.109,-1.879 8.575,-3.756 0,1.173 0.117,2.349 -0.118,3.522 -0.352,1.646 -1.056,3.053 -1.879,4.466 -0.822,1.29 -1.877,2.347 -3.054,3.403 -0.117,0.117 -0.352,0.353 -0.586,0.47 -0.235,0 -0.352,0 -0.588,0 -1.761,0.238 -3.288,0.942 -4.933,1.529 -1.761,0.587 -3.523,0.938 -5.285,1.292 -3.525,0.704 -7.048,0.821 -10.572,0.704 -4.463,-0.117 -8.927,-0.469 -13.391,-1.057 -2.35,-0.352 -4.699,-0.704 -7.048,-1.173 -2.82,-0.469 -5.639,-1.057 -8.457,-1.765 -9.631,-2.347 -19.03,-5.754 -27.604,-10.453 -3.171,-1.762 -5.991,-3.642 -8.692,-5.991 -1.173,-2.349 -3.053,-4.463 -4.346,-6.813 -1.526,-2.818 -2.702,-5.874 -3.289,-8.927 -0.705,-3.054 -0.822,-6.227 -0.353,-9.28 z m -5.052,33.358 v 0 c 0.824,-6.108 2.583,-11.863 4.463,-17.736 v 0 c 0.472,1.056 0.941,2.232 1.528,3.288 0.587,0.941 1.056,1.997 1.762,3.056 2.114,4.698 6.695,8.106 10.925,10.807 4.815,3.053 10.218,5.287 15.504,7.399 12.804,5.285 26.664,7.753 40.406,8.692 2.467,0.117 4.936,0.234 7.402,0.117 -0.589,10.454 -7.988,18.793 -16.329,24.435 -9.044,5.988 -20.321,10.217 -31.244,8.927 -8.105,-0.944 -15.388,-5.406 -21.025,-11.044 -3.29,-3.407 -6.108,-7.163 -8.458,-11.391 -1.292,-2.234 -2.352,-4.698 -3.172,-7.167 -0.822,-2.116 -1.409,-4.346 -2.349,-6.463 -0.117,-4.229 0.117,-8.575 0.587,-12.92 z m -119.224004,85.981 v 0 c -0.353,-0.116 -0.705,-0.234 -0.939,-0.469 2.349,0.353 4.815,0.588 7.282,0.588 3.053,0.117 6.226,-0.235 9.279,-0.471 0.821,-0.117 1.645,-0.234 2.349,-0.234 0.941,-0.117 1.879,-0.234 2.818,-0.353 0,0.235 -0.117,0.47 -0.117,0.704 -0.117,0.588 -0.117,1.291 -0.234,1.761 0,0.117 0,0.238 0,0.356 0.117,0.704 0.234,1.76 0.469,2.698 -7.164,-0.35 -14.447,-1.523 -20.907,-4.58 z m 49.099,3.878 v 0 c -5.989,0.234 -11.863,0.703 -17.737,0.82 -2.583,0 -5.167,0.119 -7.868,0 0,-0.117 -0.118,-0.117 -0.118,-0.234 -0.352,-0.821 -0.47,-1.642 -0.47,-2.581 -0.119,-0.118 -0.119,-0.239 -0.119,-0.356 0,-0.587 0.119,-1.173 0.237,-1.761 0.118,-0.352 0.118,-0.704 0.235,-0.938 4.346,-0.586 8.809,-1.173 13.156,-1.765 6.458,-0.821 12.921,-1.877 19.262,-3.051 -0.587,1.291 -0.822,2.699 -0.939,4.229 0,0.117 0,0.352 0,0.469 0,0.704 0.118,1.409 0.235,2.229 0.234,0.943 0.47,1.764 0.821,2.703 -2.232,0.001 -4.463,0.119 -6.695,0.236 z m 20.085,-0.938 v 0 c -3.522,0.234 -7.047,0.469 -10.569,0.586 -0.587,-0.822 -0.941,-1.761 -1.293,-2.82 0,-0.117 0,-0.234 0,-0.352 -0.235,-0.705 -0.353,-1.409 -0.353,-2.229 0,-1.53 0.353,-3.057 0.822,-4.581 3.994,-0.708 8.105,-1.647 12.1,-2.704 9.044,-2.233 18.089,-5.167 26.546004,-9.044 0.117,0.939 0.234,1.878 0.469,2.821 0.353,1.877 0.707,3.755 1.294,5.519 0,0.353 0.117,0.587 0.234,0.939 0.234,0.703 0.469,1.525 0.821,2.351 0.352,1.056 0.824,2.113 1.411,3.169 0.234,0.469 0.469,1.061 0.821,1.53 -10.689,2.112 -21.377004,3.875 -32.303004,4.815 z m 67.190004,-11.865 v 0 c -7.399,1.408 -14.918,2.938 -22.317,4.581 -3.405,0.703 -6.695,1.407 -10.103,1.999 -0.352,-0.592 -0.704,-1.179 -1.056,-1.882 -0.587,-0.939 -1.059,-1.995 -1.411,-2.938 -0.352,-0.939 -0.704,-1.878 -1.056,-2.816 0,-0.119 -0.118,-0.236 -0.118,-0.471 -0.471,-1.646 -0.941,-3.407 -1.293,-5.05 -0.234,-1.177 -0.469,-2.468 -0.821,-3.524 1.056,-0.586 2.114,-1.057 3.053,-1.647 4.815,-2.464 9.399,-5.285 13.743,-8.575 1.997,-1.643 3.994,-3.287 5.874,-5.167 0.938,-0.939 1.88,-1.878 2.701,-2.934 0.354,-0.357 0.706,-0.826 1.058,-1.178 0.705,1.178 1.409,2.351 2.114,3.524 1.174,1.765 2.467,3.408 3.995,5.051 0.469,0.352 1.173,0.117 1.408,-0.353 0.234,0.47 0.471,0.822 0.824,1.292 0.938,1.53 2.231,2.82 3.405,4.229 0.823,0.825 1.763,1.764 2.584,2.586 0.117,0.117 0.352,0.234 0.469,0.352 3.877,3.876 8.341,7.049 13.275,9.396 -5.404,1.294 -10.807,2.469 -16.328,3.525 z m 22.317,-5.52 v 0 c -0.469,0 -0.821,0 -1.291,0 -6.46,-2.468 -12.452,-6.346 -17.619,-11.044 -1.293,-1.173 -2.584,-2.582 -3.877,-3.876 -1.176,-1.292 -2.701,-2.464 -3.877,-3.756 -1.056,-1.294 -1.997,-2.586 -3.053,-3.759 -0.586,-0.939 -1.175,-1.882 -1.645,-2.938 -0.353,-0.588 -0.705,-1.174 -1.059,-1.761 0,-0.352 -0.117,-0.708 -0.469,-0.943 -1.056,-2.229 -1.995,-4.581 -2.818,-6.811 -1.411,-3.76 -2.466,-7.636 -3.171,-11.631 1.056,2.352 2.231,4.699 3.64,6.815 3.172,5.05 7.165,9.514 11.865,13.155 9.044,6.928 20.555,9.279 31.596,6.693 4.698,-1.057 9.279,-2.816 13.509,-5.05 4.229,-2.112 8.223,-4.698 11.747,-7.753 3.405,-3.052 6.46,-6.576 8.456,-10.688 1.998,-3.994 2.821,-8.223 2.586,-12.687 1.173,0 2.466,-0.117 3.64,-0.352 2.114,-0.234 4.112,-0.704 6.226,-1.29 0.352,-0.119 0.704,-0.235 1.058,-0.353 5.05,10.453 3.875,23.14 -1.645,33.123 -5.639,10.218 -16.094,16.445 -26.663,20.088 -4.464,1.644 -9.045,2.816 -13.625,3.759 -2.938,0.588 -5.991,0.939 -8.927,1.057 -1.529,0.119 -3.056,0.119 -4.584,0.002 z m 29.485,1.407 v 0 c -0.235,0.117 -0.352,0.354 -0.352,0.47 -1.176,0.235 -2.349,0.47 -3.525,0.704 -5.404,0.826 -10.924,0.943 -16.326,0.118 2.466,-0.235 5.05,-0.587 7.517,-1.175 5.639,-1.173 11.158,-2.933 16.443,-5.167 10.572,-4.581 19.971,-12.099 24.669,-22.904 2.467,-5.402 3.641,-11.395 3.523,-17.502 -0.118,-2.938 -0.705,-5.993 -1.644,-8.81 -0.354,-1.412 -0.941,-2.703 -1.645,-3.994 -0.235,-0.586 -0.586,-1.174 -1.058,-1.647 0.706,-0.352 1.41,-0.586 1.998,-0.938 0.823,0 1.762,-0.352 2.585,-0.821 0.821,2.938 2.467,5.637 3.64,8.457 1.176,2.821 2.115,5.754 2.701,8.809 1.176,5.403 0.824,11.044 -0.938,16.329 -3.995,11.274 -14.684,19.497 -25.021,24.313 -3.523,1.646 -7.165,2.82 -10.922,3.758 -0.472,-0.468 -1.059,-0.586 -1.645,0 z m 32.185,28.311 v 0 c -0.354,0 -0.589,0 -0.941,0 0.47,-1.412 0.941,-2.938 1.997,-3.29 v -0.117 c 0.118,0.117 0.118,0.117 0.235,0.117 0.353,0.235 0.587,0.587 0.939,0.822 0.117,0.234 0.354,0.47 0.588,0.704 0.118,0.587 0.235,1.056 0.469,1.647 -1.175,0.001 -2.232,0.001 -3.287,0.117 z m 2.584,-5.288 v 0 c -0.472,-0.234 -0.941,-0.47 -1.528,-0.588 -2.818,-0.352 -4.581,3.291 -5.05,5.76 -2.232,0 -4.464,-0.118 -6.695,-0.353 -0.589,0 -1.293,-0.121 -1.879,-0.239 -0.118,0 -0.353,0 -0.587,0 v 0 0 0 0 0 0 0 c -0.237,0 -0.472,-0.117 -0.589,-0.117 -2.231,-0.352 -4.463,-1.056 -6.578,-1.994 -0.939,-0.471 -2.114,-0.939 -3.171,-1.174 -0.234,-0.353 -0.471,-0.708 -0.706,-1.061 -0.469,-0.939 -0.938,-1.877 -1.291,-2.816 -0.822,-2.469 -1.293,-4.934 -1.645,-7.402 -0.469,-2.346 -0.821,-4.697 -1.293,-7.048 v 0 c 0,-0.353 -0.117,-1.057 -0.352,-1.878 1.293,-0.353 2.703,-0.821 4.112,-1.175 9.162,-3.055 17.854,-8.104 24.668,-15.037 2.23,-2.111 4.109,-4.58 5.754,-7.163 -0.118,1.174 -0.235,2.229 -0.352,3.408 -0.352,3.52 -0.469,6.928 -0.352,10.452 0,0.938 0.118,1.878 0.235,2.82 0,0.705 0.117,1.408 0.117,2.112 0.469,4.346 1.408,8.574 2.466,12.804 0,0 -0.117,0 -0.234,-0.117 -1.88,-0.118 -2.936,2.585 -3.408,3.877 -0.821,1.996 -1.525,4.465 -1.642,6.929 z m 10.1,2.468 v 0 c 0,0 0,0.116 -0.117,0.116 v 0 0.118 0 c -0.118,0.117 -0.235,0.234 -0.353,0.352 0,0.118 -0.117,0.118 -0.117,0.118 0,0 0,0 -0.118,0.117 -0.234,0.117 -0.47,0.234 -0.587,0.352 -0.117,0 -0.117,0 -0.117,0 v 0 0 c -0.12,0.117 -0.237,0.117 -0.471,0.117 -0.235,0.235 -0.587,0.353 -0.938,0.353 -1.176,0.352 -2.349,0.587 -3.525,0.822 -0.235,-1.644 -0.821,-3.521 -0.586,-4.934 0.117,-1.525 0.469,-3.052 0.939,-4.464 0.236,-0.822 0.471,-1.525 0.706,-2.229 0.118,-0.352 0.587,-0.939 0.704,-1.057 0.234,0.234 0.469,0.588 0.94,0.822 0.47,1.761 1.057,3.406 1.643,5.167 0.235,0.47 0.469,1.056 0.706,1.526 0.235,0.586 0.705,1.06 1.057,1.646 0.118,0.234 0.235,0.352 0.352,0.586 0,0.119 -0.118,0.354 -0.118,0.472 z m 17.62,-11.748 v 0 c -1.526,0 -3.053,0 -4.464,0 0,-0.352 0,-0.705 0.117,-1.057 0.118,-1.056 0.472,-2.112 1.059,-3.055 0.704,-1.174 1.762,-1.878 3.171,-1.408 1.292,0.47 2.231,1.76 3.055,2.82 0,0.118 0.118,0.235 0.118,0.353 v 0 c 0.117,0.703 0.234,1.407 0.469,2.112 -1.059,0.118 -2.233,0.118 -3.525,0.235 z m 2.937,-6.693 v 0 c -0.823,-0.704 -1.763,-1.295 -2.703,-1.647 -2.114,-0.587 -4.109,0.353 -5.402,1.999 -0.941,1.057 -1.646,2.348 -1.88,3.761 -0.118,0.82 -0.352,1.76 -0.235,2.581 -0.939,0 -1.88,0 -2.818,-0.117 -1.058,0 -2.114,-0.117 -3.29,-0.234 -0.822,0 -1.41,-0.117 -2.232,-0.234 -0.939,-0.235 -1.762,-0.354 -2.583,-0.588 -0.118,0 -0.235,0 -0.352,0 -1.293,-4.464 -2.232,-8.927 -2.702,-13.508 -0.234,-1.877 -0.354,-3.759 -0.354,-5.754 -0.117,-1.177 -0.117,-2.467 0,-3.642 0,-1.765 0.12,-3.407 0.12,-5.05 0.117,-1.294 0.234,-2.585 0.352,-3.877 0.235,0.118 0.587,0 0.939,-0.116 1.527,-0.944 2.936,-2.234 4.346,-3.291 1.528,-1.29 3.056,-2.468 4.699,-3.759 2.701,-2.112 5.521,-4.346 8.105,-6.693 3.524,-3.055 6.812,-6.228 9.866,-9.753 -0.47,2.234 -0.822,4.464 -1.057,6.698 -0.469,3.172 -0.586,6.459 -0.586,9.749 0,1.408 0,2.938 0.118,4.463 0,0.705 0.117,1.409 0.117,2.117 0.352,5.403 1.056,10.688 2.114,15.973 0,0.117 0,0.117 0,0.234 -1.175,0.469 -1.997,2 -2.466,3.055 -1.177,2.465 -1.881,4.93 -2.116,7.633 z m 7.282,1.291 v 0 c 0.235,1.056 0.469,1.994 0.704,3.056 -0.118,0 -0.352,0.234 -0.469,0.352 -0.118,0 -0.586,0.234 -0.586,0.234 v 0 c -0.235,0.117 -0.47,0.117 -0.705,0.235 -0.824,0.352 -1.645,0.586 -2.469,0.82 -0.352,-1.994 -0.939,-4.11 -0.704,-5.988 0.234,-1.647 0.704,-3.29 1.174,-4.933 0.237,-0.708 0.589,-1.764 0.941,-2.586 0.352,1.525 0.704,2.938 1.058,4.464 0.353,1.408 0.705,2.938 1.056,4.346 z m -0.821,-60.258 v 0 c -1.88,2.35 -3.877,4.697 -5.874,6.931 -4.581,4.933 -9.516,9.396 -14.566,13.743 -1.76,1.526 -3.64,3.172 -5.403,4.698 -1.41,1.173 -2.938,2.234 -4.346,3.524 0.117,-1.174 0.353,-2.234 0.353,-3.407 0.117,-0.822 0.234,-1.76 0.234,-2.7 v 0 c 1.41,-5.407 1.292,-11.043 0.117,-16.445 -0.587,-3.172 -1.763,-6.11 -2.936,-9.162 -1.293,-2.938 -2.818,-6.11 -5.287,-8.34 1.058,-0.938 1.997,-2.117 2.82,-3.172 1.056,-1.643 1.76,-3.408 2.232,-5.285 0.352,-1.293 0.704,-3.055 0.587,-4.581 0.469,-0.824 0.234,-1.998 -0.117,-2.821 -0.118,-0.117 -0.235,-0.352 -0.353,-0.469 0.117,-0.117 0.117,-0.117 0.117,-0.117 1.879,-2.583 2.584,-5.756 2.702,-8.81 0.234,-3.053 0,-6.696 -0.939,-9.631 -0.117,-0.117 -0.117,-0.354 -0.234,-0.471 2.936,-2.818 5.285,-6.578 6.576,-10.335 0,-0.117 0.117,-0.117 0.117,-0.235 0.706,-0.354 1.293,-0.706 1.999,-1.058 1.173,-0.704 2.464,-1.41 3.64,-2.232 1.059,-0.704 2.115,-1.527 3.171,-2.349 0.707,-0.587 1.41,-1.293 1.999,-1.88 0.352,-0.352 0.587,-0.586 0.822,-0.822 0.353,-0.469 0.47,-1.058 0.353,-1.527 1.292,-0.822 2.701,-1.645 3.993,-2.584 2.702,-1.879 5.286,-3.876 7.752,-5.991 5.052,-3.994 9.633,-8.457 13.745,-13.39 0.469,-0.587 0.938,-1.056 1.408,-1.645 0,0.823 0.117,1.645 0.235,2.466 0.234,2.468 0.706,5.052 1.292,7.519 0.117,0.822 0.352,1.763 0.587,2.584 0,0.117 0.117,0.235 0.117,0.353 1.293,5.052 3.055,9.867 5.287,14.565 0.704,1.409 1.408,2.701 2.114,3.995 0.118,0.352 0.235,0.586 0.47,0.821 -2.231,1.41 -3.29,4.815 -3.525,7.282 0,0.824 0.117,1.763 0.235,2.703 -1.056,-0.823 -2.231,-1.41 -3.405,-1.527 -2.703,-0.234 -4.698,2.232 -5.404,4.815 -1.292,-0.352 -2.701,-0.587 -3.993,-0.939 -1.88,-0.471 -3.759,-1.058 -5.521,-1.645 -0.822,-0.235 -1.528,-0.587 -2.349,-0.822 -0.586,-0.237 -0.352,-0.237 -1.056,-0.471 -0.12,-0.117 -0.354,-0.117 -0.472,-0.234 -0.118,0 -0.352,-0.118 -0.469,-0.118 v 0 0 0 0 c -0.821,-0.352 -1.645,-0.821 -2.349,-1.174 -0.235,-0.117 -0.352,-0.235 -0.469,-0.352 -0.117,0 -0.352,-0.237 -0.469,-0.237 v 0 0 c -0.354,-0.352 -0.589,-0.704 -0.941,-1.056 -0.587,-0.469 -1.057,-1.176 -1.528,-1.762 -0.822,-1.173 -1.409,-2.466 -1.995,-3.642 0,-0.117 -0.119,-0.234 -0.119,-0.352 -0.821,-2.115 -1.291,-4.347 -2.232,-6.343 -0.235,-0.705 -1.056,-0.587 -1.525,-0.235 -0.235,0.235 -0.353,0.472 -0.353,0.706 -0.117,3.17 1.174,6.341 2.466,9.044 0.939,2.232 2.466,4.346 4.229,5.989 2.232,2.115 5.05,3.408 7.751,4.581 1.293,0.472 2.466,0.94 3.76,1.293 1.408,0.469 2.818,0.823 4.346,1.293 1.291,0.235 2.701,0.586 3.994,0.821 3.405,0.587 6.813,0.821 10.217,0.587 -2.466,4.935 -4.698,9.868 -7.165,14.684 -3.17,5.756 -6.46,11.511 -10.22,16.913 -1.995,2.937 -3.994,5.758 -6.223,8.458 z m 31.596,-46.985 v 0 c -0.352,0.47 -0.821,0.824 -1.175,1.176 0.237,-0.235 -0.469,0.234 -0.587,0.234 -0.117,0.117 -0.822,0.47 -0.704,0.47 -0.589,0.235 -1.175,0.352 -1.762,0.469 -0.352,0.117 -0.705,0.235 -1.174,0.235 0,0 -0.117,0.117 -0.237,0.117 -0.469,-0.822 -1.056,-1.644 -1.291,-2.584 -0.47,-1.174 -0.707,-2.466 -0.707,-3.875 -0.117,-1.176 0.117,-2.351 0.589,-3.524 0.234,-0.704 0.821,-1.411 1.291,-2.114 1.293,2.114 2.584,3.994 4.112,5.874 0.706,0.821 1.41,1.76 2.231,2.466 v 0 c -0.117,0.47 -0.117,0.353 -0.234,0.587 -0.118,0.117 -0.235,0.235 -0.235,0.352 -0.117,0 -0.117,0.117 -0.117,0.117 z m -9.279,2.936 v 0 c -0.824,0 -1.528,0 -2.349,-0.117 -1.293,0 -2.701,-0.117 -3.994,-0.353 0.352,-1.291 0.939,-2.466 2.232,-2.466 1.645,0 2.936,1.527 4.111,2.936 z m 14.329,-1.995 v 0 c -1.643,2.936 -3.405,5.872 -5.167,8.81 -3.29,5.637 -6.93,11.159 -10.572,16.561 -3.64,5.521 -7.517,10.808 -11.394,16.092 -1.997,2.703 -3.994,5.406 -5.874,8.105 -0.469,0.586 -0.821,1.173 -1.291,1.76 0.235,-0.939 0.353,-1.76 0.587,-2.7 7.634,-9.63 14.094,-20.203 19.381,-31.361 1.76,-3.759 3.522,-7.636 4.815,-11.631 1.879,-0.352 3.642,-0.938 5.167,-2.114 1.176,-0.822 1.998,-1.879 2.467,-3.288 0.119,-0.469 0.236,-0.823 0.236,-1.293 0.939,-0.235 1.408,-1.41 0.705,-2.584 -0.235,-0.469 -0.586,-0.821 -0.941,-1.175 0.354,-0.587 0.472,-1.291 0.706,-1.997 0.469,0 1.056,0.119 1.643,0.119 0.941,0 1.997,0.118 2.938,0.118 -1.174,2.114 -2.23,4.346 -3.406,6.578 z m 11.16,-11.747 v 0 c -0.117,0 -0.117,0 -0.117,0 v 0 c -0.117,0 -0.117,0 -0.235,0.117 -0.235,0 -0.47,0 -0.705,0 -0.469,0.117 -0.94,0.117 -1.41,0.117 v 0 c 0.117,-0.47 0.117,-1.056 0.234,-1.525 0.235,-0.941 0.469,-2.115 1.175,-2.82 0.47,-0.47 0.939,-0.235 1.528,0.234 0.938,0.823 1.761,1.762 2.466,2.586 0.118,0.352 0.118,0.586 0.235,0.704 -1.057,0.234 -2.114,0.469 -3.171,0.587 z m 6.929,-11.629 v 0 c 0.589,1.057 1.176,1.998 1.762,3.054 0.707,1.176 1.293,2.938 2.349,4.111 0,0.117 0,0.117 0,0.117 0,0.117 -0.117,0.117 -0.117,0.235 -0.118,0.117 -0.235,0.234 -0.235,0.471 v 0 c -0.117,0 -0.352,0.352 -0.469,0.469 h -0.117 v 0 0 c 0,0.117 -0.234,0.234 -0.234,0.234 -0.235,0.235 -0.587,0.352 -0.822,0.47 -0.237,0.235 -0.589,0.352 -0.94,0.469 0,0 -0.118,0.118 -0.235,0.118 v 0 0 0 0 0 c -0.117,0.117 -0.234,0.117 -0.352,0.117 -0.471,0.236 -0.941,0.354 -1.528,0.589 0.117,-1.058 -0.235,-2.232 -0.352,-3.173 -0.234,-1.291 -0.352,-2.583 -0.234,-3.876 0,-1.056 0.117,-2.113 0.704,-2.936 0.116,-0.234 0.468,-0.469 0.82,-0.469 z m -1.056,-2.231 v 0 c -0.352,0.117 -0.704,0.117 -0.938,0.234 -1.293,0.704 -2.115,2.115 -2.351,3.524 -0.352,1.643 -0.235,3.288 -0.118,4.933 -1.292,-1.292 -2.818,-2.114 -4.463,-1.528 -1.526,0.47 -2.232,2.115 -2.701,3.525 -0.352,0.939 -0.822,2.349 -0.939,3.64 -1.528,0.117 -3.056,0.117 -4.581,0 -0.707,0 -1.411,0 -2.115,0 0,0 0,-0.118 -0.117,-0.118 0.235,-0.352 0.352,-0.704 0.469,-1.173 0.469,-1.176 0.939,-2.232 1.408,-3.408 0.354,-0.938 0.707,-1.877 0.589,-2.936 -0.117,-0.587 -0.824,-0.587 -1.176,-0.353 -0.821,0.705 -1.173,1.88 -1.643,2.937 -0.471,1.058 -1.058,2.114 -1.527,3.29 -0.235,0.352 -0.352,0.704 -0.588,1.173 -0.352,-0.117 -0.587,-0.234 -0.939,-0.352 -1.057,-0.352 -2.349,-1.174 -3.525,-1.293 -1.291,-2.231 -2.467,-4.581 -3.523,-6.813 0,-0.117 -0.117,-0.234 -0.117,-0.352 -0.941,-1.997 -1.762,-3.994 -2.466,-6.108 -1.059,-3.054 -1.879,-6.224 -2.586,-9.396 -0.704,-2.584 -1.174,-5.285 -1.525,-7.987 -0.117,-1.292 -0.235,-2.585 -0.469,-3.993 0,-0.118 0,-0.353 0,-0.472 3.757,-5.52 6.93,-11.394 9.279,-17.62 2.114,1.176 4.463,1.879 6.695,2.467 3.406,0.941 6.93,1.41 10.337,1.762 0.47,0 0.822,0 1.292,0 0,0.234 0,0.472 0,0.706 0,1.291 0,2.584 0,3.875 0,1.88 0,3.876 -0.118,5.874 0,0.469 0,0.939 0,1.411 -0.117,0.821 -0.117,1.525 -0.234,2.231 -0.118,1.762 -0.353,3.522 -0.47,5.285 -0.235,2.466 -0.587,5.05 -1.41,7.401 -0.117,0.469 0.588,0.821 0.823,0.352 0.939,-1.998 1.878,-3.994 2.583,-6.109 0.235,0.47 0.47,1.056 0.587,1.528 1.058,2.583 2.231,5.167 3.524,7.751 0,0.118 0.117,0.235 0.117,0.235 0.939,1.999 1.88,3.997 2.936,5.877 z m -0.235,-22.318 v 0 c -0.117,2.701 -0.469,5.52 -1.056,8.223 -0.12,0.822 -0.354,1.526 -0.471,2.349 -0.47,-0.94 -1.056,-1.997 -1.527,-2.938 -0.47,-1.056 -0.939,-2.115 -1.409,-3.171 -0.352,-0.823 -0.586,-1.645 -1.058,-2.349 -0.117,-0.117 -0.117,-0.235 -0.234,-0.235 0.234,-1.058 0.354,-2.114 0.471,-3.29 0.352,-2.583 0.469,-5.167 0.469,-7.751 0.117,-1.292 0.117,-2.468 0.117,-3.759 -0.117,-0.352 0,-0.586 0,-0.941 1.409,0.12 2.818,0.12 4.347,0.12 0,0.47 0.117,0.939 0.117,1.409 0.117,1.292 0.234,2.701 0.352,3.994 0.117,2.817 0.117,5.519 -0.118,8.339 z m 93.971,-37.707 v 0 c -1.997,1.292 -4.112,2.468 -6.344,3.407 -2.701,1.176 -5.639,1.88 -8.105,3.29 -0.235,0.117 -0.352,0.235 -0.469,0.469 -1.646,0.47 -3.408,1.056 -5.168,1.525 -6.578,1.88 -13.273,3.173 -19.853,4.464 -14.447,2.82 -28.776,5.521 -43.343,6.462 -6.694,0.47 -13.39,0.47 -20.085,0 -3.172,-0.237 -6.343,-0.354 -9.398,-0.941 -2.231,-0.469 -4.463,-1.41 -6.578,-2.114 0.352,-0.939 0.589,-1.88 0.94,-2.936 1.763,-5.874 3.054,-12.099 3.523,-18.442 -0.117,0 -0.235,-0.117 -0.235,-0.117 -0.704,-0.47 -0.469,-1.526 0.235,-1.644 0.706,-13.272 -1.995,-26.783 -9.983,-37.589 -1.997,-2.701 -4.346,-5.05 -6.813,-7.282 -0.588,-0.469 -1.175,-1.056 -1.88,-1.528 -2.818,-2.231 -5.991,-4.111 -9.279,-5.637 1.526,-1.175 3.054,-2.349 4.581,-3.524 1.88,-1.292 3.641,-2.467 5.637,-3.64 1.879,1.525 3.994,2.936 5.991,4.227 1.528,0.941 3.053,1.88 4.581,2.703 0.941,0.47 1.879,0.939 2.818,1.409 0.235,0.117 0.589,0.352 0.823,0.471 3.288,1.525 6.579,3.288 10.101,4.346 0.941,0.352 1.646,-0.354 1.763,-1.176 0.234,-0.117 0.352,-0.352 0.352,-0.586 0,-1.528 -0.118,-3.173 -0.235,-4.699 -0.117,-0.823 -0.117,-1.527 -0.234,-2.351 -0.469,-3.288 -1.174,-6.576 -1.998,-9.866 -0.117,-0.586 -0.234,-1.174 -0.352,-1.762 5.167,-0.234 10.337,0.588 15.387,2.232 2.115,0.706 4.229,1.645 6.226,2.703 3.405,1.643 6.578,3.757 9.631,5.872 9.164,6.108 16.915,13.859 25.96,20.203 4.346,3.055 8.81,6.109 13.625,8.575 3.759,1.997 7.636,3.525 11.63,4.7 1.526,0.352 2.936,0.705 4.347,1.056 0.586,0.118 1.29,0.235 1.997,0.47 5.168,0.938 10.57,1.175 15.857,1.528 6.46,0.352 13.155,0.352 19.616,0 0.352,1.173 0.469,2.466 0.469,3.757 0.117,0.706 0,1.41 0,2.117 -0.352,4.229 -3.172,8.103 -5.874,11.158 -0.939,1.174 -1.997,2.232 -3.053,3.288 -2.113,1.997 -4.462,3.759 -6.811,5.402 z"
   id="path4854"
   inkscape:connector-curvature="0"
   style="fill:#351b10" />
</g>
</svg>