<?xml version="1.0" encoding="UTF-8" standalone="no"?>
<!-- Generator: Adobe Illustrator 16.0.0, SVG Export Plug-In . SVG Version: 6.00 Build 0)  -->

<svg
   xmlns:ns="&amp;ns_sfw;"
   xmlns:dc="http://purl.org/dc/elements/1.1/"
   xmlns:cc="http://creativecommons.org/ns#"
   xmlns:rdf="http://www.w3.org/1999/02/22-rdf-syntax-ns#"
   xmlns:svg="http://www.w3.org/2000/svg"
   xmlns="http://www.w3.org/2000/svg"
   xmlns:sodipodi="http://sodipodi.sourceforge.net/DTD/sodipodi-0.dtd"
   xmlns:inkscape="http://www.inkscape.org/namespaces/inkscape"
   version="1.0"
   id="Layer_1"
   x="0px"
   y="0px"
   width="250"
   height="310"
   viewBox="0 0 250 310"
   enable-background="new 0 0 1400 980"
   xml:space="preserve"
   sodipodi:docname="Armadillo3.svg"
   inkscape:version="0.92.3 (2405546, 2018-03-11)"><defs
   id="defs4273" /><sodipodi:namedview
   pagecolor="#ffffff"
   bordercolor="#666666"
   borderopacity="1"
   objecttolerance="10"
   gridtolerance="10"
   guidetolerance="10"
   inkscape:pageopacity="0"
   inkscape:pageshadow="2"
   inkscape:window-width="2560"
   inkscape:window-height="1395"
   id="namedview4271"
   showgrid="false"
   inkscape:zoom="0.68113143"
   inkscape:cx="445.12824"
   inkscape:cy="551.49538"
   inkscape:window-x="-13"
   inkscape:window-y="-13"
   inkscape:window-maximized="1"
   inkscape:current-layer="Layer_1" />
<metadata
   id="metadata4188">
	<ns:sfw>
		<ns:slices />
		<ns:sliceSourceBounds
   height="883.218"
   width="1265.103"
   y="-931.609"
   x="67.449"
   bottomLeftOrigin="true" />
	</ns:sfw>
<rdf:RDF><cc:Work
     rdf:about=""><dc:format>image/svg+xml</dc:format><dc:type
       rdf:resource="http://purl.org/dc/dcmitype/StillImage" /><dc:title></dc:title></cc:Work></rdf:RDF></metadata>
<g
   id="g4268"
   transform="translate(-61.662108,-38.69746)">
	<path
   d="m 224.218,148.211 c -0.118,-0.117 -0.352,-0.234 -0.47,-0.353 -0.352,-0.234 -0.704,-0.352 -1.173,-0.352 -0.237,0 -0.471,0 -0.706,0.117 l -0.587,0.234 c -0.117,0.118 -0.235,0.235 -0.353,0.353 -0.234,0.117 -0.352,0.235 -0.469,0.469 -0.234,0.471 -0.352,1.176 -0.234,1.763 0.234,0.586 0.586,1.058 1.056,1.41 0.704,0.353 1.41,0.353 2.114,0.118 0.352,-0.118 0.704,-0.352 0.941,-0.706 0.353,-0.469 0.587,-0.939 0.587,-1.408 0,-0.705 -0.234,-1.293 -0.706,-1.645 z"
   id="path4190"
   inkscape:connector-curvature="0"
   style="fill:#ffffff" />
	<path
   d="m 163.491,149.269 c -0.706,0 -1.292,0.353 -1.762,0.822 -0.352,0.47 -0.587,0.939 -0.587,1.528 0,1.173 1.057,2.231 2.349,2.231 0.704,0 1.291,-0.352 1.76,-0.94 0.237,-0.353 0.472,-0.821 0.472,-1.291 0,-1.294 -1.058,-2.35 -2.232,-2.35 z"
   id="path4192"
   inkscape:connector-curvature="0"
   style="fill:#ffffff" />
	<path
   d="m 235.73,92.183 c -4.935,2.818 -9.515,5.989 -13.979,9.396 -1.526,1.173 -3.054,2.349 -4.581,3.642 -1.057,0.939 -2.114,1.878 -3.171,2.819 -1.997,1.762 -3.994,3.64 -5.874,5.52 -0.234,0.237 -0.469,0.471 -0.704,0.706 -0.941,0.938 -1.763,1.877 -2.703,2.819 -1.526,1.527 -2.936,3.17 -4.346,4.815 1.999,-0.821 4.112,-1.41 5.991,-2.231 1.058,-0.353 1.997,-0.704 3.056,-1.173 1.407,-0.589 2.936,-1.176 4.346,-1.763 0.587,-0.352 1.291,-0.589 1.879,-0.94 2.818,-1.292 5.637,-2.701 8.338,-4.112 1.293,-0.704 2.583,-1.525 3.876,-2.23 4.347,-2.586 8.458,-5.404 12.452,-8.574 3.875,-4.699 10.689,-8.575 10.924,-15.036 -5.52,1.172 -10.688,3.52 -15.504,6.342 z"
   id="path4194"
   inkscape:connector-curvature="0"
   style="fill:#f5be4e" />
	<path
   d="m 207.422,230.318 c -0.352,1.056 -0.824,1.998 -1.293,2.937 4.933,3.524 10.455,6.226 16.563,6.343 0.117,0 0.235,0 0.469,0 0.117,-0.234 0.352,-0.589 0.587,-0.941 0.235,-0.352 0.352,-0.704 0.589,-1.056 -5.521,-3.642 -10.926,-7.636 -16.094,-11.865 0.001,1.527 -0.351,3.172 -0.821,4.582 z"
   id="path4196"
   inkscape:connector-curvature="0"
   style="fill:#f5be4e" />
	<path
   d="m 181.11,199.661 c -1.762,2.114 -3.994,3.875 -6.226,5.285 5.05,5.522 10.572,10.689 16.208,15.74 4.229,3.759 8.458,7.753 12.922,11.159 0.587,-1.291 1.058,-2.466 1.41,-3.875 0.234,-1.411 0.234,-2.821 0.352,-4.346 -5.873,-4.935 -11.51,-10.337 -17.032,-15.742 -2.583,-2.702 -5.167,-5.403 -7.634,-8.221 z"
   id="path4198"
   inkscape:connector-curvature="0"
   style="fill:#f5be4e" />
	<path
   d="m 231.972,135.761 c 0,0.118 0,0.235 0,0.235 -0.704,3.875 -6.109,5.167 -9.279,5.754 -2.583,0.587 -5.287,1.176 -7.871,1.763 -2.115,0.352 -4.229,0.704 -6.108,1.762 -3.757,1.997 -6.46,5.52 -9.749,7.988 -3.173,2.23 -7.519,4.109 -11.159,2.347 -1.292,0 -2.466,0 -3.759,-0.234 -1.41,-0.47 -2.701,-0.939 -4.111,-1.644 -2.701,-1.527 -5.285,-3.407 -7.986,-4.933 -2.82,-1.528 -5.874,-2.821 -9.044,-3.525 -1.646,-0.352 -3.172,-0.469 -4.818,-0.469 -1.056,-0.117 -2.232,0 -3.288,-0.353 0.352,1.292 0.704,2.466 1.056,3.641 1.528,-1.528 4.347,-1.763 6.344,-1.056 2.936,0.821 5.521,2.936 6.93,5.637 1.527,2.819 1.645,6.108 -0.47,8.692 -1.291,1.528 -3.407,2.583 -5.52,2.701 -0.354,0 -0.823,0 -1.293,0 2.584,5.64 5.522,11.044 8.81,16.211 0.118,0.118 0.235,0.235 0.352,0.47 0.941,0.117 1.88,0.469 2.819,0.938 0,-1.408 0.941,-3.053 1.527,-4.111 0.706,-1.408 1.528,-2.818 2.584,-3.992 1.528,-2.114 3.408,-3.994 5.287,-5.639 3.875,-3.405 8.458,-6.578 13.743,-7.282 1.175,-0.117 2.349,0 3.405,0.117 -1.174,-1.175 -2.818,-1.88 -4.581,-1.88 -4.581,0 -8.455,2.936 -12.215,5.285 -0.117,0.117 -0.352,-0.118 -0.234,-0.235 1.528,-1.995 3.523,-3.64 5.637,-5.05 1.997,-1.408 4.583,-2.466 7.167,-2.583 2.583,-0.118 5.402,0.821 7.047,2.936 0.939,1.176 1.646,2.349 2.349,3.643 0.117,0.352 0.352,0.821 0.469,1.173 1.176,1.176 2.232,2.821 2.936,4.464 1.176,2.82 1.645,5.756 1.997,8.692 0.237,2.351 0.472,4.818 0.355,7.284 4.933,-1.88 9.396,-4.581 13.273,-8.34 4.463,-4.464 7.751,-9.866 9.983,-15.857 1.879,-4.817 2.466,-9.867 1.997,-14.918 -1.412,-3.173 -3.055,-6.344 -4.582,-9.632 z m -3.643,17.854 v 0 c -0.352,4.229 -3.405,8.34 -7.869,8.575 -4.346,0.234 -9.398,-3.291 -9.985,-7.753 -0.469,-3.173 1.175,-6.343 3.994,-7.637 1.058,-1.056 2.701,-1.877 3.994,-2.112 5.403,-1.058 10.338,3.523 9.866,8.927 z"
   id="path4200"
   inkscape:connector-curvature="0"
   style="fill:#f5be4e" />
	<path
   d="m 169.128,120.608 c 0.353,-0.472 0.824,-0.941 1.293,-1.293 1.645,-1.645 3.288,-3.407 4.815,-5.167 l 0.117,-0.117 c 0.352,-0.588 0.706,-1.176 1.059,-1.879 1.056,-1.763 2.231,-3.525 3.171,-5.288 0.117,-0.117 0.117,-0.234 0.234,-0.352 0.589,-1.174 1.175,-2.349 1.762,-3.524 1.173,-2.23 2.232,-4.464 3.173,-6.693 2.936,-6.814 5.167,-14.332 4.227,-21.731 -3.992,2.349 -7.282,5.637 -10.335,9.279 -3.172,3.994 -5.991,8.34 -8.34,12.921 -1.176,2.583 -2.349,5.285 -3.172,7.986 -0.47,1.175 -0.822,2.349 -1.174,3.525 -0.234,1.058 -0.469,2.114 -0.706,3.17 -0.469,2.115 -0.821,4.229 -0.939,6.343 -0.117,1.293 -0.234,2.466 -0.352,3.759 0,1.293 0,2.584 -0.117,3.995 1.644,-1.763 3.524,-3.291 5.284,-4.934 z"
   id="path4202"
   inkscape:connector-curvature="0"
   style="fill:#f5be4e" />
	<path
   d="m 179.583,197.898 c -4.933,-5.757 -9.514,-11.748 -13.509,-18.207 -2.466,-3.994 -4.698,-8.105 -6.695,-12.334 -1.41,0.939 -3.055,1.527 -4.463,1.997 -1.175,0.353 -2.349,0.704 -3.525,0.939 0.941,2.231 1.88,4.463 3.055,6.578 2.819,5.639 6.341,10.924 10.101,16.094 2.82,3.522 5.756,7.047 8.809,10.335 1.058,-0.587 1.997,-1.291 2.938,-2.114 1.175,-1.056 2.232,-2.232 3.289,-3.288 z"
   id="path4204"
   inkscape:connector-curvature="0"
   style="fill:#f5be4e" />
	<path
   d="m 157.383,166.301 c 0.352,-0.236 0.821,-0.471 1.175,-0.706 -2.586,-5.757 -4.817,-11.628 -6.579,-17.619 -0.118,-0.587 -0.235,-1.176 -0.47,-1.763 -0.587,0.352 -1.291,0.586 -1.997,0.824 -1.526,0.469 -3.053,0.821 -4.698,1.056 0.823,3.642 1.762,7.282 2.818,10.923 0.94,3.291 1.88,6.461 3.055,9.514 1.292,-0.234 2.584,-0.586 3.759,-0.939 0.94,-0.351 1.996,-0.82 2.937,-1.29 z"
   id="path4206"
   inkscape:connector-curvature="0"
   style="fill:#f5be4e" />
	<path
   d="m 145.637,101.813 c 0.469,-0.234 1.056,-0.469 1.526,-0.704 0,-3.29 -0.117,-6.578 -0.587,-9.868 -0.117,-1.528 -0.47,-3.053 -0.704,-4.581 -0.118,-0.469 -0.352,-0.938 -0.469,-1.528 -1.88,5.287 -3.407,10.689 -4.229,16.329 0,0.117 0,0.234 0,0.234 0.47,0.235 0.939,0.235 1.526,0.353 0.94,0 1.997,0 2.937,-0.235 z"
   id="path4208"
   inkscape:connector-curvature="0"
   style="fill:#f5be4e" />
	<path
   d="m 145.754,125.659 c 0.587,-0.117 1.174,-0.235 1.761,-0.47 -0.469,-4.7 -0.586,-9.516 -0.586,-14.331 0.117,-2.466 0.117,-4.933 0.117,-7.399 -1.88,0.704 -4.112,0.586 -6.107,0 -0.706,5.285 -0.823,10.689 -0.471,16.092 0.117,2.114 0.234,4.229 0.471,6.46 0.117,0 0.352,0 0.47,0 1.408,0.117 2.935,0 4.345,-0.352 z"
   id="path4210"
   inkscape:connector-curvature="0"
   style="fill:#f5be4e" />
	<path
   d="m 151.04,144.336 c -1.173,-4.7 -2.114,-9.516 -2.818,-14.331 -0.235,-0.941 -0.352,-1.879 -0.469,-2.818 -0.706,0.234 -1.528,0.352 -2.115,0.469 -1.527,0.234 -2.938,0.234 -4.464,0.117 0.705,6.226 1.761,12.334 3.171,18.323 1.879,-0.117 3.642,-0.586 5.405,-1.291 0.468,-0.117 0.82,-0.352 1.29,-0.469 z"
   id="path4212"
   inkscape:connector-curvature="0"
   style="fill:#f5be4e" />
	<path
   d="m 282.246,230.788 c -0.352,-1.293 -0.939,-2.701 -1.293,-3.995 -1.29,-0.234 -2.466,-0.469 -3.639,-0.821 -5.287,-1.41 -10.69,-3.408 -15.388,-6.343 -7.519,-4.815 -12.687,-12.1 -15.153,-20.675 -1.293,-4.581 -1.879,-9.279 -2.231,-13.977 -0.235,-1.997 -0.235,-3.877 -0.354,-5.874 -2.584,3.29 -6.107,5.991 -9.631,8.223 -4.581,2.818 -9.514,5.404 -14.682,7.399 -6.346,2.468 -13.039,4.229 -19.853,5.052 -3.288,0.352 -6.696,0.352 -9.983,-0.117 -1.763,-0.354 -3.407,-0.824 -5.05,-1.293 -0.117,-0.117 -0.234,-0.117 -0.354,-0.117 3.055,3.407 6.225,6.578 9.398,9.866 3.877,3.759 7.752,7.401 11.863,10.926 0.47,-0.117 0.941,-0.237 1.411,-0.354 1.173,-0.352 2.349,-0.821 3.522,-1.291 2.115,-0.824 4.229,-1.645 6.227,-2.818 1.997,-1.058 3.759,-2.117 5.285,-3.759 1.645,-1.646 2.821,-3.642 4.111,-5.521 0.235,-0.353 0.824,-0.118 0.707,0.352 -0.589,2.231 -1.88,4.229 -3.408,6.108 -1.41,1.763 -3.17,3.643 -4.933,5.051 -2.115,1.527 -4.346,2.703 -6.578,3.759 -0.822,0.352 -1.88,0.821 -2.937,1.292 5.52,4.463 11.159,8.81 16.914,12.921 0.117,0 0.117,-0.117 0.234,-0.117 0.117,-0.12 0.235,-0.237 0.354,-0.237 1.174,-1.761 3.054,-3.288 4.581,-4.347 2.231,-1.525 5.05,-2.583 7.751,-2.466 3.056,0.12 5.874,1.176 8.458,2.703 0.352,-0.237 0.704,-0.471 0.939,-0.706 0.588,-0.587 1.176,-1.291 1.527,-1.997 0.235,-0.352 0.941,-0.234 0.823,0.237 -0.117,1.056 -0.354,1.877 -0.94,2.818 -0.234,0.234 -0.352,0.469 -0.586,0.704 0.938,0.707 1.879,1.411 2.818,2.232 3.172,2.818 5.874,6.108 9.044,8.81 2.938,2.467 6.226,4.111 9.985,3.642 2.467,-0.234 4.815,-1.058 6.93,-2.349 0.117,-0.354 0.235,-0.588 0.352,-0.94 0.47,-0.939 1.528,-1.057 2.349,-0.822 0.589,-0.352 1.059,-0.821 1.646,-1.175 0.234,-1.408 0.469,-2.818 0.469,-4.227 -0.001,-1.88 -0.236,-3.878 -0.705,-5.757 z"
   id="path4214"
   inkscape:connector-curvature="0"
   style="fill:#fab732" />
	<path
   d="m 182.284,195.432 c 0.823,0.234 1.645,0.469 2.469,0.586 3.17,0.821 6.81,0.586 10.101,0.352 3.29,-0.234 6.578,-0.704 9.866,-1.292 6.58,-1.291 13.038,-3.406 19.029,-6.341 7.282,-3.407 15.857,-7.636 20.32,-14.684 -0.117,-1.997 -0.234,-3.994 -0.469,-5.991 -0.704,-5.52 -2.349,-10.924 -4.229,-16.209 -0.353,-0.706 -0.587,-1.527 -0.939,-2.231 -0.586,-1.41 -1.175,-2.821 -1.879,-4.229 0.47,5.051 -0.117,10.101 -1.997,14.918 -2.232,5.991 -5.52,11.394 -9.983,15.857 -3.877,3.759 -8.34,6.46 -13.273,8.34 0.117,-2.466 -0.118,-4.933 -0.355,-7.284 -0.352,-2.936 -0.821,-5.872 -1.997,-8.692 -0.704,-1.643 -1.76,-3.288 -2.936,-4.464 0.353,0.824 0.587,1.646 0.235,2.469 -0.235,0.587 -0.704,1.056 -1.291,0.822 -0.237,-0.118 -0.471,-0.235 -0.706,-0.352 -0.47,-0.235 -0.822,-0.705 -1.057,-1.059 -0.94,-1.291 -1.41,-3.053 -2.115,-4.229 -0.234,-0.352 -0.469,-0.586 -0.706,-0.938 -1.056,-0.117 -2.23,-0.234 -3.405,-0.117 -5.285,0.704 -9.868,3.877 -13.743,7.282 -1.879,1.645 -3.759,3.524 -5.287,5.639 -1.056,1.174 -1.878,2.584 -2.584,3.992 -0.586,1.058 -1.527,2.703 -1.527,4.111 -0.939,-0.469 -1.878,-0.821 -2.819,-0.938 1.176,1.762 2.349,3.407 3.525,5.05 2.468,3.406 5.051,6.576 7.752,9.632 z"
   id="path4216"
   inkscape:connector-curvature="0"
   style="fill:#fab732" />
	<path
   d="m 206.129,233.254 c -0.469,0.821 -0.938,1.645 -1.41,2.349 -0.234,0.234 -0.469,0.469 -0.587,0.704 -5.637,7.167 -14.446,11.276 -23.256,12.569 -6.108,0.824 -13.273,0.705 -19.264,-1.645 0.821,1.175 1.527,2.232 2.349,3.407 0.821,0.704 1.645,1.525 2.466,2.232 4.111,3.64 8.692,7.282 13.743,9.514 5.756,2.701 12.217,2.349 17.973,-0.352 5.989,-2.701 11.394,-6.93 15.975,-11.394 2.466,-2.349 4.698,-4.933 6.695,-7.636 v 0 c 0.822,-1.056 1.526,-2.231 2.349,-3.405 -0.234,0 -0.352,0 -0.469,0 -6.109,-0.117 -11.631,-2.819 -16.564,-6.343 z"
   id="path4218"
   inkscape:connector-curvature="0"
   style="fill:#fab732" />
	<path
   d="m 187.806,244.647 c 4.229,-1.645 8.458,-3.876 11.746,-7.047 0.94,-0.822 1.762,-1.762 2.466,-2.701 0.589,-0.707 1.175,-1.527 1.645,-2.349 0.118,-0.234 0.235,-0.469 0.353,-0.706 -4.463,-3.405 -8.692,-7.399 -12.922,-11.159 -5.637,-5.05 -11.158,-10.218 -16.208,-15.74 -0.704,0.47 -1.411,0.824 -1.997,1.176 -0.469,0.234 -0.939,0.352 -1.291,0.586 -3.055,1.409 -6.226,2.349 -9.515,2.702 -3.76,0.352 -7.752,0.117 -11.394,-0.822 -2.466,-0.706 -4.698,-1.645 -6.813,-2.938 1.174,4.935 2.584,9.75 4.229,14.448 1.88,5.637 4.229,10.924 6.93,16.092 0.469,0.706 0.821,1.41 1.174,2.232 1.058,1.997 2.233,3.876 3.525,5.874 0.234,0.118 0.469,0.235 0.704,0.352 8.456,3.877 18.793,3.054 27.368,0 z"
   id="path4220"
   inkscape:connector-curvature="0"
   style="fill:#fab732" />
	<path
   d="m 147.752,170.648 c -3.759,0.117 -7.284,-0.589 -10.572,-2.469 0.469,4.111 1.056,8.105 1.76,12.1 1.293,7.988 2.703,16.091 4.583,23.962 5.52,2.819 12.215,3.875 18.206,3.053 2.819,-0.234 5.757,-1.056 8.34,-2.232 0.586,-0.234 1.174,-0.586 1.645,-0.821 0.587,-0.235 1.056,-0.589 1.643,-0.941 -3.053,-3.288 -5.989,-6.813 -8.809,-10.335 -3.76,-5.169 -7.282,-10.455 -10.101,-16.094 -1.175,-2.114 -2.114,-4.346 -3.055,-6.578 -1.056,0.234 -2.114,0.354 -3.17,0.354 -0.118,0.001 -0.236,0.001 -0.47,0.001 z"
   id="path4222"
   inkscape:connector-curvature="0"
   style="fill:#fab732" />
	<path
   d="m 141.173,101.461 c 0.822,-5.639 2.35,-11.042 4.229,-16.329 -0.118,-0.586 -0.237,-1.173 -0.237,-1.877 -2.466,3.053 -4.11,6.576 -5.167,10.335 -0.705,2.349 -1.176,4.581 -1.646,6.932 0.941,0.587 1.763,0.939 2.82,1.173 0.001,0.001 0.001,-0.116 0.001,-0.234 z"
   id="path4224"
   inkscape:connector-curvature="0"
   style="fill:#fab732" />
	<path
   d="m 143.523,148.211 c -0.706,0 -1.41,0 -2.114,-0.117 -2.115,-0.117 -4.229,-0.587 -6.108,-1.528 0.234,6.815 0.938,13.627 1.763,20.44 3.053,1.408 6.694,1.997 10.1,1.879 0.352,0 0.706,0 1.058,0 0.821,-0.12 1.645,-0.237 2.466,-0.354 -1.175,-3.053 -2.115,-6.224 -3.055,-9.514 -1.056,-3.641 -1.995,-7.282 -2.818,-10.923 -0.471,0 -0.94,0.117 -1.292,0.117 z"
   id="path4226"
   inkscape:connector-curvature="0"
   style="fill:#fab732" />
	<path
   d="m 138.705,145.745 c 0.824,0.234 1.528,0.352 2.234,0.469 1.057,0 2.23,0.117 3.288,0 0,-0.118 0.117,-0.118 0.117,-0.118 -1.41,-5.989 -2.466,-12.098 -3.171,-18.323 -0.234,0 -0.471,0 -0.588,-0.117 -0.938,-0.118 -1.88,-0.352 -2.818,-0.705 -0.939,-0.354 -1.763,-0.823 -2.466,-1.292 -0.235,2.818 -0.235,5.756 -0.235,8.692 -0.117,3.405 0,6.696 0.117,9.985 1.173,0.587 2.232,1.174 3.522,1.409 z"
   id="path4228"
   inkscape:connector-curvature="0"
   style="fill:#fab732" />
	<path
   d="m 140.939,126.011 c -0.237,-2.232 -0.354,-4.347 -0.471,-6.46 -0.352,-5.403 -0.235,-10.807 0.471,-16.092 -1.058,-0.234 -1.999,-0.707 -2.938,-1.293 0,0.235 0,0.469 -0.117,0.705 -0.469,2.82 -0.821,5.639 -1.173,8.34 -0.589,4.229 -1.059,8.34 -1.293,12.569 0.704,0.469 1.41,0.939 2.115,1.293 1.055,0.469 2.231,0.821 3.406,0.938 z"
   id="path4230"
   inkscape:connector-curvature="0"
   style="fill:#fab732" />
	<path
   d="m 139.881,202.596 c -0.705,-2.818 -1.293,-5.756 -1.88,-8.575 -0.234,3.877 -0.938,7.753 -2.349,11.394 -3.994,11.275 -13.038,19.968 -23.375,25.607 -4.112,2.232 -8.576,4.111 -13.156,5.285 0.235,0.354 0.472,0.707 0.707,1.058 0.704,1.291 1.173,2.937 1.056,4.581 4.581,-0.117 9.162,-0.939 13.273,-2.702 5.639,-2.349 10.689,-5.639 16.328,-7.871 1.763,-0.704 3.523,-1.293 5.285,-1.645 -0.235,-0.235 -0.469,-0.587 -0.704,-0.939 -0.824,-0.821 -1.293,-1.998 -1.88,-3.055 -0.117,-0.234 0.234,-0.352 0.352,-0.234 0.704,1.058 1.645,1.879 2.583,2.82 0.353,0.352 0.707,0.821 1.176,1.173 3.288,-0.587 6.695,-0.47 9.983,0.823 0.706,0.235 1.292,0.587 1.997,0.939 -4.229,-8.927 -7.047,-18.323 -9.279,-27.957 0.001,-0.232 -0.117,-0.466 -0.117,-0.702 z"
   id="path4232"
   inkscape:connector-curvature="0"
   style="fill:#fab732" />
	<path
   d="m 294.463,229.847 c -0.12,0.234 -0.12,0.353 -0.237,0.589 -0.353,4.346 -3.992,8.337 -7.047,11.275 -0.939,0.821 -1.88,1.763 -2.936,2.584 -0.235,0.469 -0.589,0.704 -1.059,0.941 -0.117,0 -0.117,0 -0.117,0 -0.586,0.352 -1.056,0.704 -1.643,1.056 -1.879,1.173 -3.76,2.232 -5.874,2.936 -0.706,0.235 -1.41,0.471 -2.115,0.589 -4.463,0.821 -8.692,0 -12.334,-2.469 -3.522,-2.466 -6.343,-5.637 -9.396,-8.692 -2.936,-2.936 -6.343,-5.754 -10.572,-6.813 -2.584,-0.587 -5.051,-0.118 -7.282,1.176 -1.293,0.821 -2.232,1.645 -3.29,2.701 -0.821,0.586 -1.525,1.293 -2.349,1.879 -0.352,0.822 -0.821,1.645 -1.408,2.466 -0.588,1.176 -1.41,2.232 -2.114,3.408 -1.646,2.232 -3.408,4.463 -5.287,6.578 -3.758,4.111 -7.986,7.752 -12.45,10.805 -5.169,3.642 -11.161,6.58 -17.502,6.814 -6.344,0.235 -11.865,-2.351 -17.033,-5.874 -4.815,-3.288 -9.396,-6.93 -13.156,-11.393 -1.879,-2.115 -3.642,-4.347 -4.933,-6.93 -0.588,-1.176 -1.058,-2.349 -1.41,-3.525 -1.176,-1.762 -2.466,-3.525 -4.347,-4.698 -3.053,-1.879 -6.577,-2.466 -9.985,-2.114 -5.754,0.704 -11.041,3.759 -16.091,6.343 -5.285,2.701 -10.572,4.933 -16.562,5.402 -2.234,0.234 -4.583,0.234 -6.814,0.117 v -0.704 c -0.704,0 -1.291,-0.587 -1.291,-1.41 0,-0.353 0,-0.704 0,-1.056 0,-1.176 0,-2.232 -0.704,-3.29 -0.354,-0.586 -0.824,-1.056 -1.293,-1.643 -2.936,0.469 -5.639,0.704 -8.575,0.587 -0.704,0 -1.293,0 -1.997,0 -0.704,-0.118 -1.292,-0.235 -1.997,-0.352 0,0.117 0.117,0.234 0.117,0.234 0.117,0.352 -0.352,0.705 -0.586,0.587 -0.235,0 -0.469,-0.118 -0.705,-0.118 -2.231,-0.939 -3.876,-3.524 -4.935,-5.754 -0.352,-0.589 -0.587,-1.058 -0.704,-1.527 -0.47,-1.059 -0.939,-1.998 -1.291,-3.056 -0.119,-0.469 -0.236,-0.939 -0.471,-1.408 -0.587,1.408 -1.057,2.818 -1.526,4.347 -1.88,6.108 -2.115,12.449 -1.41,18.792 0.939,1.293 1.879,2.466 2.936,3.525 1.762,1.645 3.642,3.053 5.756,4.111 0.469,0.117 0.821,0.352 1.291,0.586 1.411,0.47 2.703,0.939 4.111,1.293 2.703,0.587 5.521,0.822 8.223,0.822 9.396,0 18.558,-2.35 27.604,-4.699 4.109,-1.058 8.104,-1.997 12.333,-2.703 2.231,-0.352 4.581,-0.821 6.812,-0.352 2.586,0.706 4.583,2.351 6.109,4.463 0.234,0.354 0.234,0.707 0,0.941 0.823,0.939 1.644,1.997 2.466,2.937 1.292,1.762 2.584,3.407 3.994,4.933 2.701,3.172 5.756,5.991 9.162,8.223 11.276,7.401 25.138,7.871 37.705,4.229 6.226,-1.879 12.1,-4.346 17.502,-7.988 2.586,-1.76 5.17,-3.64 7.519,-5.754 1.173,-1.058 2.466,-2.232 3.642,-3.407 h 0.117 c -0.117,-0.117 0,-0.234 0,-0.353 3.053,-4.229 6.93,-7.871 10.218,-11.862 0.352,-0.471 0.94,-0.471 1.292,-0.235 3.641,2.35 7.282,4.463 10.924,6.578 1.879,1.173 3.759,2.349 5.52,3.522 0.352,0.235 0.706,0.471 1.175,0.706 h 0.117 c 1.88,0.234 3.523,1.291 5.286,1.76 1.645,0.472 3.29,0.823 5.052,0.941 v 0 c 1.76,0 3.523,0 5.285,-0.235 1.645,-0.234 3.29,-0.588 4.933,-1.176 6.695,-2.231 12.099,-6.46 17.032,-11.276 0.118,-0.469 0.118,-1.058 0.118,-1.527 0.002,-5.753 -0.702,-11.626 -1.523,-17.383 z"
   id="path4234"
   inkscape:connector-curvature="0"
   style="fill:#b08530" />
	<path
   d="m 229.505,128.36 c 0.938,1.175 1.879,2.466 2.583,3.877 v 0 c 1.997,2.701 3.759,5.519 5.404,8.458 1.174,1.879 2.23,3.876 3.17,5.871 2.584,5.17 4.698,10.69 5.874,16.329 0.47,2.349 0.822,4.815 1.056,7.282 0.704,7.399 0.586,14.801 1.88,22.2 1.527,8.458 4.933,16.446 11.863,21.848 4.111,3.29 9.044,5.405 13.979,7.047 3.053,0.941 6.226,1.88 9.397,1.88 3.17,0.117 5.991,-0.705 8.81,-2.35 0,-0.704 0,-1.408 -0.118,-2.231 0,-1.88 -0.234,-3.757 -0.469,-5.755 -5.521,1.763 -12.569,-1.175 -17.033,-4.346 -4.463,-3.055 -7.871,-7.167 -10.103,-12.1 -4.346,-9.514 -4.58,-20.085 -5.637,-30.423 -0.821,-6.813 -2.114,-13.273 -4.112,-19.733 -1.056,-3.288 -2.231,-6.46 -3.524,-9.514 -0.822,-1.997 -1.878,-3.876 -2.818,-5.874 -0.118,-0.117 -0.235,-0.352 -0.47,-0.47 -1.645,-1.879 -3.408,-3.642 -4.933,-5.521 -1.762,-1.173 -3.407,-2.583 -5.052,-3.757 -2.819,-2.114 -5.873,-4.229 -8.927,-6.108 -0.821,-0.47 -1.644,-0.939 -2.467,-1.41 -3.288,1.88 -6.578,3.642 -9.985,5.169 1.762,1.056 3.407,2.115 5.052,3.405 2.469,1.762 4.7,3.877 6.58,6.226 z"
   id="path4236"
   inkscape:connector-curvature="0"
   style="fill:#b08530" />
	<path
   d="m 291.29,231.14 c 0.234,-0.94 0.704,-1.762 1.056,-2.584 0.354,-0.941 0.588,-1.88 0.823,-2.82 0,-0.117 0.117,-0.234 0.117,-0.352 -2.936,1.41 -6.225,1.879 -9.633,1.762 0.471,0.824 0.707,1.762 0.941,2.584 0.587,1.762 0.938,3.525 1.056,5.287 0,0.939 0,1.998 0,2.937 2.115,-2.116 3.995,-4.348 5.64,-6.814 z"
   id="path4238"
   inkscape:connector-curvature="0"
   style="fill:#b08530" />
	<path
   d="m 279.073,262.384 c -2.231,0.706 -4.581,1.175 -6.93,1.293 -1.409,0.117 -2.818,0.117 -4.229,0 -0.234,0 -0.586,0 -0.821,-0.118 -2.114,2.936 -4.346,5.637 -6.93,8.223 -8.692,8.576 -19.968,14.447 -31.127,19.38 -23.493,10.455 -50.509,15.625 -75.999,10.337 -11.159,-2.231 -21.73,-6.812 -31.716,-12.215 -9.631,-5.169 -18.558,-11.512 -26.192,-19.264 -2.938,-2.818 -5.521,-5.874 -7.871,-9.281 -1.411,-0.235 -2.819,-0.586 -4.111,-1.056 -1.998,-0.587 -3.76,-1.41 -5.52,-2.584 -1.998,-1.293 -3.877,-3.053 -5.404,-4.935 0.94,5.757 2.701,11.396 4.698,16.681 4.229,11.276 9.633,21.965 17.15,31.362 7.401,9.281 16.446,17.267 26.781,23.141 5.991,3.288 12.334,5.991 18.795,8.223 3.522,1.174 6.93,2.232 10.455,3.17 3.522,1.059 7.047,1.88 10.452,3.291 0.117,0 0.117,0 0.117,0 1.88,0 3.642,0 5.522,0 3.525,-0.117 7.165,-0.235 10.689,-0.352 6.813,-0.354 13.742,-0.824 20.555,-1.763 14.214,-1.997 27.839,-5.756 40.76,-12.217 11.98,-5.874 23.256,-13.625 32.655,-23.139 9.044,-9.282 16.913,-20.086 21.259,-32.303 1.998,-5.521 3.29,-11.159 3.642,-16.915 -4.11,5.167 -10.337,9.161 -16.68,11.041 z"
   id="path4240"
   inkscape:connector-curvature="0"
   style="fill:#b08530" />
	<path
   d="m 196.968,112.033 c 0.704,-2.114 1.527,-4.111 2.584,-6.108 -3.406,-0.117 -6.813,-0.117 -10.101,0 -1.293,0 -2.468,0.118 -3.76,0.118 -0.704,1.173 -1.527,2.232 -2.349,3.29 -0.469,0.587 -0.94,1.174 -1.41,1.761 -0.118,0.469 -0.118,1.058 -0.118,1.645 0.705,-0.117 1.411,-0.234 2.115,-0.352 4.346,-0.591 8.693,-0.825 13.039,-0.354 z"
   id="path4242"
   inkscape:connector-curvature="0"
   style="fill:#b08530" />
	<path
   d="m 152.685,123.31 c 1.174,-0.704 2.349,-1.293 3.405,-1.88 1.059,-0.469 1.997,-0.94 2.938,-1.41 0,-0.117 0,-0.117 0,-0.235 -0.353,-2.583 -0.47,-5.285 -0.353,-7.869 0,-0.706 0,-1.292 0.118,-1.879 -0.118,0 -0.118,0 -0.235,0 -2.703,0.822 -5.287,1.997 -7.988,3.054 0,3.759 0.234,7.399 0.586,11.158 0.47,-0.353 1.059,-0.705 1.529,-0.939 z"
   id="path4244"
   inkscape:connector-curvature="0"
   style="fill:#b08530" />
	<path
   d="m 77.39,224.444 c 0,0.118 0,0.235 0,0.352 0.471,1.645 1.058,3.173 1.645,4.698 0.352,0.823 0.824,1.762 1.293,2.703 0.117,0 0.117,0.118 0.234,0.118 0.352,0.587 0.822,1.173 1.291,1.76 0.472,0.117 1.058,0.235 1.527,0.353 1.058,0.117 2.115,-0.117 3.173,-0.117 1.997,-0.118 3.992,-0.235 5.989,-0.587 3.876,-0.586 7.753,-1.643 11.513,-3.053 10.335,-4.112 20.32,-11.628 25.723,-21.497 3.407,-5.991 4.698,-12.921 4.698,-19.851 0,-3.642 -0.235,-7.164 -0.587,-10.689 -0.352,-3.522 -1.056,-7.282 -0.704,-10.806 0.117,-0.235 0.117,-0.47 0.352,-0.587 -0.352,-2.938 -0.704,-5.991 -1.056,-8.927 -0.472,-4.698 -0.824,-9.396 -0.941,-14.214 -0.117,-2.114 -0.117,-4.346 -0.234,-6.46 -1.056,2.703 -2.232,5.405 -3.054,8.34 -1.175,4.229 -1.997,8.575 -2.703,12.921 -1.291,8.458 -1.877,16.916 -3.288,25.373 -1.763,10.101 -4.698,20.908 -11.746,28.779 -3.525,3.992 -8.223,6.93 -13.273,8.574 -6.58,2.232 -13.156,2.349 -19.97,2.115 10e-4,0.233 10e-4,0.467 0.118,0.702 z"
   id="path4246"
   inkscape:connector-curvature="0"
   style="fill:#b08530" />
	<path
   d="m 292.463,209.644 c -0.939,-5.637 -2.701,-11.159 -4.698,-16.561 -5.167,-13.508 -12.45,-26.077 -20.203,-38.177 -3.64,-5.755 -7.517,-11.394 -11.628,-16.678 -0.704,-0.941 -1.41,-1.763 -2.114,-2.584 1.41,2.701 2.583,5.402 3.642,8.103 2.114,5.757 3.64,11.746 4.698,17.737 1.762,10.572 1.29,21.496 5.167,31.716 1.88,4.698 4.698,8.927 8.574,11.98 2.467,1.88 5.168,3.407 8.106,4.346 1.643,0.586 3.523,1.058 5.285,1.058 1.175,0 2.231,-0.235 3.29,-0.472 0.001,-0.116 -0.119,-0.234 -0.119,-0.468 z"
   id="path4248"
   inkscape:connector-curvature="0"
   style="fill:#d49a26" />
	<path
   d="m 257.813,260.153 c -0.706,-0.353 -1.293,-0.705 -1.997,-1.057 -1.762,-1.175 -3.759,-2.114 -5.639,-3.055 -3.406,-1.761 -6.696,-3.64 -9.983,-5.637 -2.232,2.701 -4.581,5.52 -7.401,7.751 -0.586,0.941 -1.056,1.879 -1.762,2.821 -0.822,0.939 -1.643,1.88 -2.584,2.818 -1.643,1.763 -3.405,3.288 -5.285,4.815 -3.759,2.936 -7.753,5.52 -12.1,7.519 -11.627,5.402 -25.136,8.104 -37.588,4.933 -6.342,-1.762 -12.332,-4.815 -17.267,-9.279 -2.349,-2.233 -4.698,-4.7 -6.695,-7.284 -1.057,-1.291 -2.114,-2.701 -2.936,-4.111 -0.822,-1.291 -1.645,-2.466 -2.114,-3.995 -1.763,-1.525 -3.523,-2.818 -6.109,-2.701 -2.466,0.117 -4.933,0.588 -7.399,1.175 -4.581,0.939 -9.162,2.115 -13.742,3.171 -8.928,2.115 -18.444,4.229 -27.604,3.055 -0.822,0 -1.528,-0.117 -2.35,-0.354 2.35,3.407 4.933,6.462 7.871,9.281 7.634,7.752 16.561,14.095 26.192,19.264 9.985,5.403 20.557,9.984 31.716,12.215 25.49,5.288 52.506,0.118 75.999,-10.337 11.159,-4.933 22.435,-10.804 31.127,-19.38 2.584,-2.585 4.816,-5.287 6.93,-8.223 -1.528,-0.117 -3.053,-0.469 -4.463,-0.94 -1.646,-0.469 -3.643,-1.055 -4.817,-2.465 z"
   id="path4250"
   inkscape:connector-curvature="0"
   style="fill:#d49a26" />
	<path
   d="m 202.372,116.497 c 0.938,-0.94 1.76,-1.997 2.701,-2.938 1.997,-2.115 4.111,-4.227 6.226,-6.106 1.056,-1.059 2.229,-1.998 3.288,-2.938 1.997,-1.763 3.993,-3.405 6.108,-4.933 4.581,-3.523 9.396,-6.93 14.447,-9.751 5.287,-3.053 10.806,-5.52 16.916,-6.576 0.821,-0.117 1.41,0.352 1.527,1.173 0.118,1.411 0,2.938 -0.469,4.346 1.88,-2.114 3.641,-4.229 5.167,-6.578 1.88,-2.466 3.523,-5.05 5.05,-7.634 1.059,-1.88 1.997,-3.759 3.056,-5.522 -2.584,1.059 -5.287,1.763 -7.871,2.584 -3.053,0.824 -6.108,1.646 -9.161,2.466 -4.346,1.176 -8.693,2.821 -12.804,4.701 -9.631,4.346 -18.795,10.335 -26.077,18.088 -1.88,1.88 -3.522,3.877 -5.05,5.99 -0.706,1.175 -1.41,2.233 -2.115,3.407 -0.586,0.939 -1.175,2.115 -1.645,3.172 -0.47,0.939 -0.938,1.995 -1.292,3.054 -0.469,1.175 -0.821,2.349 -1.174,3.522 -0.704,2.234 -1.173,4.583 -1.527,6.932 v 0 c 1.409,-2.23 3.054,-4.345 4.699,-6.459 z"
   id="path4252"
   inkscape:connector-curvature="0"
   style="fill:#d49a26" />
	<path
   d="m 154.447,143.278 c 0.353,0.118 0.47,0.587 0.353,0.938 0,0 -0.117,0 -0.117,0.12 l 0.117,0.117 c 1.056,0.353 2.232,0.235 3.288,0.353 1.646,0 3.172,0.117 4.818,0.469 3.17,0.704 6.224,1.997 9.044,3.525 2.702,1.525 5.286,3.405 7.986,4.933 1.411,0.705 2.701,1.174 4.111,1.644 1.293,0.234 2.467,0.234 3.759,0.234 3.64,1.762 7.986,-0.117 11.159,-2.347 3.288,-2.468 5.991,-5.991 9.749,-7.988 1.879,-1.059 3.994,-1.41 6.108,-1.762 2.584,-0.587 5.287,-1.176 7.871,-1.763 3.17,-0.586 8.575,-1.879 9.279,-5.754 0,0 0,-0.117 0,-0.235 -0.117,-0.354 -0.353,-0.824 -0.47,-1.175 -0.353,-0.353 -0.706,-0.822 -1.058,-1.176 -0.235,-0.235 -0.469,-0.469 -0.704,-0.822 -0.939,-1.056 -1.88,-2.114 -2.818,-3.171 -3.76,-3.642 -8.105,-6.695 -12.921,-8.928 -2.349,0.94 -4.698,1.999 -7.047,2.82 -3.525,1.291 -7.049,2.584 -10.807,3.053 -1.175,0.117 -1.527,-1.528 -0.706,-2.232 0,-0.117 -0.117,-0.235 -0.117,-0.352 -0.235,-2.818 0,-5.52 0.586,-8.105 -1.408,-0.117 -2.818,-0.234 -4.227,-0.234 -2.466,0.117 -4.935,0.234 -7.401,0.586 -0.705,0.117 -1.408,0.237 -2.114,0.354 -1.997,0.352 -3.995,0.705 -6.107,1.291 -1.645,1.645 -3.29,3.29 -5.052,4.817 -2.231,1.996 -4.698,4.227 -7.399,5.402 -0.234,0.118 -0.469,0.118 -0.586,0 -0.589,0.353 -1.293,0.235 -1.645,-0.352 -0.824,-1.175 -1.293,-2.703 -1.645,-4.229 -1.057,0.469 -1.998,0.938 -2.937,1.408 -0.588,0.471 -1.175,0.941 -1.762,1.41 -0.821,0.586 -1.762,1.41 -2.349,2.232 -0.352,0.469 -0.588,0.938 -0.941,1.41 0.589,3.64 1.176,7.399 2.115,11.042 0.235,0.822 0.352,1.643 0.587,2.467 z"
   id="path4254"
   inkscape:connector-curvature="0"
   style="fill:#d49a26" />
	<path
   d="m 181.814,112.737 c 0,-0.586 0,-1.176 0.118,-1.645 -0.587,0.586 -1.057,1.292 -1.646,1.88 0.59,-0.118 1.06,-0.118 1.528,-0.235 z"
   id="path4256"
   inkscape:connector-curvature="0"
   style="fill:#d49a26" />
	<path
   d="m 161.846,118.729 c 0.118,0 0.118,0 0.235,0 0.117,-2.703 0.586,-5.287 1.175,-7.871 0.118,-0.704 0.352,-1.409 0.469,-2.115 0.353,-1.173 0.705,-2.466 1.057,-3.64 1.058,-3.173 2.232,-6.343 3.759,-9.398 2.349,-4.815 5.285,-9.514 8.81,-13.743 3.407,-3.994 7.165,-7.634 11.865,-10.22 0.587,-0.234 1.525,0 1.643,0.707 1.528,8.221 -0.235,16.326 -3.522,23.845 -0.707,1.643 -1.411,3.17 -2.115,4.698 2.115,-3.408 3.994,-6.932 5.52,-10.572 2.466,-5.521 4.346,-11.511 5.404,-17.502 0.47,-3.29 0.705,-6.578 0.705,-9.868 0,-1.995 0,-3.994 -0.118,-5.872 -0.117,-1.292 -0.352,-2.468 -0.352,-3.642 -0.941,0.821 -1.997,1.527 -2.938,2.349 -1.879,1.527 -3.756,3.17 -5.637,4.933 -8.927,8.574 -16.328,19.029 -21.026,30.54 -1.879,4.581 -3.405,9.398 -4.346,14.332 -0.234,1.173 -0.352,2.349 -0.469,3.524 v 0.117 c -0.352,3.053 -0.352,5.989 -0.118,9.045 -0.001,0.118 -0.001,0.235 -0.001,0.353 z"
   id="path4258"
   inkscape:connector-curvature="0"
   style="fill:#d49a26" />
	<path
   d="m 113.452,205.298 c 5.64,-9.984 7.047,-21.849 8.458,-33.007 0.821,-6.812 1.527,-13.742 2.936,-20.438 0.704,-3.407 1.645,-6.695 2.818,-9.985 1.058,-2.818 2.115,-5.871 3.759,-8.457 0,-4.464 0.235,-8.81 0.587,-13.156 -1.174,0.707 -2.349,1.293 -3.523,1.998 -1.762,0.941 -3.642,2.114 -5.404,3.172 -3.405,2.232 -6.813,4.698 -9.866,7.399 -5.756,5.051 -10.807,10.924 -15.153,17.384 -7.519,10.807 -13.038,22.905 -16.916,35.356 -2.231,6.93 -3.994,14.097 -4.581,21.261 -0.353,3.643 -0.47,7.282 -0.117,10.924 0,1.293 0.234,2.466 0.352,3.759 8.105,0.235 16.328,0.117 23.728,-3.642 5.522,-2.818 9.869,-7.164 12.922,-12.568 z"
   id="path4260"
   inkscape:connector-curvature="0"
   style="fill:#d49a26" />
	<path
   d="m 220.46,162.19 c 4.464,-0.235 7.517,-4.347 7.869,-8.575 0.472,-5.404 -4.463,-9.985 -9.866,-8.927 -1.292,0.234 -2.936,1.056 -3.994,2.112 -2.819,1.293 -4.463,4.464 -3.994,7.637 0.587,4.463 5.639,7.988 9.985,7.753 z m 0,-13.51 v 0 c 0.118,-0.234 0.235,-0.352 0.469,-0.469 0.117,-0.117 0.235,-0.234 0.353,-0.353 l 0.587,-0.234 c 0.235,-0.117 0.469,-0.117 0.706,-0.117 0.469,0 0.821,0.117 1.173,0.352 0.118,0.118 0.352,0.235 0.47,0.353 0.472,0.352 0.706,0.94 0.706,1.645 0,0.469 -0.234,0.939 -0.587,1.408 -0.237,0.354 -0.589,0.588 -0.941,0.706 -0.704,0.235 -1.41,0.235 -2.114,-0.118 -0.47,-0.352 -0.822,-0.823 -1.056,-1.41 -0.117,-0.587 0,-1.292 0.234,-1.763 z"
   id="path4262"
   inkscape:connector-curvature="0"
   style="fill:#351b10" />
	<path
   d="m 183.577,164.185 c 3.76,-2.35 7.635,-5.285 12.215,-5.285 1.763,0 3.407,0.705 4.581,1.88 0.236,0.352 0.471,0.587 0.706,0.938 0.705,1.176 1.174,2.938 2.115,4.229 0.234,0.354 0.587,0.823 1.057,1.059 0.235,0.117 0.469,0.234 0.706,0.352 0.586,0.234 1.056,-0.235 1.291,-0.822 0.352,-0.823 0.118,-1.645 -0.235,-2.469 -0.117,-0.352 -0.352,-0.821 -0.469,-1.173 -0.704,-1.293 -1.41,-2.466 -2.349,-3.643 -1.645,-2.114 -4.464,-3.053 -7.047,-2.936 -2.584,0.117 -5.17,1.175 -7.167,2.583 -2.114,1.41 -4.109,3.055 -5.637,5.05 -0.119,0.119 0.115,0.354 0.233,0.237 z"
   id="path4264"
   inkscape:connector-curvature="0"
   style="fill:#351b10" />
	<path
   d="m 296.81,224.796 c 0.471,-2.701 0.237,-5.754 0.117,-8.458 0,-1.997 -0.235,-3.877 -0.47,-5.872 -0.235,-1.763 -0.469,-3.643 -0.822,-5.405 -1.527,-7.047 -3.876,-13.86 -6.695,-20.555 -5.64,-13.156 -13.273,-25.491 -21.261,-37.236 -3.405,-4.935 -6.93,-9.633 -10.807,-14.097 -2.232,-2.466 -4.581,-5.05 -7.165,-7.282 0,-0.118 0,-0.235 -0.118,-0.235 -1.645,-3.053 -5.05,-5.169 -7.751,-7.165 -2.938,-2.232 -5.874,-4.229 -8.929,-6.226 -0.586,-0.235 -1.056,-0.589 -1.525,-0.824 0.352,-0.234 0.704,-0.469 1.056,-0.704 10.337,-6.696 19.734,-15.036 27.135,-24.784 2.113,-2.818 4.109,-5.874 5.754,-8.927 1.763,-3.055 3.29,-6.226 3.995,-9.75 0,-0.235 0,-0.47 -0.117,-0.587 -0.118,-0.704 -0.47,-1.173 -1.176,-1.056 -3.757,0.47 -7.399,1.526 -10.923,2.466 -3.171,0.822 -6.459,1.646 -9.631,2.584 -4.816,1.408 -9.631,3.288 -14.212,5.52 -9.75,4.581 -18.912,10.807 -26.076,18.795 -1.998,2.349 -3.995,4.815 -5.64,7.517 -3.171,-0.117 -6.46,-0.235 -9.63,-0.117 -1.176,0 -2.467,0.117 -3.76,0.117 0.235,-0.469 0.587,-0.939 0.822,-1.408 6.578,-10.689 10.924,-22.906 11.394,-35.356 0.119,-2.468 0.119,-4.817 -0.118,-7.284 -0.234,-2.231 -0.469,-4.815 -1.995,-6.461 0.235,-0.352 0.587,-0.704 0.822,-1.173 0.587,-0.941 -0.353,-1.997 -1.293,-1.763 -1.643,0.469 -2.936,1.646 -4.227,2.584 -1.527,1.175 -2.938,2.349 -4.229,3.524 -2.703,2.232 -5.169,4.699 -7.519,7.165 -4.111,4.463 -7.753,9.279 -11.041,14.448 -5.639,8.928 -10.103,19.146 -11.628,29.717 -2.938,0.941 -5.874,1.997 -8.575,3.524 0.117,-7.049 0.352,-14.096 -0.704,-21.144 -0.236,-1.762 -0.706,-3.405 -1.176,-5.05 -0.235,-1.176 -0.118,-2.35 -0.235,-3.525 0,-1.174 -0.704,-2.114 -1.879,-2.349 -0.587,0 -1.173,0.235 -1.645,0.589 v 0 c -0.234,0.117 -0.469,0.235 -0.704,0.469 -4.346,3.757 -6.695,9.397 -8.106,14.916 -1.644,5.991 -2.466,12.1 -3.288,18.208 -0.117,1.291 -0.352,2.584 -0.469,3.992 -3.173,1.059 -6.109,3.055 -9.047,4.818 -2.936,1.762 -5.871,3.757 -8.689,5.874 -5.405,4.11 -10.103,8.927 -14.332,14.095 -8.458,10.335 -14.801,22.083 -19.5,34.535 -3.17,8.34 -5.756,17.15 -6.93,26.077 -0.704,4.698 -0.94,9.396 -0.586,13.978 0.117,1.762 0.352,3.524 0.705,5.285 -0.118,0.118 -0.118,0.118 -0.118,0.235 0,0 0,0.117 -0.117,0.117 -3.759,5.287 -5.287,12.334 -5.639,18.795 -0.469,6.578 0.586,13.273 2.232,19.617 1.645,6.226 3.876,12.216 6.46,18.089 2.349,5.521 5.169,10.806 8.34,15.858 6.46,10.101 14.566,19.027 24.08,26.192 10.807,8.105 23.141,13.039 35.943,16.563 3.172,0.939 6.343,1.763 9.633,2.349 -0.234,0.47 0,1.056 0.586,1.056 7.636,0.589 15.27,1.527 22.904,1.527 7.519,0.118 15.035,-0.469 22.437,-1.527 14.212,-2.112 27.837,-6.341 40.641,-12.801 23.493,-11.865 44.754,-31.481 54.15,-56.5 5.637,-14.681 5.05,-30.421 1.291,-45.574 z m -40.876,-86.568 v 0 c 4.112,5.285 7.989,10.923 11.628,16.678 7.753,12.1 15.036,24.668 20.203,38.177 1.997,5.402 3.759,10.923 4.698,16.561 0,0.235 0.12,0.352 0.12,0.469 -1.059,0.237 -2.115,0.472 -3.29,0.472 -1.762,0 -3.643,-0.472 -5.285,-1.058 -2.938,-0.939 -5.639,-2.466 -8.106,-4.346 -3.876,-3.053 -6.694,-7.282 -8.574,-11.98 -3.877,-10.22 -3.405,-21.144 -5.167,-31.716 -1.059,-5.991 -2.584,-11.98 -4.698,-17.737 -1.059,-2.701 -2.232,-5.402 -3.642,-8.103 0.703,0.82 1.409,1.642 2.113,2.583 z m -16.68,-17.15 v 0 c 1.645,1.174 3.29,2.584 5.052,3.757 1.525,1.879 3.288,3.642 4.933,5.521 0.235,0.118 0.352,0.353 0.47,0.47 0.94,1.997 1.997,3.877 2.818,5.874 1.293,3.054 2.468,6.226 3.524,9.514 1.998,6.46 3.291,12.921 4.112,19.733 1.057,10.337 1.291,20.909 5.637,30.423 2.232,4.933 5.64,9.045 10.103,12.1 4.464,3.17 11.511,6.108 17.033,4.346 0.235,1.998 0.469,3.875 0.469,5.755 0.118,0.823 0.118,1.527 0.118,2.231 -2.819,1.645 -5.64,2.467 -8.81,2.35 -3.171,0 -6.344,-0.939 -9.397,-1.88 -4.935,-1.643 -9.868,-3.757 -13.979,-7.047 -6.93,-5.402 -10.335,-13.39 -11.863,-21.848 -1.293,-7.399 -1.176,-14.801 -1.88,-22.2 -0.234,-2.467 -0.586,-4.933 -1.056,-7.282 -1.176,-5.639 -3.29,-11.159 -5.874,-16.329 -0.94,-1.995 -1.997,-3.992 -3.17,-5.871 -1.645,-2.938 -3.407,-5.757 -5.404,-8.458 v 0 c -0.704,-1.411 -1.645,-2.702 -2.583,-3.877 -1.88,-2.349 -4.112,-4.464 -6.578,-6.226 -1.645,-1.291 -3.29,-2.349 -5.052,-3.405 3.407,-1.527 6.697,-3.29 9.985,-5.169 0.823,0.471 1.646,0.94 2.467,1.41 3.052,1.879 6.106,3.993 8.925,6.108 z m 46.396,113.938 v 0 c -0.117,-1.762 -0.469,-3.524 -1.056,-5.287 -0.234,-0.822 -0.47,-1.76 -0.941,-2.584 3.408,0.117 6.697,-0.353 9.633,-1.762 0,0.118 -0.117,0.235 -0.117,0.352 -0.235,0.94 -0.469,1.879 -0.823,2.82 -0.352,0.822 -0.822,1.644 -1.056,2.584 -1.645,2.466 -3.525,4.698 -5.64,6.813 0,-0.938 0,-1.997 0,-2.936 z m -35.59,-7.401 v 0 c -0.352,0.707 -0.939,1.41 -1.527,1.997 -0.235,0.235 -0.587,0.469 -0.939,0.706 -2.583,-1.527 -5.402,-2.583 -8.458,-2.703 -2.701,-0.117 -5.52,0.941 -7.751,2.466 -1.527,1.059 -3.407,2.586 -4.581,4.347 -0.119,0 -0.237,0.117 -0.354,0.237 -0.117,0 -0.117,0.117 -0.234,0.117 -5.755,-4.111 -11.394,-8.458 -16.914,-12.921 1.056,-0.471 2.115,-0.94 2.937,-1.292 2.231,-1.056 4.463,-2.232 6.578,-3.759 1.762,-1.408 3.522,-3.288 4.933,-5.051 1.528,-1.879 2.818,-3.876 3.408,-6.108 0.117,-0.47 -0.471,-0.705 -0.707,-0.352 -1.291,1.879 -2.466,3.876 -4.111,5.521 -1.526,1.643 -3.288,2.701 -5.285,3.759 -1.997,1.174 -4.112,1.995 -6.227,2.818 -1.173,0.47 -2.349,0.939 -3.522,1.291 -0.47,0.117 -0.941,0.237 -1.411,0.354 -4.111,-3.524 -7.986,-7.167 -11.863,-10.926 -3.173,-3.288 -6.343,-6.459 -9.398,-9.866 0.119,0 0.236,0 0.354,0.117 1.643,0.469 3.288,0.939 5.05,1.293 3.288,0.469 6.695,0.469 9.983,0.117 6.814,-0.824 13.507,-2.584 19.853,-5.052 5.167,-1.995 10.101,-4.581 14.682,-7.399 3.524,-2.232 7.047,-4.933 9.631,-8.223 0.119,1.997 0.119,3.877 0.354,5.874 0.352,4.698 0.938,9.396 2.231,13.977 2.467,8.575 7.635,15.859 15.153,20.675 4.698,2.936 10.101,4.933 15.388,6.343 1.173,0.352 2.349,0.586 3.639,0.821 0.354,1.293 0.942,2.702 1.293,3.995 0.469,1.879 0.704,3.877 0.704,5.756 0,1.409 -0.235,2.819 -0.469,4.227 -0.586,0.354 -1.056,0.823 -1.646,1.175 -0.821,-0.235 -1.879,-0.117 -2.349,0.822 -0.117,0.352 -0.235,0.586 -0.352,0.94 -2.114,1.291 -4.463,2.115 -6.93,2.349 -3.759,0.469 -7.047,-1.175 -9.985,-3.642 -3.171,-2.701 -5.872,-5.991 -9.044,-8.81 -0.939,-0.821 -1.88,-1.525 -2.818,-2.232 0.234,-0.234 0.352,-0.469 0.586,-0.704 0.586,-0.941 0.823,-1.763 0.94,-2.818 0.119,-0.471 -0.587,-0.588 -0.822,-0.236 z m -116.874,-1.88 v 0 c 0.586,1.058 1.056,2.234 1.88,3.055 0.235,0.352 0.469,0.704 0.704,0.939 -1.762,0.352 -3.522,0.941 -5.285,1.645 -5.639,2.232 -10.689,5.522 -16.328,7.871 -4.111,1.763 -8.692,2.584 -13.273,2.702 0.117,-1.645 -0.352,-3.29 -1.056,-4.581 -0.235,-0.352 -0.472,-0.704 -0.707,-1.058 4.581,-1.173 9.044,-3.053 13.156,-5.285 10.337,-5.639 19.381,-14.332 23.375,-25.607 1.411,-3.641 2.115,-7.517 2.349,-11.394 0.587,2.819 1.176,5.757 1.88,8.575 0,0.235 0.117,0.47 0.117,0.704 2.232,9.634 5.05,19.03 9.279,27.957 -0.705,-0.352 -1.291,-0.704 -1.997,-0.939 -3.288,-1.293 -6.696,-1.41 -9.983,-0.823 -0.47,-0.353 -0.824,-0.821 -1.176,-1.173 -0.938,-0.941 -1.879,-1.763 -2.583,-2.82 -0.118,-0.12 -0.47,-0.002 -0.352,0.232 z m 25.372,-60.139 v 0 c -0.354,0.234 -0.823,0.469 -1.175,0.706 -0.941,0.469 -1.998,0.939 -2.937,1.291 -1.175,0.353 -2.468,0.705 -3.759,0.939 -0.821,0.117 -1.645,0.234 -2.466,0.354 -0.352,0 -0.706,0 -1.058,0 -3.406,0.117 -7.047,-0.471 -10.1,-1.879 -0.825,-6.813 -1.528,-13.625 -1.763,-20.44 1.88,0.941 3.994,1.411 6.108,1.528 0.704,0.117 1.408,0.117 2.114,0.117 0.352,0 0.821,-0.117 1.291,-0.117 1.645,-0.235 3.172,-0.587 4.698,-1.056 0.706,-0.237 1.41,-0.472 1.997,-0.824 0.234,0.586 0.352,1.175 0.47,1.763 1.763,5.989 3.994,11.861 6.58,17.618 z m 0.822,1.762 v 0 c 1.997,4.229 4.229,8.34 6.695,12.334 3.995,6.458 8.576,12.45 13.509,18.207 -1.057,1.056 -2.115,2.231 -3.289,3.288 -0.941,0.824 -1.88,1.527 -2.938,2.114 -0.586,0.352 -1.056,0.706 -1.643,0.941 -0.471,0.235 -1.059,0.587 -1.645,0.821 -2.583,1.176 -5.521,1.998 -8.34,2.232 -5.991,0.822 -12.687,-0.234 -18.206,-3.053 -1.88,-7.871 -3.29,-15.974 -4.583,-23.962 -0.704,-3.994 -1.291,-7.988 -1.76,-12.1 3.288,1.879 6.813,2.586 10.572,2.469 0.234,0 0.352,0 0.469,0 1.056,0 2.114,-0.12 3.17,-0.354 1.176,-0.235 2.35,-0.587 3.525,-0.939 1.409,-0.471 3.054,-1.059 4.464,-1.998 z m -11.276,52.74 v 0 c -1.645,-4.698 -3.055,-9.514 -4.229,-14.448 2.114,1.292 4.346,2.231 6.813,2.938 3.642,0.939 7.634,1.173 11.394,0.822 3.29,-0.353 6.46,-1.293 9.515,-2.702 0.352,-0.235 0.822,-0.352 1.291,-0.586 0.586,-0.352 1.293,-0.706 1.997,-1.176 2.232,-1.41 4.463,-3.171 6.226,-5.285 2.466,2.818 5.05,5.52 7.634,8.221 5.522,5.404 11.159,10.807 17.032,15.742 -0.117,1.525 -0.117,2.936 -0.352,4.346 -0.352,1.408 -0.823,2.584 -1.41,3.875 -0.118,0.237 -0.235,0.472 -0.353,0.706 -0.469,0.822 -1.056,1.643 -1.645,2.349 -0.704,0.939 -1.526,1.879 -2.466,2.701 -3.289,3.171 -7.517,5.402 -11.746,7.047 -8.575,3.054 -18.912,3.877 -27.37,0 -0.234,-0.117 -0.469,-0.234 -0.704,-0.352 -1.292,-1.997 -2.467,-3.876 -3.525,-5.874 -0.353,-0.822 -0.705,-1.526 -1.174,-2.232 -2.699,-5.168 -5.048,-10.455 -6.928,-16.092 z m 32.772,28.778 v 0 c 8.81,-1.293 17.619,-5.402 23.256,-12.569 0.118,-0.234 0.353,-0.469 0.587,-0.704 0.471,-0.705 0.94,-1.528 1.41,-2.349 0.47,-0.939 0.941,-1.88 1.293,-2.937 0.469,-1.41 0.821,-3.055 0.821,-4.583 5.167,4.229 10.572,8.223 16.094,11.865 -0.237,0.353 -0.354,0.704 -0.589,1.056 -0.235,0.352 -0.47,0.707 -0.587,0.941 -0.823,1.174 -1.527,2.349 -2.349,3.405 v 0 c -1.997,2.704 -4.229,5.287 -6.695,7.636 -4.581,4.463 -9.985,8.692 -15.975,11.394 -5.756,2.701 -12.217,3.053 -17.973,0.352 -5.05,-2.231 -9.631,-5.874 -13.743,-9.514 -0.822,-0.707 -1.645,-1.528 -2.466,-2.232 -0.822,-1.175 -1.528,-2.232 -2.349,-3.407 5.992,2.351 13.157,2.47 19.265,1.646 z m 59.436,-148.001 v 0 c -3.994,3.17 -8.105,5.988 -12.452,8.574 -1.293,0.705 -2.583,1.526 -3.876,2.23 -2.701,1.411 -5.52,2.82 -8.338,4.112 -0.588,0.352 -1.292,0.588 -1.879,0.94 -1.41,0.587 -2.938,1.174 -4.346,1.763 -1.059,0.469 -1.998,0.821 -3.056,1.173 -1.879,0.822 -3.992,1.41 -5.991,2.231 1.411,-1.645 2.82,-3.288 4.346,-4.815 0.94,-0.941 1.762,-1.88 2.703,-2.819 0.235,-0.235 0.469,-0.469 0.704,-0.706 1.88,-1.88 3.877,-3.757 5.874,-5.52 1.057,-0.941 2.114,-1.88 3.171,-2.819 1.527,-1.293 3.055,-2.469 4.581,-3.642 4.463,-3.407 9.044,-6.578 13.979,-9.396 4.816,-2.821 9.983,-5.17 15.505,-6.343 -0.236,6.462 -7.05,10.338 -10.925,15.037 z m -38.646,8.574 v 0 c 0.47,-1.058 1.059,-2.233 1.645,-3.172 0.705,-1.173 1.409,-2.232 2.115,-3.407 1.528,-2.113 3.17,-4.11 5.05,-5.99 7.282,-7.753 16.446,-13.742 26.077,-18.088 4.111,-1.88 8.458,-3.525 12.804,-4.701 3.053,-0.821 6.108,-1.643 9.161,-2.466 2.584,-0.821 5.287,-1.525 7.871,-2.584 -1.059,1.763 -1.997,3.642 -3.056,5.522 -1.527,2.584 -3.17,5.168 -5.05,7.634 -1.527,2.349 -3.288,4.463 -5.167,6.578 0.469,-1.408 0.587,-2.936 0.469,-4.346 -0.117,-0.821 -0.706,-1.291 -1.527,-1.173 -6.109,1.056 -11.628,3.522 -16.916,6.576 -5.05,2.821 -9.866,6.228 -14.447,9.751 -2.115,1.527 -4.111,3.17 -6.108,4.933 -1.059,0.94 -2.232,1.879 -3.288,2.938 -2.115,1.879 -4.229,3.992 -6.226,6.106 -0.941,0.94 -1.763,1.997 -2.701,2.938 -1.645,2.115 -3.29,4.229 -4.7,6.46 v 0 c 0.354,-2.349 0.823,-4.698 1.527,-6.932 0.353,-1.173 0.705,-2.347 1.174,-3.522 0.354,-1.06 0.823,-2.116 1.293,-3.055 z m -12.215,-3.524 v 0 c 3.288,-0.117 6.695,-0.117 10.101,0 -1.057,1.997 -1.88,3.994 -2.584,6.108 -4.346,-0.472 -8.693,-0.237 -13.039,0.352 -0.704,0.118 -1.41,0.235 -2.115,0.352 -0.469,0.117 -0.938,0.117 -1.527,0.235 0.589,-0.587 1.059,-1.293 1.646,-1.88 0.469,-0.587 0.94,-1.174 1.41,-1.761 0.822,-1.058 1.645,-2.116 2.349,-3.29 1.291,0.001 2.466,-0.116 3.759,-0.116 z m -9.633,0.587 v 0 c -0.117,0.117 -0.117,0.234 -0.234,0.352 -0.939,1.763 -2.115,3.525 -3.171,5.288 -0.353,0.704 -0.707,1.291 -1.059,1.879 l -0.117,0.117 c -1.527,1.761 -3.17,3.523 -4.815,5.167 -0.469,0.353 -0.94,0.822 -1.293,1.293 -1.76,1.643 -3.64,3.17 -5.285,4.933 0.117,-1.411 0.117,-2.702 0.117,-3.995 0.117,-1.293 0.234,-2.466 0.352,-3.759 0.118,-2.114 0.47,-4.229 0.939,-6.343 0.237,-1.056 0.472,-2.112 0.706,-3.17 0.353,-1.176 0.705,-2.35 1.174,-3.525 0.823,-2.701 1.997,-5.403 3.172,-7.986 2.349,-4.581 5.167,-8.927 8.34,-12.921 3.053,-3.642 6.343,-6.93 10.335,-9.279 0.941,7.399 -1.291,14.917 -4.227,21.731 -0.941,2.229 -2,4.463 -3.173,6.693 -0.586,1.176 -1.172,2.351 -1.761,3.525 z m -17.854,2.82 v 0 -0.117 c 0.118,-1.175 0.235,-2.352 0.469,-3.524 0.941,-4.933 2.467,-9.75 4.346,-14.332 4.698,-11.511 12.1,-21.966 21.026,-30.54 1.88,-1.763 3.757,-3.406 5.637,-4.933 0.942,-0.822 1.998,-1.528 2.938,-2.349 0,1.173 0.235,2.349 0.352,3.642 0.118,1.878 0.118,3.877 0.118,5.872 0,3.29 -0.235,6.578 -0.705,9.868 -1.058,5.991 -2.938,11.98 -5.404,17.502 -1.525,3.64 -3.405,7.165 -5.52,10.572 0.704,-1.528 1.408,-3.055 2.115,-4.698 3.287,-7.519 5.05,-15.624 3.522,-23.845 -0.117,-0.707 -1.056,-0.941 -1.643,-0.707 -4.7,2.586 -8.458,6.226 -11.865,10.22 -3.525,4.229 -6.461,8.928 -8.81,13.743 -1.527,3.055 -2.701,6.226 -3.759,9.398 -0.352,1.173 -0.704,2.466 -1.057,3.64 -0.117,0.706 -0.352,1.411 -0.469,2.115 -0.588,2.584 -1.058,5.167 -1.175,7.871 -0.118,0 -0.118,0 -0.235,0 0,-0.117 0,-0.234 0,-0.352 -0.233,-3.057 -0.233,-5.993 0.119,-9.046 z m -2.232,13.978 v 0 c 0.352,1.525 0.821,3.053 1.645,4.229 0.352,0.587 1.056,0.705 1.645,0.352 0.117,0.118 0.352,0.118 0.586,0 2.702,-1.176 5.168,-3.407 7.399,-5.402 1.763,-1.527 3.407,-3.173 5.052,-4.817 2.112,-0.586 4.11,-0.939 6.107,-1.291 0.706,-0.117 1.41,-0.237 2.114,-0.354 2.466,-0.352 4.935,-0.469 7.401,-0.586 1.408,0 2.819,0.117 4.227,0.234 -0.586,2.586 -0.821,5.287 -0.586,8.105 0,0.117 0.117,0.235 0.117,0.352 -0.821,0.704 -0.469,2.349 0.706,2.232 3.758,-0.469 7.282,-1.762 10.807,-3.053 2.349,-0.822 4.698,-1.88 7.047,-2.82 4.816,2.233 9.162,5.287 12.921,8.928 0.938,1.057 1.879,2.115 2.818,3.171 0.235,0.353 0.469,0.587 0.704,0.822 0.352,0.354 0.706,0.823 1.058,1.176 0.117,0.352 0.353,0.821 0.47,1.175 1.527,3.288 3.17,6.458 4.581,9.631 0.705,1.408 1.293,2.819 1.879,4.229 0.353,0.704 0.587,1.525 0.939,2.231 1.879,5.285 3.524,10.689 4.229,16.209 0.235,1.997 0.352,3.994 0.469,5.991 -4.463,7.047 -13.038,11.277 -20.32,14.684 -5.991,2.936 -12.449,5.05 -19.029,6.341 -3.288,0.589 -6.576,1.058 -9.866,1.292 -3.291,0.235 -6.93,0.47 -10.101,-0.352 -0.824,-0.117 -1.646,-0.352 -2.469,-0.586 -2.701,-3.056 -5.285,-6.227 -7.751,-9.634 -1.176,-1.643 -2.349,-3.288 -3.525,-5.05 -0.117,-0.235 -0.234,-0.352 -0.352,-0.47 -3.288,-5.167 -6.225,-10.572 -8.81,-16.211 0.47,0 0.939,0 1.293,0 2.112,-0.117 4.229,-1.173 5.52,-2.701 2.115,-2.584 1.997,-5.874 0.47,-8.692 -1.408,-2.701 -3.994,-4.816 -6.93,-5.637 -1.997,-0.707 -4.815,-0.472 -6.344,1.056 -0.352,-1.174 -0.704,-2.349 -1.056,-3.641 l -0.117,-0.117 c 0,-0.12 0.117,-0.12 0.117,-0.12 0.117,-0.352 0,-0.821 -0.353,-0.938 -0.234,-0.824 -0.352,-1.645 -0.588,-2.466 -0.939,-3.642 -1.525,-7.401 -2.115,-11.042 0.353,-0.472 0.589,-0.941 0.941,-1.41 0.587,-0.822 1.528,-1.646 2.349,-2.232 0.587,-0.469 1.174,-0.939 1.762,-1.41 0.942,-0.47 1.882,-0.939 2.939,-1.408 z m 1.41,28.308 v 0 c 0,-0.589 0.235,-1.058 0.587,-1.528 0.47,-0.469 1.056,-0.822 1.762,-0.822 1.174,0 2.232,1.057 2.232,2.35 0,0.47 -0.235,0.938 -0.472,1.291 -0.469,0.589 -1.056,0.94 -1.76,0.94 -1.292,0.001 -2.349,-1.057 -2.349,-2.231 z m -2.584,-41.582 v 0 c 0.117,0 0.117,0 0.235,0 -0.118,0.587 -0.118,1.174 -0.118,1.879 -0.117,2.584 0,5.286 0.353,7.869 0,0.118 0,0.118 0,0.235 -0.941,0.47 -1.879,0.941 -2.938,1.41 -1.056,0.587 -2.231,1.176 -3.405,1.88 -0.469,0.235 -1.058,0.586 -1.528,0.938 -0.352,-3.759 -0.586,-7.399 -0.586,-11.158 2.7,-1.056 5.284,-2.231 7.987,-3.053 z M 139.999,93.591 v 0 c 1.058,-3.76 2.701,-7.282 5.167,-10.335 0,0.704 0.119,1.291 0.237,1.877 0.117,0.589 0.352,1.059 0.469,1.528 0.234,1.528 0.587,3.053 0.704,4.581 0.47,3.29 0.587,6.578 0.587,9.868 -0.47,0.235 -1.057,0.469 -1.526,0.704 -0.94,0.235 -1.997,0.235 -2.938,0.235 -0.587,-0.118 -1.057,-0.118 -1.526,-0.353 -1.058,-0.234 -1.879,-0.586 -2.82,-1.173 0.47,-2.351 0.941,-4.583 1.646,-6.932 z m -3.289,17.619 v 0 c 0.353,-2.701 0.704,-5.52 1.173,-8.34 0.117,-0.235 0.117,-0.47 0.117,-0.705 0.939,0.586 1.88,1.059 2.938,1.293 1.995,0.586 4.227,0.704 6.107,0 0,2.466 0,4.933 -0.117,7.399 0,4.815 0.117,9.631 0.586,14.331 -0.586,0.235 -1.173,0.353 -1.761,0.47 -1.41,0.352 -2.938,0.469 -4.346,0.352 -0.118,0 -0.353,0 -0.47,0 -1.175,-0.117 -2.351,-0.469 -3.407,-0.939 -0.705,-0.354 -1.411,-0.824 -2.115,-1.293 0.237,-4.228 0.706,-8.339 1.295,-12.568 z m -1.645,23.141 v 0 c 0,-2.936 0,-5.874 0.235,-8.692 0.704,0.469 1.527,0.938 2.466,1.292 0.938,0.353 1.88,0.587 2.818,0.705 0.117,0.117 0.354,0.117 0.588,0.117 1.526,0.117 2.937,0.117 4.464,-0.117 0.586,-0.118 1.409,-0.235 2.115,-0.469 0.117,0.939 0.234,1.877 0.469,2.818 0.704,4.815 1.645,9.631 2.818,14.331 -0.469,0.117 -0.821,0.353 -1.291,0.47 -1.763,0.704 -3.525,1.173 -5.405,1.291 0,0 -0.117,0 -0.117,0.118 -1.058,0.117 -2.231,0 -3.288,0 -0.706,-0.118 -1.41,-0.235 -2.234,-0.469 -1.291,-0.235 -2.349,-0.822 -3.522,-1.409 -0.116,-3.291 -0.233,-6.581 -0.116,-9.986 z m -2.583,23.962 v 0 c 0.352,2.936 0.704,5.989 1.056,8.927 -0.235,0.118 -0.235,0.352 -0.352,0.587 -0.352,3.524 0.352,7.284 0.704,10.806 0.352,3.525 0.587,7.047 0.587,10.689 0,6.93 -1.292,13.86 -4.698,19.851 -5.403,9.868 -15.388,17.385 -25.723,21.497 -3.759,1.41 -7.636,2.466 -11.513,3.053 -1.998,0.352 -3.993,0.469 -5.989,0.587 -1.058,0 -2.115,0.234 -3.173,0.117 -0.469,-0.117 -1.056,-0.235 -1.527,-0.353 -0.469,-0.586 -0.939,-1.173 -1.291,-1.76 -0.117,0 -0.117,-0.118 -0.234,-0.118 -0.469,-0.941 -0.941,-1.88 -1.293,-2.703 -0.587,-1.525 -1.174,-3.053 -1.645,-4.698 0,-0.117 0,-0.234 0,-0.352 v 0 c -0.117,-0.235 -0.117,-0.47 -0.117,-0.704 6.814,0.234 13.39,0.117 19.97,-2.115 5.05,-1.645 9.748,-4.583 13.273,-8.574 7.047,-7.871 9.983,-18.678 11.746,-28.779 1.41,-8.457 1.997,-16.915 3.288,-25.373 0.706,-4.346 1.528,-8.692 2.703,-12.921 0.822,-2.936 1.998,-5.637 3.054,-8.34 0.117,2.115 0.117,4.346 0.234,6.46 0.116,4.82 0.468,9.518 0.94,14.216 z m -55.914,48.512 v 0 c 0.587,-7.164 2.349,-14.331 4.581,-21.261 3.877,-12.452 9.396,-24.549 16.916,-35.356 4.346,-6.46 9.396,-12.333 15.153,-17.384 3.053,-2.701 6.461,-5.167 9.866,-7.399 1.763,-1.059 3.642,-2.231 5.404,-3.172 1.174,-0.705 2.349,-1.291 3.523,-1.998 -0.352,4.347 -0.587,8.692 -0.587,13.156 -1.645,2.586 -2.702,5.639 -3.759,8.457 -1.173,3.291 -2.115,6.579 -2.818,9.985 -1.409,6.696 -2.115,13.626 -2.936,20.438 -1.411,11.159 -2.818,23.023 -8.458,33.007 -3.053,5.404 -7.399,9.75 -12.921,12.569 -7.399,3.759 -15.622,3.876 -23.728,3.642 -0.118,-1.293 -0.352,-2.466 -0.352,-3.759 -0.353,-3.643 -0.236,-7.283 0.116,-10.925 z m 215.543,61.433 v 0 c -4.346,12.217 -12.215,23.021 -21.259,32.303 -9.398,9.513 -20.674,17.265 -32.655,23.139 -12.921,6.461 -26.546,10.22 -40.76,12.217 -6.813,0.939 -13.743,1.408 -20.555,1.763 -3.525,0.117 -7.165,0.235 -10.689,0.352 -1.88,0 -3.642,0 -5.522,0 0,0 0,0 -0.117,0 -3.405,-1.41 -6.93,-2.232 -10.452,-3.291 -3.525,-0.938 -6.932,-1.997 -10.455,-3.17 -6.461,-2.231 -12.804,-4.935 -18.795,-8.223 -10.335,-5.874 -19.38,-13.86 -26.781,-23.141 -7.517,-9.397 -12.921,-20.086 -17.15,-31.362 -1.997,-5.285 -3.757,-10.924 -4.698,-16.681 1.527,1.882 3.407,3.642 5.404,4.935 1.76,1.174 3.522,1.997 5.52,2.584 1.292,0.47 2.701,0.821 4.111,1.056 0.821,0.237 1.527,0.354 2.35,0.354 9.161,1.173 18.677,-0.94 27.604,-3.055 4.58,-1.056 9.161,-2.232 13.742,-3.171 2.466,-0.587 4.933,-1.058 7.399,-1.175 2.586,-0.118 4.347,1.175 6.109,2.701 0.469,1.528 1.292,2.704 2.114,3.995 0.822,1.41 1.879,2.821 2.936,4.111 1.997,2.584 4.346,5.05 6.695,7.284 4.935,4.464 10.924,7.517 17.267,9.279 12.452,3.171 25.96,0.469 37.588,-4.933 4.346,-1.999 8.341,-4.583 12.1,-7.519 1.88,-1.527 3.642,-3.053 5.285,-4.815 0.942,-0.938 1.763,-1.879 2.584,-2.818 0.706,-0.941 1.176,-1.88 1.762,-2.821 2.82,-2.231 5.169,-5.05 7.401,-7.751 3.288,1.997 6.578,3.876 9.983,5.637 1.88,0.941 3.876,1.88 5.639,3.055 0.704,0.352 1.292,0.704 1.997,1.057 1.174,1.41 3.17,1.997 4.816,2.466 1.41,0.471 2.936,0.823 4.463,0.94 0.235,0.118 0.587,0.118 0.821,0.118 1.411,0.117 2.82,0.117 4.229,0 2.349,-0.118 4.698,-0.587 6.93,-1.293 6.343,-1.88 12.57,-5.874 16.68,-11.042 -0.351,5.756 -1.643,11.393 -3.641,16.915 z m 3.76,-19.499 v 0 c -4.933,4.815 -10.337,9.045 -17.032,11.276 -1.643,0.587 -3.288,0.941 -4.933,1.176 -1.762,0.235 -3.525,0.235 -5.285,0.235 v 0 c -1.762,-0.118 -3.407,-0.469 -5.052,-0.941 -1.762,-0.47 -3.406,-1.526 -5.286,-1.76 h -0.117 c -0.469,-0.235 -0.823,-0.471 -1.175,-0.706 -1.76,-1.173 -3.64,-2.349 -5.52,-3.522 -3.643,-2.115 -7.284,-4.229 -10.924,-6.578 -0.352,-0.236 -0.94,-0.236 -1.292,0.235 -3.289,3.992 -7.165,7.634 -10.218,11.862 0,0.118 -0.117,0.235 0,0.353 h -0.117 c -1.176,1.175 -2.469,2.349 -3.642,3.407 -2.349,2.114 -4.933,3.994 -7.519,5.754 -5.402,3.642 -11.276,6.108 -17.502,7.988 -12.567,3.642 -26.429,3.173 -37.705,-4.229 -3.406,-2.232 -6.461,-5.05 -9.162,-8.223 -1.41,-1.526 -2.701,-3.17 -3.994,-4.933 -0.822,-0.939 -1.643,-1.998 -2.466,-2.937 0.234,-0.234 0.234,-0.587 0,-0.941 -1.526,-2.112 -3.523,-3.757 -6.109,-4.463 -2.231,-0.47 -4.581,0 -6.812,0.352 -4.229,0.707 -8.223,1.645 -12.333,2.703 -9.046,2.349 -18.208,4.699 -27.604,4.699 -2.702,0 -5.52,-0.235 -8.223,-0.822 -1.408,-0.354 -2.701,-0.823 -4.111,-1.293 -0.47,-0.235 -0.821,-0.469 -1.291,-0.586 -2.115,-1.059 -3.994,-2.467 -5.756,-4.111 -1.057,-1.059 -1.997,-2.232 -2.936,-3.525 -0.705,-6.343 -0.47,-12.685 1.41,-18.792 0.469,-1.528 0.939,-2.938 1.526,-4.347 0.235,0.469 0.352,0.939 0.471,1.408 0.352,1.058 0.821,1.997 1.291,3.056 0.117,0.469 0.352,0.938 0.704,1.527 1.058,2.23 2.704,4.815 4.935,5.754 0.235,0 0.47,0.118 0.705,0.118 0.234,0.117 0.704,-0.235 0.586,-0.587 0,0 -0.117,-0.117 -0.117,-0.234 0.706,0.117 1.293,0.234 1.997,0.352 0.704,0 1.293,0 1.997,0 2.936,0.117 5.639,-0.118 8.575,-0.587 0.469,0.587 0.939,1.057 1.293,1.643 0.704,1.058 0.704,2.114 0.704,3.29 0,0.352 0,0.704 0,1.056 0,0.823 0.587,1.41 1.291,1.41 V 245 c 2.232,0.117 4.581,0.117 6.814,-0.117 5.989,-0.469 11.277,-2.701 16.562,-5.402 5.05,-2.584 10.337,-5.639 16.091,-6.343 3.408,-0.352 6.932,0.235 9.985,2.114 1.88,1.173 3.171,2.936 4.347,4.698 0.352,1.176 0.822,2.349 1.41,3.525 1.291,2.583 3.054,4.815 4.933,6.93 3.759,4.463 8.34,8.105 13.156,11.393 5.167,3.523 10.689,6.109 17.033,5.874 6.341,-0.234 12.333,-3.172 17.502,-6.814 4.463,-3.053 8.692,-6.693 12.45,-10.805 1.879,-2.114 3.642,-4.346 5.287,-6.578 0.704,-1.176 1.525,-2.232 2.114,-3.408 0.587,-0.822 1.056,-1.645 1.408,-2.466 0.824,-0.586 1.528,-1.293 2.349,-1.879 1.058,-1.056 1.997,-1.88 3.29,-2.701 2.231,-1.293 4.698,-1.763 7.282,-1.176 4.229,1.059 7.636,3.877 10.572,6.813 3.054,3.055 5.874,6.226 9.396,8.692 3.642,2.469 7.871,3.29 12.334,2.469 0.705,-0.118 1.409,-0.354 2.115,-0.589 2.114,-0.704 3.995,-1.763 5.874,-2.936 0.587,-0.352 1.056,-0.704 1.643,-1.056 0,0 0,0 0.117,0 0.47,-0.237 0.824,-0.472 1.059,-0.941 1.056,-0.821 1.997,-1.763 2.936,-2.584 3.055,-2.938 6.695,-6.93 7.047,-11.275 0.117,-0.237 0.117,-0.355 0.237,-0.589 0.821,5.757 1.525,11.63 1.525,17.385 -0.003,0.467 -0.003,1.056 -0.12,1.525 z"
   id="path4266"
   inkscape:connector-curvature="0"
   style="fill:#351b10" />
</g>
</svg>