<?xml version="1.0" encoding="UTF-8" standalone="no"?>
<!-- Generator: Adobe Illustrator 16.0.0, SVG Export Plug-In . SVG Version: 6.00 Build 0)  -->

<svg
   xmlns:ns="&amp;ns_sfw;"
   xmlns:dc="http://purl.org/dc/elements/1.1/"
   xmlns:cc="http://creativecommons.org/ns#"
   xmlns:rdf="http://www.w3.org/1999/02/22-rdf-syntax-ns#"
   xmlns:svg="http://www.w3.org/2000/svg"
   xmlns="http://www.w3.org/2000/svg"
   xmlns:sodipodi="http://sodipodi.sourceforge.net/DTD/sodipodi-0.dtd"
   xmlns:inkscape="http://www.inkscape.org/namespaces/inkscape"
   version="1.0"
   id="Layer_1"
   x="0px"
   y="0px"
   width="363"
   height="295"
   viewBox="0 0 363 295"
   enable-background="new 0 0 1400 980"
   xml:space="preserve"
   sodipodi:docname="Armadillo8.svg"
   inkscape:version="0.92.3 (2405546, 2018-03-11)"><defs
   id="defs5547" /><sodipodi:namedview
   pagecolor="#ffffff"
   bordercolor="#666666"
   borderopacity="1"
   objecttolerance="10"
   gridtolerance="10"
   guidetolerance="10"
   inkscape:pageopacity="0"
   inkscape:pageshadow="2"
   inkscape:window-width="2560"
   inkscape:window-height="1395"
   id="namedview5545"
   showgrid="false"
   inkscape:zoom="0.96326531"
   inkscape:cx="500.94746"
   inkscape:cy="355.14401"
   inkscape:window-x="-13"
   inkscape:window-y="-13"
   inkscape:window-maximized="1"
   inkscape:current-layer="Layer_1" />
<metadata
   id="metadata5430">
	<ns:sfw>
		<ns:slices />
		<ns:sliceSourceBounds
   height="883.218"
   width="1265.103"
   y="-931.609"
   x="67.449"
   bottomLeftOrigin="true" />
	</ns:sfw>
<rdf:RDF><cc:Work
     rdf:about=""><dc:format>image/svg+xml</dc:format><dc:type
       rdf:resource="http://purl.org/dc/dcmitype/StillImage" /><dc:title></dc:title></cc:Work></rdf:RDF></metadata>
<g
   id="g5542"
   transform="translate(-956.12288,-317.5)">
	<path
   d="m 1098.782,542.647 c -1.29,-0.704 -3.408,1.412 -4.229,2.234 -0.82,0.82 -1.643,1.525 -2.468,2.351 -0.353,0.704 -0.704,1.525 -1.056,2.23 -0.353,0.703 -0.353,0.703 -0.704,1.524 0,0.234 -0.118,0.353 -0.118,0.591 v 0.117 c 0.235,0.234 0.235,0.234 0.587,0.354 0.47,0.234 1.291,0.352 1.995,0.352 1.529,0 3.642,-0.471 4.819,0.703 0,-0.117 0,-0.234 0,-0.352 0.353,-1.882 1.057,-3.76 1.408,-5.637 0.236,-0.942 0.94,-3.876 -0.234,-4.467 z"
   id="path5432"
   inkscape:connector-curvature="0"
   style="fill:#ffffff" />
	<path
   d="m 1059.667,471.938 c -0.235,-0.234 -0.587,-0.471 -0.938,-0.588 -0.353,-0.118 -1.057,-0.118 -1.412,0.236 -0.235,0 -0.471,0.118 -0.588,0.235 -0.234,0.117 -0.469,0.234 -0.703,0.469 -0.235,0.47 -0.47,0.939 -0.47,1.527 0,1.409 1.525,2.584 2.938,2.232 0.234,-0.117 0.469,-0.237 0.703,-0.354 0.352,-0.234 0.704,-0.586 0.822,-0.939 0.234,-0.586 0.587,-1.173 0.234,-1.762 -0.233,-0.586 -0.233,-0.586 -0.586,-1.056 z"
   id="path5434"
   inkscape:connector-curvature="0"
   style="fill:#ffffff" />
	<path
   d="m 1105.71,551.222 c -0.47,-0.352 -1.174,-0.352 -1.643,-0.234 -1.408,0.353 -2.703,1.413 -3.642,2.586 1.881,-0.117 3.759,-0.352 5.523,-0.704 0.113,0 0.234,0 0.469,-0.117 -0.116,-0.587 -0.233,-1.175 -0.707,-1.531 z"
   id="path5436"
   inkscape:connector-curvature="0"
   style="fill:#ffffff" />
	<path
   d="m 1309.04,546.523 v 0 c 0,0 0,0 0,-0.116 -0.117,0 -0.234,-0.235 -0.234,-0.235 -0.117,-0.117 -0.235,-0.234 -0.353,-0.47 -1.529,-1.524 -3.055,-2.934 -4.815,-4.228 v 0 c -2.351,-1.174 -4.702,-2.113 -7.05,-2.935 -2.112,-0.708 -4.345,-1.412 -6.579,-1.882 -0.704,0.587 -1.408,1.174 -2.112,1.882 -0.234,0.352 -0.586,0.705 -0.821,1.174 -0.47,0.587 -0.939,1.29 -1.291,1.995 1.642,0.117 3.402,0.234 5.05,0.469 3.521,0.47 7.046,1.178 10.57,2 0.117,0.116 0.234,0.116 0.352,0.116 1.647,0.47 3.291,0.939 4.933,1.526 0.939,0.352 1.882,0.703 2.821,1.295 -0.119,-0.237 -0.354,-0.472 -0.471,-0.591 z"
   id="path5438"
   inkscape:connector-curvature="0"
   style="fill:#fab732" />
	<path
   d="m 1287.426,536.071 c -2.818,-0.704 -5.875,-1.056 -8.809,-1.407 -6.463,-0.709 -12.804,-0.353 -19.146,0.586 0,0.234 0,0.587 0,0.821 -0.121,1.057 0,2.112 0,3.174 0.113,0.586 0.236,1.173 0.236,1.759 0.234,0.939 0.703,2.234 0.703,3.408 3.051,-0.822 6.106,-1.525 9.162,-1.999 4.697,-0.704 9.278,-0.938 13.977,-0.822 0.118,-0.353 0.353,-0.821 0.47,-1.056 0.234,-0.47 0.469,-0.821 0.703,-1.29 0.471,-0.822 1.062,-1.53 1.766,-2.234 0.235,-0.353 0.587,-0.705 0.938,-0.94 z"
   id="path5440"
   inkscape:connector-curvature="0"
   style="fill:#fab732" />
	<path
   d="m 1257.121,540.652 c 0,-0.234 -0.117,-0.587 -0.117,-0.938 -0.118,-1.291 -0.118,-2.703 0.117,-3.994 -6.106,1.057 -12.1,2.703 -17.972,4.581 -4.229,1.29 -8.457,2.703 -12.687,3.993 0.117,1.408 0.47,2.7 0.821,3.994 0.354,1.057 0.705,2.112 1.175,3.173 0.59,1.643 1.412,3.052 2.116,4.581 1.173,-0.474 2.347,-1.061 3.524,-1.646 7.753,-3.408 15.738,-6.929 23.844,-9.279 -0.235,-0.587 -0.235,-1.174 -0.353,-1.761 -0.234,-0.826 -0.35,-1.765 -0.468,-2.704 z"
   id="path5442"
   inkscape:connector-curvature="0"
   style="fill:#fab732" />
	<path
   d="m 1225.76,550.049 c -0.117,-0.352 -0.234,-0.822 -0.353,-1.174 -0.234,-1.29 -0.469,-2.703 -0.587,-3.993 -2.351,0.703 -4.819,1.407 -7.167,1.995 -3.524,0.942 -7.049,1.646 -10.69,1.764 -1.761,0.117 -3.521,0 -5.285,-0.235 -0.235,0 -0.47,-0.117 -0.704,-0.117 0,0.117 -0.117,0.353 -0.117,0.587 -0.353,1.057 -0.705,1.995 -0.939,3.055 -0.235,1.292 -0.353,2.466 -0.47,3.756 0,2.352 0.234,4.703 1.057,6.933 0.47,1.056 0.938,2.116 1.643,2.938 0.471,0.587 1.061,1.057 1.53,1.644 1.407,-0.471 2.816,-0.939 4.229,-1.526 7.045,-2.469 13.859,-5.641 20.671,-8.691 -0.235,-0.588 -0.47,-1.062 -0.704,-1.647 -0.824,-1.648 -1.528,-3.408 -2.114,-5.289 z"
   id="path5444"
   inkscape:connector-curvature="0"
   style="fill:#fab732" />
	<path
   d="m 1198.271,563.204 c -0.822,-2.347 -1.173,-4.933 -1.057,-7.519 0,-1.407 0.234,-2.934 0.587,-4.346 0.356,-1.174 0.708,-2.348 1.178,-3.521 0.117,0 0.117,-0.117 0.117,-0.117 -0.825,-0.235 -1.764,-0.47 -2.586,-0.47 -0.352,0.938 -0.704,1.76 -1.173,2.699 -2,5.05 -4.464,9.866 -7.284,14.33 -1.409,2.467 -3.056,4.936 -4.698,7.165 1.174,-0.117 2.468,-0.117 3.642,-0.352 2.347,-0.352 4.698,-0.704 7.049,-1.29 2.348,-0.47 4.699,-1.062 7.046,-1.766 -0.47,-0.469 -0.821,-1.055 -1.056,-1.525 -0.706,-0.936 -1.292,-2.113 -1.765,-3.288 z"
   id="path5446"
   inkscape:connector-curvature="0"
   style="fill:#fab732" />
	<path
   d="m 1138.133,531.139 c -0.47,-0.353 -0.822,-0.587 -1.174,-0.821 -1.412,-1.178 -3.056,-2.586 -3.643,-4.464 -0.117,0 -0.234,0 -0.47,0 0,0.117 0,0.117 0.118,0.117 1.173,1.878 0,4.815 -0.705,6.693 -0.942,2.234 -1.998,4.464 -3.289,6.581 -1.178,2.229 -2.469,4.345 -3.876,6.34 -1.292,1.882 -2.469,3.642 -4.229,5.168 0,0 0,0 -0.117,0 -1.057,1.882 -3.994,3.055 -5.754,3.76 -2.587,1.173 -5.407,1.998 -8.341,2.469 -4.112,0.704 -8.927,1.056 -13.038,-0.354 -0.353,0 -0.705,0 -1.061,0 -2.229,-0.117 -4.581,-0.708 -5.872,-2.585 -1.995,-2.821 0.469,-6.576 1.882,-9.161 1.761,-3.173 3.756,-6.342 5.637,-9.397 1.173,-2.116 1.878,-4.463 2.82,-6.697 0.471,-1.525 1.057,-3.051 1.644,-4.463 0.234,-0.939 0.587,-1.643 0.938,-2.465 0.117,-0.235 0.234,-0.353 0.353,-0.47 -0.235,-0.117 -0.47,-0.234 -0.704,-0.352 -7.05,-2.938 -13.508,-8.927 -14.447,-16.797 -1.764,2.581 -3.642,5.049 -5.523,7.515 -1.995,2.586 -4.229,5.054 -6.342,7.4 -0.116,0.939 -0.351,1.765 -0.469,2.703 -0.235,1.174 -0.587,2.348 -0.938,3.643 0,0.82 -0.118,1.643 -0.353,2.347 -0.121,1.173 -0.355,2.352 -0.469,3.524 0.469,1.174 0.348,2.703 0.348,3.877 0,1.761 0.121,3.524 0.238,5.285 0.353,3.524 0.821,7.167 1.408,10.687 0.587,3.643 1.291,7.167 2.113,10.692 0.234,1.056 0.474,2.111 0.825,3.173 0.234,-0.708 0.587,-1.53 0.938,-2.352 0.821,-2.229 1.878,-5.05 4.347,-5.872 0.469,-0.587 1.407,-0.821 1.995,-0.117 1.764,1.994 3.759,3.169 6.345,3.76 2.816,0.586 5.989,0.469 8.927,0.234 2.816,-0.352 5.52,-0.825 8.34,-1.295 1.761,-0.234 3.521,-0.469 5.285,-0.705 0.939,-0.117 1.995,-0.234 3.056,-0.469 1.174,-0.352 2.229,-0.821 3.403,-0.586 0.117,0 0.117,0 0.117,0 1.881,-2.821 4.229,-5.402 6.814,-7.754 2.113,-1.995 4.463,-3.877 6.928,-5.754 2.234,-1.647 4.468,-3.408 6.814,-4.933 -0.938,-1.179 -1.174,-2.704 -1.29,-4.229 10e-4,-1.412 0.117,-2.702 0.471,-3.876 z"
   id="path5448"
   inkscape:connector-curvature="0"
   style="fill:#fab732" />
	<path
   d="m 1107.827,549.345 c 0.821,0.704 1.407,1.76 1.524,2.821 1.413,-0.471 2.703,-0.944 4.112,-1.53 1.056,-0.47 2.233,-0.938 3.407,-1.525 0.822,-0.353 1.76,-0.939 2.82,-0.939 0.47,-1.647 1.291,-3.055 2.112,-4.464 1.174,-2.116 2.352,-4.11 3.525,-6.109 1.056,-1.996 2.111,-3.995 2.938,-6.107 0.353,-1.056 0.704,-1.995 0.938,-3.172 0.234,-0.938 0.469,-1.878 1.174,-2.699 v 0 c -1.525,-0.234 -3.055,-0.943 -4.229,-2 -0.235,0 -0.353,0.117 -0.587,0.117 -0.704,0.118 -1.526,0.236 -2.229,0.353 -1.062,0.118 -2.117,0.235 -3.057,0.235 -0.116,0.117 -0.116,0.234 -0.116,0.234 -0.118,0.47 -0.118,0.943 0,1.412 l 0.116,0.47 c 0,0.235 0,0.587 0,0.821 0,0.118 0,0.235 0,0.235 0,0 0,0.117 -0.116,0.234 0,0.234 -0.118,0.469 -0.118,0.704 -0.234,0.586 -0.352,0.939 -0.708,1.529 -1.407,2.465 -3.52,4.582 -5.637,6.341 -2.229,2.117 -4.698,3.878 -7.163,5.755 -1.411,0.943 -3.055,1.882 -4.346,3.056 0,0.469 -0.117,0.821 -0.117,1.291 -0.117,0.587 -0.117,1.178 -0.234,1.764 -0.122,0.353 -0.235,0.821 -0.235,1.174 0.704,-0.47 1.644,-0.821 2.582,-0.939 1.293,-0.236 2.588,-0.002 3.644,0.938 z"
   id="path5450"
   inkscape:connector-curvature="0"
   style="fill:#fab732" />
	<path
   d="m 1117.224,587.873 c -0.705,-1.174 -1.408,-2.352 -1.879,-3.524 -0.59,0.353 -1.06,0.704 -1.764,0.938 -0.821,0.353 -1.878,0.587 -2.816,0.821 -1.999,0.471 -4.229,0.709 -6.346,0.825 -2.112,0 -4.347,0 -6.576,-0.354 -0.942,-0.114 -1.881,-0.235 -2.819,-0.471 -0.118,0 -0.235,0 -0.471,-0.117 0.118,-1.524 0,-3.051 -0.117,-4.58 -0.234,-3.639 -1.056,-7.281 -2.469,-10.806 -0.938,-1.999 -1.876,-4.111 -3.168,-5.992 v 0 c -2.703,-0.588 -5.289,-1.644 -6.814,-3.639 -0.117,0.117 -0.117,0.234 -0.234,0.352 -0.47,1.175 -1.057,2.348 -1.525,3.408 -0.826,1.994 -1.413,4.107 -1.999,6.224 -0.822,3.643 -1.526,7.401 -1.878,11.161 -0.47,4.106 -0.587,8.219 -0.352,12.33 0.117,1.764 0.469,3.642 0.82,5.406 0.117,0.353 0.234,0.587 0.234,0.938 0.235,0.235 0.471,0.47 0.587,0.587 0.588,0.588 1.174,0.939 1.878,1.291 1.178,0.587 2.82,1.056 4.111,1.174 1.883,0.116 3.761,0 5.642,-0.235 4.111,-0.352 8.34,-1.29 12.447,-2.464 3.643,-0.938 7.284,-1.999 10.926,-3.173 1.291,-0.352 2.469,-0.704 3.643,-1.056 2.464,-0.588 4.933,-1.408 7.519,-1.882 -2.704,-1.994 -4.938,-4.463 -6.58,-7.162 z"
   id="path5452"
   inkscape:connector-curvature="0"
   style="fill:#fab732" />
	<path
   d="m 1065.422,581.176 c -3.17,0.822 -6.342,1.178 -9.514,1.413 -5.168,0.234 -10.923,0.117 -15.743,-1.765 -0.112,-0.587 -0.234,-1.057 -0.234,-1.526 -0.352,-1.525 -0.469,-3.056 -0.587,-4.58 -0.234,-3.291 -0.469,-6.463 -1.643,-9.514 -0.234,-0.825 -0.704,-1.647 -1.056,-2.469 -1.764,-0.47 -3.407,-1.174 -4.581,-2.347 -0.825,-0.591 -1.412,-1.412 -1.881,-2.352 -0.588,0.352 -1.292,0.821 -1.995,1.174 0.234,1.178 0,2.469 -0.235,3.524 -0.234,1.644 -0.47,3.172 -0.704,4.815 -0.122,1.408 -0.122,2.938 -0.122,4.347 0.122,3.29 0.356,6.813 0.826,9.748 0.235,1.882 0.587,3.759 1.174,5.524 0.469,1.642 0.821,2.698 1.643,4.11 0.704,1.057 1.412,2.112 2.352,2.582 0.117,0.118 0.234,0.234 0.352,0.234 h 0.117 v 0 c 0,0 0,0.118 0.117,0.118 0.235,0 0.47,0.117 0.704,0.234 1.765,-0.353 3.76,0 5.642,0 1.643,0 3.169,0 4.815,0 3.286,0 6.576,-0.117 9.865,-0.353 3.291,-0.234 6.576,-0.587 9.749,-1.29 1.643,-0.353 3.289,-0.704 4.933,-1.175 0.587,-0.234 1.53,-0.469 2.234,-0.586 0,-2.82 0.117,-5.642 0.352,-8.457 0.117,-0.235 0.117,-0.591 0.117,-0.825 0.117,-1.058 0.234,-2.113 0.471,-3.17 -0.118,0 -0.236,0 -0.236,0.117 -2.234,1.061 -4.463,1.882 -6.932,2.469 z"
   id="path5454"
   inkscape:connector-curvature="0"
   style="fill:#fab732" />
	<path
   d="m 1052.266,540.065 c -2.582,2.582 -5.402,5.168 -8.223,7.52 0.469,0.234 0.825,0.352 1.178,0.469 1.994,0.704 3.638,0.821 5.754,0.821 1.995,0 3.994,-0.234 5.871,-1.056 0.939,-0.47 1.883,-0.942 2.703,-1.53 0.353,-0.234 0.587,-0.469 0.821,-0.704 0.118,-0.352 0.354,-0.703 0.471,-1.056 0.469,-1.174 0.938,-2.469 1.529,-3.643 1.057,-2.586 2.229,-5.05 3.403,-7.636 1.061,-2.582 2.233,-5.168 3.173,-7.866 0.352,-1.061 0.703,-2 1.056,-3.056 -1.525,1.525 -2.934,3.056 -4.463,4.581 -4.347,4.464 -8.693,8.928 -13.273,13.156 z"
   id="path5456"
   inkscape:connector-curvature="0"
   style="fill:#fab732" />
	<path
   d="m 1039.109,546.407 c 4.816,-3.994 9.279,-8.224 13.743,-12.565 2.82,-2.82 5.642,-5.759 8.457,-8.574 4.815,-4.82 9.515,-9.519 13.743,-14.804 2.233,-2.699 4.346,-5.402 6.345,-8.223 1.408,-1.995 2.699,-4.111 4.229,-6.106 0.352,-0.938 0.703,-1.999 1.056,-2.938 -0.47,0.821 -0.938,1.53 -1.409,2.352 -0.82,1.173 -1.528,2.582 -2.35,3.76 -1.761,2.465 -3.643,4.934 -5.638,7.162 -4.111,4.698 -8.81,8.927 -13.508,13.039 -4.581,3.993 -9.162,8.105 -13.86,11.864 -5.406,4.229 -11.043,8.106 -17.031,11.514 -7.521,4.229 -15.625,7.396 -24.083,8.927 -3.755,0.587 -7.632,0.821 -11.392,0.116 -3.289,-0.708 -5.992,-2.467 -8.223,-4.697 -0.82,0.938 -1.646,1.994 -2.586,2.934 -1.524,1.529 -3.285,3.056 -5.167,4.347 0.586,1.407 1.29,2.703 2.233,3.759 2.582,2.703 6.342,3.76 9.866,4.347 4.112,0.704 8.34,0.586 12.452,0.117 9.982,-1.174 19.144,-5.872 27.25,-11.748 2.115,-1.527 3.995,-3.053 5.873,-4.583 z"
   id="path5458"
   inkscape:connector-curvature="0"
   style="fill:#fab732" />
	<path
   d="m 1091.85,471.821 c 0.353,-4.935 0.353,-9.868 0,-14.801 -0.234,-2.584 -0.586,-5.167 -0.938,-7.753 -0.118,-0.939 -0.235,-1.878 -0.235,-2.818 -0.234,-0.353 -0.586,-0.822 -0.704,-1.291 -0.235,-0.941 -0.47,-1.763 -0.704,-2.703 -0.47,-1.88 -0.938,-3.758 -1.53,-5.637 -0.116,-0.117 -0.116,-0.235 -0.234,-0.353 -4.463,1.057 -9.044,1.878 -13.508,3.288 -4.347,1.41 -8.692,3.173 -12.687,5.522 -7.983,4.581 -14.446,11.041 -19.497,18.558 -6.814,10.338 -11.395,21.849 -17.736,32.303 -2.82,4.581 -5.875,9.162 -9.396,13.039 -3.407,3.759 -7.871,7.4 -13.155,7.283 -0.708,3.052 -1.412,6.106 -2.234,9.045 -1.995,7.632 -5.167,15.385 -10.101,21.73 2.23,2.23 4.934,3.989 8.223,4.697 3.76,0.705 7.637,0.471 11.392,-0.116 8.458,-1.53 16.563,-4.698 24.083,-8.927 5.988,-3.407 11.625,-7.285 17.031,-11.514 4.698,-3.759 9.279,-7.871 13.86,-11.864 4.698,-4.112 9.396,-8.341 13.508,-13.039 1.995,-2.229 3.877,-4.697 5.638,-7.162 0.821,-1.178 1.529,-2.587 2.35,-3.76 0.471,-0.821 0.939,-1.53 1.409,-2.352 0.117,-0.469 0.234,-0.82 0.352,-1.173 0.822,-2.231 1.53,-4.463 2.117,-6.695 1.288,-4.463 2.227,-8.926 2.696,-13.507 z m -28.777,7.282 v 0 c -1.177,4.346 -4.933,8.458 -9.634,8.81 -5.051,0.352 -9.396,-4.464 -8.807,-9.514 0.47,-4.111 3.756,-9.985 8.572,-9.75 0.707,-0.235 1.411,-0.352 2.116,-0.352 5.755,-0.47 9.162,5.638 7.753,10.806 z"
   id="path5460"
   inkscape:connector-curvature="0"
   style="fill:#f5be4e" />
	<path
   d="m 1301.169,539.714 c -2.585,-1.765 -5.167,-3.525 -7.753,-5.05 -1.173,0.586 -2.347,1.173 -3.407,1.994 2.234,0.47 4.467,1.174 6.579,1.882 2.348,0.821 4.699,1.761 7.05,2.935 -0.825,-0.588 -1.648,-1.174 -2.469,-1.761 z"
   id="path5462"
   inkscape:connector-curvature="0"
   style="fill:#f5be4e" />
	<path
   d="m 1287.191,531.256 c -0.586,-0.352 -1.294,-0.587 -1.881,-0.938 -0.117,0 -0.117,0 -0.234,-0.117 v 0 0 0 c 0,0 0,0 -0.117,0 v 0 0 0 0 h -0.117 c -0.234,-0.117 -0.47,-0.235 -0.705,-0.353 -1.994,-0.708 -4.347,-0.826 -6.458,-1.061 -3.056,-0.234 -6.229,-0.234 -9.279,0 -2.352,0.234 -4.468,0.588 -6.697,1.061 -1.173,1.643 -1.878,3.403 -2.23,5.402 6.342,-0.938 12.683,-1.295 19.146,-0.586 2.934,0.352 5.99,0.703 8.809,1.407 1.175,-1.056 2.583,-1.995 3.995,-2.586 -1.414,-0.821 -2.822,-1.524 -4.232,-2.229 z"
   id="path5464"
   inkscape:connector-curvature="0"
   style="fill:#f5be4e" />
	<path
   d="m 1226.463,541.826 c 0,0.821 0,1.646 0,2.468 4.229,-1.29 8.458,-2.703 12.687,-3.993 5.872,-1.878 11.865,-3.524 17.972,-4.581 0,-0.235 0,-0.353 0,-0.587 0.234,-1.647 0.822,-3.289 1.643,-4.698 -7.983,1.995 -15.619,5.285 -23.256,8.223 -2.939,1.173 -5.99,2.229 -9.046,3.168 z"
   id="path5466"
   inkscape:connector-curvature="0"
   style="fill:#f5be4e" />
	<path
   d="m 1218.123,543.942 c -3.643,0.704 -7.401,0.821 -11.16,0.47 -1.174,0 -2.465,-0.118 -3.639,-0.234 -0.352,0.469 -0.707,0.938 -1.06,1.524 -0.47,0.821 -0.939,1.647 -1.291,2.586 0.234,0 0.469,0.117 0.704,0.117 1.765,0.235 3.524,0.353 5.285,0.235 3.642,-0.117 7.166,-0.821 10.69,-1.764 2.348,-0.588 4.816,-1.292 7.167,-1.995 0,-0.939 0,-1.761 0.118,-2.704 -2.233,0.71 -4.462,1.296 -6.814,1.765 z"
   id="path5468"
   inkscape:connector-curvature="0"
   style="fill:#f5be4e" />
	<path
   d="m 1197.922,543.238 c -0.238,0.704 -0.474,1.525 -0.824,2.229 -0.119,0.587 -0.354,1.174 -0.588,1.765 0.822,0 1.761,0.234 2.586,0.47 0.469,-1.179 1.174,-2.586 2.112,-3.76 -1.057,-0.235 -2.229,-0.469 -3.286,-0.704 z"
   id="path5470"
   inkscape:connector-curvature="0"
   style="fill:#f5be4e" />
	<path
   d="m 1120.161,525.971 c -0.118,-0.469 -0.118,-0.942 0,-1.412 0,0 0,-0.117 0.116,-0.234 -5.875,0.47 -11.863,-0.117 -17.502,-1.995 0,0.234 0,0.47 -0.116,0.704 -0.234,0.821 -0.353,1.525 -0.587,2.234 -0.356,1.408 -0.708,2.815 -1.178,4.228 -0.703,2.466 -1.525,5.052 -2.816,7.398 -0.709,1.29 -1.412,2.586 -2.233,3.876 1.29,-0.704 2.586,-1.056 3.993,-0.469 2,0.82 2.352,2.938 2.352,4.815 1.291,-1.174 2.935,-2.112 4.346,-3.056 2.465,-1.877 4.934,-3.638 7.163,-5.755 2.117,-1.759 4.229,-3.876 5.637,-6.341 0.356,-0.59 0.474,-0.943 0.708,-1.529 0,-0.235 0.118,-0.47 0.118,-0.704 0.116,-0.117 0.116,-0.234 0.116,-0.234 0,0 0,-0.117 0,-0.235 0,-0.234 0,-0.586 0,-0.821 z"
   id="path5472"
   inkscape:connector-curvature="0"
   style="fill:#f5be4e" />
	<path
   d="m 1115.697,562.618 c -1.295,0.234 -2.468,0.234 -3.525,0.352 -1.764,0.234 -3.406,0.47 -5.167,0.821 -3.173,0.471 -6.462,1.061 -9.636,1.296 -2.581,0.117 -5.637,0.117 -8.57,-0.474 1.292,1.881 2.23,3.993 3.168,5.992 1.413,3.524 2.234,7.167 2.469,10.806 0.117,1.529 0.235,3.056 0.117,4.58 0.235,0.117 0.353,0.117 0.471,0.117 0.938,0.235 1.877,0.356 2.819,0.471 2.229,0.354 4.464,0.354 6.576,0.354 2.116,-0.116 4.347,-0.354 6.346,-0.825 0.938,-0.234 1.995,-0.469 2.816,-0.821 0.704,-0.234 1.174,-0.586 1.764,-0.938 -2.703,-6.224 -3.054,-13.391 -0.469,-19.853 0.234,-0.705 0.469,-1.292 0.821,-1.878 z"
   id="path5474"
   inkscape:connector-curvature="0"
   style="fill:#f5be4e" />
	<path
   d="m 1070.236,409.447 c 0.118,0.118 0.118,0.352 0.118,0.587 0.591,2.116 1.295,4.229 1.764,6.343 1.761,0.589 3.525,1.411 5.168,2.231 1.408,0.707 2.703,1.646 3.994,2.586 0,-1.41 0,-2.82 -0.117,-4.111 -0.117,-2.82 -0.234,-5.521 -0.352,-8.34 -0.353,-5.402 -0.822,-10.806 -1.647,-16.091 -1.408,-9.633 -3.872,-19.147 -7.75,-28.191 -0.942,3.759 -1.528,7.399 -1.882,11.159 -0.469,4.464 -0.704,8.927 -0.704,13.39 -0.117,4.581 0.118,9.162 0.47,13.743 0.234,2.231 0.588,4.462 0.938,6.694 z"
   id="path5476"
   inkscape:connector-curvature="0"
   style="fill:#f5be4e" />
	<path
   d="m 1071.649,561.796 c -0.591,-2.468 -1.178,-5.05 -1.647,-7.518 -0.587,0.469 -1.291,0.938 -1.877,1.407 -1.174,0.825 -2.352,1.647 -3.643,2.352 -1.878,1.056 -3.642,1.995 -5.754,2.703 -3.407,1.291 -7.05,2.112 -10.691,2.582 -3.169,0.352 -7.633,0.587 -11.392,-0.587 0.352,0.821 0.821,1.644 1.056,2.469 1.174,3.051 1.408,6.223 1.643,9.514 0.118,1.524 0.235,3.055 0.587,4.58 0,0.47 0.122,0.939 0.234,1.526 4.82,1.882 10.575,1.999 15.743,1.765 3.172,-0.235 6.344,-0.591 9.514,-1.413 2.469,-0.587 4.698,-1.408 6.931,-2.465 0,-0.117 0.118,-0.117 0.236,-0.117 0.351,-2.938 0.938,-5.875 1.642,-8.691 -0.469,-0.943 -0.82,-1.883 -1.056,-2.82 -0.586,-1.762 -1.057,-3.526 -1.526,-5.287 z"
   id="path5478"
   inkscape:connector-curvature="0"
   style="fill:#f5be4e" />
	<path
   d="m 1025.366,409.212 c 5.873,2.114 11.983,3.876 17.738,6.46 0.938,-0.352 1.998,-0.586 2.938,-0.822 -1.882,-0.94 -3.76,-2.114 -5.52,-3.172 -3.173,-1.88 -6.346,-3.875 -9.519,-5.754 -5.167,-3.172 -10.687,-6.108 -16.324,-8.457 -5.172,-2.232 -10.574,-4.112 -16.094,-5.405 -2.938,-0.705 -5.871,-1.291 -8.81,-1.76 -1.173,-0.234 -2.468,-0.472 -3.642,-0.707 6.696,5.17 13.978,9.398 21.849,12.804 5.638,2.585 11.513,4.699 17.384,6.813 z"
   id="path5480"
   inkscape:connector-curvature="0"
   style="fill:#f5be4e" />
	<path
   d="m 1188.17,554.043 c -1.291,0.821 -2.465,1.877 -3.76,2.82 -1.174,0.822 -2.465,1.643 -3.759,2.348 -2.465,1.412 -5.285,2.469 -8.103,2.82 -3.172,0.352 -6.228,-0.117 -9.161,-1.174 0,0 -0.591,-0.234 -0.825,-0.234 0,-0.117 0,-0.117 -0.118,-0.117 -0.234,-0.117 -0.47,-0.239 -0.704,-0.474 -0.821,-0.353 -1.407,-0.821 -2.112,-1.292 -3.173,-2.112 -6.228,-4.815 -8.574,-7.753 -1.061,-1.407 -1.882,-2.699 -2.117,-4.346 -0.117,-0.353 -0.117,-0.821 0.117,-1.408 0,0.117 0.353,-0.47 0.353,-0.47 0.234,-0.352 0.353,-0.586 0.353,-0.821 -0.118,0 -0.353,0 -0.587,-0.118 -1.174,0.939 -2.348,1.878 -3.638,2.817 -0.592,0.591 -1.296,1.061 -1.999,1.646 -2.23,1.761 -4.347,3.761 -6.342,5.755 -3.877,3.994 -7.52,8.458 -9.518,13.625 -1.995,5.168 -2.229,10.691 -0.235,15.859 1.999,5.167 5.876,10.453 11.513,11.865 0.235,0 0.47,0 0.705,0 6.228,-0.122 12.451,-2.352 17.854,-5.524 11.161,-6.576 20.088,-16.681 26.781,-27.72 0.117,-0.234 0.352,-0.469 0.47,-0.705 1.529,-2.467 2.938,-5.05 4.229,-7.753 -0.237,0.119 -0.589,0.119 -0.823,0.354 z"
   id="path5482"
   inkscape:connector-curvature="0"
   style="fill:#b08530" />
	<path
   d="m 1101.012,508.234 c -3.99,-8.691 -2.934,-18.442 -1.174,-27.487 1.291,-6.108 2.938,-12.217 3.994,-18.325 0.587,-4.109 0.938,-8.221 0.704,-12.332 -0.117,-1.646 -0.234,-3.173 -0.469,-4.698 -0.821,-5.757 -2.465,-11.513 -5.168,-16.681 -2.351,-4.463 -5.284,-8.457 -8.692,-11.98 -0.116,0.235 -0.116,0.469 -0.234,0.705 -0.704,2.936 -1.529,6.343 -3.29,8.809 0.705,0.822 1.291,1.646 1.761,2.466 1.764,2.702 3.055,5.757 3.993,8.81 0.474,1.645 0.943,3.29 1.179,4.933 0.117,0.823 0.352,1.645 0.352,2.466 0.352,1.41 0.586,2.821 0.821,4.346 0.586,2.703 0.939,5.404 1.174,8.223 0.352,5.05 0.352,10.103 -0.117,15.153 -0.587,4.933 -1.526,9.868 -3.056,14.565 -0.822,2.232 -1.643,4.698 -2.698,6.928 0.116,0.235 0.234,0.591 0.116,0.943 -0.704,2.112 -1.877,3.993 -3.056,5.871 0,0.117 0.117,0.234 0.117,0.352 0.588,2.82 1.296,5.638 2.938,8.224 1.525,2.23 3.408,4.229 5.755,5.637 4.698,3.056 10.339,4.698 15.976,5.168 -0.703,-0.352 -1.407,-0.821 -1.999,-1.409 -3.755,-2.703 -7.044,-6.34 -8.927,-10.687 z"
   id="path5484"
   inkscape:connector-curvature="0"
   style="fill:#b08530" />
	<path
   d="m 1067.771,536.776 c -0.703,1.998 -1.407,3.993 -2.232,5.992 -0.471,1.291 -1.057,2.699 -1.526,3.991 -0.586,1.294 -0.939,2.351 -2.351,2.938 -0.117,0 -0.117,0 -0.235,0.117 -0.469,0.352 -1.057,0.821 -1.525,1.056 -0.353,0.234 -0.821,0.47 -1.173,0.708 0.117,0.588 0.234,1.057 0.469,1.644 0.234,0.586 0.587,1.291 0.822,1.878 0,0.234 0.116,0.469 0.116,0.707 1.057,-0.473 2.116,-0.942 3.174,-1.528 1.173,-0.822 2.464,-1.644 3.642,-2.349 0.82,-0.469 1.643,-0.942 2.464,-1.177 -0.587,-3.403 -1.056,-6.811 -1.408,-10.218 -0.117,-1.29 -0.117,-2.469 -0.237,-3.759 z"
   id="path5486"
   inkscape:connector-curvature="0"
   style="fill:#b08530" />
	<path
   d="m 1152.462,531.373 c 0.938,0 1.764,-0.117 2.703,-0.234 3.759,-0.704 7.515,-1.644 11.156,-2.938 3.759,-1.29 7.284,-2.933 10.809,-4.933 1.057,-0.586 2.112,-1.173 3.169,-1.878 0,-0.942 0.117,-1.881 0.239,-2.82 0.352,-1.878 0.938,-3.642 1.173,-5.52 -1.295,1.292 -2.469,2.465 -3.759,3.642 -0.235,0.234 -0.353,0.354 -0.471,0.471 -4.814,4.462 -10.104,8.457 -15.976,11.156 -2.933,1.29 -5.87,2.35 -9.043,3.054 z"
   id="path5488"
   inkscape:connector-curvature="0"
   style="fill:#b08530" />
	<path
   d="m 1175.366,528.67 c -1.409,0.705 -2.817,1.413 -4.347,1.999 -3.285,1.409 -6.811,2.465 -10.218,3.286 -6.224,1.412 -13.272,2.351 -19.497,0.592 0,1.173 0.117,2.229 0.234,3.402 0.822,0.117 1.644,0.352 2.465,0.708 1.408,0.352 2.82,0.704 4.229,0.939 1.646,0.234 3.406,0.469 5.05,0.587 5.523,0.234 11.277,0 16.797,-0.938 1.057,-0.119 2.117,-0.354 3.174,-0.471 0,-0.352 0,-0.708 -0.117,-0.942 -0.117,-1.761 0,-3.404 0.469,-5.051 0.352,-1.525 0.939,-2.816 1.761,-4.111 z"
   id="path5490"
   inkscape:connector-curvature="0"
   style="fill:#b08530" />
	<path
   d="m 1155.165,508.586 c -4.581,3.995 -9.396,7.397 -14.803,9.983 -2.583,1.291 -5.167,2.352 -7.866,3.29 0.116,0 0.234,0 0.234,0 3.168,0 6.341,-0.938 9.161,-2.116 2.935,-1.057 5.754,-2.464 8.457,-4.111 5.521,-3.286 10.453,-7.397 14.799,-12.213 2.469,-2.703 4.816,-5.759 6.933,-8.81 0.703,-1.178 1.525,-2.233 2.229,-3.408 0.822,-1.292 1.644,-2.702 2.469,-3.993 -0.118,-1.058 -0.353,-1.997 -0.474,-2.938 -0.352,-2.232 -0.704,-4.463 -0.938,-6.695 -0.117,0.589 -0.353,1.175 -0.47,1.645 -0.47,1.527 -1.057,2.936 -1.643,4.463 -4.111,9.513 -10.335,18.089 -18.088,24.903 z"
   id="path5492"
   inkscape:connector-curvature="0"
   style="fill:#b08530" />
	<path
   d="m 1173.957,499.072 c -0.117,0.117 -0.234,0.352 -0.352,0.471 -1.291,1.759 -2.586,3.402 -3.994,5.05 -2.82,3.29 -5.754,6.224 -9.161,8.927 -5.05,4.111 -10.571,7.636 -16.681,9.982 -2.23,0.822 -4.347,1.526 -6.693,2 0.117,0.234 0.353,0.352 0.469,0.586 0.588,0.704 1.291,1.292 1.995,1.761 0.822,0.587 1.882,1.057 2.703,1.761 1.057,-0.234 2.112,-0.47 3.057,-0.588 1.759,-0.352 3.52,-0.703 5.284,-1.056 3.168,-0.704 6.341,-1.761 9.279,-3.172 3.994,-1.878 7.753,-4.347 11.156,-7.046 0.939,-0.703 1.764,-1.53 2.703,-2.352 -0.352,-1.174 -0.703,-2.464 -0.939,-3.759 -0.234,-1.643 -0.234,-3.403 -0.234,-5.168 0.118,-2.581 0.822,-4.932 1.408,-7.397 z"
   id="path5494"
   inkscape:connector-curvature="0"
   style="fill:#b08530" />
	<path
   d="m 1120.631,520.33 c 9.982,-0.938 19.966,-5.754 28.071,-11.861 9.162,-7.05 16.798,-16.563 21.027,-27.252 2.585,-6.46 3.759,-13.155 4.11,-19.968 0,-0.235 0,-0.469 0,-0.704 0,-1.763 0.117,-3.642 0.117,-5.521 -1.055,1.879 -2.938,3.407 -4.58,4.581 -3.642,2.466 -7.52,4.229 -11.63,5.757 -8.106,3.053 -17.033,5.754 -25.96,4.346 -4.816,-0.706 -9.279,-2.703 -12.921,-5.991 -4.815,-4.229 -6.929,-10.22 -10.805,-15.036 -0.117,-0.234 -0.353,-0.352 -0.587,-0.352 0.234,1.997 0.353,3.994 0.234,5.991 0,2.232 -0.116,4.346 -0.47,6.578 -1.529,12.098 -6.462,23.963 -5.637,36.295 0.47,5.871 2.582,11.512 6.693,15.858 2,2.112 4.229,3.876 6.933,5.285 1.643,0.821 3.52,1.408 5.285,1.995 0.12,-10e-4 0.12,-10e-4 0.12,-10e-4 z"
   id="path5496"
   inkscape:connector-curvature="0"
   style="fill:#b08530" />
	<path
   d="m 1124.037,580.12 c -0.825,-5.285 0.118,-10.452 2.465,-15.269 2.469,-5.054 6.11,-9.4 10.218,-13.273 1.999,-1.881 4.233,-3.759 6.463,-5.641 1.173,-0.821 2.229,-1.644 3.407,-2.465 -1.178,-0.234 -2.469,-0.586 -3.642,-0.942 -0.352,-0.117 -0.587,-0.234 -0.939,-0.353 0,0 0,0 -0.117,0 -3.642,2.352 -7.166,5.172 -10.574,7.871 -3.168,2.703 -6.342,5.637 -8.81,9.044 -3.286,4.581 -5.402,9.987 -5.168,15.859 0.354,5.285 2.469,10.452 6.342,14.212 2.352,2.351 5.172,4.111 8.223,5.051 -3.991,-3.525 -6.929,-8.81 -7.868,-14.094 z"
   id="path5498"
   inkscape:connector-curvature="0"
   style="fill:#b08530" />
	<path
   d="m 1066.834,408.743 c -1.53,-0.234 -3.056,-0.821 -4.582,-1.056 -1.646,-0.237 -3.406,-0.472 -5.054,-0.354 -1.643,0 -3.403,0.118 -5.051,0.472 -0.586,0.117 -1.056,0.352 -1.643,0.469 1.525,1.761 3.056,3.64 4.464,5.52 4.815,-0.117 9.631,0.353 14.212,1.645 -0.821,-2.232 -1.643,-4.464 -2.346,-6.696 z"
   id="path5500"
   inkscape:connector-curvature="0"
   style="fill:#b08530" />
	<path
   d="m 1030.3,414.851 c -0.587,0.939 -1.173,1.763 -1.643,2.819 -0.469,1.056 -0.938,2.349 -1.174,3.524 -0.356,1.409 -0.591,2.701 -0.591,4.112 0,0.117 0,0.234 0,0.352 1.177,-0.823 2.234,-1.763 3.407,-2.469 0.118,-0.117 0.118,-0.234 0.235,-0.352 0.586,-0.587 1.178,-1.056 1.764,-1.643 1.408,-1.058 2.934,-2.114 4.581,-2.938 0.47,-0.234 0.939,-0.469 1.409,-0.704 -2.23,-0.704 -4.464,-1.528 -6.576,-2.232 -0.473,-0.116 -0.942,-0.351 -1.412,-0.469 z"
   id="path5502"
   inkscape:connector-curvature="0"
   style="fill:#b08530" />
	<path
   d="m 1192.634,536.188 c -3.643,2.469 -7.871,3.995 -12.096,5.168 -2.234,0.587 -4.347,1.057 -6.581,1.412 -0.938,0.235 -1.877,0.353 -2.82,0.47 -1.525,0.234 -3.051,0.469 -4.581,0.586 -3.993,0.47 -8.104,0.705 -12.095,0.47 -1.529,0 -3.056,-0.116 -4.702,-0.352 0,0.235 -0.118,0.47 -0.353,0.821 0,0 -0.353,0.587 -0.353,0.47 -0.234,0.587 -0.234,1.056 -0.117,1.408 0.235,1.646 1.057,2.938 2.117,4.346 2.347,2.938 5.401,5.641 8.574,7.753 0.705,0.471 1.291,0.939 2.112,1.292 0.234,0.234 0.47,0.356 0.704,0.474 0.118,0 0.118,0 0.118,0.117 0.234,0 0.825,0.234 0.825,0.234 2.934,1.057 5.989,1.525 9.161,1.174 2.817,-0.352 5.638,-1.408 8.103,-2.82 1.294,-0.705 2.585,-1.525 3.759,-2.348 1.295,-0.943 2.469,-1.999 3.76,-2.82 0.234,-0.235 0.586,-0.235 0.821,-0.353 1.53,-3.172 2.938,-6.341 4.111,-9.748 0.474,-1.174 0.942,-2.468 1.295,-3.759 0.704,-2.117 1.408,-4.229 1.878,-6.464 0.117,-0.234 0.117,-0.469 0.234,-0.703 -1.171,1.177 -2.463,2.234 -3.874,3.172 z"
   id="path5504"
   inkscape:connector-curvature="0"
   style="fill:#d49a26" />
	<path
   d="m 1309.979,547.467 v -0.117 0.117 0 h -0.118 c 0,0.118 0,0.118 0,0.118 v 0 c 0,-0.118 0,-0.118 0,0 v 0 h -0.116 v 0 c 0,0.117 0,0.117 0.116,0.234 v 0 0 0 0 c 0,0 0,0 0,0.117 0,0.117 0,-0.352 0,-0.117 0,-0.117 0,-0.117 0,-0.117 0,-0.117 0,-0.117 0,-0.117 0,0 0,-0.118 0.118,-0.118 z"
   id="path5506"
   inkscape:connector-curvature="0"
   style="fill:#d49a26" />
	<path
   d="m 1309.392,547.819 c 0.353,-0.117 0.235,-0.234 0,0 z"
   id="path5508"
   inkscape:connector-curvature="0"
   style="fill:#d49a26" />
	<path
   d="m 1309.04,546.407 c 0,0.116 0,0.116 0,0.116 z"
   id="path5510"
   inkscape:connector-curvature="0"
   style="fill:#d49a26" />
	<path
   d="m 1192.751,516.335 c -4.347,4.347 -9.396,8.106 -14.799,11.045 -0.822,0.469 -1.647,0.82 -2.586,1.29 -0.822,1.295 -1.409,2.586 -1.761,4.111 -0.469,1.646 -0.586,3.29 -0.469,5.051 0.117,0.234 0.117,0.591 0.117,0.942 1.76,-0.352 3.406,-0.708 5.05,-1.177 4.229,-1.057 8.223,-2.465 11.865,-4.581 1.643,-0.938 2.934,-1.878 4.229,-3.169 0.47,-0.473 0.821,-0.826 1.057,-1.178 0.352,-1.525 1.173,-2.934 1.76,-4.229 0.821,-1.643 1.53,-3.169 2.233,-4.815 1.291,-3.291 2.23,-6.811 2.934,-10.218 0.592,-3.056 0.943,-6.106 0.943,-9.279 v 0.117 c -2.468,6.108 -5.992,11.393 -10.573,16.09 z"
   id="path5512"
   inkscape:connector-curvature="0"
   style="fill:#d49a26" />
	<path
   d="m 1196.041,494.254 c -1.526,2.938 -3.407,5.758 -5.52,8.34 -2.703,3.642 -5.639,7.167 -8.811,10.456 -0.234,1.878 -0.821,3.642 -1.173,5.52 -0.122,0.939 -0.239,1.878 -0.239,2.82 5.759,-3.759 10.926,-8.457 14.92,-13.98 1.879,-2.816 3.76,-5.755 5.051,-8.928 1.056,-3.051 1.877,-6.341 2.111,-9.748 0,-0.118 0,-0.235 0,-0.47 0.236,-3.17 0,-6.343 -0.586,-9.396 0,-0.47 -0.117,-0.939 -0.235,-1.41 -0.352,2.349 -0.938,4.581 -1.643,6.813 -0.587,1.879 -1.173,3.876 -2.233,5.639 -0.351,1.409 -0.939,2.935 -1.642,4.344 z"
   id="path5514"
   inkscape:connector-curvature="0"
   style="fill:#d49a26" />
	<path
   d="m 1185.118,479.572 c -0.121,0.47 -0.355,0.941 -0.59,1.293 -2.817,6.461 -6.459,12.45 -10.571,18.208 -0.586,2.465 -1.29,4.815 -1.408,7.397 0,1.765 0,3.525 0.234,5.168 0.236,1.295 0.588,2.585 0.939,3.759 0.47,-0.352 0.821,-0.703 1.291,-1.174 7.52,-7.048 14.451,-15.033 19.384,-24.076 0,-2.352 1.057,-4.701 1.644,-6.933 0.703,-2.466 1.291,-5.05 1.525,-7.636 0.469,-4.698 0.117,-9.631 -0.939,-14.212 -1.056,-4.463 -2.465,-8.926 -4.347,-13.155 -0.821,-1.528 -1.524,-3.172 -2.346,-4.699 1.056,4.933 1.524,9.983 1.056,15.036 -0.352,3.758 -1.174,7.517 -2.117,11.159 -0.469,1.88 -1.055,3.877 -1.76,5.637 -0.353,0.823 -0.587,1.762 -0.938,2.586 -0.235,0.586 -0.704,1.173 -1.057,1.642 z"
   id="path5516"
   inkscape:connector-curvature="0"
   style="fill:#d49a26" />
	<path
   d="m 1176.305,438.108 c 0.121,0.471 0.238,1.058 0.355,1.527 0.587,2.936 0.939,5.874 1.057,8.692 0,0.234 0,0.469 0,0.587 0.235,3.525 0.235,7.049 0.118,10.572 -0.118,6.108 -0.705,12.217 -2.469,18.089 0.234,2.232 0.587,4.463 0.938,6.695 0.121,0.941 0.355,1.879 0.474,2.938 v -0.117 c 1.995,-3.172 3.76,-6.343 5.284,-9.633 0.587,-1.292 1.057,-2.466 1.644,-3.758 0,-0.237 0.117,-0.354 0.117,-0.589 0.587,-2.231 1.295,-4.463 1.765,-6.695 0.938,-4.111 1.644,-8.34 1.525,-12.687 -0.234,-11.979 -4.934,-23.608 -11.513,-33.593 -3.403,-5.05 -7.28,-9.866 -11.743,-14.095 -1.295,-1.41 -2.703,-2.583 -4.112,-3.876 3.643,5.167 6.811,10.572 9.514,16.209 3.055,6.343 5.637,12.803 7.046,19.734 z"
   id="path5518"
   inkscape:connector-curvature="0"
   style="fill:#d49a26" />
	<path
   d="m 1169.377,459.604 c 1.643,-1.173 3.525,-2.701 4.58,-4.581 0,-2.819 0,-5.639 0,-8.458 -0.117,-1.408 -0.469,-2.819 -0.703,-4.229 -1.174,-5.286 -2.703,-10.455 -4.698,-15.388 -3.643,-8.927 -8.341,-17.619 -14.33,-25.136 -6.931,-8.575 -15.507,-15.74 -25.842,-20.203 -12.1,-5.17 -25.608,-5.991 -38.646,-5.052 0.588,2.938 1.057,5.874 1.409,8.927 0.82,7.048 1.056,14.449 0.469,21.613 -0.234,2.584 -0.586,5.052 -1.056,7.636 6.696,4.698 11.278,12.45 13.859,19.968 1.644,4.347 2.586,8.927 3.056,13.625 0.234,0 0.47,0.117 0.587,0.352 3.876,4.816 5.989,10.807 10.805,15.036 3.642,3.288 8.104,5.286 12.921,5.991 8.927,1.408 17.854,-1.293 25.96,-4.346 4.109,-1.527 7.987,-3.289 11.629,-5.755 z"
   id="path5520"
   inkscape:connector-curvature="0"
   style="fill:#d49a26" />
	<path
   d="m 1149.172,543.824 c 0.234,0.118 0.469,0.118 0.587,0.118 0.12,-0.235 0.12,-0.47 0.234,-0.704 -0.352,0.235 -0.587,0.469 -0.821,0.586 z"
   id="path5522"
   inkscape:connector-curvature="0"
   style="fill:#d49a26" />
	<path
   d="m 1146.59,543.473 v -0.117 c 0.586,-0.352 1.056,-0.708 1.644,-1.06 -0.705,0.117 -1.175,0.591 -1.644,1.177 z"
   id="path5524"
   inkscape:connector-curvature="0"
   style="fill:#d49a26" />
	<path
   d="m 1074.113,346.371 c -1.643,-2.938 -3.402,-5.756 -5.402,-8.457 -1.056,-1.411 -2.112,-2.704 -3.055,-4.112 -0.117,0 -0.117,0 -0.117,-0.118 -0.235,3.64 -0.939,7.165 -1.408,10.807 -0.47,3.757 -0.939,7.634 -1.174,11.393 -0.353,7.165 0,14.33 0.821,21.379 0.587,5.52 1.525,11.042 2.699,16.443 -0.113,-1.645 -0.113,-3.405 -0.113,-5.05 0,-4.58 0.234,-9.161 0.587,-13.744 0.469,-5.05 1.525,-9.866 2.816,-14.681 0.234,-1.059 1.882,-1.411 2.468,-0.353 0.117,0.353 0.235,0.587 0.354,0.939 4.697,9.749 7.636,20.32 9.278,31.127 0.938,5.522 1.408,11.159 1.76,16.798 0.235,2.936 0.356,5.874 0.47,8.81 0.121,1.292 0.239,2.584 0.356,3.994 0.469,-1.645 1.057,-3.173 1.408,-4.698 0.821,-3.173 1.29,-6.226 1.526,-9.398 1.294,-14.33 -0.354,-29.13 -5.052,-42.755 -2.229,-6.343 -4.932,-12.452 -8.222,-18.324 z"
   id="path5526"
   inkscape:connector-curvature="0"
   style="fill:#d49a26" />
	<path
   d="m 1082.219,427.655 c -3.055,-3.29 -6.927,-5.639 -11.16,-7.167 -4.581,-1.763 -9.514,-2.583 -14.33,-2.583 -0.469,0 -0.82,0 -1.291,0 -0.704,0.586 -1.76,0.704 -2.468,0 -3.638,0.234 -7.279,0.821 -10.688,1.997 -2.229,0.704 -4.347,1.645 -6.462,2.701 -0.235,0.234 -0.47,0.352 -0.704,0.469 -3.643,3.759 -7.867,6.932 -11.392,10.689 -3.76,3.877 -6.815,8.106 -9.396,12.804 -6.228,11.982 -7.637,25.49 -8.693,38.763 -0.708,9.042 -1.764,18.09 -3.289,27.017 -0.235,1.408 -0.587,2.816 -0.821,4.111 5.284,0.117 9.748,-3.524 13.155,-7.283 3.521,-3.877 6.576,-8.458 9.396,-13.039 6.342,-10.454 10.922,-21.965 17.736,-32.303 5.051,-7.517 11.514,-13.977 19.497,-18.558 3.994,-2.349 8.34,-4.112 12.687,-5.522 4.464,-1.41 9.045,-2.231 13.508,-3.288 -0.353,-1.175 -0.821,-2.231 -1.408,-3.29 -1.057,-1.996 -2.234,-3.875 -3.877,-5.518 z"
   id="path5528"
   inkscape:connector-curvature="0"
   style="fill:#d49a26" />
	<polygon
   points=""
   id="polygon5530"
   style="fill:#d49a26" />
	<path
   d="m 1048.037,405.69 c 1.295,-0.472 2.703,-0.706 3.759,-0.941 1.882,-0.352 3.877,-0.586 5.876,-0.586 1.877,0.117 3.873,0.352 5.755,0.822 0.821,0.234 1.761,0.469 2.581,0.823 -2.229,-7.284 -3.756,-14.684 -4.933,-22.085 -0.352,0.119 -0.821,0.354 -1.174,0.472 -1.056,0.469 -1.995,1.056 -3.056,1.527 -2.229,1.174 -4.462,2.347 -6.692,3.757 -2.116,1.41 -4.111,2.818 -5.993,4.581 -0.821,0.823 -1.643,1.762 -2.348,2.701 -0.352,0.471 -0.703,1.176 -1.056,1.762 0.235,0.117 0.47,0.352 0.587,0.589 2.347,2.112 4.582,4.228 6.694,6.578 z"
   id="path5532"
   inkscape:connector-curvature="0"
   style="fill:#d49a26" />
	<path
   d="m 1032.768,402.986 c 3.174,1.879 6.225,3.877 9.397,5.756 2.233,1.292 4.581,2.702 6.58,4.229 -1.295,-1.645 -2.703,-3.29 -4.112,-4.815 -2.82,-2.938 -5.641,-5.874 -8.691,-8.575 -4.938,-4.463 -10.104,-8.34 -15.977,-11.513 -5.754,-3.171 -11.864,-5.754 -17.972,-8.104 -6.697,-2.584 -13.272,-5.287 -20.088,-7.519 -3.642,-1.174 -7.28,-2.349 -10.921,-3.171 -1.647,-0.47 -3.407,-0.821 -5.051,-1.173 1.173,1.525 2.229,3.053 3.285,4.463 2.352,2.936 4.699,5.872 7.402,8.573 1.995,2.115 4.111,4.112 6.341,5.991 0.235,0 0.591,0 0.825,0 0.821,0 1.643,0 2.465,0.117 1.53,0.117 3.055,0.353 4.581,0.587 2.938,0.352 5.876,0.941 8.81,1.528 5.642,1.293 11.044,2.936 16.328,5.05 5.872,2.468 11.396,5.288 16.798,8.576 z"
   id="path5534"
   inkscape:connector-curvature="0"
   style="fill:#d49a26" />
	<path
   d="m 1032.299,555.686 c 0.117,0.234 0.354,0.356 0.588,0.591 0.116,0.117 0.116,0.117 0.234,0.234 -0.118,-0.117 -0.118,-0.117 -0.118,-0.234 -0.235,-0.235 -0.47,-0.47 -0.704,-0.591 z"
   id="path5536"
   inkscape:connector-curvature="0"
   style="fill:#d49a26" />
	<path
   d="m 1053.439,487.913 c 4.701,-0.352 8.457,-4.464 9.634,-8.81 1.409,-5.168 -1.998,-11.276 -7.752,-10.807 -0.705,0 -1.409,0.117 -2.116,0.352 -4.816,-0.235 -8.103,5.639 -8.572,9.75 -0.59,5.051 3.756,9.866 8.806,9.515 z m 3.29,-16.092 v 0 c 0.117,-0.117 0.353,-0.235 0.588,-0.235 0.355,-0.354 1.06,-0.354 1.412,-0.236 0.352,0.117 0.703,0.354 0.938,0.588 0.353,0.47 0.353,0.47 0.587,1.056 0.353,0.589 0,1.176 -0.234,1.762 -0.118,0.353 -0.471,0.705 -0.822,0.939 -0.234,0.117 -0.469,0.237 -0.703,0.354 -1.413,0.353 -2.938,-0.823 -2.938,-2.232 0,-0.588 0.234,-1.058 0.47,-1.527 0.233,-0.235 0.467,-0.352 0.702,-0.469 z"
   id="path5538"
   inkscape:connector-curvature="0"
   style="fill:#351b10" />
	<path
   d="m 1309.274,541.356 c -5.284,-4.934 -11.629,-9.044 -17.971,-12.569 -2.234,-1.29 -4.581,-2.582 -7.05,-3.168 -6.223,-1.53 -12.804,-1.646 -19.027,-0.825 -11.63,1.528 -22.317,6.462 -33.244,10.456 -5.05,1.761 -10.1,3.407 -15.385,4.347 -3.173,0.587 -6.462,0.587 -9.635,0.352 -2.582,-0.117 -5.168,-0.822 -7.867,-1.057 0.352,-1.294 0.705,-2.703 0.939,-4.11 0.703,-3.057 1.056,-6.229 1.29,-9.396 0.587,-1.412 1.292,-2.821 1.882,-4.229 1.526,-3.524 2.582,-7.401 3.168,-11.16 0.709,-3.643 0.943,-7.401 0.709,-11.157 -0.121,-2.82 -0.474,-5.876 -1.412,-8.574 0.234,-2.117 0.234,-4.114 0.117,-6.228 -0.352,-5.167 -1.526,-10.572 -3.877,-15.271 -0.234,-2.701 -0.704,-5.52 -1.291,-8.103 -0.939,-4.818 -2.938,-9.516 -5.167,-13.862 -1.174,-2.231 -2.586,-4.229 -3.995,-6.226 -1.055,-1.644 -2.229,-3.17 -3.523,-4.581 -3.525,-10.335 -9.632,-19.851 -16.916,-27.837 -5.167,-5.639 -11.156,-10.807 -18.088,-14.214 -1.409,-1.41 -2.938,-2.936 -4.464,-4.229 -7.163,-6.343 -15.503,-11.159 -24.548,-13.978 -11.278,-3.524 -23.377,-3.876 -35.004,-2.701 -2.351,-9.633 -6.11,-18.795 -10.926,-27.487 -1.76,-3.171 -3.76,-6.226 -5.872,-9.162 -1.173,-1.527 -2.351,-3.053 -3.524,-4.463 -1.291,-1.293 -2.469,-2.583 -4.111,-3.288 -1.056,-0.471 -1.878,0.469 -1.409,1.409 v 0.118 c -0.821,1.527 -1.056,3.29 -1.294,5.05 -0.353,1.997 -0.587,3.994 -0.821,5.991 -0.588,3.877 -1.057,7.636 -1.291,11.511 -0.587,7.167 -0.47,14.449 0.234,21.613 0.234,1.997 0.469,4.111 0.705,6.109 -0.705,0.117 -1.409,0.469 -1.995,0.704 -1.179,0.354 -2.352,0.941 -3.524,1.411 -2.587,1.292 -5.052,2.584 -7.285,4.111 -2.347,1.525 -4.463,3.17 -6.458,5.05 -0.939,0.941 -1.765,1.879 -2.469,2.938 -0.352,0.47 -0.704,0.821 -0.939,1.291 -3.993,-3.407 -8.105,-6.578 -12.569,-9.279 -11.625,-7.047 -24.664,-11.393 -37.35,-15.857 -4.464,-1.645 -8.928,-3.055 -13.513,-4.229 -2.347,-0.589 -4.694,-1.058 -7.045,-1.41 -1.408,-0.235 -3.056,-0.353 -4.464,-0.353 -0.351,-0.352 -0.821,-0.705 -1.173,-1.056 -0.704,-0.589 -2.352,0 -1.883,1.173 0.117,0.118 0.117,0.353 0.236,0.47 -0.354,0.352 -0.354,1.175 0.234,1.41 0.117,0 0.352,0.117 0.586,0.235 1.295,2.349 2.938,4.581 4.468,6.812 2.229,2.819 4.459,5.757 6.928,8.458 4.347,4.933 9.396,9.396 14.799,13.156 10.339,7.282 22.083,12.098 33.948,16.327 1.998,0.706 3.993,1.292 5.988,1.997 -1.524,1.763 -2.347,4.112 -2.934,6.109 -0.469,1.527 -0.703,3.17 -0.821,4.698 -0.117,1.293 -0.235,2.702 0.235,3.877 -0.939,0.939 -1.883,1.88 -2.82,2.818 -3.995,3.995 -7.52,8.575 -10.22,13.508 -6.696,12.687 -7.986,27.252 -9.16,41.347 -1.061,12.805 -2.704,25.488 -5.993,37.939 -1.408,5.406 -3.287,10.81 -5.99,15.742 -2.82,5.168 -6.579,9.514 -10.808,13.508 -0.822,0.704 -0.353,1.761 0.473,2.112 0.118,1.177 0.587,2.352 1.292,3.525 0.938,1.646 2.346,2.938 3.993,4.11 3.29,2.352 7.753,3.29 11.748,3.642 8.688,0.822 17.498,-0.586 25.485,-4.11 0.825,-0.353 1.647,-0.822 2.469,-1.175 0,0.236 -0.117,0.471 -0.117,0.705 -0.469,1.761 -0.587,3.642 -0.822,5.402 -0.234,1.529 -0.234,3.173 -0.234,4.698 0.118,3.876 0.47,7.754 1.174,11.513 0.587,3.643 1.526,7.519 3.759,10.57 1.174,1.764 3.878,3.876 6.225,3.876 1.057,0.353 2.351,0.47 3.407,0.47 3.29,0.352 6.693,0.235 10.1,0.117 6.698,-0.117 13.392,-0.704 19.854,-2.465 1.291,-0.352 3.052,-0.82 4.581,-1.646 v 0.118 c 0.234,1.998 0.47,4.111 1.174,6.109 0.587,1.644 1.29,3.761 3.173,4.229 0.234,0.117 0.586,0 0.821,-0.117 0.939,0.703 1.995,1.173 3.056,1.643 3.521,1.291 7.632,1.174 11.273,0.821 8.105,-0.703 15.859,-3.289 23.612,-5.519 4.225,-1.292 8.692,-1.879 12.918,-3.408 0.355,-0.117 0.708,-0.353 0.942,-0.587 10.452,4.229 22.669,0.47 32.066,-5.167 7.519,-4.581 14.095,-10.809 19.614,-17.854 2.82,0.353 5.641,0 8.34,-0.352 3.173,-0.471 6.346,-0.939 9.4,-1.765 5.989,-1.409 11.861,-3.521 17.619,-5.754 11.509,-4.581 22.553,-10.336 34.179,-14.682 9.161,-3.408 18.562,-5.993 28.311,-6.229 5.285,-0.234 10.687,0.235 15.854,1.178 2.703,0.47 5.29,1.174 7.87,1.877 2.469,0.588 5.169,1.644 7.755,1.526 0.352,0 0.587,-0.117 0.821,-0.353 0.117,0 0.234,0 0.234,0 0.234,0 0.469,-0.117 0.587,-0.234 1.061,-0.469 1.647,-1.525 1.647,-2.699 0,-2.351 -2.35,-4.58 -3.994,-6.111 z m 0.705,5.994 v 0 0.117 0 0 0 c -0.118,0 -0.118,0.118 -0.118,0.118 0,0 0,0 0,0.117 0,0 0,0 0,0.117 0,-0.234 0,0.234 0,0.117 0,-0.117 0,-0.117 0,-0.117 v 0 0 0 0 c -0.116,-0.117 -0.116,-0.117 -0.116,-0.234 v 0 h 0.116 v 0 c 0,-0.118 0,-0.118 0,0 v 0 c 0,0 0,0 0,-0.118 h 0.118 v 0 z m -0.587,0.469 v 0 c 0.235,-0.234 0.353,-0.117 0,0 z m -107.011,-38.411 v 0 c -0.703,3.407 -1.643,6.927 -2.934,10.218 -0.703,1.646 -1.412,3.173 -2.233,4.815 -0.587,1.295 -1.408,2.703 -1.76,4.229 -0.235,0.352 -0.587,0.705 -1.057,1.178 -1.295,1.291 -2.586,2.23 -4.229,3.169 -3.643,2.116 -7.636,3.524 -11.865,4.581 -1.644,0.469 -3.29,0.825 -5.05,1.177 -1.057,0.117 -2.117,0.352 -3.174,0.471 -5.52,0.938 -11.273,1.173 -16.797,0.938 -1.644,-0.118 -3.404,-0.353 -5.05,-0.587 -1.409,-0.235 -2.821,-0.588 -4.229,-0.939 -0.821,-0.356 -1.643,-0.591 -2.465,-0.708 -0.117,-1.173 -0.234,-2.229 -0.234,-3.402 6.225,1.759 13.273,0.82 19.497,-0.592 3.407,-0.821 6.933,-1.877 10.218,-3.286 1.529,-0.586 2.938,-1.294 4.347,-1.999 0.938,-0.47 1.764,-0.821 2.586,-1.29 5.402,-2.938 10.452,-6.698 14.799,-11.045 4.581,-4.697 8.105,-9.982 10.573,-16.089 v -0.117 c 0,3.172 -0.351,6.223 -0.943,9.278 z m -55.791,34.065 v 0 c 0.469,-0.586 0.939,-1.06 1.644,-1.177 -0.588,0.352 -1.058,0.708 -1.644,1.06 z m -28.194,14.213 v 0 c 0,0 0,0 -0.117,0 -1.174,-0.235 -2.229,0.234 -3.403,0.586 -1.061,0.234 -2.116,0.352 -3.056,0.469 -1.764,0.236 -3.524,0.471 -5.285,0.705 -2.82,0.47 -5.523,0.943 -8.34,1.295 -2.938,0.234 -6.11,0.352 -8.927,-0.234 -2.586,-0.591 -4.581,-1.766 -6.345,-3.76 -0.588,-0.704 -1.526,-0.47 -1.995,0.117 -2.469,0.822 -3.525,3.643 -4.347,5.872 -0.352,0.821 -0.704,1.644 -0.938,2.352 -0.352,-1.062 -0.591,-2.117 -0.825,-3.173 -0.822,-3.525 -1.526,-7.05 -2.113,-10.692 -0.587,-3.52 -1.056,-7.162 -1.408,-10.687 -0.117,-1.761 -0.238,-3.524 -0.238,-5.285 0,-1.174 0.121,-2.703 -0.348,-3.877 0.113,-1.173 0.348,-2.352 0.469,-3.524 0.234,-0.704 0.353,-1.526 0.353,-2.347 0.352,-1.295 0.703,-2.469 0.938,-3.643 0.118,-0.938 0.353,-1.764 0.469,-2.703 2.113,-2.347 4.347,-4.814 6.342,-7.4 1.882,-2.466 3.76,-4.934 5.523,-7.515 0.939,7.87 7.397,13.858 14.447,16.797 0.234,0.117 0.469,0.234 0.704,0.352 -0.118,0.117 -0.235,0.234 -0.353,0.47 -0.352,0.822 -0.704,1.525 -0.938,2.465 -0.587,1.412 -1.173,2.938 -1.644,4.463 -0.942,2.234 -1.647,4.581 -2.82,6.697 -1.881,3.056 -3.876,6.225 -5.637,9.397 -1.413,2.585 -3.877,6.34 -1.882,9.161 1.291,1.877 3.643,2.468 5.872,2.585 0.355,0 0.708,0 1.061,0 4.111,1.409 8.926,1.058 13.038,0.354 2.934,-0.471 5.754,-1.296 8.341,-2.469 1.76,-0.705 4.697,-1.878 5.754,-3.76 0.117,0 0.117,0 0.117,0 1.761,-1.526 2.938,-3.286 4.229,-5.168 1.407,-1.995 2.698,-4.11 3.876,-6.34 1.291,-2.117 2.347,-4.347 3.289,-6.581 0.705,-1.878 1.878,-4.815 0.705,-6.693 -0.118,0 -0.118,0 -0.118,-0.117 0.235,0 0.353,0 0.47,0 0.587,1.878 2.23,3.286 3.643,4.464 0.352,0.234 0.704,0.469 1.174,0.821 -0.354,1.174 -0.47,2.464 -0.47,3.877 0.116,1.525 0.353,3.051 1.29,4.229 -2.347,1.524 -4.58,3.285 -6.814,4.933 -2.465,1.877 -4.814,3.759 -6.928,5.754 -2.585,2.35 -4.934,4.931 -6.815,7.753 z m -46.161,1.291 z m -39.114,-2.466 v 0 c -0.118,-0.117 -0.118,-0.117 -0.234,-0.234 -0.234,-0.234 -0.471,-0.356 -0.588,-0.591 0.234,0.121 0.469,0.356 0.704,0.591 2.582,-1.764 5.051,-3.642 7.52,-5.641 0.821,0.704 1.877,1.06 2.816,1.413 0.938,0.469 2.116,0.703 3.172,0.82 2.234,0.47 4.464,0.47 6.815,0.234 0.704,-0.117 1.407,-0.234 2.229,-0.469 0.117,0.469 0.353,1.056 0.47,1.525 0.352,0.704 0.703,1.525 1.173,2.116 0.118,0.117 0.353,0.352 0.474,0.47 -2.938,0.939 -5.993,1.643 -9.049,2.112 -5.167,0.823 -11.392,1.175 -15.502,-2.346 z m 59.668,-69.303 v 0 c 1.529,-4.698 2.469,-9.633 3.056,-14.565 0.469,-5.05 0.469,-10.103 0.117,-15.153 -0.234,-2.819 -0.588,-5.52 -1.174,-8.223 -0.235,-1.525 -0.47,-2.937 -0.821,-4.346 0,-0.821 -0.234,-1.643 -0.352,-2.466 -0.235,-1.643 -0.705,-3.288 -1.179,-4.933 -0.938,-3.053 -2.229,-6.108 -3.993,-8.81 -0.47,-0.821 -1.056,-1.645 -1.761,-2.466 1.761,-2.466 2.586,-5.874 3.29,-8.809 0.118,-0.235 0.118,-0.47 0.234,-0.705 3.408,3.523 6.342,7.517 8.692,11.98 2.703,5.168 4.347,10.924 5.168,16.681 0.234,1.525 0.352,3.053 0.469,4.698 0.234,4.111 -0.117,8.223 -0.704,12.332 -1.057,6.108 -2.703,12.217 -3.994,18.325 -1.76,9.045 -2.816,18.795 1.174,27.487 1.883,4.347 5.172,7.983 8.927,10.687 0.592,0.588 1.296,1.058 1.999,1.409 -5.637,-0.47 -11.277,-2.112 -15.976,-5.168 -2.347,-1.408 -4.229,-3.406 -5.755,-5.637 -1.643,-2.586 -2.351,-5.403 -2.938,-8.224 0,-0.117 -0.117,-0.234 -0.117,-0.352 1.179,-1.878 2.352,-3.759 3.056,-5.871 0.118,-0.353 0,-0.708 -0.116,-0.943 1.055,-2.23 1.876,-4.696 2.698,-6.928 z m -37.82,-73.415 v 0 c -1.408,-1.879 -2.938,-3.759 -4.464,-5.52 0.587,-0.117 1.057,-0.352 1.643,-0.469 1.647,-0.354 3.408,-0.472 5.051,-0.472 1.647,-0.117 3.408,0.118 5.054,0.354 1.526,0.234 3.052,0.821 4.582,1.056 0.703,2.232 1.525,4.464 2.347,6.695 -4.582,-1.291 -9.398,-1.761 -14.213,-1.644 z m 17.149,2.584 v 0 c -0.469,-2.114 -1.173,-4.227 -1.764,-6.343 0,-0.235 0,-0.47 -0.118,-0.587 -0.351,-2.231 -0.704,-4.463 -0.938,-6.695 -0.352,-4.581 -0.587,-9.162 -0.47,-13.743 0,-4.463 0.235,-8.926 0.704,-13.39 0.354,-3.759 0.939,-7.399 1.882,-11.159 3.878,9.044 6.342,18.558 7.75,28.191 0.825,5.285 1.295,10.689 1.647,16.091 0.117,2.819 0.234,5.52 0.352,8.34 0.117,1.291 0.117,2.701 0.117,4.111 -1.291,-0.94 -2.586,-1.879 -3.994,-2.586 -1.642,-0.819 -3.407,-1.641 -5.168,-2.23 z m 53.445,107.359 v 0 c 0.234,0 0.352,-0.117 0.587,-0.117 1.174,1.057 2.703,1.766 4.229,2 v 0 c -0.705,0.821 -0.939,1.761 -1.174,2.699 -0.234,1.177 -0.586,2.116 -0.938,3.172 -0.826,2.112 -1.882,4.111 -2.938,6.107 -1.174,1.999 -2.352,3.993 -3.525,6.109 -0.821,1.409 -1.643,2.816 -2.112,4.464 -1.061,0 -1.998,0.587 -2.82,0.939 -1.174,0.587 -2.352,1.056 -3.407,1.525 -1.409,0.586 -2.699,1.06 -4.112,1.53 -0.117,-1.062 -0.703,-2.117 -1.524,-2.821 -1.057,-0.939 -2.352,-1.174 -3.643,-0.939 -0.938,0.118 -1.878,0.47 -2.582,0.939 0,-0.353 0.113,-0.821 0.235,-1.174 0.117,-0.586 0.117,-1.177 0.234,-1.764 0,-0.47 0.117,-0.822 0.117,-1.291 0,-1.878 -0.352,-3.995 -2.352,-4.815 -1.407,-0.587 -2.703,-0.235 -3.993,0.469 0.821,-1.29 1.524,-2.586 2.233,-3.876 1.291,-2.347 2.113,-4.933 2.816,-7.398 0.47,-1.412 0.821,-2.819 1.178,-4.228 0.234,-0.709 0.353,-1.413 0.587,-2.234 0.116,-0.234 0.116,-0.47 0.116,-0.704 5.639,1.878 11.627,2.465 17.502,1.995 0.939,0 1.995,-0.117 3.057,-0.235 0.703,-0.115 1.525,-0.234 2.229,-0.352 z m -26.546,23.379 v 0 c -0.352,1.877 -1.056,3.755 -1.408,5.637 0,0.117 0,0.234 0,0.352 -1.178,-1.174 -3.29,-0.703 -4.819,-0.703 -0.704,0 -1.525,-0.117 -1.995,-0.352 -0.352,-0.119 -0.352,-0.119 -0.587,-0.354 v -0.117 c 0,-0.238 0.118,-0.356 0.118,-0.591 0.352,-0.821 0.352,-0.821 0.704,-1.524 0.352,-0.705 0.703,-1.526 1.056,-2.23 0.825,-0.825 1.647,-1.53 2.468,-2.351 0.821,-0.822 2.939,-2.938 4.229,-2.234 1.173,0.59 0.469,3.524 0.234,4.467 z m -8.81,4.346 v 0 0 c -0.116,0 -0.116,0 -0.116,0 0,0 0,0 0.116,0 z m 13.86,-0.474 v 0 c 0.469,-0.117 1.173,-0.117 1.643,0.234 0.474,0.356 0.591,0.944 0.708,1.53 -0.234,0.117 -0.355,0.117 -0.469,0.117 -1.765,0.353 -3.643,0.587 -5.523,0.704 0.938,-1.172 2.233,-2.232 3.641,-2.585 z m -38.528,-24.077 v 0 c 1.529,-1.525 2.938,-3.056 4.463,-4.581 -0.353,1.056 -0.704,1.995 -1.056,3.056 -0.939,2.698 -2.112,5.284 -3.173,7.866 -1.174,2.586 -2.347,5.05 -3.403,7.636 -0.591,1.174 -1.061,2.469 -1.529,3.643 -0.117,0.353 -0.353,0.704 -0.471,1.056 -0.234,0.235 -0.469,0.47 -0.821,0.704 -0.82,0.588 -1.764,1.061 -2.703,1.53 -1.877,0.821 -3.876,1.056 -5.871,1.056 -2.116,0 -3.76,-0.117 -5.754,-0.821 -0.353,-0.117 -0.709,-0.234 -1.178,-0.469 2.82,-2.352 5.641,-4.938 8.223,-7.52 4.58,-4.229 8.926,-8.693 13.273,-13.156 z m -5.403,28.897 v 0 c 0,-0.238 -0.116,-0.473 -0.116,-0.707 -0.235,-0.587 -0.588,-1.292 -0.822,-1.878 -0.234,-0.587 -0.352,-1.056 -0.469,-1.644 0.352,-0.238 0.82,-0.474 1.173,-0.708 0.469,-0.234 1.057,-0.704 1.525,-1.056 0.118,-0.117 0.118,-0.117 0.235,-0.117 1.411,-0.587 1.765,-1.644 2.351,-2.938 0.47,-1.292 1.056,-2.7 1.526,-3.991 0.825,-1.999 1.529,-3.994 2.232,-5.992 0.119,1.29 0.119,2.469 0.235,3.759 0.353,3.407 0.821,6.814 1.408,10.218 -0.821,0.234 -1.644,0.708 -2.464,1.177 -1.178,0.705 -2.469,1.526 -3.642,2.349 -1.056,0.585 -2.116,1.055 -3.172,1.528 z m 142.245,-67.543 v 0 c 0,0.235 0,0.352 0,0.47 -0.234,3.407 -1.056,6.697 -2.111,9.748 -1.291,3.173 -3.172,6.111 -5.051,8.928 -3.994,5.523 -9.161,10.222 -14.92,13.98 -1.057,0.705 -2.112,1.292 -3.169,1.878 -3.524,2 -7.05,3.643 -10.809,4.933 -3.642,1.295 -7.397,2.234 -11.156,2.938 -0.939,0.117 -1.765,0.234 -2.703,0.234 3.173,-0.704 6.11,-1.764 9.044,-3.055 5.871,-2.699 11.161,-6.694 15.976,-11.156 0.118,-0.117 0.235,-0.236 0.471,-0.471 1.29,-1.177 2.464,-2.35 3.759,-3.642 3.172,-3.289 6.107,-6.814 8.811,-10.456 2.112,-2.582 3.993,-5.402 5.52,-8.34 0.703,-1.409 1.291,-2.935 1.643,-4.344 1.061,-1.763 1.646,-3.76 2.233,-5.639 0.704,-2.232 1.291,-4.463 1.643,-6.813 0.118,0.471 0.235,0.94 0.235,1.41 0.584,3.054 0.82,6.227 0.584,9.397 z M 1192.28,448.21 v 0 c 1.882,4.229 3.291,8.692 4.347,13.155 1.057,4.581 1.408,9.514 0.939,14.212 -0.234,2.586 -0.822,5.169 -1.525,7.636 -0.587,2.232 -1.644,4.581 -1.644,6.933 -4.933,9.043 -11.864,17.028 -19.384,24.076 -0.47,0.471 -0.821,0.822 -1.291,1.174 -0.939,0.821 -1.764,1.648 -2.703,2.352 -3.403,2.699 -7.162,5.168 -11.156,7.046 -2.938,1.411 -6.111,2.468 -9.279,3.172 -1.765,0.353 -3.525,0.704 -5.284,1.056 -0.944,0.118 -2,0.354 -3.057,0.588 -0.821,-0.704 -1.881,-1.174 -2.703,-1.761 -0.704,-0.469 -1.407,-1.057 -1.995,-1.761 -0.116,-0.234 -0.352,-0.352 -0.469,-0.586 2.347,-0.474 4.463,-1.178 6.693,-2 6.109,-2.347 11.631,-5.871 16.681,-9.982 3.407,-2.703 6.341,-5.637 9.161,-8.927 1.408,-1.647 2.703,-3.291 3.994,-5.05 0.117,-0.119 0.234,-0.354 0.352,-0.471 4.112,-5.758 7.754,-11.747 10.571,-18.208 0.234,-0.352 0.469,-0.823 0.59,-1.293 0.353,-0.469 0.822,-1.056 1.057,-1.643 0.352,-0.824 0.586,-1.763 0.938,-2.586 0.705,-1.76 1.291,-3.757 1.76,-5.637 0.943,-3.642 1.766,-7.401 2.117,-11.159 0.469,-5.052 0,-10.103 -1.056,-15.036 0.822,1.528 1.525,3.173 2.346,4.7 z m -28.423,-42.168 v 0 c 4.463,4.229 8.34,9.045 11.743,14.095 6.579,9.985 11.278,21.613 11.513,33.593 0.118,4.347 -0.587,8.576 -1.525,12.687 -0.47,2.231 -1.178,4.463 -1.765,6.695 0,0.235 -0.117,0.352 -0.117,0.589 -0.587,1.292 -1.057,2.466 -1.644,3.758 -1.524,3.29 -3.289,6.46 -5.284,9.633 v 0.117 c -0.825,1.291 -1.646,2.702 -2.469,3.993 -0.704,1.175 -1.526,2.23 -2.229,3.408 -2.116,3.051 -4.464,6.106 -6.933,8.81 -4.346,4.815 -9.278,8.927 -14.799,12.213 -2.703,1.647 -5.522,3.055 -8.457,4.111 -2.82,1.178 -5.993,2.116 -9.161,2.116 0,0 -0.118,0 -0.234,0 2.699,-0.938 5.283,-1.999 7.866,-3.29 5.406,-2.586 10.222,-5.988 14.803,-9.983 7.753,-6.813 13.977,-15.39 18.089,-24.903 0.586,-1.527 1.173,-2.936 1.643,-4.463 0.117,-0.47 0.353,-1.056 0.47,-1.645 1.764,-5.872 2.351,-11.98 2.469,-18.089 0.117,-3.523 0.117,-7.047 -0.118,-10.572 0,-0.118 0,-0.353 0,-0.587 -0.117,-2.818 -0.47,-5.756 -1.057,-8.692 -0.117,-0.469 -0.234,-1.056 -0.355,-1.527 -1.408,-6.931 -3.99,-13.391 -7.046,-19.734 -2.703,-5.637 -5.871,-11.042 -9.514,-16.209 1.408,1.292 2.817,2.465 4.111,3.876 z m -35.473,-24.432 v 0 c 10.335,4.463 18.911,11.628 25.842,20.203 5.989,7.517 10.688,16.209 14.33,25.136 1.995,4.933 3.524,10.103 4.698,15.388 0.234,1.41 0.586,2.82 0.703,4.229 0,2.818 0,5.639 0,8.458 0,1.879 -0.117,3.759 -0.117,5.521 0,0.235 0,0.469 0,0.704 -0.352,6.813 -1.525,13.508 -4.11,19.968 -4.229,10.689 -11.865,20.202 -21.027,27.252 -8.105,6.107 -18.089,10.923 -28.071,11.861 0,0 0,0 -0.117,0 -1.766,-0.587 -3.643,-1.174 -5.285,-1.995 -2.703,-1.409 -4.933,-3.173 -6.933,-5.285 -4.111,-4.347 -6.224,-9.987 -6.693,-15.858 -0.825,-12.332 4.107,-24.197 5.637,-36.295 0.354,-2.232 0.47,-4.346 0.47,-6.578 0.118,-1.997 0,-3.994 -0.234,-5.991 -0.47,-4.698 -1.412,-9.279 -3.056,-13.625 -2.581,-7.519 -7.163,-15.27 -13.859,-19.968 0.47,-2.584 0.821,-5.052 1.056,-7.636 0.587,-7.165 0.352,-14.565 -0.469,-21.613 -0.353,-3.053 -0.821,-5.989 -1.409,-8.927 13.035,-0.94 26.544,-0.119 38.644,5.051 z m -65.427,-25.725 v 0 c 0.234,-3.759 0.704,-7.636 1.174,-11.393 0.469,-3.642 1.173,-7.167 1.408,-10.807 0,0.118 0,0.118 0.117,0.118 0.942,1.408 1.999,2.701 3.055,4.112 2,2.701 3.76,5.519 5.402,8.457 3.29,5.872 5.993,11.98 8.223,18.324 4.698,13.625 6.346,28.426 5.052,42.755 -0.236,3.172 -0.705,6.226 -1.526,9.398 -0.352,1.525 -0.939,3.053 -1.408,4.698 -0.117,-1.41 -0.235,-2.702 -0.356,-3.994 -0.113,-2.936 -0.234,-5.874 -0.47,-8.81 -0.352,-5.639 -0.821,-11.275 -1.76,-16.798 -1.643,-10.807 -4.581,-21.378 -9.278,-31.127 -0.118,-0.352 -0.236,-0.586 -0.354,-0.939 -0.586,-1.058 -2.233,-0.706 -2.468,0.353 -1.291,4.815 -2.348,9.631 -2.816,14.681 -0.353,4.583 -0.587,9.164 -0.587,13.744 0,1.646 0,3.406 0.113,5.05 -1.174,-5.402 -2.112,-10.923 -2.699,-16.443 -0.822,-7.05 -1.175,-14.214 -0.822,-21.379 z m -21.144,40.876 v 0 c 0.705,-0.939 1.526,-1.878 2.348,-2.701 1.882,-1.763 3.877,-3.171 5.993,-4.581 2.23,-1.41 4.463,-2.583 6.692,-3.757 1.061,-0.471 2,-1.058 3.056,-1.527 0.353,-0.117 0.822,-0.353 1.174,-0.472 1.177,7.401 2.703,14.801 4.933,22.085 -0.82,-0.354 -1.76,-0.589 -2.581,-0.823 -1.882,-0.47 -3.878,-0.705 -5.755,-0.822 -1.999,0 -3.994,0.235 -5.876,0.586 -1.056,0.235 -2.464,0.47 -3.759,0.941 -2.112,-2.35 -4.347,-4.466 -6.693,-6.578 -0.117,-0.237 -0.352,-0.472 -0.587,-0.589 0.351,-0.586 0.703,-1.291 1.055,-1.762 z m -65.192,-15.623 v 0 c -2.703,-2.701 -5.051,-5.637 -7.402,-8.573 -1.056,-1.411 -2.112,-2.938 -3.285,-4.463 1.644,0.352 3.403,0.704 5.051,1.173 3.641,0.822 7.279,1.997 10.921,3.171 6.815,2.231 13.391,4.935 20.088,7.519 6.107,2.349 12.218,4.933 17.972,8.104 5.872,3.172 11.039,7.05 15.977,11.513 3.051,2.701 5.871,5.637 8.691,8.575 1.409,1.525 2.817,3.17 4.112,4.815 -1.999,-1.527 -4.347,-2.938 -6.58,-4.229 -3.173,-1.879 -6.224,-3.877 -9.397,-5.756 -5.401,-3.288 -10.926,-6.108 -16.797,-8.575 -5.284,-2.115 -10.687,-3.757 -16.328,-5.05 -2.934,-0.587 -5.872,-1.176 -8.81,-1.528 -1.526,-0.234 -3.051,-0.47 -4.581,-0.587 -0.822,-0.117 -1.644,-0.117 -2.465,-0.117 -0.234,0 -0.59,0 -0.825,0 -2.231,-1.88 -4.347,-3.877 -6.342,-5.992 z m 48.745,28.074 v 0 c -5.871,-2.115 -11.746,-4.229 -17.383,-6.813 -7.871,-3.405 -15.152,-7.634 -21.849,-12.804 1.174,0.235 2.469,0.472 3.642,0.707 2.938,0.469 5.872,1.056 8.81,1.76 5.52,1.293 10.922,3.173 16.094,5.405 5.638,2.349 11.157,5.285 16.324,8.457 3.173,1.88 6.346,3.875 9.519,5.754 1.76,1.059 3.638,2.232 5.52,3.172 -0.939,0.235 -1.999,0.47 -2.938,0.822 -5.755,-2.583 -11.866,-4.345 -17.739,-6.46 z m 1.527,16.094 v 0 c 0,-1.411 0.234,-2.703 0.591,-4.112 0.235,-1.175 0.705,-2.469 1.174,-3.524 0.47,-1.056 1.056,-1.88 1.643,-2.819 0.47,0.118 0.939,0.353 1.413,0.47 2.112,0.704 4.346,1.528 6.576,2.232 -0.47,0.235 -0.939,0.469 -1.409,0.704 -1.647,0.824 -3.173,1.88 -4.581,2.938 -0.586,0.587 -1.178,1.056 -1.764,1.643 -0.117,0.118 -0.117,0.235 -0.235,0.352 -1.173,0.706 -2.23,1.646 -3.407,2.469 -10e-4,-0.118 -10e-4,-0.236 -10e-4,-0.353 z m -20.905,137.429 v 0 c -4.112,0.469 -8.34,0.587 -12.452,-0.117 -3.524,-0.587 -7.284,-1.644 -9.866,-4.347 -0.943,-1.056 -1.647,-2.352 -2.233,-3.759 1.882,-1.291 3.643,-2.817 5.167,-4.347 0.939,-0.939 1.766,-1.995 2.586,-2.934 4.934,-6.346 8.105,-14.099 10.101,-21.73 0.822,-2.938 1.526,-5.993 2.234,-9.045 0.234,-1.295 0.586,-2.703 0.821,-4.111 1.525,-8.927 2.581,-17.975 3.289,-27.017 1.057,-13.273 2.466,-26.781 8.693,-38.763 2.581,-4.698 5.637,-8.927 9.396,-12.804 3.524,-3.757 7.749,-6.93 11.392,-10.689 0.234,-0.117 0.469,-0.235 0.704,-0.469 2.115,-1.056 4.232,-1.997 6.462,-2.701 3.408,-1.176 7.05,-1.763 10.688,-1.997 0.708,0.704 1.764,0.586 2.468,0 0.471,0 0.822,0 1.291,0 4.816,0 9.749,0.821 14.33,2.583 4.233,1.528 8.105,3.877 11.16,7.167 1.644,1.643 2.82,3.522 3.877,5.52 0.587,1.058 1.056,2.115 1.408,3.29 0.118,0.118 0.118,0.235 0.234,0.353 0.592,1.879 1.061,3.757 1.53,5.637 0.234,0.94 0.469,1.762 0.704,2.703 0.118,0.469 0.47,0.938 0.704,1.291 0,0.94 0.117,1.879 0.235,2.818 0.352,2.586 0.703,5.169 0.938,7.753 0.353,4.933 0.353,9.866 0,14.801 -0.469,4.581 -1.407,9.044 -2.698,13.508 -0.587,2.232 -1.295,4.464 -2.117,6.695 -0.117,0.353 -0.234,0.704 -0.352,1.173 -0.353,0.939 -0.704,2 -1.056,2.938 -1.53,1.995 -2.821,4.111 -4.229,6.106 -1.999,2.82 -4.111,5.523 -6.345,8.223 -4.229,5.285 -8.928,9.983 -13.743,14.804 -2.815,2.815 -5.637,5.754 -8.457,8.574 -4.464,4.342 -8.927,8.571 -13.743,12.565 -1.878,1.529 -3.759,3.056 -5.871,4.58 -8.106,5.876 -17.267,10.575 -27.25,11.748 z m 63.427,28.897 v 0 c -1.644,0.471 -3.29,0.822 -4.933,1.175 -3.173,0.703 -6.458,1.056 -9.749,1.29 -3.289,0.235 -6.579,0.353 -9.865,0.353 -1.646,0 -3.173,0 -4.815,0 -1.882,0 -3.877,-0.353 -5.642,0 -0.234,-0.117 -0.469,-0.234 -0.704,-0.234 -0.117,0 -0.117,-0.118 -0.117,-0.118 v 0 h -0.117 c -0.117,0 -0.234,-0.116 -0.352,-0.234 -0.939,-0.47 -1.647,-1.525 -2.352,-2.582 -0.821,-1.412 -1.174,-2.469 -1.643,-4.11 -0.587,-1.766 -0.938,-3.643 -1.174,-5.524 -0.47,-2.935 -0.704,-6.458 -0.826,-9.748 0,-1.409 0,-2.938 0.122,-4.347 0.234,-1.644 0.47,-3.172 0.704,-4.815 0.235,-1.056 0.47,-2.347 0.235,-3.524 0.703,-0.353 1.407,-0.822 1.995,-1.174 0.469,0.939 1.056,1.761 1.881,2.352 1.174,1.173 2.817,1.877 4.581,2.347 3.759,1.174 8.223,0.938 11.392,0.587 3.642,-0.47 7.284,-1.291 10.691,-2.582 2.112,-0.708 3.876,-1.647 5.754,-2.703 1.291,-0.704 2.469,-1.526 3.643,-2.352 0.586,-0.469 1.29,-0.938 1.877,-1.407 0.47,2.468 1.057,5.05 1.647,7.518 0.469,1.761 0.939,3.525 1.525,5.286 0.235,0.938 0.587,1.877 1.056,2.82 -0.703,2.816 -1.291,5.754 -1.642,8.691 -0.236,1.057 -0.354,2.112 -0.471,3.17 0,0.234 0,0.59 -0.117,0.825 -0.234,2.815 -0.352,5.637 -0.352,8.457 -0.702,0.114 -1.645,0.348 -2.232,0.583 z m 46.869,5.286 v 0 c -1.174,0.352 -2.352,0.704 -3.643,1.056 -3.642,1.174 -7.283,2.234 -10.926,3.173 -4.107,1.174 -8.336,2.112 -12.447,2.464 -1.881,0.235 -3.759,0.352 -5.642,0.235 -1.291,-0.118 -2.934,-0.587 -4.111,-1.174 -0.704,-0.352 -1.29,-0.703 -1.878,-1.291 -0.116,-0.117 -0.352,-0.352 -0.587,-0.587 0,-0.352 -0.117,-0.586 -0.234,-0.938 -0.352,-1.765 -0.703,-3.643 -0.82,-5.406 -0.235,-4.111 -0.118,-8.224 0.352,-12.33 0.352,-3.76 1.056,-7.519 1.878,-11.161 0.586,-2.116 1.173,-4.229 1.999,-6.224 0.469,-1.061 1.056,-2.233 1.525,-3.408 0.117,-0.117 0.117,-0.234 0.234,-0.352 1.525,1.995 4.111,3.051 6.814,3.639 v 0 c 2.934,0.591 5.989,0.591 8.57,0.474 3.174,-0.235 6.463,-0.825 9.636,-1.296 1.761,-0.352 3.403,-0.587 5.167,-0.821 1.058,-0.117 2.23,-0.117 3.525,-0.352 -0.353,0.586 -0.587,1.173 -0.821,1.878 -2.585,6.462 -2.234,13.629 0.469,19.853 0.471,1.173 1.174,2.351 1.879,3.524 1.643,2.699 3.876,5.168 6.579,7.163 -2.585,0.473 -5.054,1.293 -7.518,1.881 z m 7.398,-7.754 v 0 c -3.873,-3.76 -5.988,-8.927 -6.342,-14.212 -0.234,-5.872 1.882,-11.278 5.168,-15.859 2.468,-3.407 5.642,-6.341 8.81,-9.044 3.408,-2.699 6.933,-5.52 10.574,-7.871 0.117,0 0.117,0 0.117,0 0.353,0.118 0.588,0.235 0.939,0.353 1.173,0.356 2.464,0.708 3.642,0.942 -1.178,0.821 -2.234,1.644 -3.407,2.465 -2.229,1.882 -4.464,3.76 -6.463,5.641 -4.107,3.873 -7.749,8.22 -10.218,13.273 -2.347,4.816 -3.29,9.983 -2.465,15.269 0.938,5.284 3.877,10.569 7.867,14.095 -3.05,-0.941 -5.871,-2.701 -8.222,-5.052 z m 33.83,0.704 v 0 c -5.402,3.173 -11.626,5.402 -17.854,5.524 -0.235,0 -0.47,0 -0.705,0 -5.637,-1.412 -9.514,-6.698 -11.513,-11.865 -1.994,-5.168 -1.76,-10.691 0.235,-15.859 1.998,-5.167 5.641,-9.631 9.518,-13.625 1.995,-1.994 4.111,-3.994 6.342,-5.755 0.703,-0.586 1.407,-1.056 1.999,-1.646 1.29,-0.939 2.464,-1.878 3.638,-2.817 0.234,-0.117 0.469,-0.352 0.821,-0.586 -0.114,0.234 -0.114,0.469 -0.234,0.704 1.646,0.235 3.173,0.352 4.702,0.352 3.99,0.235 8.102,0 12.095,-0.47 1.53,-0.117 3.056,-0.352 4.581,-0.586 0.943,-0.117 1.883,-0.234 2.82,-0.47 2.234,-0.355 4.347,-0.825 6.581,-1.412 4.225,-1.173 8.453,-2.699 12.096,-5.168 1.411,-0.938 2.703,-1.995 3.876,-3.172 -0.117,0.234 -0.117,0.469 -0.234,0.703 -0.47,2.234 -1.174,4.347 -1.878,6.464 -0.353,1.291 -0.821,2.585 -1.295,3.759 -1.174,3.407 -2.581,6.576 -4.111,9.748 -1.291,2.703 -2.699,5.286 -4.229,7.753 -0.118,0.236 -0.353,0.471 -0.47,0.705 -6.693,11.039 -15.62,21.143 -26.781,27.719 z m 36.533,-20.083 v 0 c -2.351,0.586 -4.702,0.938 -7.049,1.29 -1.174,0.234 -2.468,0.234 -3.642,0.352 1.643,-2.229 3.289,-4.698 4.698,-7.165 2.82,-4.464 5.284,-9.28 7.284,-14.33 0.469,-0.939 0.821,-1.761 1.173,-2.699 0.234,-0.591 0.469,-1.178 0.588,-1.765 0.351,-0.704 0.586,-1.525 0.824,-2.229 1.057,0.234 2.229,0.469 3.286,0.704 -0.938,1.174 -1.644,2.581 -2.112,3.76 0,0 0,0.117 -0.117,0.117 -0.47,1.173 -0.821,2.347 -1.178,3.521 -0.353,1.412 -0.587,2.938 -0.587,4.346 -0.116,2.586 0.234,5.172 1.057,7.519 0.474,1.175 1.06,2.352 1.765,3.29 0.234,0.471 0.586,1.057 1.056,1.525 -2.347,0.703 -4.698,1.294 -7.046,1.764 z m 13.86,-4.112 v 0 c -1.412,0.587 -2.821,1.056 -4.229,1.526 -0.47,-0.587 -1.06,-1.057 -1.53,-1.644 -0.704,-0.821 -1.173,-1.882 -1.643,-2.938 -0.822,-2.229 -1.057,-4.581 -1.057,-6.933 0.117,-1.29 0.234,-2.464 0.47,-3.756 0.234,-1.06 0.587,-1.998 0.939,-3.055 0,-0.234 0.117,-0.47 0.117,-0.587 0.352,-0.938 0.821,-1.765 1.291,-2.586 0.353,-0.586 0.708,-1.056 1.06,-1.524 1.174,0.116 2.465,0.234 3.639,0.234 3.759,0.352 7.518,0.234 11.16,-0.47 2.352,-0.47 4.581,-1.056 6.815,-1.765 -0.118,0.943 -0.118,1.765 -0.118,2.704 0.118,1.29 0.353,2.703 0.587,3.993 0.118,0.352 0.235,0.822 0.353,1.174 0.586,1.881 1.29,3.642 2.112,5.285 0.234,0.586 0.469,1.06 0.704,1.647 -6.81,3.054 -13.625,6.226 -20.67,8.695 z m 26.195,-11.277 v 0 c -1.178,0.586 -2.352,1.173 -3.524,1.646 -0.704,-1.529 -1.526,-2.938 -2.116,-4.581 -0.47,-1.061 -0.821,-2.116 -1.175,-3.173 -0.352,-1.294 -0.704,-2.586 -0.821,-3.994 0,-0.821 0,-1.646 0,-2.468 3.056,-0.939 6.107,-1.995 9.045,-3.169 7.637,-2.938 15.272,-6.228 23.256,-8.223 -0.82,1.409 -1.408,3.051 -1.643,4.698 0,0.234 0,0.352 0,0.587 -0.235,1.291 -0.235,2.703 -0.117,3.994 0,0.352 0.117,0.704 0.117,0.938 0.118,0.938 0.234,1.878 0.47,2.703 0.117,0.587 0.117,1.174 0.353,1.761 -8.107,2.352 -16.092,5.872 -23.845,9.281 z m 35.473,-11.983 v 0 c -3.056,0.474 -6.111,1.177 -9.162,1.999 0,-1.174 -0.469,-2.469 -0.703,-3.408 0,-0.586 -0.123,-1.173 -0.236,-1.759 0,-1.062 -0.121,-2.117 0,-3.174 0,-0.234 0,-0.587 0,-0.821 0.353,-1.999 1.058,-3.76 2.23,-5.402 2.229,-0.473 4.346,-0.826 6.697,-1.061 3.051,-0.234 6.224,-0.234 9.279,0 2.111,0.234 4.464,0.353 6.458,1.061 0.235,0.117 0.471,0.235 0.705,0.353 h 0.117 v 0 0 0 0 c 0.117,0 0.117,0 0.117,0 v 0 0 0 c 0.117,0.117 0.117,0.117 0.234,0.117 0.587,0.352 1.295,0.587 1.881,0.938 1.409,0.705 2.817,1.408 4.229,2.229 -1.412,0.591 -2.82,1.53 -3.995,2.586 -0.351,0.234 -0.703,0.587 -0.938,0.939 -0.704,0.704 -1.295,1.412 -1.766,2.234 -0.234,0.469 -0.469,0.82 -0.703,1.29 -0.117,0.234 -0.352,0.703 -0.47,1.056 -4.695,-0.115 -9.276,0.119 -13.974,0.823 z m 31.831,1.765 v 0 c -3.524,-0.822 -7.05,-1.53 -10.57,-2 -1.647,-0.234 -3.408,-0.352 -5.05,-0.469 0.352,-0.705 0.821,-1.408 1.291,-1.995 0.235,-0.469 0.587,-0.822 0.821,-1.174 0.704,-0.708 1.408,-1.295 2.112,-1.882 1.061,-0.821 2.234,-1.408 3.407,-1.994 2.586,1.524 5.168,3.285 7.753,5.05 0.821,0.587 1.644,1.173 2.469,1.761 v 0 c 1.761,1.294 3.286,2.703 4.815,4.228 0.117,0.235 0.235,0.353 0.353,0.47 0,0 0.117,0.235 0.234,0.235 v 0 0.116 0 c 0.117,0.118 0.352,0.354 0.47,0.592 -0.939,-0.592 -1.882,-0.943 -2.821,-1.295 -1.642,-0.587 -3.285,-1.057 -4.933,-1.526 -0.116,-10e-4 -0.234,-10e-4 -0.351,-0.117 z"
   id="path5540"
   inkscape:connector-curvature="0"
   style="fill:#351b10" />
</g>
</svg>